<svg id="Layer_1" data-name="Layer 1" xmlns="http://www.w3.org/2000/svg" xmlns:xlink="http://www.w3.org/1999/xlink" viewBox="0 0 40.97 37.61"><defs><style>.cls-1{fill:#d72500;}.cls-2{fill:url(#radial-gradient);}.cls-3{fill:url(#radial-gradient-2);}</style><radialGradient id="radial-gradient" cx="-252.72" cy="303.36" r="1" gradientTransform="matrix(15.33, 4.94, 3.78, -11.72, 2748.56, 4824.44)" gradientUnits="userSpaceOnUse"><stop offset="0.54" stop-color="#f59f1e"/><stop offset="1" stop-color="#ec4f12"/></radialGradient><radialGradient id="radial-gradient-2" cx="-250.26" cy="301.71" r="1" gradientTransform="matrix(13.73, 4.43, 3.39, -10.5, 2436.5, 4295.37)" gradientUnits="userSpaceOnUse"><stop offset="0" stop-color="#f7d25b"/><stop offset="0.43" stop-color="#fbe7a7"/><stop offset="0.82" stop-color="#fef8e6"/><stop offset="1" stop-color="#fff"/></radialGradient></defs><path class="cls-1" d="M2.76,13s7.41,2,10-.64-.62-9.64-.62-9.64,3.58,7.08,7.63,7.1S26.25,0,26.25,0s-1.71,10.43,1.19,12.5,8.29-1.78,8.29-1.78-4.42,3.86-3.46,5,8.45-.3,8.45-.3-9.58,1.67-9.12,3.36S39,21.28,39,21.28s-6.37,1.19-5.82,2.84S41,31.43,41,31.43s-7.45-4.67-11.32-3.61S28,34.37,28,34.37s-2.07-4.17-4.06-4.48-5,7.72-5,7.72.67-8.8-2-9.92-9.36,3-9.36,3,4.68-5.17,3.48-7.56S0,22.14,0,22.14,13.86,19.89,2.76,13Z"/><path class="cls-2" d="M28,19.16c.95.31,1.44.39,1.26.11-1-1.35,2.82-2.79,2.82-2.79A4.39,4.39,0,0,1,29.88,16c-.61-.5,1.35-2.21,1.35-2.21s-3.14,1.63-5.44.32-1.5-5.57-1.5-5.57S22.5,12.15,20,11.9a7,7,0,0,1-4.23-2.34c.72,2.26-1.56,4-1.56,4L18,15.19l-3.24.23s-6.21-.19-8.16-.85c0,0,2.07,1,2.22,2.33s-.05,2.89-1.52,3.48c0,0,5.54.5,6.19,1.84a4.84,4.84,0,0,1-.89,4s3.11-1,5.22,0S20.05,31,20.05,31s1.18-3.05,3-3.15S26.18,30,26.18,30s-.95-3.14,1.4-4.34S29,20.16,29,20.16Z"/><path class="cls-3" d="M16.93,22.43s.47.91-.82,1.55a4.81,4.81,0,0,1,3.39.56c1.34,1,.86,3.19.86,3.19s.94-2.91,2-2.64,2.33,2.23,2.33,2.23-1.1-2.7-.56-3.24,1.14-5.52,1.14-5.52l3.56-1.83s-1-.53-.55-1.16a5.28,5.28,0,0,1-3.43-.32c-1.71-.81-1.68-3.75-1.68-3.75s-.72,2.72-2.8,2.57-3.64-2.41-3.64-2.41.63,2.65-1.16,3a5.13,5.13,0,0,0-2.87,1.94l2,4.81Z"/></svg>