<svg width="28" height="28" viewBox="0 0 28 28" fill="none" xmlns="http://www.w3.org/2000/svg">
<path d="M27.4848 11.2937C28.0285 13.908 27.7846 16.6248 26.7841 19.1004C25.7836 21.5761 24.0714 23.6995 21.8641 25.202C19.6568 26.7046 17.0534 27.5188 14.3833 27.5417C11.7132 27.5645 9.0963 26.7951 6.86352 25.3306C4.63074 23.8662 2.88241 21.7725 1.83962 19.3143C0.796824 16.8561 0.506422 14.144 1.00514 11.5207C1.50385 8.89754 2.76928 6.48114 4.64139 4.57715C6.5135 2.67317 8.90819 1.36712 11.5226 0.824182C15.0276 0.0962949 18.6783 0.790339 21.6716 2.75368C24.665 4.71702 26.756 7.78889 27.4848 11.2937Z" fill="url(#paint0_linear)"/>
<path d="M1.24951 11.3996C1.24951 11.3996 9.51775 10.2229 17.9794 11.9386C26.4411 13.6543 27.375 14.3031 27.5352 15.2511C27.5352 15.2511 23.4641 14.0069 17.8636 13.0347C12.4495 12.0887 5.57555 11.4157 1.24951 11.3996Z" fill="url(#paint1_linear)"/>
<path d="M19.0656 3.58654C19.4273 5.32844 17.6682 7.16706 15.1365 7.69296C12.6047 8.21885 10.2573 7.23355 9.89767 5.49165C9.538 3.74975 11.294 1.91012 13.8268 1.38423C16.3595 0.858332 18.7039 1.84464 19.0656 3.58654Z" fill="url(#paint2_linear)"/>
<path d="M11.5858 3.20081C11.5858 3.20081 28.1858 8.52625 19.7463 18.8165L19.8349 18.9343C19.8349 18.9343 23.7016 15.9613 22.5359 11.4791C21.3703 6.99692 16.8135 3.90301 11.5858 3.20081Z" fill="url(#paint3_linear)"/>
<path d="M23.1304 4.36633C23.1304 4.36633 26.8953 12.6638 22.7194 21.1184C22.7194 21.1184 25.7891 17.7303 25.4153 12.1621C25.0416 6.59383 23.1304 4.36633 23.1304 4.36633Z" fill="url(#paint4_linear)"/>
<path d="M0.956909 11.7905C4.96862 11.9224 19.875 12.6105 27.6738 15.6551C27.7157 15.4462 27.7356 15.2334 27.7332 15.0204C19.8579 12.0202 5.22452 11.321 1.07579 11.1799C1.01493 11.3787 0.975088 11.5833 0.956909 11.7905Z" fill="#1D1513"/>
<path d="M7.36139 2.44128C7.12056 2.55762 6.89432 2.70201 6.6874 2.87147C9.52643 3.01856 16.1797 3.75703 19.8731 7.39296C21.624 9.11673 22.5076 11.2989 22.5005 13.879C22.5005 14.0624 22.4431 18.4005 17.0099 20.0537C14.6756 20.764 11.1555 21.6093 7.64045 21.6032C5.74441 21.5992 4.07068 21.35 2.61926 20.8557C2.72388 21.0732 2.85155 21.2789 3.00008 21.4692C6.364 22.4505 10.285 22.0949 13.5553 21.4158C14.8871 21.1388 16.1122 20.8113 17.1459 20.494C22.9156 18.737 22.9629 13.9253 22.9629 13.879C22.971 11.1709 22.0401 8.87796 20.1965 7.06453C16.6049 3.5364 10.5178 2.65587 7.36139 2.44128Z" fill="#1D1513"/>
<path d="M16.3568 27.3779C21.4656 24.2155 24.5031 20.3609 25.4058 15.9059C26.369 11.1457 24.6452 6.66952 23.0977 3.83049C22.8109 3.53449 22.4856 3.27832 22.1306 3.06885C23.7345 5.7084 26.0123 10.5956 24.9515 15.8173C24.0246 20.3912 20.7604 24.3172 15.2426 27.5038C15.6177 27.5079 15.992 27.4656 16.3568 27.3779Z" fill="#1D1513"/>
<path d="M27.292 10.496C26.5253 12.7648 25.6801 16.3836 25.806 21.0451C25.986 20.7991 26.1362 20.5326 26.2533 20.2512C26.2342 16.4783 26.8578 13.4569 27.4975 11.3604C27.4951 11.3342 27.4951 11.3079 27.4975 11.2818C27.5036 11.1055 27.4089 10.8143 27.292 10.496Z" fill="#1D1513"/>
<defs>
<linearGradient id="paint0_linear" x1="8.29596" y1="26.1447" x2="20.2414" y2="1.93211" gradientUnits="userSpaceOnUse">
<stop offset="0.1" stop-color="#562217"/>
<stop offset="0.28" stop-color="#97341E"/>
<stop offset="0.63" stop-color="#E76D39"/>
<stop offset="1" stop-color="#F6A66E"/>
</linearGradient>
<linearGradient id="paint1_linear" x1="2.17661" y1="15.861" x2="26.6084" y2="10.7836" gradientUnits="userSpaceOnUse">
<stop offset="0.04" stop-color="#852713"/>
<stop offset="1" stop-color="#E76D39"/>
</linearGradient>
<linearGradient id="paint2_linear" x1="12.7798" y1="7.98038" x2="16.1791" y2="1.09076" gradientUnits="userSpaceOnUse">
<stop offset="0.11" stop-color="#E97440"/>
<stop offset="0.65" stop-color="#F6A66E"/>
<stop offset="0.97" stop-color="#F9CDAD"/>
</linearGradient>
<linearGradient id="paint3_linear" x1="4871.05" y1="1701.79" x2="4871.05" y2="-966.3" gradientUnits="userSpaceOnUse">
<stop offset="0.04" stop-color="#852713"/>
<stop offset="1" stop-color="#E76D39"/>
</linearGradient>
<linearGradient id="paint4_linear" x1="25.0146" y1="20.6379" x2="21.6944" y2="4.66143" gradientUnits="userSpaceOnUse">
<stop stop-color="#852713"/>
<stop offset="0.63" stop-color="#E76D39"/>
<stop offset="1" stop-color="#F6A66E"/>
</linearGradient>
</defs>
</svg>
