<svg width="26" height="30" viewBox="0 0 26 30" fill="none" xmlns="http://www.w3.org/2000/svg">
<path d="M24.8195 12.9572L24.8393 12.9745L24.8171 12.9498C24.6899 12.8099 24.5532 12.6789 24.4079 12.5579V12.5333C24.1601 12.3152 23.8908 12.1228 23.6043 11.9589L23.7226 11.6976C24.4276 11.5201 24.6544 11.1824 24.7357 10.9581V10.9236L24.753 10.8694L25.4358 9.36815L25.564 9.08467C25.5962 9.03526 25.6227 8.98233 25.6429 8.92691L25.6651 8.86035V8.8431C25.8623 8.17754 25.7217 6.59252 16.5075 3.26473L16.4384 3.24008L16.3694 3.21543C7.15018 -0.085255 6.01627 1.04373 5.75744 1.68217L5.72539 1.76352C5.7035 1.82478 5.68943 1.88855 5.68349 1.95333L5.35317 3.34114L5.22006 3.83415C5.20774 3.86619 5.19541 3.89578 5.18555 3.92289C5.09928 4.16939 5.05983 4.60078 5.57503 5.23922L5.53066 5.44135C5.43205 5.4241 5.24225 5.39698 4.99081 5.37726C4.59813 5.33075 4.20097 5.33738 3.81006 5.39698C3.23002 5.48791 2.68089 5.7189 2.21026 6.06994C1.16755 6.84396 0.484732 8.18247 0.179068 10.051C0.0419715 10.8593 -0.0166402 11.6791 0.00405065 12.4987L0.0484213 13.152L0.398456 13.2703L0.66961 13.3615L0.750956 13.3911C3.11985 14.244 4.98835 17.4411 5.00807 17.4756C5.05244 17.6729 5.34085 18.6589 6.38849 17.9687C6.54858 18.1991 6.7214 18.4205 6.90615 18.6318C6.85187 18.675 6.81156 18.7333 6.79029 18.7994V18.8216V18.8487C6.779 18.8804 6.77236 18.9136 6.77057 18.9473L6.30221 20.4263V20.4559C6.28333 20.5196 6.27951 20.5868 6.29106 20.6523C6.30261 20.7177 6.32921 20.7796 6.36877 20.833C6.31523 20.8768 6.25836 20.9164 6.19868 20.9513V20.9711C5.36796 21.4641 3.70653 21.4296 2.99414 21.3926C1.80106 21.2693 1.33517 21.4813 1.13057 21.713C1.06759 21.7736 1.02095 21.849 0.994994 21.9324V21.9472V21.9768V21.9941V22.0162V22.0532L0.970344 22.1148C0.945855 22.1861 0.934984 22.2614 0.938299 22.3367L0.575938 23.7738C0.418176 24.2668 0.575939 25.7779 7.51994 28.2873C14.4639 30.7967 15.5535 29.717 15.7507 29.2289L16.4113 27.8387C16.4367 27.8041 16.4582 27.7669 16.4754 27.7277C16.5186 27.6763 16.5527 27.618 16.5765 27.5552V27.5379C16.6504 27.321 16.7047 26.9586 16.1106 26.3917L16.1303 26.4336C15.9416 26.2524 15.7379 26.0875 15.5214 25.9406C15.5214 25.9406 13.6579 24.6859 13.1821 23.5594L13.1649 23.515C13.1446 23.4626 13.1273 23.4091 13.1131 23.3548C13.4483 23.2981 13.5469 23.1551 13.5815 23.0614V23.0368L14.0301 21.93C14.2174 21.9127 14.3358 21.8659 14.3604 21.7845C14.3851 21.7032 14.3234 21.6144 14.2026 21.506L14.2199 21.4641C14.2288 21.4409 14.2354 21.417 14.2396 21.3926C14.2496 21.3463 14.2496 21.2984 14.2396 21.2521C14.4368 21.22 14.6316 21.1806 14.8214 21.1338C15.0112 21.6268 15.2947 21.7673 15.5609 21.7549C15.8077 21.7491 16.0458 21.6625 16.2388 21.5084C16.2733 21.4961 19.7514 20.2168 22.1203 21.0697L22.2017 21.0992L22.4704 21.2028L22.8155 21.3359L23.2641 20.8429C23.7898 20.2264 24.2553 19.5611 24.6544 18.8561C25.6084 17.2218 25.9337 15.7551 25.6231 14.493C25.4839 13.9234 25.2081 13.3963 24.8195 12.9572ZM22.1475 19.0533C21.4556 18.8898 20.7457 18.8152 20.0349 18.8314C19.6181 18.8348 19.2017 18.8603 18.7876 18.9078C20.5008 17.3844 21.8196 15.4026 22.7317 13.7313C22.9727 13.8557 23.1859 14.0278 23.3583 14.2371C23.5308 14.4464 23.6589 14.6886 23.7349 14.949C24.0603 16.2604 22.9437 18.0648 22.177 19.0483H22.1524L22.1475 19.0533ZM1.97608 11.8011H1.95389C1.9884 10.5538 2.27681 8.45116 3.36389 7.64756C3.8076 7.31724 4.38442 7.23097 5.10914 7.37887C4.74185 9.29174 4.48795 11.7494 4.87989 14.0813C4.06393 13.1461 3.07874 12.3733 1.97608 11.8036V11.8011Z" fill="#FFD300"/>
<path d="M6.16661 16.4132L6.71385 16.0976C6.62757 15.9399 4.72703 12.6811 1.97605 11.3771C2.01056 10.1298 2.29651 8.02465 3.38605 7.21858C3.96534 6.78967 4.76647 6.76748 5.83137 7.14956L6.48953 5.31804C4.78619 4.70671 3.35154 4.82503 2.22502 5.65575C1.18231 6.42977 0.499499 7.76829 0.193834 9.63678C0.0626725 10.4449 0.00983969 11.2638 0.0360719 12.0821L0.0607223 12.7353L0.689306 12.9449L0.770652 12.9744C3.13955 13.8273 5.00805 17.0245 5.02777 17.059C5.0746 17.2587 5.36548 18.2718 6.44763 17.5372C6.41034 17.1506 6.31563 16.7718 6.16661 16.4132Z" fill="url(#paint0_linear)"/>
<g style="mix-blend-mode:screen" opacity="0.2">
<path d="M2.43697 5.74937C1.39426 6.52339 0.696657 7.82493 0.390992 9.69343C0.254406 10.698 0.196713 11.7118 0.21844 12.7254L0.420573 12.8684L0.0705381 12.7501L0.0360273 12.087C0.00990261 11.2687 0.0627348 10.4498 0.19379 9.64166C0.499454 7.77563 1.1798 6.43712 2.22498 5.66063C3.3515 4.82499 4.78861 4.70913 6.48949 5.32292C4.93405 4.84717 3.48461 4.97042 2.43697 5.74937Z" fill="#9C9C9C"/>
</g>
<g style="mix-blend-mode:multiply" opacity="0.5">
<path d="M6.44531 17.5372C6.25087 17.6857 6.01846 17.7762 5.77482 17.7985C5.91872 17.7844 6.05474 17.7262 6.1642 17.6317C6.27366 17.5373 6.35119 17.4112 6.38615 17.2709C6.30301 16.932 6.18744 16.6018 6.04104 16.2849L6.20373 16.2085C6.11499 16.0557 4.15283 12.6786 1.30078 11.3327C1.33776 10.0435 1.63356 7.88162 2.75762 7.03858C3.35662 6.59487 4.18241 6.57269 5.28181 6.96709L5.93998 5.1405C6.11499 5.18734 6.29494 5.2465 6.47735 5.31059L5.81919 7.14211C4.75429 6.76003 3.95316 6.78222 3.37387 7.21113C2.28679 8.0172 1.99839 10.1223 1.96388 11.3696C4.72225 12.6736 6.62279 15.9398 6.70907 16.0926L6.16676 16.4057C6.31564 16.7668 6.40954 17.1482 6.44531 17.5372Z" fill="#535352"/>
</g>
<path style="mix-blend-mode:screen" opacity="0.6" d="M6.19118 17.4459C5.99675 17.5944 5.76433 17.685 5.52069 17.7072C5.66544 17.6924 5.802 17.6329 5.9115 17.5371C6.02101 17.4413 6.09806 17.3138 6.13202 17.1723C6.04803 16.8333 5.93164 16.5031 5.78445 16.1863L5.94714 16.1099C5.8584 15.9571 3.89623 12.58 1.04419 11.2341C1.08116 9.94485 1.37697 7.78302 2.50102 6.93997C3.10003 6.49627 3.92581 6.47408 5.02522 6.86849L5.67352 5.05176C5.84854 5.09859 6.02849 5.15775 6.2109 5.22184C6.1197 5.19226 6.02602 5.16515 5.93482 5.1405L5.28158 6.95969L5.09424 6.90546C4.08358 6.57761 3.31695 6.62198 2.75246 7.03857C1.6284 7.86929 1.3326 10.0435 1.29562 11.3327C4.0047 12.6096 5.90524 15.6933 6.16653 16.1592L5.89538 16.3145C6.05018 16.6747 6.1499 17.0561 6.19118 17.4459Z" fill="url(#paint1_linear)"/>
<path d="M15.0632 27.4047C14.1486 26.7096 12.2703 25.7383 8.71571 24.4467C8.69846 24.4467 8.73297 24.4467 8.71571 24.4467C8.69846 24.4467 8.73297 24.4467 8.71571 24.4467C5.15621 23.1722 3.09297 22.7211 1.94427 22.6817L0.990297 21.5798L0.534266 23.3892C0.376504 23.8822 0.534266 25.3932 7.47827 27.9026C7.49552 27.9026 7.46101 27.9026 7.47827 27.9026C7.49552 27.9026 7.46101 27.9026 7.47827 27.9026C14.4247 30.3849 15.5118 29.3324 15.709 28.8443L16.5102 27.1607L15.0632 27.4047Z" fill="url(#paint2_linear)"/>
<g style="mix-blend-mode:screen" opacity="0.4">
<path d="M3.75098 4.99019C4.469 4.92367 5.18803 5.10647 5.78709 5.50784L5.61947 5.04195C5.00277 4.93104 4.37288 4.91359 3.75098 4.99019Z" fill="#90908F"/>
</g>
<path style="mix-blend-mode:multiply" opacity="0.5" d="M5.27188 6.96711C4.47321 6.77237 3.84955 6.84879 3.3738 7.21362C2.28672 8.01968 1.99831 10.1248 1.9638 11.3721L1.99585 11.3869L1.30811 11.3376C1.34508 10.0484 1.64089 7.88657 2.76494 7.04353C3.35408 6.59736 4.1774 6.57271 5.27188 6.96711Z" fill="url(#paint3_linear)"/>
<path d="M15.7385 19.8544L15.5166 19.2628C15.6769 19.2012 19.2142 17.8922 22.1722 18.6465C22.9389 17.6605 24.0605 15.8561 23.7326 14.5423C23.5576 13.8422 22.9561 13.3097 21.8912 12.9326L22.5494 11.1011C24.2527 11.7124 25.2856 12.7157 25.6233 14.0788C25.9339 15.3385 25.6085 16.8076 24.6545 18.4419C24.2406 19.149 23.7593 19.8143 23.2174 20.4288L22.7688 20.9218L22.15 20.6753L22.0687 20.6457C19.7245 19.7952 16.2364 21.0721 16.1995 21.0845C16.0368 21.2102 15.1666 21.8043 14.7993 20.5495C15.0758 20.2721 15.3924 20.0377 15.7385 19.8544Z" fill="url(#paint4_linear)"/>
<g style="mix-blend-mode:screen" opacity="0.2">
<path d="M25.3938 14.0073C25.7044 15.2669 25.4136 16.7188 24.462 18.3506C23.9334 19.2116 23.3383 20.03 22.6823 20.7984L22.4358 20.7812L22.7809 20.9143L23.2295 20.4213C23.767 19.807 24.2441 19.1425 24.6543 18.4369C25.6083 16.8026 25.9337 15.3359 25.6231 14.0763C25.2878 12.7131 24.2525 11.7123 22.5492 11.0985C24.0479 11.7271 25.0931 12.7353 25.3938 14.0073Z" fill="#9C9C9C"/>
</g>
<g style="mix-blend-mode:multiply" opacity="0.5">
<path d="M14.7944 20.5445C14.8496 20.7828 14.9709 21.0007 15.1445 21.1731C15.0444 21.0692 14.9789 20.937 14.9568 20.7945C14.9348 20.6519 14.9573 20.5061 15.0212 20.3769C15.3015 20.1686 15.6011 19.9878 15.916 19.837L15.8396 19.6743C16.0048 19.6127 19.6678 18.2594 22.7244 19.0383C23.5157 18.0227 24.6718 16.1567 24.3366 14.8009C24.1566 14.0787 23.5354 13.5339 22.436 13.1395L23.0942 11.3129C22.9299 11.2373 22.7557 11.1675 22.5716 11.1034L21.9135 12.9349C22.9783 13.317 23.5823 13.8445 23.7548 14.5446C24.0802 15.856 22.9586 17.6653 22.1895 18.6513C19.2315 17.8995 15.6818 19.2084 15.5339 19.2701L15.7558 19.8592C15.4025 20.0376 15.0783 20.2687 14.7944 20.5445Z" fill="#535352"/>
</g>
<path style="mix-blend-mode:screen" opacity="0.6" d="M15.0605 20.6235C15.1135 20.8662 15.235 21.0886 15.4106 21.2644C15.3088 21.1617 15.2412 21.0302 15.2169 20.8877C15.1927 20.7452 15.213 20.5987 15.275 20.4682C15.5553 20.26 15.8549 20.0792 16.1698 19.9283L16.0934 19.7656C16.2586 19.704 19.9216 18.3507 22.9782 19.1297C23.7695 18.1141 24.9256 16.248 24.5904 14.8923C24.408 14.1676 23.7892 13.6252 22.6824 13.2284L23.3406 11.4018C23.1763 11.3262 23.0021 11.2564 22.818 11.1923C22.9092 11.2268 22.9955 11.2662 23.0818 11.3032L22.4359 13.1273L22.6134 13.2037C23.5994 13.5932 24.1639 14.1158 24.3389 14.7986C24.6766 16.1544 23.5205 18.0204 22.7268 19.036C19.8353 18.2965 16.3991 19.4723 15.8962 19.6523L16.0047 19.9431C15.6578 20.1215 15.3395 20.3508 15.0605 20.6235Z" fill="url(#paint5_linear)"/>
<g style="mix-blend-mode:screen" opacity="0.4">
<path d="M24.8737 12.5848C24.3625 12.0753 23.6913 11.7575 22.9731 11.6851L23.3996 11.4386C23.9456 11.7446 24.4426 12.131 24.8737 12.5848Z" fill="#90908F"/>
</g>
<path style="mix-blend-mode:multiply" opacity="0.5" d="M22.436 13.1396C23.1756 13.4971 23.6069 13.9556 23.7499 14.5299C24.0778 15.8561 22.9586 17.6655 22.1895 18.6515H22.155L22.7171 19.0508C23.5083 18.0352 24.6644 16.1692 24.3292 14.8134C24.1616 14.0788 23.5379 13.5365 22.436 13.1396Z" fill="url(#paint6_linear)"/>
<g opacity="0.4">
<path style="mix-blend-mode:multiply" opacity="0.4" d="M15.6694 19.8518C15.3235 20.0335 15.0069 20.2661 14.7302 20.542C15.0975 21.7967 15.9627 21.2026 16.1304 21.0769C16.7302 20.8696 17.3438 20.7049 17.9668 20.5839C18.8836 19.9708 19.7178 19.2426 20.4491 18.4171C18.7454 18.403 17.0525 18.6884 15.4476 19.2602L15.6694 19.8518Z" fill="url(#paint7_linear)"/>
<path style="mix-blend-mode:multiply" opacity="0.4" d="M22.5173 11.0294L21.8591 12.8609C22.6652 13.1518 23.205 13.5216 23.4959 13.9899C23.8706 13.3046 24.1837 12.6662 24.4376 12.119C23.8731 11.6362 23.2212 11.2663 22.5173 11.0294Z" fill="url(#paint8_linear)"/>
</g>
<g style="mix-blend-mode:multiply" opacity="0.7">
<path d="M12.6962 23.1722C12.7867 22.8909 11.4091 22.1963 9.61931 21.6206C7.82951 21.0449 6.30527 20.8062 6.21481 21.0875C6.12436 21.3687 7.50194 22.0634 9.29173 22.639C11.0815 23.2147 12.6058 23.4534 12.6962 23.1722Z" fill="#686868"/>
</g>
<g style="mix-blend-mode:multiply" opacity="0.7">
<path d="M12.6904 23.1919C12.7808 22.9107 11.4032 22.216 9.61345 21.6404C7.82365 21.0647 6.29941 20.826 6.20895 21.1072C6.1185 21.3885 7.49608 22.0831 9.28587 22.6588C11.0757 23.2345 12.5999 23.4732 12.6904 23.1919Z" fill="#686868"/>
</g>
<g style="mix-blend-mode:screen">
<g style="mix-blend-mode:screen">
<path style="mix-blend-mode:screen" d="M8.38621 22.3049C8.38621 22.3049 8.36703 22.2994 8.38621 22.3049V22.3049Z" fill="url(#paint9_linear)"/>
</g>
</g>
<path d="M14.1954 21.0376L13.6777 20.9711C13.2734 20.6358 12.1987 20.7245 10.4091 20.0615H10.3844H10.3598C8.55535 19.391 7.70245 18.898 7.1774 18.898L6.81997 18.3877L6.30724 20.0171L6.29492 20.0491C6.21357 20.2759 6.23822 20.9908 9.58574 22.2036H9.61039H9.63504C12.9875 23.4016 13.4608 22.8642 13.5446 22.6374V22.6029L14.1954 21.0376Z" fill="url(#paint10_linear)"/>
<g style="mix-blend-mode:screen" opacity="0.3">
<path d="M13.5618 22.6202V22.6547C13.5199 22.7681 13.3818 22.9579 12.8223 22.9702C12.2627 22.9825 11.3186 22.8174 9.64239 22.2307L9.59062 22.2135C6.24311 21.0031 6.21846 20.2858 6.2998 20.059L6.31213 20.027L6.82485 18.3976L6.39101 19.7731L6.37868 19.8051C6.29734 20.0319 6.32199 20.7468 9.6695 21.9596L9.72127 21.9768C11.3975 22.5758 12.3539 22.741 12.9012 22.7163C13.4484 22.6917 13.5889 22.5142 13.6407 22.4008V22.3663L14.183 21.0253L13.5618 22.6202Z" fill="#808080"/>
</g>
<path d="M14.1879 21.0351C14.2693 20.8083 14.3703 20.2241 10.8059 18.9373H10.7812H10.7566C7.18723 17.6605 6.89389 18.1732 6.81254 18.4C6.7312 18.6267 6.81254 19.3663 10.1675 20.5766H10.1921H10.2168C13.5618 21.7746 14.1066 21.2619 14.1879 21.0351Z" fill="url(#paint11_linear)"/>
<g style="mix-blend-mode:screen" opacity="0.7">
<path d="M14.1707 21.0819C14.2594 20.8354 13.9242 21.4911 10.3499 20.2019L10.4239 19.9973C10.4239 19.9973 10.7985 18.8979 10.7887 18.8979H10.764L10.3154 20.1304C6.74849 18.8609 6.8816 18.183 6.79286 18.4295C6.70412 18.676 6.77067 19.4772 10.1108 20.6875H10.1354H10.1601C13.5224 21.9027 14.082 21.3309 14.1707 21.0819Z" fill="#D8D8D8"/>
</g>
<path d="M24.2748 10.0041L15.2429 6.75761L15.0901 6.70338L6.05577 3.45447C6.05577 3.45447 1.1257 16.9505 10.1822 20.3547L10.2586 20.3819L10.3351 20.409C19.4779 23.5445 24.2748 10.0041 24.2748 10.0041Z" fill="url(#paint12_radial)"/>
<path style="mix-blend-mode:multiply" d="M24.2624 10.046L15.2281 6.79704L15.0752 6.74281L6.04088 3.4939C6.04088 3.4939 1.11081 16.99 10.1673 20.3942L10.2438 20.4213L10.3202 20.4484C19.4605 23.5815 24.2624 10.046 24.2624 10.046Z" fill="url(#paint13_linear)"/>
<path style="mix-blend-mode:multiply" d="M24.2675 9.99908L15.2332 6.75017L15.0803 6.69594L6.04844 3.44702C6.04844 3.44702 1.11837 16.9431 10.1749 20.3473L10.2513 20.3744L10.3277 20.4015C19.4779 23.537 24.2675 9.99908 24.2675 9.99908Z" fill="url(#paint14_linear)"/>
<path style="mix-blend-mode:screen" opacity="0.7" d="M8.31888 18.3186C3.99768 13.6227 7.69523 3.4668 7.69523 3.4668L9.52675 4.12496C9.52675 4.12496 6.39123 12.7353 8.31888 18.3186Z" fill="url(#paint15_linear)"/>
<path style="mix-blend-mode:screen" opacity="0.5" d="M13.3523 20.1304C19.6751 19.2602 23.2913 9.07469 23.2913 9.07469L21.4499 8.41406C21.4499 8.41406 18.3859 17.0589 13.3523 20.1304Z" fill="url(#paint16_linear)"/>
<path style="mix-blend-mode:multiply" d="M24.514 9.55783C24.199 10.3352 23.8385 11.0932 23.4343 11.8281C23.2272 11.8626 20.7597 12.6909 13.8798 10.2185L13.7418 10.1692C8.51592 8.27847 6.39106 6.45188 5.45435 5.44368C5.60803 4.62345 5.80886 3.81275 6.05581 3.01562L6.34669 3.42729C7.35633 3.46122 8.35912 3.60672 9.33677 3.86113C11.3731 4.36341 13.3795 4.97982 15.3465 5.70744L15.4846 5.75674C17.4648 6.44835 19.4045 7.25075 21.2947 8.16015C22.2105 8.58818 23.0761 9.11646 23.8755 9.73531L24.514 9.55783Z" fill="url(#paint17_linear)"/>
<path style="mix-blend-mode:screen" d="M10.2538 20.4287H10.2316L10.1552 20.4016C1.10852 16.99 6.02873 3.4939 6.02873 3.4939L7.80848 4.13481C6.88656 7.20624 4.59161 16.7213 10.2538 20.4287Z" fill="url(#paint18_linear)"/>
<path d="M25.7192 8.43141L24.0972 8.87758C23.0052 7.97045 20.6683 6.70095 15.8048 4.93352L15.7358 4.90887L15.6668 4.88422C10.8008 3.14145 8.19031 2.63611 6.77045 2.63858L5.80909 1.27295L5.23227 3.41999C5.21994 3.45204 5.20762 3.48162 5.19776 3.50874C4.97837 4.12006 5.04493 6.05265 14.0719 9.32129L14.1409 9.34594L14.2099 9.37059C23.2566 12.6047 24.5384 11.1577 24.7603 10.5439C24.7603 10.5168 24.78 10.4848 24.7899 10.4527L25.7192 8.43141Z" fill="url(#paint19_linear)"/>
<path d="M25.6899 8.51517C25.9093 7.90384 26.1829 6.32868 16.5693 2.84559L16.5003 2.82094L16.4312 2.79629C6.80035 -0.65476 6.00661 0.735519 5.78476 1.34685C5.5629 1.95818 5.80448 3.95239 14.8388 7.22102L14.9078 7.24567L14.9769 7.27033C24.0161 10.5168 25.4705 9.12896 25.6899 8.51517Z" fill="url(#paint20_linear)"/>
<path style="mix-blend-mode:screen" d="M24.9479 8.13371C25.2621 7.26002 21.4386 5.08509 16.4078 3.27588C11.377 1.46667 7.04401 0.708283 6.72981 1.58198C6.4156 2.45567 10.2391 4.6306 15.2699 6.43981C20.3007 8.24902 24.6337 9.00741 24.9479 8.13371Z" fill="url(#paint21_linear)"/>
<path d="M24.9713 8.07294C25.25 7.29789 21.3977 5.20293 16.367 3.39372C11.3362 1.58451 7.03195 0.746154 6.75322 1.52121C6.47449 2.29626 10.3268 4.39122 15.3576 6.20043C20.3884 8.00964 24.6926 8.84799 24.9713 8.07294Z" fill="url(#paint22_linear)"/>
<path style="mix-blend-mode:multiply" opacity="0.5" d="M6.68694 1.4751C6.50207 1.99275 8.15117 3.09462 10.7616 4.30988C11.4519 3.44712 13.5816 3.12174 17.0845 3.96724C18.3446 4.27557 19.5805 4.67598 20.782 5.16525C19.4879 4.56625 17.9595 3.93273 16.3055 3.34606C11.2694 1.53919 6.96549 0.701075 6.68694 1.4751Z" fill="url(#paint23_linear)"/>
<path style="mix-blend-mode:screen" opacity="0.7" d="M8.82166 7.08794C8.25004 6.80206 7.69307 6.48779 7.15283 6.1463C7.28841 5.31558 7.45357 4.54896 7.61626 3.88586C8.17338 4.24516 8.74939 4.57431 9.34178 4.87188C9.15198 5.53251 8.97696 6.28188 8.82166 7.08794Z" fill="url(#paint24_linear)"/>
<path style="mix-blend-mode:screen" opacity="0.3" d="M20.1165 11.1009C20.7525 11.2299 21.3952 11.3237 22.0416 11.3819C22.4656 10.6547 22.8305 9.94233 23.1263 9.32853C22.4646 9.28529 21.8061 9.20298 21.1542 9.08203C20.8609 9.68596 20.5109 10.3811 20.1165 11.1009Z" fill="url(#paint25_linear)"/>
<path style="mix-blend-mode:screen" opacity="0.4" d="M24.7972 10.4551C24.7972 10.4871 24.7775 10.5167 24.7677 10.5463C24.5483 11.1576 23.2665 12.6046 14.2173 9.37291L14.0793 9.32361C5.04493 6.05497 4.97838 4.12485 5.20516 3.51105C5.20516 3.48394 5.22734 3.45436 5.23967 3.42231L5.81649 1.27527L5.83621 1.30238L5.3432 3.13637C5.33088 3.16841 5.31855 3.198 5.30869 3.22511C5.0893 3.83644 5.15586 5.76903 14.1828 9.03766L14.3209 9.08696C18.8442 10.704 21.4275 11.1502 22.9066 11.1157C24.3856 11.0812 24.7603 10.566 24.8786 10.2603C24.8786 10.2332 24.8983 10.2012 24.9082 10.1691L25.697 8.44359H25.729L24.7972 10.4551Z" fill="url(#paint26_linear)"/>
<path style="mix-blend-mode:multiply" d="M10.7024 12.3113L13.059 11.1256L14.432 11.6186L12.2455 17.51L10.9341 17.0392L12.2628 13.1494L11.2077 13.5956L10.7024 12.3113Z" fill="url(#paint27_linear)"/>
<path style="mix-blend-mode:screen" opacity="0.5" d="M10.9342 17.0393L12.2456 17.5101L12.1864 17.6777L10.875 17.2119L10.9342 17.0393Z" fill="url(#paint28_linear)"/>
<g style="mix-blend-mode:overlay">
<g style="mix-blend-mode:overlay">
<path d="M7.46313 27.9027C7.46313 27.9027 7.4727 27.9051 7.46313 27.9027V27.9027Z" fill="#FFD300"/>
</g>
<g style="mix-blend-mode:overlay">
<path d="M7.46324 27.9025C7.46324 27.9025 7.45367 27.8977 7.46324 27.9025V27.9025Z" fill="#FFD300"/>
</g>
<g style="mix-blend-mode:overlay">
<path d="M24.8195 12.5406L24.8393 12.5579L24.8171 12.5332C24.6899 12.3933 24.5532 12.2623 24.4079 12.1413V12.1166C24.1601 11.8986 23.8908 11.7061 23.6043 11.5423L23.7226 11.281C24.4276 11.1035 24.6544 10.7658 24.7357 10.5415V10.507L24.753 10.4527L25.4358 8.95152L25.564 8.66805C25.5962 8.61864 25.6227 8.56571 25.6429 8.51028L25.6651 8.44373V8.42647C25.8623 7.76091 25.7217 6.1759 16.5075 2.8481L16.4384 2.82345L16.3694 2.7988C7.15018 -0.501881 6.01627 0.627105 5.75744 1.26555L5.72539 1.34689C5.7035 1.40815 5.68943 1.47192 5.68349 1.5367L5.35317 2.92452L5.22006 3.41752C5.20774 3.44957 5.19541 3.47915 5.18555 3.50626C5.09928 3.75277 5.05983 4.18415 5.57503 4.82259L5.53066 5.02473C5.43205 5.00747 5.24225 4.98035 4.99081 4.96063C4.59813 4.91412 4.20097 4.92076 3.81006 4.98036C3.23002 5.07129 2.68089 5.30228 2.21026 5.65331C1.16755 6.42733 0.484732 7.76584 0.179068 9.63434C0.0419715 10.4427 -0.0166402 11.2625 0.00405065 12.0821L0.0484213 12.7354L0.398456 12.8537L0.66961 12.9449L0.750956 12.9745C3.11985 13.8274 4.98835 17.0245 5.00807 17.059C5.05244 17.2562 5.34085 18.2422 6.38849 17.552C6.54858 17.7825 6.7214 18.0039 6.90615 18.2151C6.85187 18.2584 6.81156 18.3167 6.79029 18.3827V18.4049V18.432C6.779 18.4638 6.77236 18.497 6.77057 18.5306L6.30221 20.0097V20.0392C6.28333 20.103 6.27951 20.1702 6.29106 20.2357C6.30261 20.3011 6.32921 20.363 6.36877 20.4164C6.31523 20.4602 6.25836 20.4998 6.19868 20.5347V20.5544C5.36796 21.0474 3.70653 21.0129 2.99414 20.976C1.80106 20.8527 1.33517 21.0647 1.13057 21.2964C1.06759 21.3569 1.02095 21.4324 0.994994 21.5158V21.5306V21.5602V21.5774V21.5996V21.6366L0.970344 21.6982C0.945855 21.7695 0.934984 21.8448 0.938299 21.9201L0.575938 23.3572C0.418176 23.8502 0.575939 25.3613 7.51994 27.8707C14.4639 30.3801 15.5535 29.3004 15.7507 28.8123L16.4113 27.422C16.4367 27.3875 16.4582 27.3503 16.4754 27.3111C16.5186 27.2597 16.5527 27.2013 16.5765 27.1385V27.1213C16.6504 26.9044 16.7047 26.542 16.1106 25.975L16.1303 26.017C15.9416 25.8358 15.7379 25.6709 15.5214 25.5239C15.5214 25.5239 13.6579 24.2692 13.1821 23.1427L13.1649 23.0984C13.1446 23.046 13.1273 22.9925 13.1131 22.9381C13.4483 22.8814 13.5469 22.7385 13.5815 22.6448V22.6201L14.0301 21.5133C14.2174 21.4961 14.3358 21.4492 14.3604 21.3679C14.3851 21.2866 14.3234 21.1978 14.2026 21.0894L14.2199 21.0474C14.2288 21.0243 14.2354 21.0004 14.2396 20.976C14.2496 20.9297 14.2496 20.8818 14.2396 20.8355C14.4368 20.8034 14.6316 20.764 14.8214 20.7171C15.0112 21.2101 15.2947 21.3506 15.5609 21.3383C15.8077 21.3325 16.0458 21.2459 16.2388 21.0918C16.2733 21.0795 19.7514 19.8001 22.1203 20.653L22.2017 20.6826L22.4704 20.7862L22.8155 20.9193L23.2641 20.4263C23.7898 19.8098 24.2553 19.1445 24.6544 18.4394C25.6084 16.8051 25.9337 15.3384 25.6231 14.0763C25.4839 13.5068 25.2081 12.9797 24.8195 12.5406ZM22.1475 18.6366C21.4556 18.4732 20.7457 18.3986 20.0349 18.4148C19.6181 18.4182 19.2017 18.4437 18.7876 18.4912C20.5008 16.9678 21.8196 14.9859 22.7317 13.3146C22.9727 13.439 23.1859 13.6111 23.3583 13.8205C23.5308 14.0298 23.6589 14.272 23.7349 14.5324C24.0603 15.8438 22.9437 17.6482 22.177 18.6317H22.1524L22.1475 18.6366ZM1.97608 11.3845H1.95389C1.9884 10.1372 2.27681 8.03453 3.36389 7.23093C3.8076 6.90062 4.38442 6.81434 5.10914 6.96224C4.74185 8.87511 4.48795 11.3327 4.87989 13.6647C4.06393 12.7294 3.07874 11.9567 1.97608 11.387V11.3845Z" fill="#FFD300"/>
</g>
<g style="mix-blend-mode:overlay">
<path d="M24.8369 12.5577L24.8615 12.5823L24.8369 12.5577Z" fill="#FFD300"/>
</g>
<g style="mix-blend-mode:overlay">
<path d="M7.48315 27.9421C7.48315 27.9421 7.49272 27.9469 7.48315 27.9421V27.9421Z" fill="#FFD300"/>
</g>
<g style="mix-blend-mode:overlay">
<path d="M7.48277 27.9421C7.48277 27.9421 7.4732 27.9397 7.48277 27.9421V27.9421Z" fill="#FFD300"/>
</g>
</g>
<defs>
<linearGradient id="paint0_linear" x1="0.544636" y1="5.9066" x2="9.90935" y2="16.6698" gradientUnits="userSpaceOnUse">
<stop stop-color="#515150"/>
<stop offset="0.06" stop-color="#565655"/>
<stop offset="0.13" stop-color="#656564"/>
<stop offset="0.21" stop-color="#7D7D7C"/>
<stop offset="0.26" stop-color="#929291"/>
<stop offset="0.58" stop-color="#5A5A59"/>
<stop offset="0.77" stop-color="#3D3D3D"/>
<stop offset="1" stop-color="#616161"/>
</linearGradient>
<linearGradient id="paint1_linear" x1="6.3721" y1="5.94488" x2="3.79236" y2="13.1222" gradientUnits="userSpaceOnUse">
<stop stop-color="#929291"/>
<stop offset="0.66" stop-color="#929291"/>
<stop offset="0.8" stop-color="#7D7D7D"/>
<stop offset="1" stop-color="#616161"/>
</linearGradient>
<linearGradient id="paint2_linear" x1="0.349677" y1="23.3499" x2="15.8734" y2="28.9296" gradientUnits="userSpaceOnUse">
<stop stop-color="#515150"/>
<stop offset="0.06" stop-color="#565655"/>
<stop offset="0.13" stop-color="#656564"/>
<stop offset="0.21" stop-color="#7D7D7C"/>
<stop offset="0.26" stop-color="#929291"/>
<stop offset="0.28" stop-color="#8B8B8A"/>
<stop offset="0.56" stop-color="#434342"/>
<stop offset="0.69" stop-color="#262626"/>
<stop offset="1" stop-color="#616161"/>
</linearGradient>
<linearGradient id="paint3_linear" x1="4.0427" y1="6.43564" x2="2.00669" y2="11.5609" gradientUnits="userSpaceOnUse">
<stop stop-color="#303030"/>
<stop offset="0.56" stop-color="#4C4C4C"/>
<stop offset="1" stop-color="#303030"/>
</linearGradient>
<linearGradient id="paint4_linear" x1="-18319.2" y1="-5151.48" x2="-18930.3" y2="-5033.08" gradientUnits="userSpaceOnUse">
<stop stop-color="#515150"/>
<stop offset="0.06" stop-color="#565655"/>
<stop offset="0.13" stop-color="#656564"/>
<stop offset="0.21" stop-color="#7D7D7C"/>
<stop offset="0.26" stop-color="#929291"/>
<stop offset="0.58" stop-color="#5A5A59"/>
<stop offset="0.77" stop-color="#3D3D3D"/>
<stop offset="1" stop-color="#616161"/>
</linearGradient>
<linearGradient id="paint5_linear" x1="-16233.6" y1="-4504.63" x2="-16339.6" y2="-4211.69" gradientUnits="userSpaceOnUse">
<stop stop-color="#929291"/>
<stop offset="0.66" stop-color="#929291"/>
<stop offset="0.8" stop-color="#7D7D7D"/>
<stop offset="1" stop-color="#616161"/>
</linearGradient>
<linearGradient id="paint6_linear" x1="-3610.85" y1="-476.417" x2="-3644.55" y2="-348.988" gradientUnits="userSpaceOnUse">
<stop stop-color="#303030"/>
<stop offset="0.56" stop-color="#4C4C4C"/>
<stop offset="1" stop-color="#303030"/>
</linearGradient>
<linearGradient id="paint7_linear" x1="19.0594" y1="21.1582" x2="16.7227" y2="18.71" gradientUnits="userSpaceOnUse">
<stop stop-color="#929291"/>
<stop offset="0.63" stop-color="#5A5A59"/>
<stop offset="1" stop-color="#3D3D3D"/>
</linearGradient>
<linearGradient id="paint8_linear" x1="-364.105" y1="419.342" x2="-397.375" y2="404.854" gradientUnits="userSpaceOnUse">
<stop stop-color="#929291"/>
<stop offset="0.63" stop-color="#5A5A59"/>
<stop offset="1" stop-color="#3D3D3D"/>
</linearGradient>
<linearGradient id="paint9_linear" x1="6.6285" y1="22.764" x2="6.62893" y2="22.764" gradientUnits="userSpaceOnUse">
<stop stop-color="#CFCFCF"/>
<stop offset="0.25" stop-color="#E2E2E2"/>
<stop offset="1" stop-color="#CFCFCF"/>
</linearGradient>
<linearGradient id="paint10_linear" x1="-1707.87" y1="849.633" x2="-1455.94" y2="849.633" gradientUnits="userSpaceOnUse">
<stop stop-color="#515150"/>
<stop offset="0.06" stop-color="#565655"/>
<stop offset="0.13" stop-color="#656564"/>
<stop offset="0.21" stop-color="#7D7D7C"/>
<stop offset="0.26" stop-color="#929291"/>
<stop offset="0.29" stop-color="#8B8B8A"/>
<stop offset="0.61" stop-color="#434342"/>
<stop offset="0.76" stop-color="#262626"/>
<stop offset="1" stop-color="#616161"/>
</linearGradient>
<linearGradient id="paint11_linear" x1="6.79483" y1="18.4265" x2="14.1739" y2="21.0787" gradientUnits="userSpaceOnUse">
<stop stop-color="#AFAFAF"/>
<stop offset="0.6" stop-color="#7E7E7E"/>
<stop offset="1" stop-color="#616161"/>
</linearGradient>
<radialGradient id="paint12_radial" cx="0" cy="0" r="1" gradientUnits="userSpaceOnUse" gradientTransform="translate(-3878.82 2288.48) scale(920.033 819.704)">
<stop stop-color="white"/>
<stop offset="1" stop-color="white"/>
</radialGradient>
<linearGradient id="paint13_linear" x1="-4580.85" y1="545.075" x2="-4248.77" y2="1580.83" gradientUnits="userSpaceOnUse">
<stop stop-color="#CFCFCF"/>
<stop offset="1" stop-color="#555555"/>
</linearGradient>
<linearGradient id="paint14_linear" x1="3.835" y1="10.366" x2="21.2957" y2="16.642" gradientUnits="userSpaceOnUse">
<stop stop-color="#CFCFCF"/>
<stop offset="0.47" stop-color="#FFF5F5"/>
<stop offset="0.82" stop-color="white"/>
<stop offset="1" stop-color="#CFCFCF"/>
</linearGradient>
<linearGradient id="paint15_linear" x1="5.68334" y1="10.6899" x2="8.823" y2="10.9697" gradientUnits="userSpaceOnUse">
<stop stop-color="#999999"/>
<stop offset="1" stop-color="#929292"/>
</linearGradient>
<linearGradient id="paint16_linear" x1="-13104.5" y1="-2912.14" x2="-13212.7" y2="-2980.94" gradientUnits="userSpaceOnUse">
<stop stop-color="#999999"/>
<stop offset="1" stop-color="#929292"/>
</linearGradient>
<linearGradient id="paint17_linear" x1="5.45925" y1="4.67369" x2="23.8896" y2="11.2981" gradientUnits="userSpaceOnUse">
<stop stop-color="#4C4C4C"/>
<stop offset="0.69" stop-color="#262626"/>
<stop offset="1" stop-color="#4C4C4C"/>
</linearGradient>
<linearGradient id="paint18_linear" x1="3.99169" y1="11.1035" x2="5.95878" y2="11.5119" gradientUnits="userSpaceOnUse">
<stop stop-color="#CFCFCF"/>
<stop offset="1" stop-color="#4C4C4C"/>
</linearGradient>
<linearGradient id="paint19_linear" x1="-5010.24" y1="1240.46" x2="-3244.22" y2="1240.46" gradientUnits="userSpaceOnUse">
<stop stop-color="#515150"/>
<stop offset="0.06" stop-color="#565655"/>
<stop offset="0.13" stop-color="#656564"/>
<stop offset="0.21" stop-color="#7D7D7C"/>
<stop offset="0.26" stop-color="#929291"/>
<stop offset="0.29" stop-color="#8B8B8A"/>
<stop offset="0.61" stop-color="#434342"/>
<stop offset="0.76" stop-color="#262626"/>
<stop offset="1" stop-color="#616161"/>
</linearGradient>
<linearGradient id="paint20_linear" x1="-4043.22" y1="1091.02" x2="-4033.71" y2="917.683" gradientUnits="userSpaceOnUse">
<stop stop-color="#AFAFAF"/>
<stop offset="0.6" stop-color="#7E7E7E"/>
<stop offset="1" stop-color="#616161"/>
</linearGradient>
<linearGradient id="paint21_linear" x1="-1406.15" y1="1778.34" x2="-1157.59" y2="1867.73" gradientUnits="userSpaceOnUse">
<stop offset="0.12" stop-color="#262626"/>
<stop offset="0.44" stop-color="#AAAAAA"/>
<stop offset="0.49" stop-color="#A5A5A5"/>
<stop offset="0.55" stop-color="#969696"/>
<stop offset="0.62" stop-color="#7D7D7D"/>
<stop offset="0.69" stop-color="#5B5B5B"/>
<stop offset="0.76" stop-color="#303030"/>
<stop offset="0.78" stop-color="#262626"/>
<stop offset="1" stop-color="#616161"/>
</linearGradient>
<linearGradient id="paint22_linear" x1="6.74858" y1="1.51954" x2="24.9713" y2="8.07294" gradientUnits="userSpaceOnUse">
<stop offset="0.12" stop-color="#262626"/>
<stop offset="0.44" stop-color="#515150"/>
<stop offset="0.54" stop-color="#4C4C4B"/>
<stop offset="0.66" stop-color="#3D3D3D"/>
<stop offset="0.78" stop-color="#262626"/>
<stop offset="1" stop-color="#616161"/>
</linearGradient>
<linearGradient id="paint23_linear" x1="13.9271" y1="2.13276" x2="13.3713" y2="5.47184" gradientUnits="userSpaceOnUse">
<stop stop-color="#AAAAAA"/>
<stop offset="0.14" stop-color="#A5A5A5"/>
<stop offset="0.31" stop-color="#969696"/>
<stop offset="0.5" stop-color="#7E7E7E"/>
<stop offset="0.66" stop-color="#616161"/>
</linearGradient>
<linearGradient id="paint24_linear" x1="6.79838" y1="5.36463" x2="9.14907" y2="5.57302" gradientUnits="userSpaceOnUse">
<stop stop-color="#AFAFAF"/>
<stop offset="1" stop-color="#929292"/>
</linearGradient>
<linearGradient id="paint25_linear" x1="-3929.3" y1="-1131.23" x2="-3951.11" y2="-1148.77" gradientUnits="userSpaceOnUse">
<stop stop-color="#AFAFAF"/>
<stop offset="1" stop-color="#929292"/>
</linearGradient>
<linearGradient id="paint26_linear" x1="-5011.45" y1="1240.24" x2="-3245" y2="1240.24" gradientUnits="userSpaceOnUse">
<stop offset="0.12" stop-color="#262626"/>
<stop offset="0.44" stop-color="#AAAAAA"/>
<stop offset="0.49" stop-color="#A5A5A5"/>
<stop offset="0.55" stop-color="#969696"/>
<stop offset="0.62" stop-color="#7D7D7D"/>
<stop offset="0.69" stop-color="#5B5B5B"/>
<stop offset="0.76" stop-color="#303030"/>
<stop offset="0.78" stop-color="#262626"/>
<stop offset="1" stop-color="#616161"/>
</linearGradient>
<linearGradient id="paint27_linear" x1="12.5487" y1="12.053" x2="11.7319" y2="15.9872" gradientUnits="userSpaceOnUse">
<stop stop-color="#525252"/>
<stop offset="1" stop-color="#3D3D3D"/>
</linearGradient>
<linearGradient id="paint28_linear" x1="-266.663" y1="123.136" x2="-259.221" y2="123.136" gradientUnits="userSpaceOnUse">
<stop stop-color="#808080"/>
<stop offset="0.27" stop-color="#8D8D8D"/>
<stop offset="1" stop-color="#AFAFAF"/>
</linearGradient>
</defs>
</svg>
