<svg width="100" height="100" viewBox="0 0 100 100" fill="none" xmlns="http://www.w3.org/2000/svg">
<path fill-rule="evenodd" clip-rule="evenodd" d="M15.5033 3H84.1214C85.5041 3 86.6251 4.24556 86.6251 5.7816V95.2188C86.6251 96.7548 85.5041 98 84.1214 98H15.5033C14.121 98 13 96.7548 13 95.2184V5.7816C13 4.24592 14.1206 3 15.5033 3ZM30.1643 82.3937H52.0649C58.6367 82.3351 63.596 80.7363 66.9434 77.5967C70.2909 74.4567 71.9648 69.7621 71.9648 63.5116C71.9648 60.0651 71.2112 57.1445 69.7042 54.7496C68.1973 52.3547 66.0357 50.7192 63.2193 49.8431C65.7147 48.7329 67.6045 47.0102 68.8888 44.6734C70.1735 42.3367 70.8158 39.5185 70.8158 36.218C70.8158 30.4936 69.0062 26.1271 65.3869 23.119C61.7676 20.1108 56.4874 18.6067 49.5454 18.6067H30.1636L30.1643 82.3937ZM43.1714 55.2753H52.2875C56.7588 55.3047 58.9947 57.9768 58.9947 63.2926C58.9947 65.5999 58.3649 67.3887 57.1049 68.6591C55.8447 69.9298 54.0415 70.5649 51.6943 70.5649H43.1714V55.2753ZM43.1714 45.1991V30.4789H49.545C52.4606 30.4789 54.5725 31.0706 55.882 32.2533C57.1911 33.4361 57.846 35.371 57.846 38.0582C57.846 40.3946 57.2407 42.1615 56.0303 43.3589C54.8196 44.5567 52.7938 45.17 49.9529 45.1991H43.1714Z" fill="white"/>
</svg>
