<svg width="89" height="100" viewBox="0 0 89 100" fill="none" xmlns="http://www.w3.org/2000/svg">
<path fill-rule="evenodd" clip-rule="evenodd" d="M84.7096 38.6554C81.8939 25.7899 73.0392 14.7714 61.8757 8.03532C53.1116 3.00131 42.7903 1.29018 32.804 2.25899C21.8308 3.30022 11.4822 8.63298 3.86792 16.5187C2.45554 17.8407 1.51401 19.8867 2.26541 21.8062C3.11651 24.9569 7.81541 26.2063 9.84347 23.4631C15.837 17.0349 23.913 12.535 32.6772 11.4486C42.727 10.2353 53.2837 12.4084 61.3508 18.7189C71.9527 26.7134 78.1728 40.1582 76.5883 53.4492C75.7916 64.1237 69.7074 73.7933 61.3778 80.2848C53.338 86.532 42.7903 88.9494 32.7768 87.6094C24.8547 86.6406 17.3762 82.9376 11.6994 77.3514C10.1151 76.0477 8.77513 73.6938 6.37575 74.2188C2.73626 74.427 0.907257 79.3251 3.38814 81.9144C9.92497 89.0127 18.68 94.282 28.2228 96.0748C39.6124 98.148 51.8623 96.8624 61.9754 90.9412C69.8613 86.0702 76.6154 79.2256 80.916 70.9775C85.9771 61.0997 87.0364 49.4293 84.7096 38.6554Z" fill="white"/>
<path fill-rule="evenodd" clip-rule="evenodd" d="M33.7276 24.5126C33.2932 20.0582 25.8869 19.5149 25.018 23.9967C24.5652 30.1893 24.8913 36.4366 24.8457 42.6569C24.7372 45.0195 26.6205 47.4463 29.0649 47.4826C33.7276 47.5364 38.4176 47.102 43.062 47.6363C46.747 48.5328 49.6626 51.8103 50.4141 55.4949C51.4191 60.0682 48.8206 65.0922 44.5198 66.9029C39.2596 67.7 33.8817 67.2016 28.5942 67.7639C27.1454 67.9352 25.7692 68.877 25.2352 70.2619C23.7775 72.9781 26.195 76.7173 29.2369 76.5917C33.7004 76.7001 38.1731 76.8441 42.6459 76.7446C49.3003 76.5184 55.3213 72.1541 58.4175 66.3869C60.4641 62.4574 60.7262 57.8126 60.0293 53.4943C58.5895 46.0158 52.0891 39.6778 44.4749 38.7636C40.8258 38.1661 37.1861 39.1076 33.7729 40.3388C33.7908 35.0696 33.9901 29.7822 33.7276 24.5126Z" fill="white"/>
<path fill-rule="evenodd" clip-rule="evenodd" d="M30.1422 61.7875C33.1661 63.6707 37.4938 60.692 37.0411 57.2346C36.8781 53.6753 32.2513 51.657 29.4811 53.8746C26.7559 55.7758 27.1544 60.357 30.1418 61.7875" fill="white"/>
</svg>
