<svg width="100" height="100" viewBox="0 0 100 100" fill="none" xmlns="http://www.w3.org/2000/svg">
<path d="M52.1915 7.31348C60.8961 11.9906 65.1401 20.0889 67.8251 28.8801C70.7699 38.5374 71.8526 48.5412 68.9077 58.5016C65.3999 70.3676 60.7661 81.6273 51.4119 90.2885C49.723 91.8476 48.4238 93.883 46.9081 95.7018C46.1286 95.8751 46.042 95.2688 45.8687 94.7491C45.8254 94.3593 45.912 93.9696 46.042 93.5798C48.9435 90.5051 50.849 86.6941 53.534 83.4894C54.6599 84.0524 55.4827 83.8792 55.8292 82.58C58.341 78.8556 60.2898 74.8281 62.3685 70.844C68.6479 58.0253 68.9943 44.7302 65.8763 31.0887C65.3566 26.9746 62.8015 23.7699 61.0693 20.1322C60.5929 18.833 59.6835 17.7503 59.1205 16.4944C59.3803 17.2306 59.0772 17.5771 58.4276 17.707C56.2623 16.4078 54.8765 14.1126 52.5812 12.9866C51.0655 12.2504 49.3765 10.9945 48.2506 13.5496C48.2506 14.2858 48.597 15.4118 47.6443 15.585C44.3963 16.148 45.5656 18.27 45.8254 20.1322C46.0853 21.3881 46.3884 22.6439 46.9947 23.8132C48.164 26.3683 49.6797 28.7068 50.8923 31.2186C56.3922 42.305 57.4748 53.7812 54.4001 65.7771C52.4513 73.399 49.2033 80.5446 46.475 87.9067C45.6955 89.9421 45.2624 92.1074 44.7861 94.2294C44.353 95.1822 44.6995 96.4813 43.4436 97.2609C42.7507 96.3514 43.0538 95.3987 43.1837 94.4459C43.3137 89.1626 45.6522 84.5288 47.6443 79.8084C50.5458 72.8794 52.9277 65.8204 53.8804 58.3284C55.1363 48.0215 52.7978 38.4508 47.7742 29.443C46.9081 27.9273 46.1286 26.3683 45.4357 24.766C43.3137 19.9156 43.357 15.1519 46.3451 10.6048C47.038 10.2583 46.3451 9.17565 47.2112 8.91581C47.4278 8.91581 47.6876 8.95912 47.9041 9.00243C49.4632 8.95912 50.849 8.1796 52.1915 7.31348Z" fill="white"/>
<path d="M52.1914 7.31232C51.3252 9.47764 49.463 9.69417 47.471 9.52095C47.904 8.43829 48.6835 7.70208 49.8961 7.44224C45.6954 1.85572 39.9789 -0.00645708 35.3452 2.59193C31.1444 4.97378 29.8886 8.13514 31.4909 12.2926C30.0618 8.26506 31.4043 4.93047 35.2152 2.98168C40.1089 0.51322 45.1757 2.02894 47.2544 6.4895C47.6442 7.35563 48.2072 8.22176 47.341 9.13119C46.9946 9.65087 46.6048 10.1705 46.2584 10.6469C46.3017 6.74934 44.8293 4.36749 41.8411 3.58797C38.5065 2.67854 34.5223 4.41079 32.8767 7.35563C32.0106 8.91466 32.1838 10.3438 33.1798 11.7296C33.6995 12.4225 34.9987 13.0288 33.6995 14.0248C32.5736 14.8909 31.361 14.5878 30.4949 13.5051C28.7193 11.2965 28.6327 8.87135 29.672 6.35958C32.4869 -0.612747 42.4907 -2.21508 48.3804 3.37144C49.7229 4.62733 50.9355 5.96982 52.1914 7.31232Z" fill="white"/>
<path d="M43.097 94.4875C43.1836 95.2237 43.2703 95.9599 43.3569 96.8261C44.0498 95.8733 43.3569 94.7473 44.1364 94.0544C45.1757 94.6174 44.5261 95.6568 44.7427 96.6095C44.8293 95.4403 45.0891 94.6174 46.345 94.5741C46.3883 95.0072 46.4749 95.4836 46.9513 95.7001C46.5615 96.6528 46.2151 97.6056 45.7387 98.515C45.3923 99.1646 45.0891 100.117 44.1364 99.9874C43.1403 99.8575 42.8372 98.9048 42.7939 98.0386C42.7073 96.8261 42.4907 95.6135 43.097 94.4875Z" fill="white"/>
<path d="M46.3018 94.574C45.6955 95.3535 45.0892 96.0898 44.2664 97.1291C44.2231 95.8732 44.1798 94.9638 44.1365 94.0544C45.0026 87.645 48.2939 82.1018 50.3726 76.1255C53.1442 68.2437 55.7426 60.362 55.3095 51.7873C54.8765 43.2993 52.7544 35.3742 48.2939 28.0987C47.4711 26.7562 46.6049 25.457 46.3451 23.8547C46.0853 22.1657 45.0459 20.4768 46.6482 18.9178C47.0813 18.7878 47.7742 19.0477 47.8608 18.9611C49.2899 17.1855 49.6797 18.528 50.1561 19.654C50.3293 20.1303 50.5025 20.65 50.719 21.1264C50.8057 21.2996 50.849 21.4295 50.8923 21.6028C51.0655 21.3429 50.8923 21.0831 50.8923 20.8232C50.8923 19.9138 50.6324 19.1343 50.286 18.3115C49.3765 15.9729 50.4592 14.6304 52.971 14.847C54.53 14.9769 55.5261 15.9296 56.219 17.1855C56.8252 18.3548 57.3882 19.5241 57.8646 20.7366C58.3843 21.9925 58.6441 23.3783 60.3764 23.7681C61.1126 23.9413 61.3724 24.894 61.6323 25.6736C65.3566 36.4569 66.6558 47.5 64.4472 58.8029C64.2739 59.7557 64.144 60.7084 64.4905 61.6179C64.8369 65.732 62.8448 69.1965 61.2858 72.7909C60.896 73.657 60.4197 74.5232 60.0299 75.3893C59.2071 77.1649 58.2544 77.2082 56.8686 75.7791C54.2269 82.2317 50.3726 87.9915 46.4317 93.7512C46.3884 94.011 46.3451 94.2709 46.3018 94.574Z" fill="white"/>
<path d="M64.1875 62.0948C63.6245 61.4885 63.0615 61.0121 63.4079 59.8861C65.1835 53.9965 65.0536 47.8037 64.7504 41.8274C64.5339 37.1936 63.1048 32.5165 61.5891 28.0126C60.2033 23.8119 56.2191 21.0836 55.1797 16.7097C55.0931 16.4065 54.7467 16.19 54.4435 15.9735C53.2309 15.1506 51.8451 15.1506 50.8058 15.9735C49.853 16.753 50.7192 17.7057 51.1955 18.4419C51.8018 19.308 51.5853 20.3041 51.5853 21.2135C49.7664 19.9143 49.42 17.7057 48.5539 15.8435C48.1641 15.0207 47.9476 14.068 47.4712 13.2452C48.2074 11.2964 49.5499 10.9066 51.3688 11.6428C54.3136 12.8554 56.5222 14.9774 58.4277 17.4892C59.3805 18.312 60.4631 18.9616 61.5891 19.6112C63.278 23.2056 66.1362 26.3237 66.3528 30.5677C67.4354 35.3314 67.9118 40.1384 68.1283 45.032C67.2622 47.284 66.8724 49.5359 66.7858 52.0477C66.6992 54.9059 65.9197 57.8074 65.7898 60.7523C65.7032 61.5318 65.2268 62.268 64.1875 62.0948Z" fill="white"/>
<path d="M64.1872 62.0936C64.4903 61.7905 65.0966 61.4441 65.0533 61.1842C64.6202 57.6331 66.2226 54.2985 66.006 50.7041C65.8761 48.8419 65.9194 46.6333 67.8249 45.2908C68.3446 49.3616 67.8682 53.3891 67.0454 57.3733C66.0926 62.2236 64.5336 66.944 62.6281 71.4911C60.9392 75.5186 58.8605 79.3729 56.2621 82.924C55.0062 83.0106 55.5259 81.8847 55.2227 81.365C55.0495 82.3177 54.6165 83.0973 53.7503 83.6169C51.7149 87.2547 49.6795 90.8924 46.4749 93.664C48.3803 90.1995 50.1992 86.6917 52.4078 83.4004C54.0535 80.9752 55.0495 78.1603 56.3054 75.4753C56.6086 74.869 56.7818 74.2194 57.2581 73.7431C57.518 73.9163 57.6912 74.0029 57.7345 74.0895C58.1676 74.7824 56.6952 75.995 58.081 76.2548C58.9471 76.4281 59.2502 75.2155 59.6833 74.3927C61.8053 70.5384 63.4943 66.5109 64.1872 62.0936Z" fill="white"/>
<path d="M47.3843 9.13042C47.0379 5.18954 44.3529 2.8943 41.408 2.50454C37.9868 2.07148 34.8255 2.98091 32.5735 5.83913C30.9279 7.91784 31.0578 10.4296 32.9633 13.3744C31.4909 13.591 30.9712 12.8981 30.5381 11.7288C29.5421 9.08711 30.0185 6.66195 31.794 4.66986C34.2625 1.89825 37.3805 0.209301 41.2781 0.988816C45.1324 1.72502 47.1245 3.11083 51.3252 7.91784C49.7229 7.96114 48.5536 8.65405 47.4709 9.56348C47.4709 9.39025 47.4276 9.26034 47.3843 9.13042Z" fill="white"/>
<path d="M62.585 71.5356C63.6243 66.8152 65.6597 62.398 66.3959 57.6343C67.0455 53.5635 67.6085 49.4494 67.7384 45.3353C67.3487 41.3944 67.392 37.3669 66.5258 33.4693C66.3093 32.5166 66.2227 31.6071 66.266 30.6111C67.7817 33.9024 67.9116 37.5401 68.2148 41.0046C69.1675 51.4848 67.7384 61.6618 62.9747 71.1459C62.8881 71.3191 62.7149 71.4057 62.585 71.5356Z" fill="white"/>
<path d="M47.4278 13.2898C49.5931 15.5417 50.1128 18.6165 51.5419 21.2149C51.5419 21.8212 51.5419 22.3841 51.5419 23.3802C49.9828 21.8212 49.5498 20.1755 48.9435 17.8803C48.4238 19.0495 49.2466 19.8724 48.597 20.392C47.5577 20.5653 48.0341 19.3094 47.4278 19.0495C46.9514 18.7031 46.6049 18.27 46.2585 17.707C45.6089 18.4866 46.1286 19.6125 45.2624 20.1322C44.353 19.0062 44.8294 17.6637 44.7861 16.4079C44.7428 15.6716 45.0459 15.0221 46.042 15.2386C48.3805 15.8882 47.5144 14.3291 47.4278 13.2898Z" fill="white"/>
<path d="M45.2625 20.1731C45.2625 19.9132 45.2625 19.6534 45.3058 19.3936C45.4791 18.3109 44.6996 16.5353 45.7389 16.3621C47.168 16.1456 46.8649 18.0944 47.4279 19.0904C45.1759 20.2597 46.8649 22.2951 46.3452 23.8541C45.5224 22.7281 45.3492 21.4723 45.2625 20.1731Z" fill="white"/>
<path d="M53.707 83.6618C54.27 82.276 54.8763 80.8902 55.6125 79.158C56.6086 80.6304 54.9629 82.0162 56.2188 82.9689C55.6991 83.7917 55.2227 84.6579 54.7031 85.4807C53.8803 84.961 54.4432 83.965 53.707 83.6618Z" fill="white"/>
<path d="M61.5454 19.6101C59.9864 19.6967 58.6439 19.3936 58.384 17.4881C58.6439 17.055 58.947 16.6653 59.2935 16.1023C60.2029 17.2283 61.0257 18.3542 61.5454 19.6101Z" fill="white"/>
<path d="M55.959 64.8231C58.5141 54.5595 57.3449 44.599 54.5732 34.6819C55.6559 35.3315 56.0457 36.2409 56.2622 37.237C56.5653 38.4495 56.522 38.4495 57.9944 38.8826C58.211 38.9692 58.3842 39.359 58.4708 39.6621C60.2897 48.1502 59.7267 56.465 56.7819 64.6066C56.7819 64.6499 56.6086 64.6499 55.959 64.8231Z" fill="white"/>
</svg>
