<svg width="29" height="29" viewBox="0 0 29 29" fill="none" xmlns="http://www.w3.org/2000/svg">
<g clip-path="url(#clip0_606_15340)">
<path d="M28.5073 12.0684C28.5039 12.746 28.3698 13.4166 28.1123 14.0434C27.8518 14.6733 27.4701 15.2459 26.9888 15.7286C26.4991 16.2074 25.9207 16.586 25.286 16.8434C24.6576 17.1055 23.9832 17.2397 23.3023 17.2383H7.46782C6.53766 17.2403 5.6164 17.0573 4.75752 16.7002C3.89865 16.3431 3.11928 15.8189 2.46468 15.1581C1.81281 14.5055 1.29589 13.7309 0.943474 12.8784C0.591056 12.026 0.410043 11.1125 0.410769 10.1901C0.4135 9.26792 0.59784 8.35533 0.953264 7.50442C1.30869 6.65351 1.82823 5.88094 2.48224 5.23083C3.79306 3.91215 5.57338 3.16719 7.43271 3.15935C8.02423 3.15856 8.61367 3.22929 9.1882 3.37001C9.97632 2.47659 10.9458 1.76143 12.0321 1.2722C13.1187 0.780561 14.2977 0.526216 15.4904 0.526123C17.3763 0.528426 19.2066 1.16532 20.6866 2.33427C22.1698 3.49885 23.2129 5.13312 23.6446 6.96875C24.9414 7.06127 26.1551 7.64145 27.0415 8.59258C27.949 9.52619 28.4722 10.7669 28.5073 12.0684Z" fill="url(#paint0_linear_606_15340)"/>
<path d="M28.5073 12.9462C28.5064 14.3194 27.9602 15.6359 26.9888 16.6064C26.0163 17.5738 24.7003 18.1166 23.3286 18.1162H7.46782C6.53766 18.1181 5.6164 17.9351 4.75752 17.578C3.89865 17.2209 3.11928 16.6967 2.46468 16.0359C1.81281 15.3833 1.29589 14.6087 0.943474 13.7562C0.591056 12.9038 0.410043 11.9903 0.410769 11.0679C0.4135 10.1457 0.59784 9.23314 0.953264 8.38223C1.30869 7.53132 1.82823 6.75875 2.48224 6.10863C3.79306 4.78996 5.57338 4.045 7.43271 4.03716C8.02423 4.03637 8.61367 4.1071 9.1882 4.24782C9.97632 3.3544 10.9458 2.63924 12.0321 2.15001C13.1187 1.65837 14.2977 1.40402 15.4904 1.40393C17.3763 1.40623 19.2066 2.04313 20.6866 3.21208C22.172 4.37841 23.2154 6.01624 23.6446 7.85534C24.9404 7.94468 26.1542 8.52179 27.0415 9.47039C27.949 10.404 28.4722 11.6447 28.5073 12.9462Z" fill="url(#paint1_linear_606_15340)"/>
<path d="M20.3443 20.767H8.60888L7.87158 21.9695H21.0377L20.3443 20.767Z" fill="url(#paint2_linear_606_15340)"/>
<path d="M16.5086 5.65222H12.5412L11.7952 6.52996H17.2459L16.5086 5.65222Z" fill="url(#paint3_linear_606_15340)"/>
<path d="M17.2196 21.9694V6.50354H11.7688V21.9694H7.90674L14.4986 28.5524L21.0817 21.9694H17.2196Z" fill="url(#paint4_linear_606_15340)"/>
</g>
<defs>
<linearGradient id="paint0_linear_606_15340" x1="10.496" y1="16.6327" x2="21.3449" y2="0.894775" gradientUnits="userSpaceOnUse">
<stop stop-color="#CE5800"/>
<stop offset="0.22" stop-color="#942200"/>
<stop offset="0.28" stop-color="#CC4500"/>
<stop offset="0.41" stop-color="#892D00"/>
<stop offset="0.6" stop-color="#892D00"/>
<stop offset="0.73" stop-color="#CC4500"/>
<stop offset="0.82" stop-color="#863400"/>
<stop offset="1" stop-color="#B54800"/>
</linearGradient>
<linearGradient id="paint1_linear_606_15340" x1="9.51296" y1="20.3807" x2="19.8177" y2="2.52744" gradientUnits="userSpaceOnUse">
<stop stop-color="#F9C133"/>
<stop offset="1" stop-color="#FFF03B"/>
</linearGradient>
<linearGradient id="paint2_linear_606_15340" x1="14.4985" y1="21.9695" x2="14.4985" y2="20.767" gradientUnits="userSpaceOnUse">
<stop stop-color="#4A0303"/>
<stop offset="1" stop-color="#C80808"/>
</linearGradient>
<linearGradient id="paint3_linear_606_15340" x1="14.4986" y1="6.50363" x2="14.4986" y2="5.65222" gradientUnits="userSpaceOnUse">
<stop stop-color="#C80808"/>
<stop offset="1" stop-color="#4A0303"/>
</linearGradient>
<linearGradient id="paint4_linear_606_15340" x1="14.4986" y1="7.42517" x2="14.4986" y2="25.7524" gradientUnits="userSpaceOnUse">
<stop stop-color="#4A0303"/>
<stop offset="1" stop-color="#C80808"/>
</linearGradient>
<clipPath id="clip0_606_15340">
<rect width="28.0614" height="28" fill="white" transform="translate(0.445923 0.55249)"/>
</clipPath>
</defs>
</svg>
