<svg id="Layer_1" data-name="Layer 1" xmlns="http://www.w3.org/2000/svg" xmlns:xlink="http://www.w3.org/1999/xlink" viewBox="0 0 20.7 23.43"><defs><style>.cls-1{fill:#650e00;}.cls-2{fill:url(#linear-gradient);}.cls-3{opacity:0.3;isolation:isolate;fill:url(#linear-gradient-2);}.cls-4{fill:#af1900;}.cls-5{fill:url(#linear-gradient-3);}.cls-6{fill:url(#linear-gradient-4);}.cls-7{fill:url(#linear-gradient-5);}.cls-8{fill:url(#linear-gradient-6);}.cls-9{fill:url(#linear-gradient-7);}.cls-10{fill:url(#linear-gradient-8);}.cls-11{fill:url(#linear-gradient-9);}.cls-12{fill:url(#linear-gradient-10);}.cls-13{fill:#d72500;}.cls-14{fill:#ffe202;}.cls-15{opacity:0.5;}.cls-16{fill:#fff;}</style><linearGradient id="linear-gradient" x1="123.1" y1="-774.94" x2="365.3" y2="-2486.47" gradientTransform="matrix(1, 0, 0, -1, 0, 25.28)" gradientUnits="userSpaceOnUse"><stop offset="0" stop-color="#b7b7b7"/><stop offset="1" stop-color="#777"/></linearGradient><linearGradient id="linear-gradient-2" x1="124.27" y1="171.27" x2="-853.36" y2="-1237.03" gradientTransform="matrix(1, 0, 0, -1, 0, 25.28)" gradientUnits="userSpaceOnUse"><stop offset="0" stop-color="#999898"/><stop offset="0.19" stop-color="#999898"/><stop offset="0.55" stop-color="#00004a"/><stop offset="1" stop-color="#999898"/></linearGradient><linearGradient id="linear-gradient-3" x1="92.62" y1="-218.61" x2="192.53" y2="-471.25" gradientTransform="matrix(1, 0, 0, -1, 0, 25.28)" gradientUnits="userSpaceOnUse"><stop offset="0" stop-color="#ddd"/><stop offset="1" stop-color="#a9a8a8"/></linearGradient><linearGradient id="linear-gradient-4" x1="94.14" y1="-181.73" x2="200.5" y2="-401.97" xlink:href="#linear-gradient-3"/><linearGradient id="linear-gradient-5" x1="89.34" y1="-136.41" x2="176.82" y2="-317.93" xlink:href="#linear-gradient-3"/><linearGradient id="linear-gradient-6" x1="130.96" y1="-299.05" x2="269.69" y2="-655.16" xlink:href="#linear-gradient-3"/><linearGradient id="linear-gradient-7" x1="162.56" y1="-284.99" x2="330.64" y2="-631.82" xlink:href="#linear-gradient-3"/><linearGradient id="linear-gradient-8" x1="81.6" y1="-183.05" x2="156.39" y2="-419.34" xlink:href="#linear-gradient-3"/><linearGradient id="linear-gradient-9" x1="51.4" y1="-152.9" x2="105.78" y2="-343.26" xlink:href="#linear-gradient-3"/><linearGradient id="linear-gradient-10" x1="99.62" y1="-180.06" x2="205.12" y2="-410.31" xlink:href="#linear-gradient-3"/></defs><path class="cls-1" d="M16.76,2.31c-3.27-.34-7.5,2-10.62,6.26s-4.21,9.1-3.08,12.31l-.25.85,2.3,1.42C8.4,25.53,14,23.4,17.94,18s4.44-11.6,1.37-14.29L17.78,2.09Z" transform="translate(-0.61 -0.69)"/><path class="cls-2" d="M17.84,2.12l1.53,1.62a5.66,5.66,0,0,1,1.28,1.78L18.5,3.25l-2.39,2,5.18,4.23a15.21,15.21,0,0,1-1.95,6.29l-2.43-1.94-2.66,3.61,2.49,2a15.07,15.07,0,0,1-5.35,4L7,19.83l-2,2.67,2.46,1.56a4.84,4.84,0,0,1-2.36-.89L2.87,21.76l.26-.84C2,17.71,3.06,12.84,6.2,8.61S13.53,2,16.79,2.34Z" transform="translate(-0.61 -0.69)"/><path class="cls-3" d="M16.68,16.94c-3.87,5.31-9.51,7.32-12.92,5.29,3.43,1.45,8.54-.87,12.1-5.74,4-5.46,4.54-12.06,1.2-14.74a5.56,5.56,0,0,0-.58-.41,4.58,4.58,0,0,1,1.2.71C21,4.73,20.83,11.23,16.68,16.94Z" transform="translate(-0.61 -0.69)"/><path class="cls-4" d="M17.48,1.83c3.38,2.7,2.84,9.34-1.21,14.84S6.2,24.43,2.83,21.73,0,12.39,4,6.89,14.1-.88,17.48,1.83Z" transform="translate(-0.61 -0.69)"/><path class="cls-5" d="M4.34,18.48l-2,2.84a6,6,0,0,0,.46.42,5.23,5.23,0,0,0,2.65,1.09l.64-3.31A3.34,3.34,0,0,1,4.34,18.48Z" transform="translate(-0.61 -0.69)"/><path class="cls-6" d="M3.34,14.42l-2.68,1a9.81,9.81,0,0,0,.19,3L3.43,16.6A7.23,7.23,0,0,1,3.34,14.42Z" transform="translate(-0.61 -0.69)"/><path class="cls-7" d="M13.75.72a8.27,8.27,0,0,0-2.1.38l-.26,2.95a5.64,5.64,0,0,1,1.36-.26Z" transform="translate(-0.61 -0.69)"/><path class="cls-8" d="M10.11,18.74l-.29,3.35a15.67,15.67,0,0,0,5.27-3.92l-1.68-2.11A11.86,11.86,0,0,1,10.11,18.74Z" transform="translate(-0.61 -0.69)"/><path class="cls-9" d="M16.71,9.31a12.14,12.14,0,0,1-1.48,4.19l2.46,1a15.91,15.91,0,0,0,2-6.32Z" transform="translate(-0.61 -0.69)"/><path class="cls-10" d="M16.07,5.34,19,3.8a5.5,5.5,0,0,0-1.52-2A4.26,4.26,0,0,0,17,1.5L14.87,4.2a3.33,3.33,0,0,1,1.2,1.13Z" transform="translate(-0.61 -0.69)"/><path class="cls-11" d="M4.33,10.86l.92-1.72v0L3.12,8.18a18.75,18.75,0,0,0-1.54,3.07l2.71-.38Z" transform="translate(-0.61 -0.69)"/><path class="cls-12" d="M5.84,4.77,7.26,6.66,8.9,5.29,8.56,2.55A15.71,15.71,0,0,0,5.84,4.77Z" transform="translate(-0.61 -0.69)"/><path class="cls-13" d="M15.44,4.6c2.31,1.84,1.82,6.56-1.1,10.53S7.18,20.81,4.86,19,3,12.4,6,8.43,13.12,2.75,15.44,4.6Z" transform="translate(-0.61 -0.69)"/><path class="cls-14" d="M14.58,7.16l-1.64,3.36,1.39,2.26-3.18.62L8.78,16.5l-.33-3L5.6,13.18l3-2.46.6-3.31,2.17,1.45Z" transform="translate(-0.61 -0.69)"/><g class="cls-15"><path class="cls-16" d="M15.15,4.46l.2.17C13,3,8.92,4.77,6.08,8.63S2.71,17,4.79,19l-.21-.15C2.26,17,2.75,12.27,5.68,8.3S12.83,2.61,15.15,4.46Z" transform="translate(-0.61 -0.69)"/></g><path d="M15.31,4.5l.2.17c-2.35-1.59-6.43.14-9.26,4S2.87,17.06,5,19l-.21-.15C2.43,17,2.92,12.3,5.84,8.34S13,2.65,15.31,4.5Z" transform="translate(-0.61 -0.69)"/></svg>