<svg width="29" height="28" viewBox="0 0 29 28" fill="none" xmlns="http://www.w3.org/2000/svg">
<path d="M15.5746 2.02098L19.0805 8.83072C19.1677 9.00023 19.2966 9.14687 19.4561 9.258C19.6156 9.36913 19.8009 9.44142 19.9961 9.46863H28.1831C29.1803 9.6068 29.2332 11.866 28.5123 12.5384L22.8388 17.8351C22.6968 17.9688 22.5912 18.1338 22.5313 18.3157C22.4714 18.4976 22.459 18.6908 22.4952 18.8784L24.0547 25.9599C24.3815 27.3646 22.9638 28.0325 22.0723 27.5903L15.0459 24.0553C14.8714 23.9674 14.6772 23.9214 14.48 23.9214C14.2828 23.9214 14.0886 23.9674 13.9141 24.0553L6.90453 27.5903C6.01302 28.0509 4.52797 27.413 4.98213 25.7111L6.48161 18.8784C6.51514 18.6922 6.50095 18.501 6.44025 18.3213C6.37955 18.1416 6.27416 17.9787 6.13317 17.8467L0.459692 12.5499C-0.261208 11.8752 -0.136252 9.5262 0.85859 9.38803L8.97351 9.47093C9.16866 9.44372 9.35397 9.37144 9.51347 9.2603C9.67297 9.14917 9.80187 9.00253 9.88906 8.83302L13.3926 2.02098C13.4929 1.82569 13.6483 1.66122 13.8411 1.54621C14.0339 1.4312 14.2565 1.37024 14.4836 1.37024C14.7107 1.37024 14.9333 1.4312 15.1261 1.54621C15.3189 1.66122 15.4743 1.82569 15.5746 2.02098Z" fill="url(#paint0_linear)"/>
<path style="mix-blend-mode:multiply" opacity="0.7" d="M14.498 1.37389V23.9241C14.2964 23.9221 14.0975 23.968 13.9189 24.0577L6.90455 27.5904C6.01303 28.0509 4.52798 27.413 4.98215 25.7112L6.48162 18.8784C6.51515 18.6922 6.50096 18.5011 6.44026 18.3213C6.37956 18.1416 6.27417 17.9787 6.13318 17.8467L0.459706 12.55C-0.261194 11.8752 -0.138641 9.52623 0.858603 9.38805L8.97353 9.47096C9.16874 9.44394 9.35413 9.37173 9.51366 9.26057C9.67319 9.14942 9.80205 9.00268 9.88907 8.83305L13.3926 2.02331C13.4928 1.82509 13.6502 1.65855 13.8461 1.54344C14.042 1.42834 14.2683 1.36949 14.498 1.37389Z" fill="url(#paint1_linear)"/>
<g style="mix-blend-mode:multiply" opacity="0.4">
<path d="M15.5745 1.00999L19.0805 7.81973C19.1677 7.98924 19.2966 8.13588 19.4561 8.24702C19.6156 8.35815 19.8009 8.43043 19.996 8.45764L27.837 9.54923C28.0614 9.58067 28.2722 9.67164 28.4454 9.81184C28.6187 9.95204 28.7477 10.1359 28.8176 10.3426C28.8876 10.5494 28.8959 10.7707 28.8415 10.9817C28.7871 11.1927 28.6722 11.3849 28.5098 11.5366L22.8364 16.8334C22.6963 16.9663 22.592 17.1299 22.5326 17.31C22.4731 17.4901 22.4603 17.6814 22.4951 17.8674L23.8336 25.3519C23.8717 25.5661 23.8465 25.7862 23.761 25.9874C23.6754 26.1886 23.5329 26.3628 23.3494 26.4905C23.166 26.6181 22.9489 26.6941 22.7228 26.7098C22.4967 26.7255 22.2705 26.6803 22.0698 26.5793L15.0458 23.0443C14.8713 22.9564 14.6771 22.9105 14.4799 22.9105C14.2828 22.9105 14.0885 22.9564 13.914 23.0443L6.90449 26.5793C6.70376 26.6803 6.47757 26.7255 6.25146 26.7098C6.02535 26.6941 5.80832 26.6181 5.62488 26.4905C5.44144 26.3628 5.2989 26.1886 5.21334 25.9874C5.12778 25.7862 5.10261 25.5661 5.14069 25.3519L6.47916 17.8674C6.51269 17.6812 6.4985 17.49 6.4378 17.3103C6.3771 17.1306 6.27171 16.9677 6.13072 16.8357L0.457242 11.539C0.294851 11.3872 0.17997 11.195 0.125577 10.984C0.0711853 10.773 0.0794507 10.5517 0.14944 10.3449C0.219428 10.1382 0.348351 9.95434 0.521641 9.81414C0.694932 9.67394 0.905683 9.58298 1.13008 9.55153L8.97107 8.45995C9.16621 8.43274 9.35152 8.36045 9.51102 8.24932C9.67052 8.13819 9.79942 7.99155 9.88661 7.82204L13.3926 1.00999C13.4929 0.814706 13.6482 0.650238 13.841 0.535225C14.0339 0.420213 14.2564 0.359253 14.4835 0.359253C14.7107 0.359253 14.9332 0.420213 15.1261 0.535225C15.3189 0.650238 15.4742 0.814706 15.5745 1.00999Z" fill="#A72D00"/>
</g>
<path d="M15.5745 0.731308L19.0805 7.53414C19.1677 7.70365 19.2966 7.85029 19.4561 7.96142C19.6156 8.07255 19.8009 8.14484 19.996 8.17205L27.837 9.26363C28.0614 9.29508 28.2722 9.38604 28.4454 9.52624C28.6187 9.66644 28.7477 9.8503 28.8176 10.057C28.8876 10.2638 28.8959 10.4851 28.8415 10.6961C28.7871 10.9071 28.6722 11.0993 28.5098 11.2511L22.8364 16.5478C22.6963 16.6807 22.592 16.8443 22.5326 17.0244C22.4731 17.2046 22.4603 17.3958 22.4951 17.5818L23.8336 25.0663C23.8727 25.2814 23.8479 25.5027 23.762 25.7049C23.6762 25.9072 23.5328 26.0823 23.3482 26.2102C23.1636 26.3382 22.9452 26.4139 22.7179 26.4286C22.4906 26.4434 22.2635 26.3966 22.0626 26.2937L15.0458 22.7611C14.8713 22.6731 14.6771 22.6272 14.4799 22.6272C14.2828 22.6272 14.0885 22.6731 13.914 22.7611L6.90449 26.2937C6.70376 26.3947 6.47757 26.4399 6.25146 26.4242C6.02535 26.4085 5.80832 26.3325 5.62488 26.2049C5.44144 26.0772 5.2989 25.903 5.21334 25.7018C5.12778 25.5006 5.10261 25.2805 5.14069 25.0663L6.47916 17.5818C6.51228 17.396 6.49788 17.2053 6.4372 17.026C6.37651 16.8467 6.27134 16.6842 6.13072 16.5524L0.457242 11.2557C0.294851 11.1039 0.17997 10.9117 0.125577 10.7007C0.0711853 10.4897 0.0794507 10.2684 0.14944 10.0616C0.219428 9.8549 0.348351 9.67105 0.521641 9.53085C0.694932 9.39065 0.905683 9.29968 1.13008 9.26824L8.97107 8.17665C9.16621 8.14944 9.35152 8.07716 9.51102 7.96603C9.67052 7.85489 9.79942 7.70825 9.88661 7.53874L13.3926 0.731308C13.4929 0.536019 13.6482 0.371552 13.841 0.256539C14.0339 0.141526 14.2564 0.0805664 14.4835 0.0805664C14.7107 0.0805664 14.9332 0.141526 15.1261 0.256539C15.3189 0.371552 15.4742 0.536019 15.5745 0.731308Z" fill="url(#paint2_linear)"/>
<path style="mix-blend-mode:screen" opacity="0.6" d="M15.5745 0.650741L19.0805 7.46048C19.1674 7.63042 19.2961 7.77752 19.4557 7.88907C19.6152 8.00061 19.8006 8.07325 19.996 8.10069L27.837 9.19228C28.0614 9.22372 28.2722 9.31469 28.4454 9.45489C28.6187 9.59509 28.7477 9.77894 28.8176 9.98568C28.8876 10.1924 28.8959 10.4138 28.8415 10.6248C28.7871 10.8358 28.6722 11.028 28.5098 11.1797L22.8364 16.4764C22.6967 16.6091 22.5926 16.7723 22.5332 16.952C22.4738 17.1317 22.4607 17.3225 22.4951 17.5081L23.8336 24.9926C23.8717 25.2068 23.8465 25.4269 23.761 25.6281C23.6754 25.8293 23.5329 26.0036 23.3494 26.1312C23.166 26.2589 22.9489 26.3349 22.7228 26.3506C22.4967 26.3663 22.2705 26.3211 22.0698 26.2201L15.0458 22.6874C14.8713 22.5995 14.6771 22.5535 14.4799 22.5535C14.2828 22.5535 14.0885 22.5995 13.914 22.6874L6.90449 26.2201C6.70376 26.3211 6.47757 26.3663 6.25146 26.3506C6.02535 26.3349 5.80832 26.2589 5.62488 26.1312C5.44144 26.0036 5.2989 25.8293 5.21334 25.6281C5.12778 25.4269 5.10261 25.2068 5.14069 24.9926L6.47916 17.5081C6.51269 17.322 6.4985 17.1308 6.4378 16.9511C6.3771 16.7713 6.27171 16.6084 6.13072 16.4764L0.457242 11.1797C0.294851 11.028 0.17997 10.8358 0.125577 10.6248C0.0711853 10.4138 0.0794507 10.1924 0.14944 9.98568C0.219428 9.77894 0.348351 9.59509 0.521641 9.45489C0.694932 9.31469 0.905683 9.22372 1.13008 9.19228L8.97107 8.10069C9.16621 8.07348 9.35152 8.0012 9.51102 7.89007C9.67052 7.77893 9.79942 7.63229 9.88661 7.46278L13.3926 0.650741C13.4929 0.455453 13.6482 0.290985 13.841 0.175972C14.0339 0.0609597 14.2564 0 14.4835 0C14.7107 0 14.9332 0.0609597 15.1261 0.175972C15.3189 0.290985 15.4742 0.455453 15.5745 0.650741Z" fill="url(#paint3_linear)"/>
<path style="mix-blend-mode:overlay" opacity="0.6" d="M15.5745 0.650741L19.0805 7.46048C19.1674 7.63042 19.2961 7.77752 19.4557 7.88907C19.6152 8.00061 19.8006 8.07325 19.996 8.10069L27.837 9.19228C28.0614 9.22372 28.2722 9.31469 28.4454 9.45489C28.6187 9.59509 28.7477 9.77894 28.8176 9.98568C28.8876 10.1924 28.8959 10.4138 28.8415 10.6248C28.7871 10.8358 28.6722 11.028 28.5098 11.1797L22.8364 16.4764C22.6967 16.6091 22.5926 16.7723 22.5332 16.952C22.4738 17.1317 22.4607 17.3225 22.4951 17.5081L23.8336 24.9926C23.8717 25.2068 23.8465 25.4269 23.761 25.6281C23.6754 25.8293 23.5329 26.0036 23.3494 26.1312C23.166 26.2589 22.9489 26.3349 22.7228 26.3506C22.4967 26.3663 22.2705 26.3211 22.0698 26.2201L15.0458 22.6874C14.8713 22.5995 14.6771 22.5535 14.4799 22.5535C14.2828 22.5535 14.0885 22.5995 13.914 22.6874L6.90449 26.2201C6.70376 26.3211 6.47757 26.3663 6.25146 26.3506C6.02535 26.3349 5.80832 26.2589 5.62488 26.1312C5.44144 26.0036 5.2989 25.8293 5.21334 25.6281C5.12778 25.4269 5.10261 25.2068 5.14069 24.9926L6.47916 17.5081C6.51269 17.322 6.4985 17.1308 6.4378 16.9511C6.3771 16.7713 6.27171 16.6084 6.13072 16.4764L0.457242 11.1797C0.294851 11.028 0.17997 10.8358 0.125577 10.6248C0.0711853 10.4138 0.0794507 10.1924 0.14944 9.98568C0.219428 9.77894 0.348351 9.59509 0.521641 9.45489C0.694932 9.31469 0.905683 9.22372 1.13008 9.19228L8.97107 8.10069C9.16621 8.07348 9.35152 8.0012 9.51102 7.89007C9.67052 7.77893 9.79942 7.63229 9.88661 7.46278L13.3926 0.650741C13.4929 0.455453 13.6482 0.290985 13.841 0.175972C14.0339 0.0609597 14.2564 0 14.4835 0C14.7107 0 14.9332 0.0609597 15.1261 0.175972C15.3189 0.290985 15.4742 0.455453 15.5745 0.650741Z" fill="url(#paint4_linear)"/>
<path style="mix-blend-mode:overlay" opacity="0.2" d="M15.5745 0.731308L19.0805 7.53414C19.1677 7.70365 19.2966 7.85029 19.4561 7.96142C19.6156 8.07255 19.8009 8.14484 19.996 8.17205L27.837 9.26363C28.0614 9.29508 28.2722 9.38604 28.4454 9.52624C28.6187 9.66644 28.7477 9.8503 28.8176 10.057C28.8876 10.2638 28.8959 10.4851 28.8415 10.6961C28.7871 10.9071 28.6722 11.0993 28.5098 11.2511L22.8364 16.5478C22.6963 16.6807 22.592 16.8443 22.5326 17.0244C22.4731 17.2046 22.4603 17.3958 22.4951 17.5818L23.8336 25.0663C23.8727 25.2814 23.8479 25.5027 23.762 25.7049C23.6762 25.9072 23.5328 26.0823 23.3482 26.2102C23.1636 26.3382 22.9452 26.4139 22.7179 26.4286C22.4906 26.4434 22.2635 26.3966 22.0626 26.2937L15.0458 22.7611C14.8713 22.6731 14.6771 22.6272 14.4799 22.6272C14.2828 22.6272 14.0885 22.6731 13.914 22.7611L6.90449 26.2937C6.70376 26.3947 6.47757 26.4399 6.25146 26.4242C6.02535 26.4085 5.80832 26.3325 5.62488 26.2049C5.44144 26.0772 5.2989 25.903 5.21334 25.7018C5.12778 25.5006 5.10261 25.2805 5.14069 25.0663L6.47916 17.5818C6.51269 17.3956 6.4985 17.2045 6.4378 17.0247C6.3771 16.845 6.27171 16.6821 6.13072 16.5501L0.457242 11.2534C0.294851 11.1016 0.17997 10.9094 0.125577 10.6984C0.0711853 10.4874 0.0794507 10.2661 0.14944 10.0593C0.219428 9.8526 0.348351 9.66875 0.521641 9.52855C0.694932 9.38834 0.905683 9.29738 1.13008 9.26594L8.97107 8.17435C9.16621 8.14714 9.35152 8.07485 9.51102 7.96372C9.67052 7.85259 9.79942 7.70595 9.88661 7.53644L13.3926 0.731308C13.4929 0.536019 13.6482 0.371552 13.841 0.256539C14.0339 0.141526 14.2564 0.0805664 14.4835 0.0805664C14.7107 0.0805664 14.9332 0.141526 15.1261 0.256539C15.3189 0.371552 15.4742 0.536019 15.5745 0.731308Z" fill="url(#paint5_linear)"/>
<path style="mix-blend-mode:screen" opacity="0.6" d="M14.4836 0.0588751V22.6091C14.2868 22.6086 14.0929 22.6545 13.9189 22.7427L6.90455 26.2753C6.70382 26.3763 6.47763 26.4215 6.25152 26.4058C6.02541 26.3901 5.80838 26.3141 5.62494 26.1865C5.4415 26.0588 5.29896 25.8846 5.2134 25.6834C5.12784 25.4822 5.10267 25.2621 5.14075 25.0479L6.47922 17.5634C6.51275 17.3772 6.49856 17.186 6.43786 17.0063C6.37716 16.8266 6.27177 16.6637 6.13078 16.5317L0.457303 11.235C0.29627 11.0829 0.18265 10.8909 0.129202 10.6804C0.0757543 10.4699 0.0845943 10.2493 0.15473 10.0433C0.224865 9.83736 0.353519 9.65423 0.526245 9.51447C0.698971 9.37472 0.90893 9.28387 1.13255 9.25214L8.97353 8.16055C9.16874 8.13353 9.35414 8.06132 9.51366 7.95017C9.67319 7.83902 9.80205 7.69227 9.88907 7.52265L13.3926 0.708299C13.4918 0.512228 13.6469 0.347127 13.84 0.232171C14.0331 0.117216 14.2563 0.057124 14.4836 0.0588751Z" fill="url(#paint6_linear)"/>
<path style="mix-blend-mode:screen" d="M28.8606 10.6177C28.8197 10.374 28.6982 10.1493 28.5138 9.97678C28.3295 9.80428 28.0922 9.69313 27.837 9.65972L19.996 8.56123C19.8009 8.53383 19.6157 8.46147 19.4562 8.35036C19.2968 8.23925 19.1678 8.09271 19.0804 7.92332L15.5745 1.12279C15.4739 0.928114 15.3186 0.764241 15.1261 0.649668C14.9335 0.535095 14.7114 0.474382 14.4847 0.474382C14.2581 0.474382 14.0359 0.535095 13.8434 0.649668C13.6508 0.764241 13.4955 0.928114 13.3949 1.12279L9.88657 7.93023C9.79848 8.09844 9.66919 8.24371 9.50975 8.3536C9.35031 8.46349 9.16547 8.53473 8.97103 8.56123L1.13245 9.65972C0.877195 9.69313 0.639904 9.80428 0.455586 9.97678C0.271267 10.1493 0.149684 10.374 0.108772 10.6177C0.0807295 10.4641 0.0851379 10.3067 0.121736 10.1548C0.158334 10.0029 0.226378 9.85951 0.321836 9.73323C0.417293 9.60696 0.538224 9.50033 0.677464 9.41967C0.816704 9.339 0.971421 9.28594 1.13245 9.26362L8.97343 8.17204C9.16858 8.14483 9.35389 8.07254 9.51338 7.96141C9.67288 7.85028 9.80179 7.70363 9.88898 7.53413L13.3925 0.731294C13.4931 0.536617 13.6484 0.372745 13.841 0.258171C14.0335 0.143598 14.2557 0.0828857 14.4823 0.0828857C14.709 0.0828857 14.9311 0.143598 15.1237 0.258171C15.3162 0.372745 15.4715 0.536617 15.5721 0.731294L19.0804 7.53413C19.1678 7.70351 19.2968 7.85005 19.4562 7.96117C19.6157 8.07228 19.8009 8.14464 19.996 8.17204L27.837 9.26362C27.998 9.28594 28.1527 9.339 28.292 9.41967C28.4312 9.50033 28.5521 9.60696 28.6476 9.73323C28.743 9.85951 28.8111 10.0029 28.8477 10.1548C28.8843 10.3067 28.8887 10.4641 28.8606 10.6177Z" fill="url(#paint7_linear)"/>
<path d="M14.7816 4.24791L17.7277 9.97297C17.7504 10.0183 17.7841 10.0578 17.8258 10.0882C17.8676 10.1186 17.9163 10.1391 17.968 10.148L24.5594 11.0692C24.6205 11.0776 24.678 11.1023 24.7253 11.1404C24.7726 11.1785 24.8079 11.2285 24.8271 11.2847C24.8463 11.341 24.8488 11.4013 24.8342 11.4588C24.8196 11.5164 24.7885 11.5688 24.7444 11.6104L19.9841 16.0619C19.9455 16.0978 19.9166 16.1421 19.8999 16.191C19.8831 16.24 19.879 16.2921 19.888 16.3429L21.0126 22.6321C21.0232 22.6906 21.0166 22.7508 20.9934 22.8058C20.9703 22.8608 20.9315 22.9086 20.8814 22.9436C20.8314 22.9786 20.7722 22.9994 20.7104 23.0038C20.6486 23.0082 20.5868 22.9959 20.532 22.9684L14.6374 19.9976C14.59 19.9738 14.5372 19.9613 14.4836 19.9613C14.4301 19.9613 14.3773 19.9738 14.3298 19.9976L8.43528 22.9684C8.38042 22.9959 8.31861 23.0082 8.25685 23.0038C8.19508 22.9994 8.13584 22.9786 8.08581 22.9436C8.03579 22.9086 7.99699 22.8608 7.97382 22.8058C7.95064 22.7508 7.94401 22.6906 7.95468 22.6321L9.07928 16.3429C9.08822 16.2921 9.08414 16.24 9.06739 16.191C9.05065 16.1421 9.02174 16.0978 8.98316 16.0619L4.21561 11.6057C4.17155 11.5642 4.14046 11.5118 4.12586 11.4542C4.11125 11.3967 4.1137 11.3364 4.13294 11.2801C4.15218 11.2239 4.18743 11.1739 4.23473 11.1358C4.28203 11.0977 4.3395 11.073 4.40064 11.0646L10.9921 10.1434C11.0437 10.1345 11.0924 10.114 11.1342 10.0836C11.176 10.0532 11.2096 10.0137 11.2324 9.96837L14.1857 4.24791C14.2129 4.19443 14.2553 4.14935 14.308 4.11782C14.3607 4.0863 14.4215 4.06958 14.4836 4.06958C14.5457 4.06958 14.6066 4.0863 14.6593 4.11782C14.712 4.14935 14.7543 4.19443 14.7816 4.24791Z" fill="url(#paint8_linear)"/>
<g style="mix-blend-mode:multiply" opacity="0.6">
<path d="M21.8223 12.9184C21.7622 12.7388 17.4609 12.6881 17.1341 12.3726C16.8072 12.0571 15.0074 6.84558 14.6614 6.84558H14.6445C14.2985 6.84558 12.7894 12.3081 12.465 12.6305C12.1406 12.9529 7.17843 12.7641 7.13037 12.9437C7.17843 13.174 10.3744 16.0112 10.8142 16.5294L10.6916 17.2202L10.3047 19.0004L10.163 19.6199C10.1012 19.9063 9.92974 20.1602 9.68236 20.3315C9.64909 20.4832 9.62899 20.6372 9.62228 20.7921C9.62228 20.8358 9.62228 20.8658 9.6415 20.8773C9.64937 20.8793 9.65767 20.8793 9.66553 20.8773C9.66553 20.8773 10.0885 21.1076 10.2711 21.0339C10.8742 20.7667 14.659 19.1754 14.659 19.1754L17.3671 20.5572C18.016 20.875 18.6359 21.1721 19.0372 21.3333L19.2775 21.4415H19.352C19.4241 21.4599 19.4698 21.4645 19.489 21.4415C19.5082 21.4185 19.5082 21.4 19.5082 21.3517C19.505 21.2373 19.4921 21.1233 19.4698 21.0109C19.3761 20.4651 19.1237 19.4794 18.8834 18.5237L18.547 17.0959L18.4004 16.2231C18.7921 15.751 21.7742 13.1671 21.8223 12.9368C21.824 12.934 21.8249 12.9308 21.8249 12.9276C21.8249 12.9244 21.824 12.9212 21.8223 12.9184Z" fill="#5B0101"/>
</g>
<g style="mix-blend-mode:multiply" opacity="0.5">
<path d="M24.4321 11.9167L23.9972 12.3773L17.9897 11.539C17.938 11.5302 17.8893 11.5097 17.8475 11.4792C17.8058 11.4488 17.7721 11.4093 17.7494 11.364L14.7817 5.63896C14.7542 5.58608 14.7118 5.54161 14.6594 5.51052C14.607 5.47943 14.5466 5.46296 14.4849 5.46296C14.4233 5.46296 14.3628 5.47943 14.3104 5.51052C14.258 5.54161 14.2156 5.58608 14.1881 5.63896L11.2397 11.3617C11.2167 11.4069 11.1831 11.4463 11.1413 11.4767C11.0996 11.5071 11.0509 11.5277 10.9994 11.5367L4.99186 12.3727L4.42475 11.82C4.42475 11.82 4.32623 11.7118 4.40313 11.7118L10.9946 10.7906C11.0461 10.7815 11.0948 10.761 11.1365 10.7306C11.1783 10.7002 11.2119 10.6608 11.2349 10.6156L14.1857 4.89511C14.2132 4.84224 14.2556 4.79776 14.308 4.76667C14.3604 4.73559 14.4209 4.71912 14.4825 4.71912C14.5442 4.71912 14.6046 4.73559 14.657 4.76667C14.7094 4.79776 14.7518 4.84224 14.7793 4.89511L17.7278 10.6202C17.7505 10.6655 17.7841 10.705 17.8259 10.7354C17.8677 10.7658 17.9164 10.7863 17.9681 10.7952L24.5595 11.7164C24.658 11.7118 24.6292 11.7325 24.4321 11.9167Z" fill="#5D0000"/>
</g>
<path d="M24.7517 11.6057L24.5403 11.8015L17.9777 10.8803C17.9261 10.8714 17.8773 10.8509 17.8356 10.8205C17.7938 10.7901 17.7601 10.7506 17.7374 10.7053L14.7817 4.99174C14.7542 4.93887 14.7119 4.89439 14.6594 4.8633C14.607 4.83221 14.5466 4.81574 14.4849 4.81574C14.4233 4.81574 14.3629 4.83221 14.3104 4.8633C14.258 4.89439 14.2157 4.93887 14.1882 4.99174L11.2397 10.7145C11.2168 10.7597 11.1831 10.7991 11.1413 10.8295C11.0996 10.8599 11.051 10.8805 10.9994 10.8895L4.4368 11.8107L4.22534 11.6149C4.18057 11.5735 4.14886 11.5209 4.13383 11.463C4.11881 11.4051 4.12108 11.3444 4.14038 11.2877C4.15968 11.231 4.19523 11.1807 4.24298 11.1424C4.29072 11.1042 4.34873 11.0796 4.41037 11.0715L11.0018 10.1503C11.0534 10.1412 11.102 10.1207 11.1437 10.0903C11.1855 10.0599 11.2192 10.0205 11.2421 9.97526L14.1858 4.2479C14.2133 4.19502 14.2556 4.15055 14.308 4.11946C14.3605 4.08837 14.4209 4.0719 14.4825 4.0719C14.5442 4.0719 14.6046 4.08837 14.657 4.11946C14.7095 4.15055 14.7518 4.19502 14.7793 4.2479L17.7278 9.97296C17.7505 10.0183 17.7842 10.0578 17.826 10.0882C17.8677 10.1186 17.9164 10.1391 17.9681 10.148L24.5595 11.0691C24.6203 11.0772 24.6775 11.1012 24.7249 11.1386C24.7723 11.1759 24.8079 11.2252 24.8279 11.2808C24.8478 11.3364 24.8512 11.3962 24.8378 11.4536C24.8243 11.5109 24.7946 11.5636 24.7517 11.6057Z" fill="url(#paint9_linear)"/>
<path d="M8.98306 16.8035C8.98931 16.6306 8.95597 16.4586 8.8854 16.2995C8.81482 16.1403 8.70871 15.9979 8.57455 15.8823C8.19728 15.5253 5.13826 12.6697 5.13826 12.6697C4.83436 12.3513 4.55031 12.0161 4.2876 11.6656L8.98306 16.0412C9.02147 16.0772 9.05026 16.1215 9.06699 16.1704C9.08372 16.2193 9.0879 16.2714 9.07918 16.3222L8.99507 16.7943L8.98306 16.8035Z" fill="url(#paint10_linear)"/>
<path d="M19.9698 16.8034C19.9636 16.6306 19.9969 16.4586 20.0675 16.2994C20.1381 16.1403 20.2442 15.9979 20.3783 15.8822C20.7556 15.5253 23.8146 12.6697 23.8146 12.6697C24.1158 12.3541 24.3974 12.0219 24.6581 11.6748L19.9626 16.0504C19.9242 16.0863 19.8954 16.1307 19.8787 16.1796C19.862 16.2285 19.8578 16.2805 19.8665 16.3313L19.9506 16.8034H19.9698Z" fill="url(#paint11_linear)"/>
<path style="mix-blend-mode:screen" opacity="0.5" d="M20.9284 22.9017C20.8793 22.9532 20.8136 22.9876 20.7417 22.9993C20.6699 23.011 20.596 22.9993 20.5319 22.9661L14.6373 19.9977C14.5895 19.9739 14.5363 19.9614 14.4823 19.9614C14.4284 19.9614 14.3752 19.9739 14.3274 19.9977L8.4328 22.9684C8.36867 23.0016 8.29481 23.0133 8.22297 23.0016C8.15114 22.9899 8.08543 22.9555 8.0363 22.904C7.99065 23.1642 8.61783 23.4567 8.86053 23.3346L14.3249 20.7415C14.3728 20.7177 14.426 20.7053 14.4799 20.7053C14.5339 20.7053 14.5871 20.7177 14.6349 20.7415L20.1018 23.3323C20.3469 23.4544 20.9764 23.1619 20.9284 22.9017Z" fill="url(#paint12_linear)"/>
<path style="mix-blend-mode:screen" opacity="0.6" d="M6.68592 17.5427C6.68592 17.5427 5.95061 21.7202 5.65744 23.1757C5.36428 24.6311 5.21048 25.2483 5.34745 25.52C5.34745 25.5154 6.27741 23.1849 6.68592 17.5427Z" fill="url(#paint13_linear)"/>
<path style="mix-blend-mode:screen" opacity="0.6" d="M22.3704 17.5427C22.3704 17.5427 23.1057 21.7202 23.3988 23.1757C23.692 24.6311 23.8458 25.2483 23.7088 25.52C23.7088 25.5154 22.7789 23.1849 22.3704 17.5427Z" fill="url(#paint14_linear)"/>
<path style="mix-blend-mode:multiply" opacity="0.2" d="M2.66333 13.0865C2.66333 13.0865 5.86893 16.0826 6.17892 16.3912C6.4889 16.6998 6.65952 16.8127 6.68595 17.0821C6.73669 16.8837 6.72673 16.6754 6.65727 16.4823C6.58781 16.2891 6.46179 16.1192 6.29426 15.9928C5.70072 15.4701 2.66333 13.0865 2.66333 13.0865Z" fill="url(#paint15_linear)"/>
<path style="mix-blend-mode:multiply" opacity="0.2" d="M26.1646 13.0865C26.1646 13.0865 22.959 16.0803 22.649 16.382C22.3391 16.6837 22.1684 16.8035 22.142 17.0729C22.0913 16.8745 22.1012 16.6662 22.1707 16.4731C22.2401 16.2799 22.3662 16.11 22.5337 15.9836C23.1272 15.4701 26.1646 13.0865 26.1646 13.0865Z" fill="url(#paint16_linear)"/>
<g style="mix-blend-mode:screen">
<path d="M21.8223 12.9115C21.7623 12.7319 16.9755 12.6651 16.6511 12.345C16.3267 12.0249 14.8056 6.56236 14.4692 6.56006H14.4523C14.1063 6.56006 12.5972 12.0226 12.2728 12.345C11.9484 12.6674 7.16165 12.7319 7.10158 12.9115C7.0415 13.0911 10.6196 15.3618 10.7613 15.7349C10.9031 16.108 9.43008 20.7161 9.63914 20.8865C9.84821 21.0569 14.0438 18.7817 14.462 18.7448C14.8825 18.7817 19.0805 21.0639 19.2848 20.8934C19.489 20.723 18.0208 16.1103 18.1698 15.7349C18.3188 15.3595 21.88 13.0934 21.8223 12.9115Z" fill="#DD4566"/>
</g>
<path d="M21.8223 12.9115C21.7623 12.7318 16.9755 12.3818 16.6511 12.0594C16.3267 11.737 14.8056 6.27904 14.4692 6.27673H14.4524C14.1063 6.27673 12.5972 11.7393 12.2728 12.0617C11.9484 12.3841 7.16165 12.7341 7.10158 12.9138C7.0415 13.0934 10.622 15.0785 10.7613 15.447C10.9007 15.8154 9.43008 20.7114 9.63914 20.8819C9.84821 21.0523 14.0414 18.496 14.462 18.4638C14.8825 18.5006 19.0805 21.0592 19.2848 20.8888C19.489 20.7184 18.0208 15.8223 18.1626 15.4539C18.3044 15.0854 21.88 13.0934 21.8223 12.9115Z" fill="url(#paint17_linear)"/>
<defs>
<linearGradient id="paint0_linear" x1="-0.117028" y1="14.5512" x2="28.5339" y2="14.5512" gradientUnits="userSpaceOnUse">
<stop stop-color="#CE5800"/>
<stop offset="0.22" stop-color="#942200"/>
<stop offset="0.28" stop-color="#CC4500"/>
<stop offset="0.41" stop-color="#892D00"/>
<stop offset="0.6" stop-color="#892D00"/>
<stop offset="0.73" stop-color="#CC4500"/>
<stop offset="0.82" stop-color="#863400"/>
<stop offset="1" stop-color="#B54800"/>
</linearGradient>
<linearGradient id="paint1_linear" x1="9.36281" y1="14.5512" x2="14.3611" y2="14.5512" gradientUnits="userSpaceOnUse">
<stop stop-color="#C94200"/>
<stop offset="1" stop-color="#B30031"/>
</linearGradient>
<linearGradient id="paint2_linear" x1="14.4835" y1="0.0335227" x2="14.4835" y2="24.6402" gradientUnits="userSpaceOnUse">
<stop stop-color="#FFE554"/>
<stop offset="0.81" stop-color="#943400"/>
<stop offset="1" stop-color="#FF7600"/>
</linearGradient>
<linearGradient id="paint3_linear" x1="24.6146" y1="18.5191" x2="17.9722" y2="15.7982" gradientUnits="userSpaceOnUse">
<stop stop-color="#FFE554"/>
<stop offset="1" stop-color="#FF7600"/>
</linearGradient>
<linearGradient id="paint4_linear" x1="14.4835" y1="23.9517" x2="14.4835" y2="6.88245" gradientUnits="userSpaceOnUse">
<stop stop-color="#FFE554"/>
<stop offset="0.76" stop-color="#FFE554"/>
<stop offset="1" stop-color="#FFE554"/>
</linearGradient>
<linearGradient id="paint5_linear" x1="14.4835" y1="24.0254" x2="14.4835" y2="6.95841" gradientUnits="userSpaceOnUse">
<stop stop-color="#FF9800"/>
<stop offset="1" stop-color="#FFFF37"/>
</linearGradient>
<linearGradient id="paint6_linear" x1="874.507" y1="1685.93" x2="422.355" y2="1830.04" gradientUnits="userSpaceOnUse">
<stop stop-color="#FFE554"/>
<stop offset="1" stop-color="#FF7600"/>
</linearGradient>
<linearGradient id="paint7_linear" x1="14.4835" y1="-0.565251" x2="14.4835" y2="11.6955" gradientUnits="userSpaceOnUse">
<stop stop-color="#FFFEB1"/>
<stop offset="0.54" stop-color="#FFFE54"/>
<stop offset="1" stop-color="#E0931A"/>
</linearGradient>
<linearGradient id="paint8_linear" x1="14.4836" y1="4.07058" x2="14.4836" y2="23.0052" gradientUnits="userSpaceOnUse">
<stop stop-color="#950D0D"/>
<stop offset="0.46" stop-color="#440202"/>
<stop offset="0.76" stop-color="#310202"/>
<stop offset="1" stop-color="#6C0707"/>
</linearGradient>
<linearGradient id="paint9_linear" x1="4.1148" y1="7.93718" x2="24.8527" y2="7.93718" gradientUnits="userSpaceOnUse">
<stop stop-color="#CE5800"/>
<stop offset="0.13" stop-color="#943400"/>
<stop offset="0.41" stop-color="#892D00"/>
<stop offset="0.6" stop-color="#892D00"/>
<stop offset="0.89" stop-color="#943400"/>
<stop offset="1" stop-color="#B54800"/>
</linearGradient>
<linearGradient id="paint10_linear" x1="192.339" y1="314.129" x2="192.339" y2="420.276" gradientUnits="userSpaceOnUse">
<stop stop-color="#FFFEB1"/>
<stop offset="0.54" stop-color="#FFFE54"/>
<stop offset="1" stop-color="#E0931A"/>
</linearGradient>
<linearGradient id="paint11_linear" x1="518.888" y1="313.596" x2="518.888" y2="419.553" gradientUnits="userSpaceOnUse">
<stop stop-color="#FFFEB1"/>
<stop offset="0.54" stop-color="#FFFE54"/>
<stop offset="1" stop-color="#E0931A"/>
</linearGradient>
<linearGradient id="paint12_linear" x1="932.237" y1="339.524" x2="932.237" y2="365.888" gradientUnits="userSpaceOnUse">
<stop stop-color="#FFFEB1"/>
<stop offset="0.54" stop-color="#FFFE54"/>
<stop offset="1" stop-color="#E0931A"/>
</linearGradient>
<linearGradient id="paint13_linear" x1="5.99146" y1="17.0522" x2="5.99146" y2="26.3284" gradientUnits="userSpaceOnUse">
<stop stop-color="#FFFEB1"/>
<stop offset="1" stop-color="#E0931A"/>
</linearGradient>
<linearGradient id="paint14_linear" x1="-1545.83" y1="678.623" x2="-1545.83" y2="999.95" gradientUnits="userSpaceOnUse">
<stop stop-color="#FFFEB1"/>
<stop offset="1" stop-color="#E0931A"/>
</linearGradient>
<linearGradient id="paint15_linear" x1="93.7683" y1="309.997" x2="162.209" y2="309.997" gradientUnits="userSpaceOnUse">
<stop stop-color="#C94200"/>
<stop offset="1" stop-color="#B30031"/>
</linearGradient>
<linearGradient id="paint16_linear" x1="-5120.83" y1="309.313" x2="-5189.27" y2="309.313" gradientUnits="userSpaceOnUse">
<stop stop-color="#C94200"/>
<stop offset="1" stop-color="#B30031"/>
</linearGradient>
<linearGradient id="paint17_linear" x1="14.462" y1="18.8484" x2="14.462" y2="9.35574" gradientUnits="userSpaceOnUse">
<stop stop-color="#C80808"/>
<stop offset="0.36" stop-color="#7F0202"/>
<stop offset="1" stop-color="#4A0303"/>
</linearGradient>
</defs>
</svg>
