<svg width="160" height="80" viewBox="0 0 160 80" fill="none" xmlns="http://www.w3.org/2000/svg">
<path d="M53.3089 35.9074L57.393 44.871H53.8983L53.2113 43.3598H48.7187L48.0317 44.8701H44.5424L48.6129 35.9074H53.3089ZM49.7817 40.7738H52.1284L50.9469 38.4164L49.7808 40.7738H49.7817ZM56.0823 35.8877H68.104V38.8457H63.6113V44.8701H60.6156V38.8457H56.0823V35.8877ZM77.5458 44.8701H75.0491L72.8027 40.9262V44.8701H69.7817V35.8877H73.3912L76.3372 40.8625L79.2805 35.8877H82.8999V44.8701H79.8816V40.902L77.5458 44.8701ZM90.4741 35.7398C91.2018 35.7336 91.9295 35.7793 92.6509 35.8752C93.2493 35.9558 93.8368 36.1082 94.3982 36.3287C94.8909 36.5143 95.3392 36.8002 95.7135 37.1677C96.0714 37.5415 96.3435 37.9879 96.5098 38.4764C96.7132 39.0716 96.8109 39.6972 96.7973 40.3247C96.8118 40.9405 96.7277 41.5545 96.5478 42.1443C96.3987 42.6221 96.1528 43.064 95.8237 43.444C95.4775 43.8178 95.0509 44.1118 94.5754 44.3009C94.0158 44.5322 93.4283 44.69 92.828 44.7697C92.0768 44.8701 91.3184 44.9167 90.5609 44.9096C88.414 44.9096 86.8547 44.5241 85.8829 43.7515C84.9112 42.9788 84.4249 41.7813 84.4249 40.1571C84.4249 38.6557 84.9248 37.5433 85.9227 36.8226C86.9216 36.1011 88.4384 35.7398 90.4741 35.7398ZM90.5889 42.5432C91.5074 42.5432 92.217 42.3603 92.7178 41.9937C93.2176 41.6244 93.4671 41.0669 93.4671 40.3148C93.5033 39.6659 93.2059 39.0429 92.6753 38.6584C92.1492 38.2765 91.4278 38.0865 90.5492 38.0865C90.1333 38.0811 89.7202 38.1295 89.318 38.2326C88.9971 38.3151 88.6979 38.4665 88.4411 38.6763C88.2161 38.8663 88.0407 39.1083 87.9304 39.3808C87.8129 39.6784 87.755 39.9957 87.7605 40.3148C87.7361 40.9333 87.9991 41.5303 88.4746 41.9346C88.951 42.3514 89.6579 42.5441 90.5889 42.5441V42.5432ZM103.74 35.9074C104.553 35.9074 105.249 35.9254 105.828 35.9639C106.347 35.9944 106.862 36.0652 107.369 36.1764C107.747 36.2525 108.112 36.3789 108.455 36.5528C108.724 36.7007 108.955 36.9096 109.126 37.1623C109.305 37.4187 109.432 37.7082 109.498 38.013C109.575 38.3913 109.61 38.7758 109.603 39.1612H106.385C106.391 39.0501 106.367 38.938 106.315 38.8385C106.231 38.7372 106.121 38.6593 105.996 38.6144C105.746 38.5248 105.483 38.4728 105.217 38.4621C104.865 38.4316 104.396 38.4172 103.817 38.4172C103.048 38.4172 102.486 38.4334 102.132 38.4665C101.901 38.4746 101.674 38.5185 101.457 38.5974C101.36 38.6512 101.305 38.7561 101.315 38.8663C101.315 38.9766 101.442 39.051 101.67 39.0904C101.897 39.1299 102.588 39.1935 103.74 39.2876C103.753 39.2867 103.767 39.2912 103.777 39.2993C106.06 39.4785 107.508 39.6426 108.123 39.7923C108.927 39.9805 109.445 40.3005 109.68 40.7541C109.857 41.1753 109.936 41.6298 109.913 42.0851C109.919 42.424 109.891 42.7628 109.828 43.0953C109.774 43.3643 109.658 43.617 109.491 43.8348C109.319 44.0536 109.095 44.2274 108.84 44.3404C108.482 44.4892 108.108 44.595 107.723 44.6541C107.186 44.7464 106.641 44.8038 106.096 44.8262C105.487 44.8585 104.728 44.871 103.818 44.871C103.197 44.871 102.659 44.871 102.207 44.8459C101.755 44.8208 101.328 44.7993 100.936 44.7572C100.606 44.724 100.278 44.6693 99.9548 44.5923C99.7107 44.5277 99.4757 44.4327 99.2561 44.3081C98.8773 44.1145 98.5962 43.7766 98.4768 43.3714C98.3982 43.1446 98.3458 42.9089 98.3223 42.6696C98.297 42.4231 98.2852 42.1273 98.2852 41.784H101.407C101.401 41.9005 101.426 42.0143 101.48 42.1174C101.566 42.2205 101.688 42.2895 101.822 42.3092C102.066 42.3711 102.319 42.406 102.571 42.4132C102.896 42.4302 103.357 42.4401 103.951 42.4401H104.263C104.862 42.4544 105.462 42.4365 106.058 42.3863C106.273 42.3505 106.377 42.2402 106.377 42.0529C106.377 41.9453 106.305 41.8709 106.158 41.836C105.754 41.7768 105.346 41.7392 104.937 41.723C104.453 41.6881 104.053 41.6585 103.732 41.6316C103.233 41.5895 102.83 41.5554 102.558 41.5276C102.287 41.5007 101.949 41.4667 101.548 41.4218C101.145 41.377 100.841 41.3259 100.631 41.2784C100.421 41.2318 100.179 41.1727 99.8951 41.0992C99.6683 41.0516 99.4504 40.9683 99.2506 40.8527C99.1087 40.7585 98.9541 40.6483 98.7842 40.5201C98.6305 40.4036 98.5085 40.253 98.4298 40.0782C98.3485 39.8989 98.2843 39.7125 98.2346 39.5216C98.1767 39.2975 98.1487 39.0671 98.1496 38.8358C98.1478 38.566 98.1695 38.2962 98.2147 38.03C98.2536 37.8113 98.3141 37.5962 98.3973 37.3891C98.4732 37.2063 98.5835 37.0395 98.7218 36.8961C98.8547 36.7545 99.002 36.6281 99.1638 36.5197C99.3474 36.3978 99.5507 36.3063 99.765 36.2508C100.011 36.1764 100.261 36.1181 100.514 36.0751C100.764 36.0329 101.066 35.9989 101.43 35.972C101.794 35.9451 102.147 35.9299 102.499 35.9227C102.851 35.9146 103.258 35.9074 103.74 35.9074ZM111.585 35.868H121.353V38.5992H114.613V39.4696H119.891V42.1076H114.618V44.8701H111.585V35.868ZM123.153 35.8877H133.203V38.3778H126.174V39.1711H132.761V41.5572H126.174V42.3639H133.203V44.8701H123.153V35.8877ZM135.132 35.8877H141.825C141.998 35.8877 142.162 35.8877 142.325 35.9003C142.488 35.9128 142.699 35.937 142.979 35.9836C143.24 36.0267 143.496 36.0912 143.745 36.179C144.004 36.2714 144.249 36.396 144.477 36.5483C144.723 36.7025 144.943 36.8961 145.125 37.1202C145.321 37.382 145.471 37.6751 145.567 37.9861C145.689 38.3706 145.748 38.7713 145.742 39.1738C145.742 40.5936 145.185 41.6056 144.07 42.2106L145.937 44.8603H142.442L140.888 42.7449H138.141V44.8701H135.133V35.8886L135.132 35.8877ZM141.541 40.1203C142.292 40.1203 142.667 39.8389 142.667 39.2751C142.667 38.7623 142.274 38.506 141.489 38.506H138.156V40.1203H141.541ZM155.428 35.9074L159.514 44.871H156.02L155.33 43.3598H150.838L150.148 44.8701H146.663L150.734 35.9074H155.428ZM151.901 40.7738H154.247L153.068 38.4164L151.901 40.7738Z" fill="white"/>
<path d="M31.5932 44.0224L30.1198 40.7767C26.0484 40.5499 21.9372 40.4343 17.7862 40.4316C13.6353 40.428 9.50328 40.5445 5.38938 40.7812L3.91412 44.0224C8.46102 43.7365 13.0847 43.5922 17.7862 43.5868C22.4597 43.5868 27.0617 43.732 31.5932 44.0224ZM24.9492 29.3903L24.3616 28.1013C22.1803 28.0341 19.9892 28 17.7871 28C15.5851 28 13.3731 28.035 11.1494 28.104L10.5627 29.3903C12.9546 29.3114 15.3609 29.2621 17.7871 29.2621C20.2133 29.2621 22.5781 29.3114 24.9492 29.3903ZM28.9157 38.1262L25.9923 31.6975C23.2732 31.5989 20.5379 31.5478 17.7871 31.5451C15.0364 31.5415 12.2802 31.5926 9.51955 31.6975L6.59616 38.1315C10.2906 37.9388 14.0212 37.8429 17.7871 37.8429C21.553 37.8429 25.2628 37.937 28.9157 38.1262ZM34.6151 50.6788C31.3428 50.4233 28.0362 50.2449 24.6942 50.141L25.5458 52.0592C28.9076 52.1775 32.2287 52.3729 35.5082 52.6454L34.6151 50.6788ZM32.6581 46.3646C27.7632 46.0356 22.8068 45.8716 17.7871 45.8716C12.7675 45.8716 7.78938 46.0374 2.85379 46.37L1.96339 48.342C7.14576 47.9556 12.4203 47.7593 17.7871 47.7548C23.134 47.7548 28.3878 47.9458 33.5485 48.3267L32.6581 46.3646ZM0 52.6508C3.27503 52.3792 6.59254 52.1829 9.95254 52.061L10.814 50.1427C7.48565 50.2467 4.17898 50.4251 0.895819 50.6788L0 52.6499V52.6508Z" fill="url(#paint0_linear_5630_8)"/>
<defs>
<linearGradient id="paint0_linear_5630_8" x1="5.44696" y1="49.0032" x2="23.659" y2="30.715" gradientUnits="userSpaceOnUse">
<stop stop-color="#F507EC"/>
<stop offset="0.09" stop-color="#EE0CEC"/>
<stop offset="0.22" stop-color="#DA19ED"/>
<stop offset="0.38" stop-color="#B92FEF"/>
<stop offset="0.57" stop-color="#8B4DF1"/>
<stop offset="0.77" stop-color="#5173F4"/>
<stop offset="0.98" stop-color="#0AA2F8"/>
<stop offset="1" stop-color="#02A7F8"/>
</linearGradient>
</defs>
</svg>
