<svg width="160" height="80" viewBox="0 0 160 80" fill="none" xmlns="http://www.w3.org/2000/svg">
<path d="M92.9286 16.4142H66.5646V63.5862H92.9286V16.4142Z" fill="#FF5F00"/>
<path d="M68.2419 40C68.2378 35.457 69.2717 30.9726 71.2655 26.8863C73.2593 22.8 76.1606 19.2188 79.7499 16.414C75.3051 12.9354 69.9669 10.7721 64.3457 10.1713C58.7244 9.57061 53.0468 10.5567 47.9618 13.0169C42.8768 15.4771 38.5895 19.3122 35.5901 24.0838C32.5906 28.8554 31 34.3709 31 40C31 45.6292 32.5906 51.1447 35.5901 55.9163C38.5895 60.6879 42.8768 64.5229 47.9618 66.9832C53.0468 69.4434 58.7244 70.4295 64.3457 69.8287C69.9669 69.228 75.3051 67.0647 79.7499 63.586C76.1606 60.7812 73.2593 57.2001 71.2655 53.1138C69.2717 49.0274 68.2378 44.543 68.2419 40Z" fill="#EB001B"/>
<path d="M128.5 40C128.5 45.6291 126.91 51.1446 123.911 55.9162C120.911 60.6878 116.624 64.5229 111.539 66.9831C106.455 69.4433 100.777 70.4295 95.1558 69.8287C89.5346 69.228 84.1966 67.0647 79.7519 63.586C83.338 60.7784 86.2371 57.1967 88.2306 53.111C90.224 49.0253 91.2598 44.5423 91.2598 40C91.2598 35.4577 90.224 30.9747 88.2306 26.8891C86.2371 22.8034 83.338 19.2217 79.7519 16.414C84.1966 12.9354 89.5346 10.7721 95.1558 10.1713C100.777 9.57061 106.455 10.5567 111.539 13.017C116.624 15.4772 120.911 19.3123 123.911 24.0839C126.91 28.8555 128.5 34.371 128.5 40Z" fill="#F79E1B"/>
<path d="M125.625 58.5897V57.624H126.016V57.4272H125.019V57.624H125.411V58.5897H125.625ZM127.559 58.5897V57.4253H127.254L126.902 58.2262L126.551 57.4253H126.245V58.5897H126.461V57.7114L126.79 58.4686H127.014L127.344 57.7095V58.5897H127.559Z" fill="#F79E1B"/>
</svg>
