<svg width="160" height="80" viewBox="0 0 160 80" fill="none" xmlns="http://www.w3.org/2000/svg">
<g clip-path="url(#clip0_1854_38)">
<path d="M21.4616 61.5617C33.4909 61.5617 43.2425 51.8101 43.2425 39.7809C43.2425 27.7516 33.4909 18 21.4616 18C9.43241 18 -0.319214 27.7516 -0.319214 39.7809C-0.319214 51.8101 9.43241 61.5617 21.4616 61.5617Z" fill="#26A17B"/>
<path d="M23.7833 41.7909V41.7874C23.6327 41.7979 22.8553 41.8434 21.1255 41.8434C19.7423 41.8434 18.7723 41.8049 18.4291 41.7874V41.7909C13.11 41.5563 9.14251 40.6318 9.14251 39.5217C9.14251 38.4152 13.1135 37.4872 18.4291 37.2526V40.8699C18.7758 40.8944 19.7738 40.954 21.15 40.954C22.8028 40.954 23.6292 40.8839 23.7833 40.8699V37.2561C29.092 37.4942 33.0489 38.4187 33.0489 39.5252C33.0489 40.6318 29.0884 41.5563 23.7833 41.7944V41.7909ZM23.7833 36.8814V33.6458H31.1895V28.7119H11.0264V33.6458H18.4326V36.8814C12.4131 37.1581 7.88889 38.3487 7.88889 39.7774C7.88889 41.2061 12.4166 42.3967 18.4326 42.6768V53.049H23.7868V42.6768C29.7958 42.4002 34.3131 41.2096 34.3131 39.7809C34.3131 38.3557 29.7958 37.1616 23.7868 36.8849" fill="white"/>
<path d="M61.744 30.06V35.2916H66.8285V39.2171H61.709V47.1766C61.709 48.9344 62.6789 49.7924 64.1006 49.7924C64.8115 49.7924 65.6344 49.5682 66.3067 49.2321L67.5779 53.119C66.2717 53.6408 65.1862 53.8649 63.803 53.9034C59.804 54.054 57.1882 51.7743 57.1882 47.1766V39.2171H53.7495V35.2916H57.1882V30.5468L61.744 30.06ZM149.403 35.0465L149.739 37.1756C151.161 34.8959 153.066 34.5598 154.936 34.5598C156.841 34.5598 158.672 35.3056 159.681 36.3141L157.625 40.2746C156.69 39.4902 155.832 39.077 154.337 39.077C151.945 39.077 149.739 40.3481 149.739 43.7483V53.4657H145.18V35.0395L149.403 35.0465ZM138.229 42.1095C137.931 39.7178 136.062 38.5202 133.446 38.5202C130.98 38.5202 128.96 39.7178 128.288 42.1095H138.229ZM128.214 45.8844C128.512 48.164 130.494 49.8099 133.708 49.8099C135.389 49.8099 137.595 49.1725 138.642 48.0905L141.556 50.9689C139.612 52.986 136.436 53.9594 133.631 53.9594C127.279 53.9594 123.501 50.034 123.501 44.13C123.501 38.5237 127.314 34.4862 133.295 34.4862C139.462 34.4862 143.314 38.2996 142.603 45.8844H128.214ZM108.107 27.3076V37.5468C109.753 35.4177 111.77 34.7804 113.864 34.7804C119.096 34.7804 121.414 38.3311 121.414 43.7518V53.4692H116.854V43.7904C116.854 40.4252 115.097 39.007 112.666 39.007C109.974 39.007 108.107 41.2866 108.107 44.053V53.4727H103.548V27.3112L108.107 27.3076ZM95.998 29.8499V35.0815H101.083V39.007H95.963V46.9664C95.963 48.7243 96.9365 49.5823 98.3547 49.5823C99.0656 49.5823 99.8885 49.3581 100.561 49.022L101.832 52.9089C100.526 53.4307 99.4403 53.6548 98.0571 53.6933C94.0581 53.8439 91.4423 51.5607 91.4423 46.9664V39.007H88.0036V35.0815H91.4423V30.3367L95.998 29.8499ZM83.4023 42.1095C83.1046 39.7178 81.2347 38.5202 78.6189 38.5202C76.1537 38.5202 74.1331 39.7178 73.4608 42.1095H83.4023ZM73.3873 45.8844C73.6849 48.164 75.6669 49.8099 78.8815 49.8099C80.5623 49.8099 82.7684 49.1725 83.8155 48.0905L86.7289 50.9689C84.7855 52.986 81.6094 53.9594 78.8045 53.9594C72.4488 53.9594 68.6739 50.034 68.6739 44.13C68.6739 38.5237 72.4873 34.4862 78.4648 34.4862C84.6314 34.4862 88.4798 38.2996 87.7724 45.8844H73.3873Z" fill="#5B5A5D"/>
</g>
<defs>
<clipPath id="clip0_1854_38">
<rect width="160" height="80" fill="white"/>
</clipPath>
</defs>
</svg>
