<svg width="160" height="80" viewBox="0 0 160 80" fill="none" xmlns="http://www.w3.org/2000/svg">
<g clip-path="url(#clip0_7343_188)">
<path d="M41.4545 40.1916C42.5263 41.8758 43.5981 43.4835 44.6316 45.1294C47.0048 41.4165 46.5454 36.0959 42.6794 32.9189C38.9282 29.8184 33.8373 30.2395 30.622 33.072C30.8899 33.6079 31.1579 34.1438 31.4258 34.7179C34.3349 31.9237 38.2775 32.1534 40.7655 33.7227C43.4832 35.4452 44.4019 38.3926 44.2488 40.1916H41.4545ZM32 40.2682C31.0048 38.4309 30.0478 36.6318 29.0526 34.8328C29.0143 34.8711 28.9761 34.8711 28.9761 34.8711C28.9378 34.9476 28.8995 34.9859 28.8612 35.0624C28.0574 36.3256 27.5598 37.7036 27.445 39.1964C27.2153 42.1438 28.134 44.7084 30.2775 46.7754C32.3445 48.7658 34.8325 49.6462 37.6651 49.3782C39.5407 49.1868 41.2249 48.4979 42.7177 47.3112C42.8708 47.1964 42.8708 47.1199 42.7942 46.9285C42.5646 46.5074 42.3732 46.0864 42.1818 45.6653C42.1435 45.5888 42.1053 45.5505 42.067 45.4739C39.3875 48.0002 35.6746 48.1916 32.9569 46.584C30.3541 45.0529 29.1675 42.2969 29.244 40.2299L32 40.2682ZM36.7464 53.3591C29.4354 53.3591 23.4641 47.3878 23.5024 40.0768C23.5407 32.5744 29.6268 26.7562 36.8612 26.8328C44.1722 26.9093 50.1053 32.9572 49.9521 40.3447C49.8373 47.3878 44.134 53.3208 36.7464 53.3591Z" fill="white"/>
<path d="M6.16268 40.2676C6.08612 42.8322 8.03828 44.9757 10.4115 45.0522C13.0909 45.1288 15.3493 43.0618 15.4258 40.4972C15.5024 37.8178 13.3971 35.636 10.6411 35.5977C8.15311 35.5211 6.23923 37.5116 6.16268 40.2676ZM0 43.4063C0 39.1958 0 34.9853 0 30.813C0 30.3537 0.076555 30.2771 0.535885 30.2771C2.25837 30.2771 3.98086 30.2771 5.70335 30.2771C6.08612 30.2771 6.16268 30.3537 6.16268 30.7365C6.16268 31.2723 6.04785 31.502 6.8134 31.1192C12.0574 28.4781 18.3732 30.5451 20.9761 35.7508C23.4641 40.7269 21.512 46.8513 16.5742 49.3776C13.244 51.1001 9.91388 51.0618 6.58373 49.3393C6.27751 49.1862 6.23923 49.2245 6.23923 49.569C6.23923 51.7125 6.23923 53.8561 6.23923 55.9996C6.23923 56.4589 6.16268 56.4972 5.70335 56.4972C3.98086 56.4972 2.25837 56.4972 0.535885 56.4972C0.15311 56.4972 0.0382775 56.4207 0.0382775 55.9996C0 51.8274 0 47.6168 0 43.4063Z" fill="white"/>
<path d="M90.067 40.4208C90.1053 43.0237 92.0191 45.2055 94.8134 45.0141C97.378 44.861 99.4832 42.6026 99.3301 40.0763C99.177 37.4352 96.9187 35.4065 94.2775 35.5596C91.6746 35.7127 89.9904 37.9328 90.067 40.4208ZM83.9043 43.4065C83.9043 39.2342 83.9043 35.0237 83.9043 30.8514C83.9043 30.3538 83.9809 30.2773 84.4785 30.2773C86.1627 30.2773 87.8852 30.2773 89.5694 30.2773C89.9904 30.2773 90.067 30.3538 90.067 30.7749C90.067 31.2342 90.2584 31.349 90.6794 31.1194C95.8086 28.5165 102.01 30.4304 104.689 35.4447C107.407 40.4591 105.493 46.7749 100.44 49.3778C97.11 51.1002 93.7799 51.062 90.4498 49.3395C90.1435 49.1864 90.067 49.1864 90.067 49.5691C90.067 51.7127 90.067 53.8562 90.067 55.9998C90.067 56.4208 89.9904 56.5357 89.5694 56.5357C87.8469 56.5357 86.1627 56.5357 84.4402 56.5357C83.9809 56.5357 83.9043 56.4591 83.9043 55.9615C83.9043 51.7892 83.9043 47.5787 83.9043 43.4065Z" fill="white"/>
<path d="M67.3684 40.3064C67.3684 37.7035 65.2249 35.56 62.5837 35.56C60.0574 35.56 58.1053 37.5887 58.1053 40.2681C58.1053 42.9093 60.0191 45.0146 62.5072 45.0146C65.1866 45.0528 67.3684 42.9476 67.3684 40.3064ZM51.9809 43.4069C51.9809 39.2346 51.9809 35.0241 51.9809 30.8519C51.9809 30.316 52.0574 30.2777 52.555 30.2777C54.2392 30.2777 55.9234 30.2777 57.6077 30.2777C58.067 30.2777 58.1435 30.3543 58.1435 30.7753C58.1435 31.2346 58.3349 31.3495 58.7177 31.1198C64.6507 28.0193 71.9617 31.2729 73.6842 37.7801C74.8708 42.3734 72.6507 47.3112 68.4019 49.4547C65.1101 51.1007 61.8182 51.0624 58.5263 49.3399C58.2201 49.1868 58.1435 49.2251 58.1435 49.5696C58.1435 51.7131 58.1435 53.8567 58.1435 56.0002C58.1435 56.4978 58.067 56.5361 57.6077 56.5361C55.8852 56.5361 54.201 56.5361 52.4785 56.5361C52.0574 56.5361 51.9809 56.4595 51.9809 56.0385C51.9809 51.7897 51.9809 47.5791 51.9809 43.4069Z" fill="white"/>
<path d="M122.718 40.383C122.756 40.6892 122.833 41.1485 122.947 41.5696C123.828 44.4404 127.234 45.8567 129.761 44.3639C131.254 43.4835 131.904 42.1055 131.981 40.4596C132.057 38.8519 131.522 37.4739 130.258 36.4404C128.766 35.2921 127.12 35.1773 125.474 35.9811C123.713 36.7849 122.833 38.2777 122.718 40.383ZM138.144 40.0768C138.144 43.1773 138.144 46.316 138.144 49.4165C138.144 49.8375 138.067 49.9141 137.608 49.9141C135.885 49.9141 134.163 49.9141 132.44 49.9141C132.057 49.9141 131.981 49.8375 131.943 49.4548C131.943 49.1485 131.866 49.1103 131.56 49.2634C129.837 50.182 128 50.6031 126.01 50.5648C121.876 50.45 117.971 47.5792 116.632 43.6366C114.565 37.5887 118.316 31.2347 124.593 30.0863C127.043 29.627 129.378 30.0098 131.598 31.2347C131.866 31.3878 131.904 31.3112 131.943 31.0433V31.005C131.943 30.5074 132.211 30.2395 132.708 30.2395C134.354 30.2395 136 30.2395 137.646 30.2395C138.067 30.2395 138.105 30.316 138.105 30.6988C138.144 33.8375 138.144 36.938 138.144 40.0768Z" fill="white"/>
<path d="M147.56 56.4215C146.603 56.4215 145.646 56.4215 144.651 56.4215C144.191 56.4215 144.077 56.2684 144.23 55.8473C144.995 53.6272 145.722 51.3688 146.488 49.1487C146.565 48.9191 146.565 48.6894 146.488 48.4598C144.383 42.6799 142.239 36.8617 140.134 31.0818C140.096 31.0052 140.057 30.8904 140.057 30.8138C139.981 30.5459 140.096 30.3545 140.364 30.3545C142.201 30.3545 144.038 30.3545 145.837 30.3545C146.067 30.3545 146.144 30.5076 146.182 30.699C146.679 32.0387 147.177 33.4167 147.675 34.7564C148.325 36.5554 148.976 38.3162 149.665 40.1153C149.742 40.3066 149.78 40.498 150.01 40.4598C150.239 40.4598 150.277 40.2684 150.354 40.077C151.426 36.9765 152.459 33.8377 153.531 30.7373C153.608 30.4693 153.761 30.3545 154.067 30.3545C155.904 30.3545 157.703 30.3545 159.541 30.3545C160 30.3545 160.077 30.4693 159.923 30.9287C158.239 35.5985 156.555 40.2301 154.909 44.8999C153.608 48.5746 152.306 52.2492 151.005 55.9239C150.813 56.4215 150.813 56.4215 150.278 56.4215C149.359 56.4215 148.478 56.4215 147.56 56.4215Z" fill="white"/>
<path d="M114.258 36.9761C114.258 41.11 114.258 45.2823 114.258 49.4163C114.258 49.8756 114.182 49.9522 113.723 49.9522C111.923 49.9522 110.086 49.9522 108.287 49.9522C107.866 49.9522 107.789 49.8756 107.789 49.4545C107.789 41.1483 107.789 32.8421 107.789 24.4976C107.789 24.0766 107.866 24 108.287 24C110.086 24 111.923 24 113.723 24C114.182 24 114.258 24.0766 114.258 24.5359C114.258 28.6699 114.258 32.8421 114.258 36.9761Z" fill="white"/>
<path d="M81.9139 40.115C81.9139 43.2155 81.9139 46.316 81.9139 49.4165C81.9139 49.9141 81.8373 49.9906 81.3397 49.9906C79.6555 49.9906 77.9713 49.9906 76.2871 49.9906C75.7895 49.9906 75.7129 49.9141 75.7129 49.4165C75.7129 43.1772 75.7129 36.9763 75.7129 30.7371C75.7129 30.2777 75.7895 30.2012 76.2488 30.2012C77.933 30.2012 79.6555 30.2012 81.3397 30.2012C81.7608 30.2012 81.8756 30.2777 81.8756 30.7371C81.9139 33.8375 81.9139 36.9763 81.9139 40.115Z" fill="white"/>
</g>
<defs>
<clipPath id="clip0_7343_188">
<rect width="159.995" height="32.5361" fill="white" transform="translate(0 24)"/>
</clipPath>
</defs>
</svg>
