<svg width="200" height="50" viewBox="0 0 200 50" fill="none" xmlns="http://www.w3.org/2000/svg">
<path d="M52.6092 19.7858C52.5815 19.719 52.5653 19.6537 52.5375 19.5853C50.8693 15.4955 44.5308 14.2561 37.2236 16.1249L36.0251 15.3781C39.6224 13.8256 43.205 13.0152 46.2071 13.237C50.685 13.5761 52.875 16.1249 52.6092 19.7858ZM46.1125 28.3763C41.4275 34.3414 32.961 38.4704 27.1997 38.0431C21.4483 37.6077 20.5758 32.4237 25.2624 26.4587C25.3554 26.3363 25.4565 26.2157 25.5544 26.0934L25.5692 33.5718C25.5382 35.4732 27.3694 36.3651 28.6854 35.6101L45.9105 25.1052C47.2574 24.2328 47.1155 22.2808 45.8469 21.5291L38.8626 17.5094C40.7509 16.9419 42.5626 16.6745 44.1721 16.7935C49.9285 17.2289 50.7944 22.4113 46.1127 28.3764L46.1125 28.3763ZM24.2043 41.2523C18.9175 40.8544 16.809 37.3697 18.1853 32.6243C18.177 33.4152 18.3011 34.1735 18.5947 34.8779C20.6608 39.9576 29.9362 40.6457 39.3094 36.4287C39.5019 36.3423 39.6926 36.2477 39.8818 36.1629C34.6195 39.5597 28.7572 41.5899 24.2043 41.2524V41.2523ZM30.2949 14.6965L41.8582 21.984C42.7127 22.4961 42.8154 23.83 41.9055 24.4219L30.2248 31.5448C29.3328 32.0585 28.0821 31.447 28.1065 30.1473L28.0511 16.0043C28.1017 14.8237 29.2692 14.111 30.2949 14.6965H30.2949ZM57.0612 17.3202C54.638 11.3649 44.5733 10.0539 33.6819 13.9072L28.8485 10.879C27.3434 10.0196 25.6246 11.0665 25.5415 12.8081L25.5447 17.7263C16.1584 23.3506 10.7152 31.447 13.0324 37.1463C15.7181 43.7294 27.7478 44.6328 39.903 39.1569C52.0615 33.6843 59.7421 23.9066 57.0612 17.3202Z" fill="white"/>
<path d="M66.7226 25.9038L65.6724 29.7702C65.5159 30.3589 65.3952 30.8954 65.299 31.3569C65.1995 31.8428 65.1587 32.1902 65.1587 32.4054C65.1587 32.8196 65.2712 33.136 65.5012 33.3741C65.7425 33.6105 66.0621 33.7263 66.4551 33.7263C67.0715 33.7263 67.7124 33.379 68.3761 32.6843C69.0365 31.988 69.6692 30.9932 70.2873 29.6887C71.026 28.0205 71.6293 26.3784 72.0941 24.7346C72.5425 23.1104 72.779 21.832 72.779 20.9221C72.779 20.2616 72.642 19.7284 72.3762 19.3321C72.1087 18.931 71.7663 18.7255 71.3651 18.7255C70.4503 18.7255 69.617 19.3174 68.8522 20.4818C68.0874 21.6591 67.3781 23.4611 66.7225 25.9038H66.7226ZM60.1247 16.922C61.7571 16.7931 63.303 16.6219 64.7869 16.4311C66.2643 16.2403 67.6879 16.0186 69.0626 15.7495L67.9064 19.8947C69.0609 18.2917 70.1617 17.1144 71.2167 16.3904C72.2522 15.6419 73.3285 15.2864 74.4602 15.2864C75.9996 15.2864 77.1949 15.7723 78.0249 16.741C78.868 17.7194 79.2805 19.1087 79.2805 20.9058C79.2805 22.4223 78.9984 24.0236 78.4228 25.6951C77.8439 27.3698 77.0302 28.9255 76.0143 30.3703C74.819 32.0499 73.5584 33.3088 72.2098 34.1421C70.8547 34.9819 69.4279 35.4059 67.9064 35.4059C67.2819 35.4059 66.6997 35.3195 66.1469 35.1319C65.6055 34.9379 65.1147 34.6753 64.6695 34.3199L63.4856 38.8141C63.4041 39.0831 63.3405 39.3717 63.3095 39.6539C63.2637 39.9294 63.2524 40.2083 63.2524 40.4871C63.2524 41.0269 63.4073 41.4183 63.7269 41.6368C64.0482 41.8537 64.6972 41.9874 65.6724 42.0493V43.0995H54.6358V42.0037C54.6732 42.0037 54.7271 41.9986 54.7972 41.9857C54.8706 41.9676 54.9277 41.9611 54.9554 41.9611C55.6419 41.9611 56.1523 41.785 56.4948 41.4247C56.8405 41.0659 57.1911 40.1315 57.5612 38.6084L61.9543 20.7148C62.031 20.4294 62.0897 20.1375 62.137 19.8603C62.1809 19.5929 62.2071 19.3727 62.2071 19.226C62.2071 18.7335 62.0587 18.4041 61.7717 18.2231C61.4749 18.0209 60.9254 17.9296 60.1247 17.9296L60.1247 16.922Z" fill="white"/>
<path d="M80.3753 7.0519C82.0256 6.91817 83.6008 6.73883 85.1321 6.52029C86.6519 6.30341 88.0967 6.05228 89.4518 5.74408L83.3905 29.7365C83.3512 29.8686 83.3057 30.0268 83.2535 30.2355C83.1736 30.5454 83.1442 30.7443 83.1442 30.8503C83.1442 31.1324 83.1964 31.3574 83.3073 31.5124C83.4247 31.6738 83.5894 31.7521 83.8031 31.7521C84.0216 31.7521 84.2678 31.602 84.5516 31.2938C84.832 30.9922 85.3767 30.198 86.1871 28.9114L87.1541 29.6452C85.9376 31.682 84.7652 33.1626 83.6628 34.0791C82.5605 34.9939 81.4157 35.4489 80.2188 35.4489C79.1637 35.4489 78.3386 35.157 77.7695 34.5618C77.1938 33.9666 76.9117 33.1088 76.9117 32.0016C76.9117 31.4569 77.2069 30.0121 77.789 27.6704L77.8478 27.434L81.8707 11.8184C81.9067 11.675 81.9571 11.4613 82.0223 11.1808C82.2784 10.1535 82.3909 9.49146 82.3909 9.20608C82.3909 8.81308 82.2588 8.52772 81.9849 8.33692C81.7174 8.15267 81.3 8.05319 80.7211 8.05319H80.3754L80.3753 7.0519Z" fill="white"/>
<path d="M99.3514 19.4771C99.3514 18.9031 99.2307 18.4482 98.9796 18.1057C98.7285 17.7665 98.4039 17.5986 97.9979 17.5986C97.4206 17.5986 96.8662 17.8791 96.3281 18.4498C95.7899 19.0271 95.1735 19.9794 94.4674 21.3133C93.6423 22.9032 92.9949 24.4524 92.5302 25.9804C92.0524 27.5214 91.8159 28.8243 91.8159 29.9055C91.8159 30.5626 91.948 31.0698 92.2089 31.4546C92.4715 31.8167 92.8319 32.0009 93.2705 32.0009C93.9212 32.0009 94.5849 31.6144 95.273 30.8235C95.9595 30.0375 96.6086 28.9287 97.2233 27.5018C97.8691 25.9119 98.3779 24.3611 98.7676 22.8837C99.1541 21.3948 99.3514 20.2615 99.3514 19.4771H99.3514ZM106.663 15.9565L103.43 27.8247V27.8672C102.937 29.6952 102.689 30.7584 102.689 31.0634C102.689 31.3455 102.738 31.5705 102.853 31.7466C102.958 31.9244 103.097 32.001 103.283 32.001C103.806 32.001 104.49 31.3716 105.31 30.1078C105.558 29.7474 105.749 29.462 105.879 29.2631L106.818 30.0034C105.763 31.8559 104.711 33.2257 103.638 34.0981C102.565 34.9738 101.406 35.4059 100.172 35.4059C99.1427 35.4059 98.3567 35.1776 97.8267 34.7259C97.2804 34.2579 97.0146 33.5926 97.0146 32.7038C97.0146 32.4397 97.034 32.0988 97.0912 31.6993C97.1385 31.2933 97.2234 30.7682 97.3359 30.1273C96.3591 31.9129 95.2942 33.242 94.1446 34.0997C92.9998 34.9738 91.7197 35.4059 90.3092 35.4059C88.8513 35.4059 87.705 34.9526 86.8619 34.0426C86.0156 33.1229 85.5932 31.8754 85.5932 30.2871C85.5932 28.4591 85.9927 26.5349 86.813 24.4998C87.6218 22.4908 88.7095 20.6921 90.0809 19.1479C91.162 17.9069 92.2807 16.953 93.445 16.2844C94.6175 15.6158 95.7378 15.2864 96.8157 15.2864C97.8463 15.2864 98.6453 15.5375 99.2405 16.0349C99.8341 16.5404 100.224 17.3084 100.411 18.3309L101.007 15.9566L106.663 15.9565Z" fill="white"/>
<path d="M104.779 17.5981V16.5023C106.354 16.3262 107.949 16.1077 109.575 15.8631C111.188 15.6168 112.067 15.4978 112.189 15.4978C112.838 15.4978 113.688 18.3532 114.717 24.0737C115.134 26.3501 115.476 28.1846 115.746 29.5577C116.972 27.0709 117.81 25.2559 118.263 24.1209C118.715 22.9925 118.937 22.1527 118.937 21.6162C118.937 21.2004 118.558 20.6948 117.805 20.1192C117.053 19.537 116.668 18.8685 116.668 18.1298C116.668 17.2737 116.929 16.5839 117.461 16.0604C117.981 15.5451 118.678 15.2858 119.547 15.2858C120.406 15.2858 121.084 15.5451 121.57 16.0604C122.048 16.5839 122.296 17.316 122.296 18.2472C122.296 19.418 121.733 21.3047 120.62 23.8992C119.503 26.4887 117.976 29.4044 116.044 32.6658C113.857 36.3838 111.861 39.0826 110.071 40.7915C108.279 42.4989 106.553 43.3485 104.895 43.3485C103.793 43.3485 102.93 43.1039 102.299 42.613C101.671 42.1189 101.355 41.4438 101.355 40.5828C101.355 39.8001 101.624 39.1658 102.173 38.6504C102.716 38.14 103.404 37.8873 104.243 37.8873C104.898 37.8873 105.603 38.1498 106.354 38.6668C107.103 39.1918 107.613 39.4397 107.861 39.4397C108.313 39.4397 108.822 39.0614 109.397 38.3064C109.989 37.5416 110.284 36.8241 110.284 36.1278C110.284 35.6206 110.237 34.9732 110.147 34.197C110.059 33.4127 109.917 32.4554 109.735 31.3188C109.353 28.8809 108.967 26.655 108.582 24.6574C108.187 22.6631 107.837 21.0878 107.522 19.9366C107.245 18.9484 106.966 18.3059 106.684 18.0026C106.402 17.7025 105.945 17.5541 105.293 17.5541H105.242C105.053 17.58 104.908 17.5981 104.779 17.5981" fill="white"/>
<path d="M129.997 30.04C128.779 31.7571 127.582 33.0747 126.416 33.9846C125.262 34.9044 124.206 35.361 123.248 35.361C122.475 35.361 121.871 35.1049 121.426 34.6108C120.981 34.1053 120.754 33.4286 120.754 32.5806C120.754 32.2822 120.785 31.9512 120.844 31.5794C120.898 31.2043 120.984 30.7885 121.1 30.3498L124.577 16.7563H120.916L121.257 15.5871C122.83 15.243 124.221 14.4929 125.436 13.3319C126.644 12.1659 127.742 10.5564 128.706 8.49524H129.955L128.321 15.3197H131.665L131.328 16.7563H127.88L124.542 29.8867C124.466 30.1851 124.407 30.446 124.366 30.6923C124.339 30.932 124.312 31.1521 124.312 31.338C124.312 31.7751 124.407 32.1045 124.604 32.3393C124.785 32.5725 125.061 32.685 125.395 32.685C125.832 32.685 126.346 32.4306 126.954 31.8974C127.561 31.3755 128.329 30.5178 129.25 29.3355L129.997 30.04Z" fill="white"/>
<path d="M133.412 25.5645C136.102 25.4357 138.37 24.6986 140.189 23.3696C142.022 22.0194 142.925 20.5045 142.925 18.7857C142.925 18.2101 142.78 17.7779 142.488 17.4877C142.206 17.2089 141.767 17.0653 141.179 17.0653C139.548 17.0653 138.033 17.804 136.647 19.3108C135.259 20.8274 134.184 22.9081 133.412 25.5645H133.412ZM133.094 27.0044C132.968 27.492 132.888 27.9633 132.831 28.4117C132.764 28.8471 132.746 29.2564 132.746 29.6266C132.746 30.7648 133.022 31.634 133.589 32.2324C134.147 32.8325 134.97 33.2761 136.043 33.2761C137.1 33.2761 138.315 32.7738 139.652 32.0482C141.006 31.3274 142.527 30.2348 144.204 28.7754L145.089 30.1158C143.088 31.9193 141.205 33.2533 139.434 34.1045C137.669 34.9737 135.941 35.3976 134.243 35.3976C132.582 35.3976 131.277 34.8937 130.362 33.9039C129.439 32.901 128.981 31.497 128.981 29.6657C128.981 27.916 129.34 26.1353 130.057 24.3317C130.775 22.5347 131.756 20.9219 132.996 19.5261C134.198 18.1872 135.52 17.1713 136.944 16.4603C138.388 15.7575 139.861 15.3939 141.378 15.3939C142.775 15.3939 143.869 15.7216 144.678 16.3707C145.485 17.0148 145.893 17.9035 145.893 19.0352C145.893 21.0719 144.706 22.8413 142.354 24.3284C139.998 25.8124 136.911 26.6979 133.094 27.0044Z" fill="white"/>
<path d="M159.383 27.2838L159.331 29.857C158.064 31.7111 156.691 33.0939 155.196 34.0169C153.7 34.9317 152.068 35.3867 150.3 35.3867C148.365 35.3867 146.783 34.7393 145.568 33.4282C144.358 32.1384 143.755 30.4196 143.755 28.285C143.755 26.7163 144.097 25.1166 144.782 23.4842C145.459 21.8454 146.411 20.3908 147.626 19.0977C148.737 17.9285 149.983 17.0153 151.364 16.3891C152.732 15.7515 154.131 15.4237 155.573 15.4237C157.084 15.4237 158.284 15.7759 159.18 16.4657C160.073 17.1571 160.522 18.0752 160.522 19.233C160.522 19.9195 160.293 20.5147 159.824 21.004C159.361 21.4981 158.813 21.7394 158.172 21.7394C157.648 21.7394 157.226 21.5747 156.902 21.2274C156.579 20.8849 156.417 20.4414 156.417 19.8869C156.417 19.5004 156.543 19.0585 156.809 18.5432C157.065 18.0361 157.189 17.7197 157.189 17.5925C157.189 17.3544 157.063 17.1637 156.794 17.0153C156.527 16.8669 156.174 16.7935 155.716 16.7935C154.785 16.7935 153.842 17.0772 152.871 17.6643C151.907 18.2611 151.064 19.0634 150.34 20.0826C149.457 21.3187 148.776 22.6346 148.298 24.024C147.827 25.4101 147.594 26.757 147.594 28.0909C147.594 29.5977 147.972 30.8028 148.737 31.6817C149.51 32.5623 150.547 33.1592 151.859 33.1592C152.895 33.1592 153.913 32.6748 154.912 32.0291C155.918 31.3719 157.583 30.0641 159.384 27.2838" fill="white"/>
<path d="M157.102 35.4095L163.95 10.6017C163.99 10.45 164.015 10.2967 164.033 10.1304C164.059 9.97874 164.066 9.82056 164.066 9.6934C164.066 9.25149 163.953 8.94817 163.74 8.77695C163.523 8.62529 162.901 8.54213 161.887 8.54213H160.328L160.569 7.41043C161.827 7.35986 163.001 7.21148 164.095 6.99788C165.178 6.76958 166.215 6.47605 167.175 6.09283H168.413L163.674 23.2282C166.101 20.7544 168.337 18.84 170.37 17.4604C172.399 16.1053 174.019 15.4172 175.228 15.4172C175.865 15.4172 176.327 15.5688 176.633 15.8721C176.932 16.1852 177.093 16.6597 177.093 17.2973C177.093 17.4963 177.061 17.7327 177.002 18.0181C176.948 18.3132 176.875 18.6361 176.787 18.9835L173.328 30.656C173.268 30.8794 173.211 31.1322 173.167 31.4029C173.119 31.6637 173.095 31.9345 173.095 32.1954C173.095 32.3454 173.167 32.4759 173.291 32.5965C173.414 32.7107 173.566 32.9145 173.729 32.9145C174.067 32.9145 174.541 32.5427 175.133 32.0828C175.73 31.623 176.356 30.9935 177.018 30.1978L177.723 30.8027C176.532 32.2802 175.384 33.4184 174.284 34.1929C173.178 34.9757 172.157 35.3703 171.228 35.3703C170.619 35.3703 170.14 35.2203 169.789 34.9268C169.432 34.6267 169.263 34.2288 169.263 33.7086C169.263 33.526 169.278 33.3287 169.318 33.1183C169.354 32.9096 169.423 32.6829 169.506 32.4334L173.059 20.3614C173.124 20.0972 173.167 19.895 173.189 19.758C173.211 19.6259 173.217 19.4938 173.217 19.3829C173.217 19.0747 173.134 18.8399 172.955 18.6736C172.785 18.5203 172.537 18.4404 172.211 18.4404C171.705 18.4404 170.959 18.7551 169.975 19.3943C168.984 20.0319 167.854 20.9435 166.552 22.1225C165.39 23.1662 164.53 24.0549 163.991 24.7903C163.451 25.5274 163.056 26.2906 162.812 27.0831L160.455 35.4094C160.186 35.3687 159.234 35.3377 158.957 35.3197C158.681 35.3003 159.084 35.3003 158.798 35.3003C158.51 35.3003 158.221 35.3003 157.942 35.3197C157.672 35.3378 157.391 35.3686 157.103 35.4094" fill="white"/>
<path d="M116.435 42.2334V42.5562C116.433 42.7226 116.451 42.8742 116.497 43.0194C116.594 43.4107 116.912 43.6064 117.455 43.6064C117.658 43.6064 117.84 43.5787 118.005 43.5216C118.375 43.4091 118.563 43.1302 118.574 42.6949C118.571 42.3964 118.45 42.1633 118.209 42.0002C118.036 41.8877 117.832 41.7784 117.596 41.6659L116.88 41.3414C116.596 41.2158 116.36 41.087 116.172 40.9533C115.777 40.6777 115.578 40.2847 115.578 39.7694C115.584 39.2052 115.807 38.8073 116.242 38.5709C116.568 38.3931 117.012 38.3018 117.581 38.2969C118.272 38.2969 118.773 38.4273 119.078 38.6899C119.321 38.9003 119.443 39.3144 119.443 39.9308V40.0466H118.46V39.908L118.44 39.608C118.38 39.1579 118.088 38.9377 117.566 38.9492C116.904 38.9492 116.57 39.215 116.562 39.745C116.562 40.0825 116.771 40.3581 117.183 40.5701C117.442 40.7054 117.731 40.8375 118.054 40.9745C118.38 41.1082 118.644 41.237 118.847 41.3593C119.321 41.6496 119.559 42.0833 119.559 42.6688C119.549 43.7238 118.85 44.2554 117.457 44.2554C116.86 44.2637 116.4 44.1625 116.079 43.9603C115.703 43.7189 115.499 43.3798 115.466 42.9297L115.453 42.4649V42.2334L116.435 42.2334Z" fill="white"/>
<path d="M120.216 40.2498C120.22 39.7736 120.265 39.4263 120.348 39.2045C120.482 38.8556 120.771 38.6044 121.218 38.4593C121.54 38.35 121.888 38.2962 122.261 38.2962C122.628 38.2962 122.975 38.35 123.303 38.4593C123.744 38.6044 124.031 38.8556 124.166 39.2045C124.249 39.4214 124.296 39.7736 124.303 40.2498V42.192C124.303 42.5409 124.283 42.8459 124.244 43.0986C124.135 43.8634 123.483 44.2515 122.289 44.2548C121.423 44.2548 120.843 44.077 120.547 43.7166C120.322 43.4476 120.211 42.9372 120.216 42.192L120.216 40.2498ZM121.201 42.1854C121.205 42.673 121.241 42.9926 121.307 43.1345C121.374 43.278 121.503 43.3954 121.686 43.4802C121.873 43.5634 122.064 43.6057 122.261 43.6057C122.439 43.6057 122.612 43.5729 122.775 43.4998C123.088 43.3758 123.259 43.1541 123.29 42.8361C123.306 42.6551 123.315 42.4398 123.318 42.1854V40.2449C123.324 39.8242 123.275 39.5274 123.178 39.3578C123.023 39.0838 122.715 38.9452 122.261 38.9485C122.084 38.9485 121.919 38.9744 121.764 39.0349C121.443 39.1442 121.263 39.3708 121.226 39.7084C121.204 39.8617 121.198 40.0411 121.201 40.2449V42.1854Z" fill="white"/>
<path d="M125.193 38.3799H126.175V42.2463L126.185 42.7567C126.219 43.3193 126.547 43.603 127.166 43.6063C127.788 43.6063 128.128 43.3421 128.187 42.8105C128.21 42.6246 128.221 42.437 128.225 42.2463V38.3799H129.208V42.3082C129.205 42.6295 129.193 42.8773 129.174 43.0551C129.143 43.3242 129.035 43.5492 128.846 43.7302C128.487 44.0808 127.938 44.252 127.197 44.2553C126.429 44.252 125.875 44.0824 125.537 43.74C125.348 43.5443 125.242 43.3176 125.218 43.0551C125.201 42.8985 125.193 42.6523 125.193 42.3082L125.193 38.3799Z" fill="white"/>
<path d="M131.771 38.3799H132.358C132.585 38.3799 132.793 38.4012 132.983 38.4321C133.708 38.5479 134.075 39.0093 134.087 39.8231C134.087 40.2503 133.99 40.5699 133.8 40.7966C133.614 41.007 133.25 41.1488 132.717 41.2254V41.2222C133.049 41.255 133.289 41.3054 133.436 41.3739C133.646 41.4782 133.778 41.6478 133.83 41.8777C133.865 42.0294 133.884 42.2104 133.894 42.4142L133.937 43.0959C133.953 43.3551 133.981 43.559 134.018 43.7074C134.039 43.8134 134.087 43.9683 134.163 44.1721H133.139L133.04 43.802C133.012 43.6976 132.994 43.5639 132.986 43.4024L132.947 42.8822L132.914 42.3392C132.868 41.9251 132.668 41.6739 132.314 41.5924C132.165 41.5614 131.988 41.5451 131.8 41.5451H131.12V44.1721H130.133V38.3799L131.771 38.3799ZM131.12 39.0322V40.8912H131.823C132.033 40.8912 132.21 40.8782 132.368 40.8551C132.668 40.8078 132.877 40.6871 132.992 40.4915C133.067 40.3626 133.103 40.149 133.103 39.849C133.103 39.5277 132.994 39.3027 132.774 39.1787C132.614 39.0842 132.319 39.0353 131.879 39.032L131.12 39.0322Z" fill="white"/>
<path d="M137.787 39.9074L137.781 39.6383C137.757 39.1752 137.483 38.9453 136.955 38.9485C136.485 38.9502 136.18 39.0725 136.038 39.3138C135.96 39.4296 135.918 39.5502 135.909 39.6693L135.901 40.1454V42.4317C135.904 42.8459 135.945 43.1133 136.02 43.2307C136.183 43.4802 136.464 43.6058 136.863 43.6058C137.383 43.6025 137.68 43.3563 137.745 42.8655L137.786 42.492V42.293H138.769V42.4952L138.761 42.8573C138.728 43.2894 138.583 43.6204 138.316 43.852C138.154 43.9938 137.962 44.0917 137.743 44.1488C137.483 44.2205 137.2 44.2548 136.892 44.2548C136.628 44.2599 136.38 44.2354 136.137 44.1863C135.327 44.0346 134.921 43.4949 134.916 42.5621V40.2547C134.914 40.0019 134.927 39.7704 134.963 39.5535C134.999 39.2893 135.087 39.0675 135.227 38.8947C135.54 38.5033 136.103 38.3027 136.913 38.2962C138.047 38.3027 138.658 38.6631 138.745 39.3741C138.761 39.5111 138.769 39.6627 138.769 39.8307V40.0557H137.786L137.787 39.9074Z" fill="white"/>
<path d="M139.628 38.3799H142.845V39.0322H140.611V40.8683H142.706V41.5206H140.611V43.5182H142.907V44.1721H139.628V38.3799Z" fill="white"/>
<path d="M145.457 40.2498C145.459 39.7736 145.501 39.4263 145.588 39.2045C145.718 38.8556 146.008 38.6044 146.455 38.4593C146.778 38.35 147.125 38.2962 147.499 38.2962C147.866 38.2962 148.215 38.35 148.544 38.4593C148.981 38.6044 149.27 38.8556 149.407 39.2045C149.49 39.4214 149.536 39.7736 149.542 40.2498V42.192C149.542 42.5409 149.523 42.8459 149.487 43.0986C149.371 43.8634 148.724 44.2515 147.527 44.2548C146.659 44.2548 146.079 44.077 145.787 43.7166C145.562 43.4476 145.452 42.9372 145.457 42.192V40.2498ZM146.439 42.1854C146.444 42.673 146.48 42.9926 146.548 43.1345C146.615 43.278 146.741 43.3954 146.925 43.4802C147.111 43.5634 147.303 43.6057 147.499 43.6057C147.68 43.6057 147.85 43.5729 148.016 43.4998C148.324 43.3758 148.495 43.1541 148.526 42.8361C148.544 42.6551 148.554 42.4398 148.556 42.1854V40.2449C148.562 39.8242 148.515 39.5274 148.417 39.3578C148.261 39.0838 147.952 38.9452 147.499 38.9485C147.321 38.9485 147.158 38.9744 147.003 39.0349C146.682 39.1442 146.503 39.3708 146.467 39.7084C146.444 39.8617 146.436 40.0411 146.439 40.2449L146.439 42.1854Z" fill="white"/>
<path d="M153.574 38.3799V39.0322H151.423V40.8634H153.492V41.5141H151.423V44.1721H150.438V38.3799H153.574Z" fill="white"/>
<path d="M156.845 42.2334V42.5562C156.84 42.7226 156.858 42.8742 156.904 43.0194C157.002 43.4107 157.323 43.6064 157.861 43.6064C158.064 43.6064 158.248 43.5787 158.414 43.5216C158.781 43.4091 158.97 43.1302 158.983 42.6949C158.98 42.3964 158.861 42.1633 158.618 42.0002C158.445 41.8877 158.24 41.7784 158.003 41.6659L157.287 41.3414C157.005 41.2158 156.769 41.087 156.576 40.9533C156.187 40.6777 155.988 40.2847 155.988 39.7694C155.996 39.2052 156.214 38.8073 156.653 38.5709C156.976 38.3931 157.423 38.3018 157.989 38.2969C158.68 38.2969 159.179 38.4273 159.489 38.6899C159.732 38.9003 159.851 39.3144 159.851 39.9308V40.0466H158.869V39.908L158.85 39.608C158.788 39.1579 158.498 38.9377 157.974 38.9492C157.309 38.9492 156.979 39.215 156.97 39.745C156.97 40.0825 157.18 40.3581 157.593 40.5701C157.849 40.7054 158.14 40.8375 158.463 40.9745C158.788 41.1082 159.054 41.237 159.257 41.3593C159.729 41.6496 159.968 42.0833 159.968 42.6688C159.957 43.7238 159.257 44.2554 157.866 44.2554C157.268 44.2637 156.808 44.1625 156.489 43.9603C156.11 43.7189 155.906 43.3798 155.877 42.9297L155.861 42.4649V42.2334L156.845 42.2334Z" fill="white"/>
<path d="M160.661 38.3799H161.643V42.2463L161.651 42.7567C161.686 43.3193 162.017 43.603 162.633 43.6063C163.254 43.6063 163.595 43.3421 163.655 42.8105C163.675 42.6246 163.686 42.437 163.69 42.2463V38.3799H164.675V42.3082C164.671 42.6295 164.66 42.8773 164.637 43.0551C164.611 43.3242 164.502 43.5492 164.314 43.7302C163.952 44.0808 163.401 44.252 162.664 44.2553C161.896 44.252 161.34 44.0824 161.001 43.74C160.815 43.5443 160.709 43.3176 160.684 43.0551C160.67 42.8985 160.662 42.6523 160.662 42.3082L160.661 38.3799Z" fill="white"/>
<path d="M168.505 39.9074L168.5 39.6383C168.477 39.1752 168.198 38.9453 167.67 38.9485C167.202 38.9502 166.899 39.0725 166.755 39.3138C166.679 39.4296 166.636 39.5502 166.626 39.6693L166.618 40.1454V42.4317C166.623 42.8459 166.662 43.1133 166.742 43.2307C166.9 43.4802 167.182 43.6058 167.58 43.6058C168.102 43.6025 168.397 43.3563 168.466 42.8655L168.505 42.492V42.293H169.488V42.4952L169.479 42.8573C169.451 43.2894 169.299 43.6204 169.033 43.852C168.87 43.9938 168.68 44.0917 168.461 44.1488C168.198 44.2205 167.916 44.2548 167.611 44.2548C167.346 44.2599 167.095 44.2354 166.856 44.1863C166.046 44.0346 165.64 43.4949 165.638 42.5621V40.2547C165.633 40.0019 165.648 39.7704 165.682 39.5535C165.715 39.2893 165.801 39.0675 165.945 38.8947C166.26 38.5033 166.82 38.3027 167.633 38.2962C168.768 38.3027 169.379 38.6631 169.464 39.3741C169.479 39.5111 169.488 39.6627 169.488 39.8307V40.0557H168.505L168.505 39.9074Z" fill="white"/>
<path d="M173.254 39.9074L173.249 39.6383C173.224 39.1752 172.952 38.9453 172.42 38.9485C171.951 38.9502 171.647 39.0725 171.504 39.3138C171.425 39.4296 171.383 39.5502 171.378 39.6693L171.367 40.1454V42.4317C171.37 42.8459 171.412 43.1133 171.487 43.2307C171.65 43.4802 171.931 43.6058 172.329 43.6058C172.852 43.6025 173.146 43.3563 173.213 42.8655L173.253 42.492V42.293H174.237V42.4952L174.228 42.8573C174.195 43.2894 174.047 43.6204 173.783 43.852C173.622 43.9938 173.429 44.0917 173.209 44.1488C172.951 44.2205 172.664 44.2548 172.358 44.2548C172.095 44.2599 171.843 44.2354 171.604 44.1863C170.794 44.0346 170.388 43.4949 170.383 42.5621V40.2547C170.378 40.0019 170.396 39.7704 170.43 39.5535C170.465 39.2893 170.549 39.0675 170.691 38.8947C171.006 38.5033 171.57 38.3027 172.381 38.2962C173.516 38.3027 174.125 38.6631 174.212 39.3741C174.228 39.5111 174.236 39.6627 174.236 39.8307V40.0557H173.253L173.254 39.9074Z" fill="white"/>
<path d="M175.094 38.3799H178.31V39.0322H176.077V40.8683H178.171V41.5206H176.077V43.5182H178.373V44.1721H175.094V38.3799Z" fill="white"/>
<path d="M179.818 42.2334V42.5562C179.814 42.7226 179.834 42.8742 179.88 43.0194C179.977 43.4107 180.295 43.6064 180.835 43.6064C181.037 43.6064 181.223 43.5787 181.388 43.5216C181.755 43.4091 181.946 43.1302 181.96 42.6949C181.954 42.3964 181.833 42.1633 181.592 42.0002C181.419 41.8877 181.213 41.7784 180.977 41.6659L180.263 41.3414C179.979 41.2158 179.743 41.087 179.553 40.9533C179.162 40.6777 178.963 40.2847 178.963 39.7694C178.97 39.2052 179.188 38.8073 179.627 38.5709C179.95 38.3931 180.395 38.3018 180.964 38.2969C181.655 38.2969 182.154 38.4273 182.464 38.6899C182.706 38.9003 182.826 39.3144 182.826 39.9308V40.0466H181.843V39.908L181.824 39.608C181.763 39.1579 181.47 38.9377 180.948 38.9492C180.287 38.9492 179.951 39.215 179.945 39.745C179.945 40.0825 180.154 40.3581 180.565 40.5701C180.822 40.7054 181.114 40.8375 181.439 40.9745C181.763 41.1082 182.026 41.237 182.231 41.3593C182.702 41.6496 182.944 42.0833 182.944 42.6688C182.932 43.7238 182.234 44.2554 180.84 44.2554C180.24 44.2637 179.784 44.1625 179.464 43.9603C179.084 43.7189 178.88 43.3798 178.852 42.9297L178.834 42.4649V42.2334L179.818 42.2334Z" fill="white"/>
<path d="M184.377 42.2334V42.5562C184.372 42.7226 184.392 42.8742 184.436 43.0194C184.534 43.4107 184.855 43.6064 185.393 43.6064C185.597 43.6064 185.779 43.5787 185.942 43.5216C186.313 43.4091 186.502 43.1302 186.516 42.6949C186.511 42.3964 186.389 42.1633 186.148 42.0002C185.977 41.8877 185.77 41.7784 185.533 41.6659L184.821 41.3414C184.537 41.2158 184.3 41.087 184.111 40.9533C183.717 40.6777 183.519 40.2847 183.519 39.7694C183.526 39.2052 183.748 38.8073 184.183 38.5709C184.507 38.3931 184.951 38.3018 185.522 38.2969C186.215 38.2969 186.711 38.4273 187.019 38.6899C187.262 38.9003 187.386 39.3144 187.386 39.9308V40.0466H186.402V39.908L186.38 39.608C186.321 39.1579 186.027 38.9377 185.504 38.9492C184.845 38.9492 184.509 39.215 184.503 39.745C184.503 40.0825 184.708 40.3581 185.126 40.5701C185.38 40.7054 185.672 40.8375 185.995 40.9745C186.321 41.1082 186.583 41.237 186.786 41.3593C187.26 41.6496 187.5 42.0833 187.5 42.6688C187.488 43.7238 186.789 44.2554 185.398 44.2554C184.801 44.2637 184.343 44.1625 184.022 43.9603C183.64 43.7189 183.438 43.3798 183.409 42.9297L183.391 42.4649V42.2334L184.377 42.2334Z" fill="white"/>
</svg>
