<svg width="160" height="80" viewBox="0 0 160 80" fill="none" xmlns="http://www.w3.org/2000/svg">
<path d="M34.08 79.6044C33.4975 79.6044 32.915 79.6044 32.3326 79.6044C27.4786 79.2161 22.2364 75.5271 21.8481 69.5083C21.6539 67.955 22.0422 66.2076 22.6247 64.8485C20.8773 62.3245 18.7416 57.4705 19.5182 51.6458C20.2948 47.1802 22.6247 43.2971 26.5079 40.1905C26.3137 39.9964 26.1195 39.9964 25.9254 39.8022C23.5955 41.1613 21.2656 41.938 18.9357 42.1321C18.1591 42.1321 17.3825 42.1321 16.8 42.1321C12.1402 42.1321 8.6454 40.9672 6.12135 38.249C4.5681 36.6957 2.82068 33.5892 3.01484 28.9294C3.40315 24.658 6.89798 21.3573 11.1694 21.3573C14.6643 21.3573 16.6058 23.493 17.5766 24.4638C18.3533 23.493 19.324 21.7456 20.8773 19.2216C28.0611 6.60135 35.6332 0.194158 43.3995 0.194158H43.5937C45.7294 0.194158 50.0009 0.388313 53.4957 2.52404C54.4665 1.94157 55.4373 1.3591 56.6022 1.16494C58.7379 0.388315 60.8737 0 62.6211 0C68.0575 0 70.5815 3.30067 71.5523 4.65978C72.1348 5.82472 73.2997 8.34876 72.5231 11.8436C74.0764 11.2611 75.6296 11.067 77.377 10.8728C77.9595 10.8728 78.542 10.8728 79.1244 10.8728C84.755 10.8728 87.8615 12.8144 89.6089 14.5618C92.9096 12.0377 96.9869 10.8728 101.453 10.8728C103.394 10.8728 105.53 11.067 107.666 11.6494L114.655 11.067C114.849 11.067 115.044 11.067 115.238 11.067C117.762 11.067 120.092 12.2319 121.451 14.1735C124.751 12.0377 128.635 10.8728 132.906 10.8728C134.653 10.8728 136.595 11.067 138.537 11.4553C143.002 11.2611 144.361 11.2611 144.75 11.2611C145.138 11.2611 145.526 11.2611 145.915 11.2611C148.244 11.2611 150.574 12.2319 151.933 14.1735C153.875 16.5034 154.263 19.9982 152.904 22.7164L152.516 23.493C154.846 24.658 156.399 26.9878 156.787 29.706V30.4827C157.176 33.5892 155.622 36.6957 152.71 38.249C152.322 38.4431 148.439 40.5789 143.585 41.5496C143.585 42.1321 143.39 42.5204 143.196 42.9087C145.526 43.297 148.244 44.462 150.38 46.7919C152.322 49.1218 153.098 52.0341 152.516 55.1406C152.516 55.7231 152.322 56.1114 152.128 56.6939C153.292 57.4705 154.069 58.6355 154.652 59.8004C156.205 63.2952 155.04 67.5667 151.739 69.7024C147.662 72.4206 143.39 73.7797 139.313 73.7797C136.012 73.7797 132.906 73.0031 129.994 71.4498C128.052 72.8089 125.722 73.3914 123.198 73.3914C123.004 73.3914 122.616 73.3914 122.421 73.3914C119.897 73.1973 117.762 72.6148 116.014 71.644C111.355 73.1973 107.083 73.7797 103.588 73.7797C100.288 73.7797 97.3752 73.1973 95.0453 72.0323C91.5505 73.1973 87.8615 73.5856 85.3375 73.5856C83.3959 73.5856 81.6485 73.3914 79.9011 73.1973C79.3186 73.0031 78.542 73.0031 77.9595 72.8089C75.6296 73.5856 73.1056 73.9739 70.3874 73.9739C65.1451 73.9739 60.8737 71.4498 58.5438 67.3725C56.4081 70.0907 54.2723 72.2265 51.9424 73.5856C45.3411 77.6629 39.3222 79.6044 34.08 79.6044ZM40.6813 52.6166C40.0989 53.1991 39.5164 53.5874 39.1281 54.1699C39.5164 54.1699 39.9047 53.9757 40.0989 53.9757C40.293 53.3932 40.4872 53.0049 40.6813 52.6166ZM71.9406 42.3263C71.7465 43.297 71.3582 44.0737 70.7757 44.8503C73.8822 43.6854 76.6004 43.297 78.7361 43.297C80.6777 43.297 82.6193 43.4912 84.5608 44.0737L86.6966 43.8795C86.1141 42.9087 85.7258 41.7438 85.5316 40.5789C81.6485 41.7438 77.9595 42.1321 74.4647 42.1321C73.4939 42.3263 72.7173 42.3263 71.9406 42.3263ZM111.355 42.9087C113.879 42.9087 116.014 43.297 117.762 44.2678L119.315 40.9672C118.732 40.773 117.956 40.3847 117.373 39.9964L116.597 40.3847C114.849 41.1613 113.102 41.7438 111.549 42.3263C111.743 42.5204 111.549 42.7146 111.355 42.9087Z" fill="#010141"/>
<path d="M34.0802 78.6338C33.4977 78.6338 33.1094 78.6338 32.5269 78.6338C28.2555 78.2454 23.4016 74.9448 23.0132 69.5084C22.8191 67.9551 23.2074 66.2077 23.984 64.8486C22.4308 62.7129 19.9067 57.8589 20.8775 52.0342C21.6541 47.3744 24.1782 43.4913 28.838 40.1906C28.0613 39.8023 27.0905 39.2198 26.5081 38.4432C23.984 39.9965 21.6541 40.9673 19.1301 40.9673C18.3535 40.9673 17.5768 40.9673 16.9944 40.9673C12.7229 40.9673 9.42224 39.8023 7.09236 37.4724C5.73326 35.9192 3.98584 33.3951 4.18 28.9295C4.37415 25.2405 7.28651 22.5223 10.9755 22.5223C14.082 22.5223 15.6353 24.2697 16.6061 25.2405C16.9944 25.6288 17.1885 26.0172 17.5768 26.2113C18.1593 25.4347 19.5184 23.6873 21.6541 19.8041C28.6438 7.57223 36.0218 1.3592 43.2056 1.3592H43.3997C45.5355 1.3592 50.0011 1.55335 53.1076 4.07739C54.2725 3.30076 55.4375 2.7183 56.6024 2.32998C58.9323 1.55335 60.8739 1.16504 62.6213 1.16504C67.4752 1.16504 69.8051 4.0774 70.5818 5.24234C71.3584 6.40728 72.7175 9.51379 70.7759 13.7853C72.9116 12.8145 75.0474 12.232 77.5714 12.0378C78.1539 12.0378 78.7364 12.0378 79.3188 12.0378C85.1435 12.0378 88.0559 14.1736 89.6092 16.3093C92.9098 13.5911 96.9871 12.232 101.647 12.232C103.588 12.232 105.724 12.4262 107.86 13.0086L115.044 12.4262C115.238 12.4262 115.432 12.4262 115.626 12.4262C117.762 12.4262 119.898 13.5911 121.257 15.3385C121.451 15.5327 121.451 15.7268 121.645 15.921C124.946 13.3969 129.023 12.232 133.489 12.232C135.236 12.232 136.984 12.4262 138.925 12.8145C143.585 12.6203 144.944 12.6203 145.332 12.6203C145.721 12.6203 146.109 12.6203 146.303 12.6203C148.245 12.6203 150.186 13.5911 151.545 15.1444C153.293 17.2801 153.487 20.1924 152.322 22.5223L151.351 24.4639C151.739 24.4639 151.934 24.6581 152.128 24.8522C154.264 25.823 155.623 27.9587 156.011 30.2886V31.0652C156.399 33.7834 155.04 36.5016 152.516 37.6666C152.128 37.8607 147.856 40.1906 142.808 40.9673C142.808 41.938 142.614 42.9088 142.226 43.6855L141.837 44.2679C144.167 44.4621 147.468 45.2387 149.798 47.9569C151.545 50.0927 152.128 52.6167 151.739 55.529C151.545 56.3057 151.351 57.0823 151.157 57.6648C152.516 58.4414 153.487 59.4122 154.069 60.7713C155.428 63.8778 154.458 67.3726 151.545 69.3142C147.662 71.8382 143.585 73.1973 139.702 73.1973C136.401 73.1973 133.295 72.4207 130.382 70.6733C128.441 72.0324 126.111 72.809 123.587 72.809C123.393 72.809 123.004 72.809 122.81 72.809C120.286 72.6149 118.15 72.0324 116.403 71.0616C111.549 72.6149 107.472 73.3915 103.783 73.3915C100.482 73.3915 97.5696 72.8091 95.2397 71.45C91.7449 72.8091 88.0559 73.0032 85.5319 73.0032C83.7844 73.0032 81.8429 72.809 80.0955 72.6149C79.3188 72.4207 78.7364 72.4207 77.9597 72.2266C75.6298 73.0032 73.1058 73.3915 70.3876 73.3915C65.5337 73.3915 61.4564 71.0616 59.5148 67.3726C59.3206 66.7902 58.9323 66.4019 58.9323 65.8194C58.9323 65.8194 58.9323 65.8194 58.7382 65.8194C56.4083 69.3142 53.8842 71.8383 51.3602 73.3915C44.953 76.6922 39.1283 78.6338 34.0802 78.6338ZM43.3997 49.5102C42.6231 49.8985 41.8465 50.2868 41.264 50.8693C41.0699 51.0634 40.8757 51.0634 40.6815 51.2576C37.9633 53.005 36.9926 54.7524 36.6042 56.1115C37.9633 55.7232 39.3224 55.3349 40.6815 54.9466C41.6523 53.1992 42.429 51.4517 43.3997 49.5102ZM97.3755 47.9569C97.5696 48.1511 97.5696 48.3452 97.5696 48.5394C97.9579 48.1511 98.5404 47.9569 98.9287 47.5686C98.3462 47.5686 97.7638 47.7628 97.1813 47.7628C97.1813 47.7628 97.1813 47.7628 97.3755 47.9569ZM70.9701 40.9673C70.7759 42.3264 70.1934 43.6855 69.2227 44.6562C68.2519 45.8212 67.0869 47.3745 66.8928 47.9569C71.1642 45.0446 75.4357 44.4621 78.5422 44.4621C80.4838 44.4621 82.4253 44.6562 84.1728 45.2387L88.6384 44.8504C87.0851 43.2971 86.3085 41.3556 86.1143 39.2198C81.8429 40.5789 77.7656 41.1614 74.0766 41.1614C73.1058 41.1614 72.135 41.1614 70.9701 40.9673ZM111.355 43.8796C114.073 43.8796 116.403 44.4621 118.344 45.8212L121.063 40.3848C119.898 39.9965 118.733 39.6082 117.762 38.8315C117.374 39.0257 116.403 39.414 116.403 39.414C114.461 40.1906 112.714 40.9673 111.161 41.3556C110.19 42.3264 108.831 43.4913 107.277 44.2679C108.637 44.0738 110.19 43.8796 111.355 43.8796Z" fill="#00BDFF"/>
<path d="M34.0801 77.4687C33.4977 77.4687 33.1093 77.4687 32.5269 77.4687C28.6437 77.0804 24.3723 74.168 23.984 69.3141C23.984 67.955 23.984 66.4018 25.1489 64.6544C23.984 62.9069 20.8774 58.053 21.6541 52.0341C22.4307 47.3744 25.1489 43.4912 29.8087 40.5789C30.197 40.1905 30.7795 39.9964 31.1678 39.6081C29.4204 39.6081 27.8671 38.8314 26.8963 37.4723C26.7022 37.2782 26.508 36.8899 26.3138 36.6957C23.984 38.249 21.2658 39.6081 18.7417 39.8022C17.9651 39.8022 17.3826 39.8022 16.606 39.8022C12.5287 39.8022 9.61633 38.8314 7.67475 36.6957C6.31565 35.3366 4.95655 33.0067 5.15071 28.9294C5.34487 25.8229 7.67475 23.493 10.7813 23.493C13.3053 23.493 14.6644 25.0463 15.6352 26.0171C16.4118 26.9879 16.9943 27.5703 17.3826 27.7645C17.7709 27.3762 19.13 26.0171 22.4307 20.3865C29.2262 8.54293 36.2159 2.52406 43.0114 2.52406H43.2055C45.3412 2.52406 50.001 2.71822 52.9134 5.43642C54.2725 4.46563 55.6316 3.689 56.7965 3.30069C58.9322 2.52406 60.8738 2.13574 62.4271 2.13574C66.6985 2.13574 68.6401 4.65979 69.4167 5.82473C69.9992 6.98967 71.3583 9.90203 69.0284 14.1735C68.6401 14.756 68.0576 15.7267 67.281 17.0858C69.9992 14.9501 73.1057 13.3969 77.183 13.2027C77.7655 13.2027 78.348 13.2027 78.7363 13.2027C84.9493 13.2027 87.6675 15.7267 88.8325 18.0566C91.7448 15.5326 95.6279 13.3969 101.064 13.3969C103.006 13.3969 104.947 13.591 107.083 14.1735L114.461 13.591C114.655 13.591 114.85 13.591 114.85 13.591C116.791 13.591 118.344 14.5618 119.509 16.1151C119.898 16.6975 120.092 17.28 120.286 17.8625C123.587 14.9501 127.858 13.591 132.518 13.591C134.265 13.591 136.013 13.7852 137.954 14.1735C142.808 13.9793 144.361 13.9793 144.556 13.9793C144.944 13.9793 145.138 13.9793 145.526 13.9793C147.274 13.9793 148.827 14.756 149.798 16.1151C151.157 17.8625 151.545 20.1924 150.38 22.3281L148.633 25.6288C149.409 25.6288 149.992 25.8229 150.769 26.2112C152.516 26.9879 153.681 28.7353 153.875 30.6768V31.4535C154.069 33.7834 152.904 35.9191 150.963 37.084C150.38 37.4723 145.915 39.8022 140.672 40.3847C140.867 41.5496 140.672 42.5204 140.09 43.4912L139.119 45.6269C139.313 45.6269 139.313 45.6269 139.507 45.6269C141.643 45.6269 145.526 46.0153 147.856 49.1218C149.409 50.8692 149.992 53.1991 149.604 55.7231C149.409 56.6939 149.021 57.6647 148.439 58.6355C149.992 59.0238 151.157 60.1887 151.934 61.742C153.098 64.266 152.128 67.1784 149.798 68.7317C146.109 71.0615 142.226 72.4206 138.537 72.4206C134.654 72.4206 131.547 71.0615 129.023 69.7024C127.081 71.2557 124.752 72.0323 122.422 72.0323C122.227 72.0323 122.033 72.0323 121.839 72.0323C119.315 71.8382 117.179 71.2557 115.432 70.0907C110.578 71.644 106.307 72.4206 102.812 72.4206C99.5111 72.4206 96.5987 71.644 94.463 70.4791C91.1623 71.8382 87.2792 72.2265 84.7551 72.2265C83.0077 72.2265 81.2603 72.0323 79.5129 71.8382C78.7363 71.644 77.9596 71.4498 77.183 71.2557C76.0181 71.2557 73.494 71.8382 70.3875 71.8382C66.1161 71.8382 62.4271 69.7024 60.4855 66.4018C60.0972 65.6251 59.903 64.8485 59.7089 64.0719C59.1264 64.0719 58.7381 64.266 58.1556 64.266C55.8257 67.7609 53.3017 70.2849 50.7776 71.8382C44.5646 75.5271 38.9341 77.4687 34.0801 77.4687ZM45.9237 47.1802C43.788 47.7627 42.0406 48.7335 40.6815 49.7042C40.4873 49.8984 40.4873 49.8984 40.2932 49.8984C36.2159 52.4224 35.2451 55.7231 35.6334 57.2764C37.3808 56.6939 39.5165 56.1114 41.6523 55.529C42.8172 53.3932 44.1763 50.2867 45.9237 47.1802ZM69.9992 39.8022C70.1934 41.3555 69.6109 42.9087 68.6401 44.0737C67.6693 45.2386 66.3102 46.986 66.1161 47.7627C65.9219 48.3451 65.5336 49.7042 64.9511 51.0633H65.1453C70.1934 46.5977 75.2414 45.6269 78.7363 45.6269C80.6778 45.6269 82.4253 45.8211 84.1727 46.4036L91.1623 45.8211C91.3565 45.8211 91.3565 45.8211 91.5507 45.8211C91.7448 45.8211 91.939 45.8211 92.1331 45.8211C89.0266 44.6562 87.2792 41.7438 87.2792 39.0256C87.2792 38.6373 87.2792 38.4431 87.2792 38.0548C87.085 38.0548 87.085 37.8607 86.8909 37.8607C82.2311 39.4139 77.9596 40.1905 74.0765 40.1905C72.7174 40.1905 71.3583 39.9964 69.9992 39.8022ZM94.0747 46.4036C95.0455 46.7919 95.8221 47.5685 96.4046 48.5393C96.7929 49.1218 96.987 49.7043 97.1812 50.2867C98.3461 49.3159 99.5111 48.5393 101.064 47.7627C103.977 46.2094 108.054 45.2386 111.549 45.2386C115.238 45.2386 117.568 46.4036 118.927 47.7627L122.81 39.8022C121.063 39.4139 119.315 38.8314 117.956 37.8607C117.374 38.0548 116.791 38.249 116.209 38.6373C114.267 39.4139 112.325 40.1905 110.772 40.773C107.666 43.8795 102.035 46.986 96.2104 46.986C95.2396 46.5977 94.6572 46.5977 94.0747 46.4036Z" fill="url(#paint0_linear)"/>
<path d="M96.0163 43.6847C101.259 43.6847 106.501 40.7724 109.025 37.86C110.578 37.4717 112.714 36.5009 114.85 35.7243C116.014 35.336 117.179 34.7535 118.15 34.3652C120.092 36.1126 122.616 37.0834 125.528 37.0834C127.664 37.0834 130.188 36.5009 132.712 35.5301C134.459 36.5009 136.595 37.0834 138.925 37.0834C144.556 37.0834 149.798 34.1711 150.186 33.9769C151.157 33.3944 151.739 32.4236 151.545 31.2587V30.4821C151.351 29.5113 150.769 28.7346 149.992 28.1522C149.604 27.958 149.215 27.958 148.827 27.958C148.245 27.958 147.662 28.1522 147.274 28.3463C147.274 28.3463 145.526 29.5113 143.391 30.0938L148.245 20.58C148.827 19.6093 148.633 18.4443 147.856 17.4735C147.274 16.8911 146.497 16.5027 145.721 16.5027C145.526 16.5027 145.332 16.5027 145.138 16.5027C144.944 16.5027 143.585 16.6969 137.954 16.8911C136.207 16.5028 134.459 16.3086 132.906 16.3086C125.334 16.3086 119.898 20.3859 116.791 28.3463C116.209 28.7346 114.85 29.123 113.296 29.7054L117.762 20.3859C118.15 19.4151 118.15 18.4443 117.568 17.6677C116.985 16.8911 116.209 16.5027 115.238 16.5027H115.044L107.277 17.0852C105.336 16.5027 103.394 16.3086 101.453 16.3086C90.9682 16.3086 87.085 25.0457 85.7259 28.9288C84.3668 29.5113 81.8428 30.2879 78.5421 30.6762C81.4545 29.3171 84.3668 27.1814 85.1435 26.7931C85.3376 26.5989 85.7259 26.4048 85.9201 26.0165C86.3084 25.434 88.25 22.5216 86.6967 19.6093C85.5318 17.4735 83.0077 16.3086 79.1246 16.3086C78.7363 16.3086 78.1538 16.3086 77.7655 16.3086C69.805 16.6969 65.1453 23.1041 63.2037 29.3171C61.2621 30.0937 58.7381 30.8704 57.1848 31.0645C57.1848 30.8704 57.379 30.6762 57.379 30.4821C58.5439 28.3463 65.7277 15.532 67.0868 13.0079C68.6401 10.2897 67.8635 8.34815 67.4752 7.57152C66.8927 6.7949 65.7278 5.43579 63.0096 5.43579C61.6505 5.43579 60.0972 5.82411 58.1556 6.40658C56.6024 6.98905 54.8549 8.15399 52.7192 9.9014C52.5251 9.51309 52.3309 9.12478 52.1367 8.73646C50.5835 6.01826 46.8945 5.62995 43.5938 5.62995H43.3997C37.7691 5.62995 31.3619 11.2605 25.1489 22.1333C20.295 30.6762 19.3242 30.8704 17.7709 31.0645C17.5768 31.0645 17.3826 31.0645 17.3826 31.0645C17.1885 31.0645 16.2177 30.6762 14.0819 28.1522C13.3053 27.3755 12.7228 26.5989 11.3637 26.5989C9.61633 26.4048 8.25723 27.5697 8.25723 29.123C8.06307 31.4529 8.64554 33.3944 10.0046 34.7535C11.5579 36.3068 13.6936 37.0834 16.9943 37.0834C17.5768 37.0834 18.1592 37.0834 18.9359 37.0834C23.0132 36.8892 27.4788 33.2003 31.1678 28.9288L29.2262 32.812C28.6437 33.7827 28.8379 34.9477 29.6145 35.9185C30.197 36.5009 30.9736 36.8892 31.7502 36.8892C31.9444 36.8892 32.3327 36.8893 32.5269 36.6951L41.2639 34.171C42.0406 33.9769 42.623 33.5886 43.0114 32.812C43.0114 32.812 43.3997 32.0353 44.1763 31.0645C44.3705 32.4236 44.9529 33.7827 45.9237 34.7535C47.2828 36.1126 49.2244 36.8892 51.9426 37.0834C45.3412 37.0834 39.7107 37.6659 31.9444 42.714C27.8671 45.238 25.5372 48.5387 24.9547 52.2277C23.984 58.0524 27.6729 62.518 28.0613 63.1005C28.4496 63.4888 28.8379 63.8771 29.4204 64.0713C27.8671 65.6245 27.0905 67.1778 27.0905 69.1193C27.2846 72.2258 30.197 74.3616 32.9152 74.5557C33.3035 74.5557 33.6918 74.5557 34.0801 74.5557C38.3516 74.5557 43.3997 72.8083 49.2244 69.3135C51.5543 67.9544 53.8842 65.2362 56.2141 61.5472C58.3498 61.1589 60.4855 60.7706 62.0388 60.7706C61.8446 62.3238 62.2329 63.6829 62.8154 64.8479C64.1745 67.3719 66.8927 68.9252 70.1934 68.9252C73.494 68.9252 76.2122 68.1485 77.7655 67.3719C78.5421 67.7602 79.3187 67.9544 80.2895 68.1485C81.8428 68.3427 83.396 68.5369 85.1435 68.5369C88.0558 68.5369 91.939 68.1485 95.2396 66.4011C97.1812 67.9544 99.8994 68.9252 103.394 68.9252C106.889 68.9252 111.355 67.9544 116.597 66.207C117.762 67.1778 119.703 68.1485 122.616 68.3427C122.81 68.3427 123.004 68.3427 123.198 68.3427C125.722 68.3427 127.858 67.1778 129.605 65.042C131.741 66.7895 135.042 68.731 139.313 68.731C142.614 68.731 145.721 67.5661 149.021 65.6245C150.186 64.8479 150.574 63.2946 149.992 62.1297C149.604 61.1589 148.439 60.3823 147.468 60.3823C147.274 60.3823 146.885 60.3823 146.691 60.5764C145.332 60.9647 143.973 61.353 143.196 61.353C142.808 61.353 142.42 61.3531 141.643 60.5764C141.449 60.5764 141.449 60.3823 141.255 60.3823C144.944 58.829 146.885 56.8874 147.468 54.5575C147.662 53.0043 147.468 51.451 146.497 50.2861C144.75 48.1504 141.837 47.9562 140.284 47.9562C139.702 47.9562 139.119 47.9562 138.537 48.1504C137.566 48.3445 136.207 48.7328 134.654 49.5095L138.343 41.9373C138.731 40.9665 138.731 39.9958 138.148 39.025C137.566 38.2483 136.789 37.86 135.818 37.86H135.624L127.858 38.6367C126.887 38.8308 126.111 39.2191 125.528 40.1899L117.956 55.5283C118.344 53.7809 118.344 52.0335 117.374 50.4803C116.209 48.927 114.267 47.9562 111.355 47.9562C108.248 47.9562 104.753 48.927 102.229 50.2861C97.5695 52.8101 94.463 56.1108 93.1039 60.3823V60.5764C91.939 61.1589 90.3857 61.9355 89.0266 62.1297C89.2208 61.5472 89.8032 60.7706 90.3857 59.6056L90.5799 59.2173L94.0747 52.8101C94.6572 51.8394 94.463 50.8686 94.0747 49.8978C93.4922 49.1212 92.7156 48.5387 91.7448 48.5387H91.5507L83.9785 49.1212C82.2311 48.5387 80.4837 48.3445 78.7363 48.3445C75.4356 48.3445 70.7758 49.3153 66.3102 53.5868C64.5628 53.7809 62.4271 53.9751 60.2913 54.3634C62.0388 50.6744 63.0095 47.762 63.2037 46.7913C63.592 45.238 65.7278 42.714 66.3102 41.9373C67.0869 41.1607 67.281 39.9958 66.8927 39.025C66.5044 38.0542 65.5336 37.2776 64.3687 37.2776H61.2621C60.6797 37.2776 59.903 37.2776 59.3206 37.2776C57.9615 37.2776 56.7965 37.2776 55.4374 37.2776C55.0491 37.2776 54.6608 37.2776 54.2725 37.2776C58.5439 37.0834 63.2037 35.7243 65.1453 35.1418C67.6693 36.6951 70.7758 37.2776 74.4648 37.2776C78.348 37.2776 82.8136 36.5009 87.6675 34.7535C88.6383 35.5302 89.8032 36.1126 91.1623 36.5009C90.5799 37.2776 90.3857 38.2483 90.3857 39.025C90.1916 41.3549 91.939 43.6847 96.0163 43.6847ZM129.994 29.7054C129.994 29.8996 129.994 29.8996 129.994 30.0938C129.8 29.8996 129.8 29.7054 129.994 29.7054ZM101.259 24.6574C100.87 25.434 100.482 26.0164 100.482 26.4048C100.288 26.9872 100.094 27.3756 99.8994 27.958C99.7053 28.3463 99.5111 28.9288 99.3169 29.7054C98.9286 29.8996 98.5403 30.0938 98.3462 30.0938C98.5403 29.3171 99.3169 27.5697 101.259 24.6574ZM106.307 61.353C106.695 61.7414 107.277 61.9355 107.86 62.1297C107.277 62.1297 106.695 62.3238 106.307 62.3238H106.112C106.112 62.1297 106.307 61.7414 106.307 61.353ZM75.6298 61.5472C75.6298 61.7414 75.6298 61.7414 75.6298 61.9355C75.4356 61.7414 75.6298 61.7414 75.6298 61.5472ZM36.2159 67.7602C36.0217 67.7602 35.8275 67.9544 35.8275 67.9544C36.6042 67.1778 37.7691 66.5953 38.7399 66.207C37.9633 66.7894 36.9925 67.5661 36.2159 67.7602ZM44.3705 56.8874C44.1763 57.2757 43.9821 57.8582 43.788 58.2465C39.7107 59.2173 36.41 60.3823 33.886 61.5472C34.0801 60.9647 33.886 60.1881 33.4977 59.6056C31.7502 56.6933 33.4977 51.451 38.7399 47.9562C38.7399 47.9562 38.9341 47.9562 38.9341 47.762C42.8172 44.8497 47.6711 43.8789 52.3309 43.4906C48.2536 47.5679 45.9237 53.1984 44.3705 56.8874Z" fill="#FF0000"/>
<path d="M34.0801 73.0028C33.6918 73.0028 33.3035 73.0028 32.9152 73.0028C30.9736 72.8086 28.6437 71.2554 28.4496 69.1196C28.2554 65.4306 33.6918 62.13 44.7588 59.6059C44.9529 59.0235 45.3412 58.441 45.7295 57.4702C47.6711 53.0046 50.9718 45.6266 56.7965 41.5493H56.6023C50.7776 41.5493 43.3997 42.1318 37.7691 46.4032C31.3619 50.4805 29.8087 56.8877 31.9444 60.3826C32.1386 60.5767 32.1385 60.965 32.1385 61.3533C32.1385 61.7417 31.9444 61.9358 31.5561 62.13L30.5853 62.7124C30.3911 62.7124 30.197 62.9066 30.0028 62.9066C29.6145 62.9066 29.4203 62.7124 29.2262 62.5183C29.032 62.3241 25.7314 58.0527 26.508 53.0046C27.0905 49.7039 29.032 46.9857 32.721 44.6558C40.2931 39.8019 45.5354 39.4136 52.1367 39.4136C53.1075 39.4136 54.2725 39.4136 55.4374 39.4136C56.6023 39.4136 57.9614 39.4136 59.3205 39.4136C59.903 39.4136 60.6796 39.4136 61.2621 39.4136H64.3686C64.757 39.4136 65.1453 39.6077 65.3394 40.1902C65.5336 40.5785 65.3394 41.161 65.1453 41.3551C65.1453 41.3551 62.2329 44.4617 61.6504 46.7915C61.2621 47.9565 59.7089 52.4221 57.379 57.0819C60.2913 56.4994 64.1745 55.9169 67.0868 55.7228L67.281 55.5286C71.3583 51.4513 75.8239 50.4805 78.7363 50.4805C80.4837 50.4805 82.0369 50.6747 83.7844 51.2572L91.7448 50.6747C92.1331 50.6747 92.5214 50.8689 92.7156 51.2572C92.9097 51.6455 92.9097 52.0338 92.7156 52.4221L89.2208 58.8293L89.0266 59.2176C86.6967 63.4891 86.8909 64.2657 87.085 64.4599C87.085 64.4599 87.2792 64.4599 87.4733 64.4599C90.1915 64.4599 93.4922 62.7124 94.6572 61.9358C94.6572 61.7417 94.8513 61.3533 94.8513 60.965C96.0163 57.276 98.7345 54.3637 103.2 51.8396C105.53 50.6747 108.831 49.7039 111.549 49.7039C113.879 49.7039 115.432 50.2864 116.209 51.4513C117.179 53.0046 116.597 55.7228 115.626 57.6644C114.461 59.9942 112.52 61.3533 110.578 61.3533C109.996 61.3533 109.413 61.1592 108.831 60.965C107.277 60.1884 106.307 59.4118 106.307 58.2468C106.307 56.3053 108.636 55.1403 111.161 53.9754L111.549 53.7812C112.325 53.3929 112.908 52.8104 113.296 52.4221C113.296 52.4221 113.102 52.4221 112.908 52.4221C112.908 52.4221 112.908 52.4221 112.714 52.4221C110.384 52.4221 107.277 55.9169 106.307 57.4702C105.53 58.6351 103.977 62.13 104.559 63.4891C104.559 63.6832 104.753 63.8774 105.724 64.0715C105.918 64.0715 106.112 64.0715 106.307 64.0715C109.996 64.0715 115.626 61.7417 117.179 60.965L127.081 40.7727C127.276 40.3844 127.664 40.1902 128.052 40.1902L135.624 39.4136C135.624 39.4136 135.624 39.4136 135.818 39.4136C136.207 39.4136 136.595 39.6077 136.789 39.8019C136.983 40.1902 136.983 40.5785 136.789 40.9668L129.8 55.5286C133.294 51.2572 136.789 50.0922 138.731 49.7039C139.119 49.7039 139.702 49.5098 140.284 49.5098C141.255 49.5098 143.973 49.7039 145.332 51.2572C145.915 52.0338 146.303 53.0046 146.109 54.1695C145.526 57.0819 141.255 58.8293 137.76 59.8001C138.925 60.3826 139.896 60.965 140.867 61.7417C142.032 62.7124 142.808 62.9066 143.585 62.9066C144.556 62.9066 145.915 62.5183 147.468 62.13C147.662 62.13 147.662 62.13 147.856 62.13C148.245 62.13 148.633 62.3241 148.827 62.7124C149.021 63.2949 148.827 63.8774 148.439 64.0715C145.526 66.0131 142.42 66.9839 139.702 66.9839C134.848 66.9839 131.353 64.2657 129.605 62.3241C128.635 64.2657 126.693 66.5956 123.587 66.5956C123.392 66.5956 123.392 66.5956 123.198 66.5956C119.898 66.4014 118.344 65.0423 117.568 64.0715C112.131 66.0131 107.472 66.9839 103.977 66.9839C99.1228 66.9839 96.987 65.2365 96.0163 64.0715C92.9097 66.2073 88.25 66.5956 85.7259 66.5956C84.1727 66.5956 82.6194 66.4014 81.2603 66.2073C80.0954 66.0131 79.1246 65.6248 78.5421 65.0423C77.183 65.6248 74.4648 66.7897 70.7758 66.7897C68.0576 66.7897 65.9219 65.6248 64.9511 63.6832C64.1745 62.13 64.1745 60.3826 64.9511 58.441C63.0095 58.6351 59.5147 58.8293 55.8257 59.6059C53.4958 63.2949 51.1659 66.0131 49.0302 67.3722C43.0113 71.2554 38.1574 73.0028 34.0801 73.0028ZM31.9444 70.0904C31.9444 70.0904 32.3327 70.2846 32.721 70.2846C33.6918 70.2846 35.0509 70.0904 36.41 69.5079C39.3224 68.5372 41.8464 65.2365 43.0113 62.9066C40.2931 63.4891 35.4392 65.0423 33.1093 67.7605C32.1385 69.1196 32.1386 69.8963 31.9444 70.0904ZM80.4837 53.0046C79.1246 53.0046 78.1538 53.3929 77.5713 54.5578C77.183 55.1403 76.7947 55.7228 76.4064 56.4994C75.0473 58.6351 73.1057 61.9358 73.6882 63.2949C73.6882 63.4891 73.8823 63.6832 74.4648 63.8774C74.659 63.8774 75.4356 63.6832 77.183 62.9066C77.183 61.7417 77.7655 60.5767 78.3479 59.6059L78.5421 59.2176C78.9304 58.2468 80.872 54.9462 81.8428 53.0046C81.2603 53.0046 80.872 53.0046 80.4837 53.0046ZM136.401 53.7812C135.43 54.1695 133.683 55.5286 132.518 57.0819C132.324 57.276 132.129 57.6644 131.935 57.8585C132.129 57.8585 132.324 57.8585 132.518 57.6644C134.459 56.6936 136.013 54.752 136.401 53.7812Z" fill="#FFE600"/>
<path d="M139.895 62.7122C137.566 60.5765 134.071 59.6057 132.517 59.6057C136.983 59.0232 144.361 57.0817 144.749 53.9751C145.138 50.8686 141.06 50.4803 138.925 50.6745C136.789 50.8686 132.712 52.4219 129.217 58.0524C128.246 59.7999 127.275 62.3239 125.722 63.1005C124.169 63.8772 126.304 59.994 126.304 59.994L135.818 40.3841L128.246 41.1608L117.956 61.7414C117.956 61.7414 110.189 65.4304 105.53 65.0421C100.87 64.6538 104.753 57.6641 105.335 56.6933C105.918 55.7226 109.607 50.8686 112.908 51.0628C116.208 51.2569 113.49 53.781 111.937 54.5576C110.384 55.3342 104.753 57.6641 109.219 59.4115C113.49 61.159 116.597 53.781 115.237 51.6453C113.878 49.5095 107.277 50.4803 103.782 52.4219C100.287 54.3635 97.375 56.8875 96.0159 60.7706C95.6276 61.9356 95.6276 62.3239 95.6276 62.3239C95.6276 62.3239 90.9678 65.2363 87.2788 65.2363C83.5898 65.2363 87.473 59.2174 88.0554 57.8583C88.8321 56.4992 91.5503 51.4511 91.5503 51.4511L83.3957 52.0336C79.1242 50.4803 73.1053 50.6745 67.8631 55.9167C67.6689 56.1109 67.4748 56.305 67.2806 56.4992C64.3683 56.4992 59.126 57.47 55.0487 58.2466C57.9611 53.1985 59.9027 47.568 60.4851 46.0147C61.2618 43.4907 64.3683 40.19 64.3683 40.19H61.2618C48.6415 40.3841 42.8168 38.8309 33.109 45.2381C22.2362 52.2277 30.0025 61.5473 30.0025 61.5473L30.9732 60.9648C28.4492 57.0817 30.0025 49.8978 37.1863 45.4322C44.3701 39.8017 54.6604 40.3841 61.2618 40.5783C51.5539 43.879 47.2824 57.6641 45.535 60.5765C23.5953 65.6246 29.6141 71.6434 32.9148 71.8376C36.2155 72.0318 41.0694 71.061 47.6708 66.9837C50.1948 65.4304 52.5247 62.5181 54.4663 59.2174C60.4851 57.8583 65.7274 57.8583 66.3098 57.8583C63.2033 62.3239 65.5332 66.4012 70.193 66.4012C74.8528 66.4012 77.7651 64.6538 78.1534 64.2655C78.5417 64.8479 79.3184 65.4304 80.6775 65.6246C85.3372 66.4012 92.1327 66.0129 95.4334 62.9064C96.0159 63.4888 98.5399 70.0902 117.373 62.9064C117.373 62.9064 117.956 65.4304 122.615 65.6246C127.275 65.8187 128.44 60.3823 128.44 60.3823C128.44 60.3823 135.624 70.8668 147.079 63.2947C143.779 64.4596 142.225 64.8479 139.895 62.7122ZM36.9921 70.4785C31.944 72.0318 28.6434 71.4493 32.5265 66.9837C36.4096 62.5181 45.3409 61.3531 45.3409 61.3531C45.3409 61.3531 42.0402 68.7311 36.9921 70.4785ZM79.3184 59.7999C78.9301 60.7706 77.7651 62.5181 78.1534 63.683C74.4644 65.6246 74.0761 65.2363 74.0761 65.2363C69.9988 63.8772 74.4644 57.8583 76.406 54.1693C77.7651 51.8394 80.095 51.8394 81.8424 52.2277C82.2307 52.2277 83.0074 52.616 83.2015 52.616C82.8132 53.3927 79.9008 58.6349 79.3184 59.7999ZM129.993 59.0232C129.993 59.0232 130.576 57.47 131.547 56.305C133.1 54.5576 135.236 52.8102 136.595 52.4219C138.925 52.0336 136.789 56.8875 132.712 58.6349C131.935 59.0232 129.993 59.0232 129.993 59.0232Z" fill="#FFE600"/>
<path d="M96.0159 42.132C92.9094 42.132 91.9386 40.5788 91.9386 39.0255C91.9386 37.6664 92.9094 36.1131 94.8509 35.1424C91.9386 35.1424 89.6087 34.3657 87.8613 32.6183C82.8132 34.5599 78.3476 35.3365 74.2703 35.3365C70.5813 35.3365 67.6689 34.5599 65.1449 33.0066C62.4267 33.9774 57.1844 35.3365 52.913 35.3365C50.0006 35.3365 48.0591 34.754 46.7 33.3949C45.7292 32.4242 45.3409 31.2592 45.3409 29.706C45.535 27.5702 49.0298 20.7747 53.1071 15.1442C52.913 15.3383 52.7188 15.7266 52.3305 15.9208C46.5058 22.328 41.0694 31.6475 41.0694 31.8417C40.8752 32.0358 40.6811 32.23 40.4869 32.4242L31.944 34.9482C31.7499 34.9482 31.7499 34.9482 31.5557 34.9482C31.1674 34.9482 30.9732 34.754 30.7791 34.5599C30.5849 34.1716 30.3908 33.7833 30.5849 33.3949L42.0402 10.8727C42.0402 10.6786 42.0402 10.4844 42.0402 10.0961C41.6519 10.2902 41.0694 10.6786 40.0986 11.4552C39.9045 11.4552 38.7395 12.8143 35.633 18.639C32.3323 24.852 24.9544 34.754 18.5472 35.1424C17.9647 35.1424 17.3822 35.1424 16.7998 35.1424C14.0816 35.1424 12.14 34.5599 10.975 33.3949C10.1984 32.4242 9.81009 31.0651 10.0043 29.1235C10.0043 28.541 10.5867 27.9585 11.1692 27.9585C11.7517 27.9585 11.9458 28.1527 12.5283 28.9293C13.3049 29.9001 15.6348 32.23 17.1881 32.23H17.3822C17.5764 32.23 17.7705 32.23 17.9647 32.23C20.1004 31.8417 21.2654 31.6475 26.5076 22.5221C32.3323 12.426 38.157 6.98956 43.2051 6.98956H43.3993C46.3116 6.98956 49.4182 7.37788 50.5831 9.31945C51.1656 10.4844 51.1656 11.8435 50.3889 13.3968C50.1948 13.9792 49.8065 14.5617 49.6123 15.1442C52.5247 11.6493 55.8253 8.54283 58.5435 7.57204C60.291 6.98957 61.6501 6.79541 62.815 6.79541C64.5624 6.79541 65.5332 7.57204 65.9215 8.15451C66.3098 8.93114 66.504 10.0961 65.5332 12.0377C64.1741 14.5617 56.2137 28.541 55.6312 29.706C55.2429 30.6767 55.0487 32.0358 55.2429 32.6183C55.437 32.8125 55.6312 32.8125 56.0195 32.8125C58.7377 32.8125 63.0092 31.0651 64.3683 30.4826C65.1449 27.9585 68.4456 18.4448 77.7651 18.0565C78.1534 18.0565 78.7359 18.0565 79.1242 18.0565C82.4249 18.0565 84.3664 18.8332 85.3372 20.3864C86.5022 22.5221 84.7548 24.852 84.7548 25.0462C84.7548 25.2403 84.5606 25.2403 84.5606 25.2403C83.9781 25.6287 78.5417 29.3176 75.2411 30.0943C75.0469 30.6767 75.0469 31.2592 75.2411 31.6475C75.4352 32.0358 76.406 32.4242 77.3768 32.4242C77.7651 32.4242 77.9593 32.4242 78.3476 32.4242C82.8132 32.0358 86.308 30.6767 87.2788 30.0943C88.0554 27.3761 91.3561 18.0565 101.452 18.0565C103.2 18.0565 105.141 18.2507 107.083 18.8332L115.237 18.2507C115.626 18.2507 116.014 18.4448 116.208 18.8332C116.402 19.2215 116.402 19.6098 116.208 19.9981L110.189 32.8125C113.684 31.6475 117.373 30.4826 118.344 29.9001C118.344 29.706 118.538 29.5118 118.538 29.3176C119.509 26.5994 122.81 18.2507 133.1 18.2507C134.653 18.2507 136.401 18.4448 137.954 18.8332C144.361 18.639 145.526 18.4448 145.72 18.4448H145.914C146.303 18.4448 146.497 18.639 146.691 18.8332C146.885 19.2215 147.079 19.6098 146.885 19.9981L141.449 30.4826C141.06 31.0651 141.06 32.0358 141.06 32.23C141.06 32.23 141.254 32.23 141.449 32.23C141.643 32.23 141.643 32.23 141.837 32.23C144.943 31.8417 148.05 29.9001 148.05 29.9001C148.244 29.706 148.438 29.706 148.632 29.706C148.827 29.706 149.021 29.706 149.021 29.9001C149.409 30.0943 149.603 30.4826 149.603 30.8709V31.6475C149.603 32.0358 149.409 32.6183 149.021 32.8125C148.827 33.0066 143.779 35.7248 138.73 35.7248C136.401 35.7248 134.265 35.1424 132.712 33.9774C131.352 34.5599 128.44 35.7248 125.334 35.7248C122.421 35.7248 120.091 34.754 118.344 32.8125C116.985 33.2008 115.432 33.9774 113.878 34.5599C111.548 35.5307 109.219 36.5015 107.665 36.8898C106.112 38.8313 101.258 42.132 96.0159 42.132ZM97.1808 37.6664C95.8217 38.0547 95.2393 38.6372 95.2393 39.0255C95.2393 39.2197 95.4334 39.2197 95.4334 39.2197C95.8217 39.2197 96.4042 38.443 97.1808 37.6664ZM134.653 21.163C133.294 21.163 132.323 21.5514 131.741 22.7163C131.352 23.2988 130.964 23.8812 130.576 24.6579C129.217 26.7936 127.275 30.0943 127.858 31.4534C127.858 31.6475 128.052 31.8417 128.634 32.0358C128.828 32.0358 129.605 31.8417 131.352 31.0651C131.352 29.9001 131.935 28.7352 132.517 27.7644L132.712 27.3761C133.1 26.4053 135.041 23.1046 136.012 21.163C135.624 21.163 135.236 21.163 134.653 21.163ZM104.17 21.163C102.617 21.163 101.258 21.7455 100.287 23.1046C95.8217 29.3176 96.4042 31.0651 96.5984 31.2592C96.7925 31.6475 97.375 31.6475 97.9575 31.6475C98.1516 31.6475 98.1516 31.6475 98.3458 31.6475C98.5399 31.6475 99.3166 31.2592 100.676 30.6767C101.064 29.5118 101.452 28.9293 101.646 28.3469C101.841 27.7644 102.035 27.3761 102.229 26.7936C102.617 25.8228 104.17 22.7163 105.141 20.9689C104.559 21.163 104.365 21.163 104.17 21.163ZM80.2891 20.7747C79.9008 20.7747 79.5125 20.7747 79.3184 20.9689C78.7359 21.163 77.571 23.1046 76.6002 24.852C77.571 24.2696 78.1534 23.6871 78.3476 23.4929C80.095 21.9397 80.4833 20.9689 80.6775 20.7747C80.4833 20.7747 80.4833 20.7747 80.2891 20.7747Z" fill="#FFE600"/>
<path d="M148.826 30.6768C148.826 30.6768 145.526 32.8125 142.031 33.2008C138.536 33.5891 140.477 29.706 140.477 29.706L145.914 19.2215C145.914 19.2215 145.331 19.4156 137.759 19.6098C122.809 16.3091 119.897 28.541 119.12 30.2884C117.761 31.4534 108.053 34.1716 108.053 34.1716L115.237 19.2215C115.237 19.2215 115.237 19.2215 106.888 19.804C91.5499 15.1442 88.2492 30.2884 88.055 30.6768C88.055 30.8709 83.7836 32.8125 78.3472 33.395C72.9108 33.9774 73.2991 30.6768 74.0757 29.1235C76.9881 28.7352 83.5894 24.2696 83.5894 24.2696C83.5894 24.2696 87.6667 18.4449 77.7647 18.8332C67.8627 19.4156 65.3386 31.0651 65.3386 31.0651C65.3386 31.0651 59.7081 33.5891 56.0191 33.7833C52.5243 33.7833 54.4658 29.1235 54.4658 29.1235C54.4658 29.1235 62.8146 14.1734 64.3679 11.4552C65.9211 8.737 64.562 6.79543 58.7373 8.737C52.9126 10.6786 42.6223 26.017 42.6223 26.017C42.6223 26.017 47.4762 16.8916 49.2236 13.0085C51.1652 9.12531 47.282 8.34869 43.2047 8.15453C38.9333 8.15453 33.3027 12.8143 27.2838 23.1046C21.265 33.5891 20.1 33.0066 17.3818 33.5891C14.6636 33.9774 10.9746 28.9293 10.9746 29.3177C10.7805 33.2008 13.1104 34.5599 18.5468 34.1716C24.1773 33.7833 31.3611 24.852 34.856 18.2507C38.3508 11.6494 39.5157 10.6786 39.5157 10.6786C44.3697 6.40711 43.0106 11.261 43.0106 11.261L31.5553 33.9774L40.2924 31.4534C40.2924 31.4534 45.7288 22.1338 51.7476 15.3383C57.7665 8.737 59.9022 9.51362 59.3198 9.90194C53.8834 14.7559 46.6996 26.9878 46.5054 29.706C46.1171 37.4723 60.873 33.2008 65.1445 31.6475C72.7166 37.2781 85.7252 32.0359 87.8609 31.2592C91.744 35.919 100.675 33.0066 100.675 33.0066C100.675 33.0066 100.287 33.395 99.5103 35.1424C92.3265 35.1424 90.5791 40.7729 95.8213 40.7729C101.064 40.7729 105.917 37.4723 107.277 35.1424C109.995 34.5599 115.625 31.8417 118.926 30.8709C123.392 36.6956 131.546 32.8125 132.905 32.0359C138.536 36.8898 148.632 31.2592 148.632 31.2592L148.826 30.6768ZM78.9296 19.804C80.6771 19.0273 84.3661 19.6098 79.1238 24.2696C79.1238 24.2696 76.0173 26.7936 73.8816 27.7644C73.6874 27.9586 77.1822 20.5806 78.9296 19.804ZM95.0447 40.1905C93.1031 39.608 93.4914 36.5015 99.122 36.1132C99.3161 36.1132 97.1804 40.7729 95.0447 40.1905ZM103.005 27.5702C102.617 28.541 102.423 29.1235 101.452 31.6475C97.7629 33.5891 97.9571 32.8125 97.9571 32.8125C92.5207 32.8125 97.1804 25.8228 99.5103 22.328C101.258 19.804 103.588 19.6098 105.141 19.9981C105.529 19.9981 106.306 20.3864 106.5 20.3864C105.917 21.5514 103.588 26.4053 103.005 27.5702ZM133.682 27.9586C133.294 28.9293 132.129 30.6768 132.517 31.8417C128.828 33.7833 128.44 33.395 128.44 33.395C124.362 32.0359 128.828 26.017 130.77 22.328C132.129 19.9981 134.459 19.9981 136.206 20.3864C136.594 20.3864 137.371 20.7747 137.565 20.7747C136.983 21.5514 134.264 26.7936 133.682 27.9586Z" fill="#FFE600"/>
<path d="M139.896 62.7122C137.566 60.5765 134.071 59.6057 132.518 59.6057C136.983 59.0232 144.361 57.0817 144.75 53.9751C145.138 50.8686 141.061 50.4803 138.925 50.6745C136.789 50.8686 132.712 52.4219 129.217 58.0524C128.246 59.7999 127.275 62.3239 125.722 63.1005C124.169 63.8772 126.305 59.994 126.305 59.994L135.818 40.3841L128.246 41.1608L117.956 61.7414C117.956 61.7414 110.19 65.4304 105.53 65.0421C100.87 64.6538 104.753 57.6641 105.336 56.6933C105.918 55.7226 109.607 50.8686 112.908 51.0628C116.208 51.2569 113.49 53.781 111.937 54.5576C110.384 55.3342 104.753 57.6641 109.219 59.4115C113.49 61.159 116.597 53.781 115.238 51.6453C113.879 49.5095 107.277 50.4803 103.782 52.4219C100.288 54.3635 97.3752 56.8875 96.0161 60.7706C95.6278 61.9356 95.6278 62.3239 95.6278 62.3239C95.6278 62.3239 90.968 65.2363 87.2791 65.2363C83.5901 65.2363 87.4732 59.2174 88.0557 57.8583C88.8323 56.4992 91.5505 51.4511 91.5505 51.4511L83.3959 52.0336C79.1245 50.4803 73.1056 50.6745 67.8633 55.9167C67.6692 56.1109 67.475 56.305 67.2809 56.4992C64.3685 56.4992 59.1263 57.47 55.049 58.2466C57.9613 53.1985 59.9029 47.568 60.4854 46.0147C61.262 43.4907 64.3685 40.19 64.3685 40.19H61.262C48.6418 40.3841 42.8171 38.8309 33.1092 45.2381C22.2364 52.2277 30.0027 61.5473 30.0027 61.5473L30.9735 60.9648C28.4494 57.0817 30.0027 49.8978 37.1865 45.4322C44.3703 39.8017 54.6607 40.3841 61.262 40.5783C51.5541 43.879 47.2827 57.6641 45.5353 60.5765C23.5955 65.6246 29.6144 71.6434 32.9151 71.8376C36.2157 72.0318 41.0697 71.061 47.671 66.9837C50.195 65.4304 52.5249 62.5181 54.4665 59.2174C60.4854 57.8583 65.7276 57.8583 66.3101 57.8583C63.2036 62.3239 65.5335 66.4012 70.1932 66.4012C74.853 66.4012 77.7654 64.6538 78.1537 64.2655C78.542 64.8479 79.3186 65.4304 80.6777 65.6246C85.3375 66.4012 92.133 66.0129 95.4337 62.9064C96.0161 63.4888 98.5402 70.0902 117.373 62.9064C117.373 62.9064 117.956 65.4304 122.616 65.6246C127.275 65.8187 128.44 60.3823 128.44 60.3823C128.44 60.3823 135.624 70.8668 147.079 63.2947C143.779 64.4596 142.226 64.8479 139.896 62.7122ZM36.9924 70.4785C31.9443 72.0318 28.6436 71.4493 32.5267 66.9837C36.4099 62.5181 45.3411 61.3531 45.3411 61.3531C45.3411 61.3531 42.0404 68.7311 36.9924 70.4785ZM79.3186 59.7999C78.9303 60.7706 77.7654 62.5181 78.1537 63.683C74.4647 65.6246 74.0764 65.2363 74.0764 65.2363C69.9991 63.8772 74.4647 57.8583 76.4063 54.1693C77.7654 51.8394 80.0952 51.8394 81.8427 52.2277C82.231 52.2277 83.0076 52.616 83.2018 52.616C82.8134 53.3927 79.9011 58.6349 79.3186 59.7999ZM129.994 59.0232C129.994 59.0232 130.576 57.47 131.547 56.305C133.1 54.5576 135.236 52.8102 136.595 52.4219C138.925 52.0336 136.789 56.8875 132.712 58.6349C131.935 59.0232 129.994 59.0232 129.994 59.0232Z" fill="url(#paint1_linear)"/>
<path d="M34.0795 72.2263C33.6912 72.2263 33.3029 72.2263 33.1088 72.2263C31.5555 72.0321 29.4198 70.8672 29.4198 68.9256C29.2256 66.5958 31.9438 63.2951 45.5348 60.1886C45.729 59.6061 46.1173 58.8295 46.6998 57.8587C48.8355 53.0047 52.5245 44.4618 59.5141 40.967C52.7186 40.7728 44.1757 40.967 37.5744 45.8209C30.7789 50.0924 29.0315 56.8879 31.5555 60.771C31.5555 60.9652 31.5555 60.9652 31.5555 61.1594C31.5555 61.3535 31.3613 61.3535 31.3613 61.3535L30.3906 61.936C30.1964 61.936 30.0022 61.936 29.8081 61.7418C29.6139 61.5477 26.5074 57.6645 27.284 52.8106C27.6724 49.7041 29.8081 47.18 33.1088 44.8501C41.2634 39.6079 46.5056 39.6079 55.4368 39.6079C57.3784 39.6079 59.32 39.6079 61.4557 39.6079H64.5622C64.7564 39.6079 64.9505 39.8021 64.9505 39.8021C64.9505 39.9962 64.9505 40.1904 64.9505 40.1904C64.9505 40.1904 62.0382 43.4911 61.2615 46.0151C60.8732 47.18 59.1258 52.4223 56.2135 57.4704C59.1258 56.8879 64.1739 55.9171 67.4746 55.723C67.6687 55.5288 67.6687 55.5288 67.8629 55.3346C72.3285 50.869 78.3474 49.3158 83.7838 51.2573L91.9384 50.6749C92.1325 50.6749 92.3267 50.6749 92.3267 50.869C92.3267 51.0632 92.3267 51.2573 92.3267 51.2573L88.6377 57.8587C86.8903 60.9652 86.1137 62.9068 86.6961 63.8776C86.6961 64.0717 86.8903 64.2659 87.6669 64.2659C90.7734 64.2659 94.6566 62.1301 95.6274 61.5477C95.6274 61.3535 95.8215 60.9652 95.8215 60.3827C96.9865 56.8879 99.5105 53.9755 103.782 51.8398C107.471 49.8982 114.266 48.9275 115.82 51.2573C116.79 52.6164 116.014 55.9171 114.266 58.0528C112.907 59.8003 110.966 60.3827 109.218 59.8003C108.053 59.2178 107.277 58.6353 107.277 58.0528C107.277 56.6937 109.607 55.3346 111.742 54.3639L112.131 54.1697C113.296 53.5872 114.655 52.2281 114.461 51.8398C114.461 51.6457 114.072 51.4515 113.296 51.4515C110.383 51.2573 106.888 55.7229 106.112 56.8879C105.335 58.0528 103.394 61.936 104.364 63.6834C104.559 64.2659 105.141 64.6542 105.918 64.6542C109.995 65.0425 116.985 61.936 117.955 61.3535L128.052 40.967C128.052 40.7728 128.246 40.7729 128.44 40.7729L136.012 39.9962C136.206 39.9962 136.4 39.9962 136.4 40.1904C136.4 40.3845 136.595 40.3845 136.4 40.5787L126.693 60.3827C126.11 61.3535 125.722 62.3243 125.528 62.9068C126.693 62.3243 127.469 60.771 128.246 59.2178C128.44 58.8295 128.634 58.4412 128.828 58.0528C132.517 52.2281 136.789 50.869 138.924 50.4807C140.478 50.2866 143.196 50.2865 144.555 51.6456C145.137 52.2281 145.526 53.1989 145.332 54.1697C144.749 57.0821 139.507 58.8295 135.235 59.8003C136.789 60.1886 138.73 61.1594 140.284 62.5185C142.613 64.46 143.972 64.0717 147.467 63.1009C147.661 63.1009 147.856 63.1009 148.05 63.2951C148.05 63.4892 148.05 63.6834 147.856 63.8776C137.759 70.4789 130.964 63.6834 129.022 61.5477C128.44 63.1009 126.693 66.5957 123.004 66.4016C119.315 66.2074 117.955 64.6542 117.567 63.6834C106.306 67.9549 99.1222 67.9549 95.8215 63.6834C92.5208 66.4016 86.1137 66.9841 81.0656 66.2074C79.9006 66.0133 78.9298 65.625 78.3474 64.8483C77.3766 65.4308 74.6584 66.7899 70.3869 66.7899C68.057 66.7899 66.1155 65.8191 65.1447 64.0717C64.3681 62.5185 64.5622 60.3827 65.7272 58.4411C63.9797 58.4411 59.7083 58.8295 55.0485 59.8003C52.7186 63.6834 50.3888 66.2074 48.253 67.5665C41.4575 71.2555 36.9919 72.2263 34.0795 72.2263ZM45.729 60.9652C45.9231 61.1594 45.9231 61.3535 45.9231 61.5477C45.729 61.936 42.4283 69.314 37.1861 70.8672C36.7977 71.0614 36.2153 71.2555 35.6328 71.2555C38.351 71.0614 42.4283 69.7023 47.6705 66.5958C49.8063 65.2367 51.942 62.7126 54.2719 59.0236C54.2719 58.8295 54.466 58.8295 54.466 58.8295C54.6602 58.8295 54.8544 58.8295 54.8544 58.8295C54.8544 58.8295 54.6602 58.8295 54.6602 58.6353C54.466 58.4412 54.466 58.247 54.6602 58.247C57.7667 52.8106 59.7083 47.3742 60.0966 46.2092C60.6791 44.2677 62.4265 41.9378 63.3973 40.7729H61.844C61.844 40.967 61.6499 40.967 61.6499 41.1612C53.8836 43.8794 49.6121 53.3931 47.4764 58.4411C46.8939 59.6061 46.5056 60.5769 46.3114 61.1594C45.9231 60.771 45.9231 60.9652 45.729 60.9652ZM44.7582 61.936C42.4283 62.3243 36.0211 63.8775 32.9146 67.3724C31.5555 68.9256 31.1672 70.0906 31.3613 70.4789C31.7497 71.0614 33.4971 71.2555 36.7978 70.0906C40.8751 68.7315 43.7874 63.6834 44.7582 61.936ZM36.0211 63.8776C30.7789 66.0133 30.1964 67.9549 30.1964 68.9256C30.1964 69.314 30.3906 69.5081 30.3906 69.7023C30.5847 68.9256 31.1672 67.9549 32.138 66.5958C33.3029 65.625 34.662 64.6542 36.0211 63.8776ZM95.8215 62.5185C95.8215 62.5185 96.0157 62.5184 96.0157 62.7126C96.0157 62.7126 96.2098 62.9068 96.2098 63.1009C97.9572 65.4308 101.258 66.4016 105.918 65.8191C105.724 65.8191 105.529 65.8191 105.335 65.8191C104.17 65.625 103.394 65.2366 103.005 64.46C101.84 61.7418 104.753 56.8879 104.947 56.8879C104.947 56.8879 107.859 52.6164 111.16 51.4515C108.83 51.4515 105.724 52.2281 103.588 53.3931C99.5105 55.5288 97.1806 58.247 96.0157 61.5477C95.8215 62.3243 95.8215 62.7126 95.8215 62.7126C96.0157 62.3243 96.0157 62.3243 95.8215 62.5185ZM66.3096 57.2762C66.5038 57.2762 66.6979 57.2762 66.6979 57.4704C66.6979 57.6645 66.6979 57.8587 66.6979 57.8587C65.3388 59.8003 64.9505 61.936 65.7272 63.2951C66.5038 64.6542 68.0571 65.625 70.1928 65.625C71.5519 65.625 72.5227 65.4308 73.6876 65.2366C72.911 64.8483 72.3285 64.46 72.1343 63.6834C71.3577 61.5477 73.2993 58.247 74.8525 55.5288C75.2409 54.9463 75.6292 54.1697 76.0175 53.5872C76.7941 52.2281 77.7649 51.6457 78.7357 51.4515C74.8525 51.4515 71.1636 53.0048 68.057 56.1113C67.8629 56.3054 67.6687 56.4996 67.4746 56.6937C67.4746 56.6937 67.2804 56.8879 67.0863 56.8879C64.7564 56.8879 61.4557 57.4704 58.5434 58.0528C63.009 57.4704 65.9213 57.2762 66.3096 57.2762ZM128.828 59.9944C129.022 59.9944 129.022 59.9944 129.217 60.1886C129.411 60.5769 135.041 68.5373 144.361 64.6542C142.613 64.8483 141.254 64.6542 139.507 63.1009C137.177 60.9652 133.876 60.1886 132.517 60.1886C132.323 60.1886 132.129 59.9944 132.129 59.8003C132.129 59.6061 132.323 59.4119 132.517 59.4119C136.789 58.8295 143.972 56.8879 144.555 54.1697C144.749 53.3931 144.555 52.8106 144.167 52.4223C143.196 51.2573 140.672 51.2573 139.313 51.4515C138.536 51.6457 137.759 51.8398 136.595 52.2281H136.789C137.759 52.034 138.148 52.6164 138.148 52.8106C138.536 54.1697 136.4 57.6645 133.1 59.2178C132.129 59.6061 130.187 59.6061 129.993 59.6061C129.799 59.6061 129.799 59.6061 129.605 59.4119C129.605 59.2178 129.411 59.2178 129.605 59.0236C129.605 59.0236 129.799 58.4412 130.187 57.6645C129.993 57.8587 129.799 58.247 129.605 58.4411C129.411 58.8295 129.217 59.2178 129.022 59.6061C128.828 59.8003 128.828 59.9944 128.828 59.9944ZM78.7357 63.8776C79.124 64.6542 79.9006 65.0425 81.0656 65.2366C82.813 65.4308 84.5604 65.625 86.502 65.625C86.1137 65.4308 85.7253 65.2367 85.5312 64.8483C84.7546 63.4892 86.1137 60.5769 87.4728 58.0528L87.6669 57.6645L90.7734 52.034L83.5896 52.4223V52.6164L83.2013 53.1989C82.4247 54.7522 80.0948 58.8295 79.7065 59.9944L79.5123 60.3827C79.124 61.1593 78.3474 62.7126 78.5415 63.6834C78.7357 63.6834 78.7357 63.6834 78.7357 63.8776ZM117.761 62.5185H117.955C118.15 62.5185 118.15 62.7126 118.15 62.7126C118.15 62.7126 118.732 64.8483 123.004 65.0425C126.11 65.2367 127.469 62.7126 128.052 61.1594C127.469 62.1301 126.693 63.1009 125.916 63.4892C125.333 63.6834 125.139 63.6834 124.945 63.4892C124.751 63.2951 124.363 62.9068 125.916 59.8003L135.041 40.7729L128.44 41.3553L118.344 62.1301L118.15 62.3243C118.15 62.3243 117.761 62.5184 117.179 62.7126C117.179 62.7126 117.373 62.7126 117.761 62.5185C117.567 62.5185 117.567 62.5185 117.761 62.5185ZM94.8507 63.1009C94.0741 63.4892 92.715 64.2659 91.1618 64.8483C92.5209 64.46 93.8799 63.8776 94.8507 63.1009ZM74.2701 64.8483C74.4642 64.8483 75.0467 64.8483 77.7649 63.4892C77.5707 62.3243 78.3474 60.9652 78.7357 59.9944L78.9299 59.6061C79.5123 58.4412 81.648 54.558 82.6188 52.8106V52.6164C82.4247 52.6164 82.0364 52.4223 81.8422 52.4223C79.9006 52.2281 77.9591 52.2281 76.7941 54.1697C76.4058 54.7522 76.0175 55.3346 75.6292 56.1113C74.0759 58.6353 72.3285 61.936 72.911 63.6834C73.1051 64.0717 73.6876 64.46 74.2701 64.8483ZM48.0589 40.5787C43.0108 40.7729 38.9335 41.9378 33.4971 45.4326C30.1964 47.5684 28.449 49.8982 28.0607 52.8106C27.4782 56.4996 29.6139 59.8003 30.1964 60.771L30.5847 60.5769C28.2548 56.3054 30.1964 49.3158 37.1861 44.8501C40.2926 42.5203 44.1757 41.1612 48.0589 40.5787ZM114.849 52.4223C114.655 53.5872 112.907 54.7522 112.131 55.1405L111.742 55.3346C110.772 55.723 107.859 57.2762 107.859 58.247C107.859 58.6353 108.442 59.0236 109.218 59.4119C111.16 60.1886 112.519 58.8295 113.296 58.0528C114.849 56.1113 115.237 53.5872 114.849 52.4223ZM136.983 52.8106H136.789C135.624 53.0048 133.488 54.7522 131.935 56.4996C131.352 57.2762 130.964 58.0528 130.576 58.6353C131.352 58.6353 132.129 58.4412 132.711 58.247C135.818 56.8879 137.565 53.7814 137.177 53.0047C137.177 53.0047 137.177 52.8106 136.983 52.8106Z" fill="#FF0000"/>
<path d="M148.826 30.677C148.826 30.677 145.526 32.8127 142.031 33.201C138.536 33.5894 140.477 29.7062 140.477 29.7062L145.914 19.2217C145.914 19.2217 145.331 19.4159 137.759 19.61C122.809 16.3094 119.897 28.5413 119.12 30.2887C117.761 31.4536 108.053 34.1718 108.053 34.1718L115.237 19.2217C115.237 19.2217 115.237 19.2217 106.888 19.8042C91.5499 15.1444 88.2492 30.2887 88.0551 30.677C88.0551 30.8712 83.7836 32.8127 78.3472 33.3952C72.9108 33.9777 73.2991 30.677 74.0757 29.1237C76.9881 28.7354 83.5894 24.2698 83.5894 24.2698C83.5894 24.2698 87.6667 18.4451 77.7647 18.8334C67.8627 19.4159 65.3387 31.0653 65.3387 31.0653C65.3387 31.0653 59.7081 33.5894 56.0191 33.7835C52.5243 33.7835 54.4659 29.1237 54.4659 29.1237C54.4659 29.1237 62.8146 14.1736 64.3679 11.4554C65.9211 8.73725 64.562 6.79567 58.7373 8.73724C52.9126 10.6788 42.6223 26.0172 42.6223 26.0172C42.6223 26.0172 47.4762 16.8918 49.2236 13.0087C51.1652 9.12556 47.2821 8.34893 43.2048 8.15477C38.9333 8.15477 33.3027 12.8145 27.2839 23.1049C21.265 33.5894 20.1001 33.0069 17.3819 33.5894C14.6637 33.9777 10.9747 28.9296 10.9747 29.3179C10.7805 33.201 13.1104 34.5601 18.5468 34.1718C24.1774 33.7835 31.3612 24.8523 34.856 18.2509C38.3508 11.6496 39.5158 10.6788 39.5158 10.6788C44.3697 6.40736 43.0106 11.2613 43.0106 11.2613L31.5553 33.9777L40.2924 31.4536C40.2924 31.4536 45.7288 22.1341 51.7477 15.3386C57.7665 8.73725 59.9023 9.51387 59.3198 9.90218C53.8834 14.7561 46.6996 26.988 46.5054 29.7062C46.1171 37.4725 60.8731 33.201 65.1445 31.6478C72.7166 37.2784 85.7252 32.0361 87.8609 31.2595C91.744 35.9192 100.675 33.0069 100.675 33.0069C100.675 33.0069 100.287 33.3952 99.5103 35.1426C92.3265 35.1426 90.5791 40.7732 95.8213 40.7732C101.064 40.7732 105.918 37.4725 107.277 35.1426C109.995 34.5601 115.625 31.842 118.926 30.8712C123.392 36.6959 131.546 32.8127 132.905 32.0361C138.536 36.89 148.632 31.2595 148.632 31.2595L148.826 30.677ZM78.9297 19.8042C80.6771 19.0276 84.3661 19.61 79.1238 24.2698C79.1238 24.2698 76.0173 26.7939 73.8816 27.7646C73.6874 27.9588 77.1823 20.5808 78.9297 19.8042ZM95.0447 40.1907C93.1031 39.6082 93.4915 36.5017 99.122 36.1134C99.3162 36.1134 97.1804 40.7732 95.0447 40.1907ZM103.005 27.5705C102.617 28.5413 102.423 29.1237 101.452 31.6478C97.7629 33.5894 97.9571 32.8127 97.9571 32.8127C92.5207 32.8127 97.1804 25.8231 99.5103 22.3282C101.258 19.8042 103.588 19.61 105.141 19.9984C105.529 19.9984 106.306 20.3867 106.5 20.3867C105.918 21.5516 103.588 26.4056 103.005 27.5705ZM133.682 27.9588C133.294 28.9296 132.129 30.677 132.517 31.842C128.828 33.7835 128.44 33.3952 128.44 33.3952C124.362 32.0361 128.828 26.0172 130.77 22.3282C132.129 19.9984 134.459 19.9984 136.206 20.3867C136.594 20.3867 137.371 20.775 137.565 20.775C136.983 21.5516 134.264 26.7939 133.682 27.9588Z" fill="url(#paint2_linear)"/>
<path d="M96.0157 41.3558C93.4916 41.3558 92.5209 40.1908 92.5209 39.0259C92.5209 37.0843 95.0449 34.9486 99.3164 34.9486C99.5105 34.5603 99.7047 34.172 99.8988 33.9778C97.3748 34.5603 91.1618 35.7252 87.8611 32.0362C77.9591 35.7252 69.9986 35.9194 65.1447 32.4245C63.3973 33.007 52.1362 36.8902 47.6705 33.5895C46.5056 32.8128 45.9231 31.4538 46.1173 29.9005C46.3114 26.9881 53.107 15.3387 58.5434 10.2906C57.5726 10.6789 55.631 11.8439 52.1362 15.727C46.3114 22.3284 40.875 31.6479 40.6809 31.6479L40.4867 31.8421L31.7497 34.3661C31.5555 34.3661 31.3613 34.3661 31.3613 34.1719C31.1672 33.9778 31.1672 33.7836 31.3613 33.7836L42.8166 11.0673C43.0108 10.2906 43.0108 9.51399 42.8166 9.31983C42.8166 9.31983 42.2341 8.93152 39.9043 10.8731C39.9043 10.8731 38.5452 11.8439 35.2445 18.2511C31.9438 24.6583 24.5658 33.9778 18.7411 34.3661C15.2463 34.5603 13.1106 34.172 11.9456 33.007C10.9748 32.0362 10.5865 30.8713 10.7807 29.1239C10.7807 28.9297 10.9748 28.7355 10.9748 28.7355C11.3632 28.5414 11.3632 28.7356 12.1398 29.5122C13.3047 30.6771 15.6346 33.3953 17.5762 33.2012C17.7703 33.2012 17.9645 33.2012 18.1587 33.2012C20.4885 32.8128 21.8476 32.6187 27.284 23.105C32.9146 13.203 38.7393 7.96073 43.3991 7.96073C43.3991 7.96073 43.3991 7.96073 43.5933 7.96073C46.1173 7.96073 49.2238 8.34905 50.1946 9.9023C50.7771 10.6789 50.5829 11.8439 50.0004 13.203C49.0296 15.1445 47.4764 18.2511 46.1173 20.9693C49.6121 16.3095 55.0485 9.70815 58.9317 8.34905C62.0382 7.18411 64.3681 7.18411 65.1447 8.34905C65.7272 9.12568 65.7272 10.2906 64.9505 11.6497C63.3973 14.3679 55.2427 29.1239 55.0485 29.318C54.8544 29.9005 54.0777 31.8421 54.8544 32.8129C55.0485 33.2012 55.631 33.3953 56.2135 33.3953C59.32 33.3953 64.1739 31.2596 65.1447 30.8713C65.533 29.318 68.6395 19.0277 77.9591 18.6394C81.648 18.4452 83.9779 19.0277 84.7546 20.5809C85.7253 22.3284 84.1721 24.6583 84.1721 24.6583C84.1721 24.6583 84.1721 24.6582 83.9779 24.8524C83.7838 25.0466 77.5707 29.1239 74.4642 29.7063C74.0759 30.483 73.8818 31.4537 74.4642 32.2304C75.0467 33.007 76.4058 33.3953 78.3474 33.2012C83.2013 32.6187 87.0844 31.0654 87.8611 30.6771C88.2494 28.9297 90.191 23.2992 95.0449 20.3868C98.3456 18.4452 102.423 18.2511 106.888 19.6102L115.237 19.0277C115.431 19.0277 115.626 19.0277 115.626 19.2219C115.626 19.416 115.82 19.416 115.626 19.6102L108.83 33.7836C111.937 32.8129 117.567 31.0654 118.732 30.2888C118.732 30.0946 118.926 29.9005 118.926 29.5122C120.091 26.2115 123.974 16.3095 137.759 19.416C144.749 19.2219 145.72 19.0277 145.72 19.0277C145.914 19.0277 146.108 19.0277 146.108 19.2219C146.302 19.416 146.302 19.6102 146.108 19.6102L140.672 30.0947C140.478 30.483 139.895 32.0362 140.478 32.6187C140.672 33.007 141.254 33.007 141.837 33.007C145.137 32.6187 148.438 30.483 148.438 30.483C148.632 30.483 148.632 30.483 148.826 30.483C149.021 30.483 149.021 30.6771 149.021 30.8713V31.6479C149.021 31.8421 149.021 32.0362 148.826 32.0362C148.438 32.2304 138.536 37.4726 132.711 32.8129C124.751 36.3077 120.674 34.1719 118.538 31.6479C117.179 32.0362 115.431 32.8128 113.684 33.5895C111.354 34.5603 108.83 35.5311 107.277 35.9194C105.918 38.2493 101.064 41.3558 96.0157 41.3558ZM99.5105 35.7252C99.7047 35.9194 99.7047 36.1135 99.7047 36.3077C99.5105 36.696 98.1514 39.8025 96.404 40.5791C101.258 40.385 105.724 37.4726 107.277 35.1427L107.471 34.9486C108.442 34.7544 109.801 34.3661 111.16 33.7836C109.801 34.172 108.636 34.5603 108.248 34.5603C108.053 34.5603 107.859 34.5603 107.859 34.3661C107.665 34.172 107.665 33.9778 107.859 33.9778L114.655 19.6102L107.083 20.1926H106.888C106.694 20.1926 106.694 20.1926 106.5 19.9985H106.694C106.888 19.9985 106.888 20.1926 106.888 20.1926C106.888 20.3868 106.888 20.3868 106.888 20.5809C106.306 21.5517 103.976 26.4057 103.394 27.5706C103.199 27.9589 103.005 28.3472 102.811 28.9297C102.617 29.5122 102.229 30.2888 101.84 31.6479L101.646 31.8421C100.87 32.2304 100.287 32.4245 99.8988 32.6187C100.481 32.4245 100.87 32.4245 100.87 32.4245C101.064 32.4245 101.258 32.4245 101.258 32.6187C101.452 32.8128 101.452 33.007 101.258 33.2012C101.258 33.2012 100.87 33.5895 100.093 35.3369C99.8988 35.7252 99.7047 35.7252 99.5105 35.7252ZM96.9865 36.1135C94.6566 36.696 93.2975 38.0551 93.2975 39.0259C93.2975 39.6083 93.4916 39.9967 94.0741 40.1908C93.6858 39.8025 93.4916 39.4142 93.6858 38.8317C93.6858 37.8609 94.6566 36.696 96.9865 36.1135ZM98.5397 36.5018C95.4332 36.8902 94.4624 38.0551 94.4624 38.8317C94.4624 39.22 94.6566 39.6084 95.239 39.8025C96.2098 40.1908 97.7631 38.2492 98.5397 36.5018ZM59.1258 9.31983C59.32 9.31983 59.5141 9.31984 59.7083 9.514C59.9024 9.70815 59.9024 10.0965 59.7083 10.2906C54.2719 15.1445 47.2822 27.3765 47.0881 29.9005C47.0881 31.2596 47.4764 32.2304 48.4472 32.8129C49.8063 33.7836 52.3303 33.9778 55.0485 33.7836C54.6602 33.5895 54.2719 33.3953 54.0777 33.007C53.1069 31.4538 54.0777 28.9297 54.2719 28.5414C54.466 28.3472 62.6206 13.5913 64.1739 10.8731C64.7564 9.9023 64.9505 8.93152 64.5622 8.54321C64.1739 8.1549 63.2031 7.57242 59.32 8.73736C58.5433 8.93152 57.9609 9.31983 56.9901 9.9023C57.7667 9.70815 58.5434 9.31983 59.1258 9.31983ZM65.3389 31.4538C65.3389 31.4538 65.533 31.6479 65.3389 31.4538C68.2512 33.5895 72.3285 34.3661 77.3766 33.7836C75.6292 33.7836 74.2701 33.3953 73.6876 32.4245C72.911 31.2596 73.2993 29.9005 73.6876 28.9297C73.6876 28.7356 73.8818 28.7355 74.0759 28.7355C76.6 28.3472 82.6188 24.4641 83.2013 23.8816C83.3955 23.4933 84.3662 21.9401 83.7838 20.7751C83.3955 20.1926 82.813 19.8043 81.8422 19.6102C82.0364 19.6102 82.0364 19.8043 82.0364 19.9985C82.6188 20.9693 81.8422 22.5225 79.3182 24.8524C79.124 25.0466 76.0175 27.3765 74.0759 28.5414C73.8818 28.5414 73.6876 28.5414 73.6876 28.5414C73.4934 28.5414 73.4934 28.3472 73.4934 28.1531C73.4934 27.5706 76.9883 20.581 78.9298 19.8043C79.124 19.8043 79.3182 19.6102 79.5123 19.6102C79.124 19.6102 78.5415 19.6102 77.9591 19.6102C68.4454 20.1926 65.9213 31.4538 65.9213 31.4538C65.7272 31.2596 65.533 31.4538 65.3389 31.4538C65.533 31.4538 65.3389 31.4538 65.3389 31.4538ZM119.315 30.6771C119.315 30.6771 119.509 30.6771 119.509 30.8713C121.45 33.3953 124.363 34.3661 128.246 33.5895C127.469 33.2012 126.887 32.8129 126.693 32.0362C125.916 29.9005 127.857 26.5998 129.411 23.8816C129.799 23.2991 130.187 22.5225 130.576 21.94C131.741 19.8043 133.682 19.6102 135.041 19.6102C124.168 18.4452 121.062 26.794 119.897 29.5122C119.703 29.9005 119.703 30.2888 119.509 30.483C119.509 30.483 119.509 30.483 119.315 30.6771ZM133.294 31.8421C133.488 31.8421 133.488 31.8421 133.488 32.0362C135.624 33.7836 138.536 34.172 141.254 33.7836C140.672 33.7836 140.284 33.3953 139.895 33.007C139.119 31.8421 140.089 29.9005 140.089 29.7063L145.137 19.8043C144.167 19.8043 142.031 19.9985 137.759 20.1926C137.759 20.1926 137.759 20.1926 137.565 20.1926C137.177 20.1926 136.983 19.9985 136.595 19.9985C136.789 19.9985 136.983 20.1926 136.983 20.1926C137.177 20.1926 137.371 20.3868 137.371 20.3868C137.565 20.3868 137.565 20.5809 137.565 20.5809C137.565 20.7751 137.565 20.7751 137.565 20.9693V21.3576C136.789 22.9108 134.459 26.9881 134.07 28.1531L133.876 28.5414C133.488 29.318 132.711 30.8713 132.906 31.8421V32.0362L133.294 31.8421C133.1 31.8421 133.1 31.8421 133.294 31.8421ZM11.5573 30.2888C11.5573 31.2596 11.9456 32.0362 12.5281 32.6187C13.1106 33.2012 14.2755 33.5895 15.8288 33.7836C14.0814 33.007 12.5281 31.2596 11.5573 30.2888ZM88.2494 31.0654C88.2494 31.0654 88.4435 31.0654 88.4435 31.2596C90.7734 33.9778 94.8507 33.9778 97.7631 33.5895C96.5981 33.5895 95.6274 33.007 95.239 32.2304C94.4624 30.483 95.6274 27.3764 99.1222 22.5225C100.481 20.5809 102.229 19.8043 104.559 19.8043C101.064 19.2219 98.1514 19.6102 95.6274 20.9693C90.9676 23.6875 89.2202 29.1239 88.8319 30.6771C88.8319 30.6771 88.8319 30.6771 88.8319 30.8713C88.4436 30.8713 88.4436 30.8713 88.2494 31.0654ZM41.2634 8.93152C37.1861 10.2906 32.5263 15.3387 27.8665 23.4933C23.5951 30.8713 21.8476 32.8128 20.1002 33.5895C25.3425 32.0362 31.5555 23.8816 34.662 18.0569C38.1568 11.4556 39.3218 10.4848 39.5159 10.4848C40.0984 9.70815 40.6809 9.12568 41.2634 8.93152ZM43.0108 8.54321C43.0108 8.54321 43.2049 8.54321 43.0108 8.54321C43.9816 9.12568 43.5933 11.0672 43.5933 11.2614L32.5263 33.2012L40.0984 31.0654C40.4867 30.483 42.04 27.9589 44.1757 24.8524C43.5932 25.629 43.2049 26.2115 43.2049 26.2115C43.0108 26.4057 42.8166 26.4057 42.6225 26.4057C42.4283 26.2115 42.4283 26.0173 42.4283 25.8232C42.4283 25.8232 47.2822 16.6978 49.0296 12.8147C49.6121 11.6497 49.6121 10.8731 49.2238 10.2906C48.4472 8.93152 45.3407 8.73736 43.2049 8.73736C43.2049 8.54321 43.2049 8.54321 43.0108 8.54321ZM128.634 32.8129C128.828 32.8129 129.411 32.8129 132.129 31.4538C131.935 30.2888 132.711 28.9297 133.1 27.9589L133.294 27.5706C133.876 26.4057 136.012 22.5225 136.983 20.7751V20.5809C136.789 20.3868 136.4 20.3868 136.206 20.3868C134.265 20.1926 132.323 20.1926 131.158 22.1342C130.77 22.7167 130.381 23.2992 129.993 24.0758C128.44 26.5998 126.693 29.9005 127.275 31.6479C127.469 32.2304 127.857 32.6187 128.634 32.8129ZM104.17 20.5809C102.423 20.5809 100.87 21.3576 99.7047 22.9108C95.4332 28.9297 95.4332 31.0654 95.8215 31.8421C96.0157 32.4245 96.7923 32.6187 97.7631 32.6187C97.9572 32.6187 97.9573 32.6187 97.9573 32.8129C98.1514 32.8129 98.928 32.6187 100.87 31.6479C101.452 30.483 101.646 29.7063 101.84 29.1239C102.035 28.5414 102.229 28.1531 102.423 27.7648C103.005 26.5998 104.947 22.7167 105.724 21.1634C105.529 20.9693 105.141 20.9693 104.947 20.9693C104.753 20.5809 104.364 20.5809 104.17 20.5809ZM80.2889 19.9985C79.9006 19.9985 79.5123 19.9985 78.9298 20.1926C77.7649 20.581 75.435 24.8524 74.4642 26.9881C76.4058 25.8232 78.5415 24.0758 78.5415 24.0758C81.4539 21.3576 81.0656 20.581 81.0656 20.3868C81.2597 20.1926 80.8714 19.9985 80.2889 19.9985Z" fill="#FF0000"/>
<defs>
<linearGradient id="paint0_linear" x1="80.0185" y1="74.7362" x2="80.0185" y2="4.23594" gradientUnits="userSpaceOnUse">
<stop stop-color="#0E0009"/>
<stop offset="0.1405" stop-color="#0E0092"/>
<stop offset="0.1902" stop-color="#0E0394"/>
<stop offset="0.2231" stop-color="#0C0C99"/>
<stop offset="0.2512" stop-color="#0A1BA3"/>
<stop offset="0.2765" stop-color="#0830B1"/>
<stop offset="0.2997" stop-color="#044BC2"/>
<stop offset="0.319" stop-color="#0068D5"/>
<stop offset="0.3239" stop-color="#0064D2"/>
<stop offset="0.3737" stop-color="#0244B7"/>
<stop offset="0.4251" stop-color="#032AA1"/>
<stop offset="0.4782" stop-color="#041892"/>
<stop offset="0.5341" stop-color="#050E89"/>
<stop offset="0.5973" stop-color="#050A86"/>
<stop offset="0.9351" stop-color="#070221"/>
</linearGradient>
<linearGradient id="paint1_linear" x1="87.4423" y1="33.4424" x2="87.4423" y2="77.1585" gradientUnits="userSpaceOnUse">
<stop stop-color="#6A1717"/>
<stop offset="0.2315" stop-color="#FF1717"/>
<stop offset="0.2843" stop-color="#FF3D13"/>
<stop offset="0.3765" stop-color="#FF7A0C"/>
<stop offset="0.4611" stop-color="#FFAA07"/>
<stop offset="0.5351" stop-color="#FFCD03"/>
<stop offset="0.5957" stop-color="#FFE201"/>
<stop offset="0.6355" stop-color="#FFEA00"/>
<stop offset="0.6927" stop-color="#FFBB05"/>
<stop offset="0.7721" stop-color="#FF810B"/>
<stop offset="0.8453" stop-color="#FF5310"/>
<stop offset="0.9101" stop-color="#FF3214"/>
<stop offset="0.9638" stop-color="#FF1E16"/>
<stop offset="1" stop-color="#FF1717"/>
</linearGradient>
<linearGradient id="paint2_linear" x1="80.0173" y1="6.3328" x2="80.0173" y2="40.6194" gradientUnits="userSpaceOnUse">
<stop offset="0.0615597" stop-color="#6A1717"/>
<stop offset="0.2586" stop-color="#FF1717"/>
<stop offset="0.2961" stop-color="#FF3D13"/>
<stop offset="0.3617" stop-color="#FF7A0C"/>
<stop offset="0.4218" stop-color="#FFAA07"/>
<stop offset="0.4744" stop-color="#FFCD03"/>
<stop offset="0.5176" stop-color="#FFE201"/>
<stop offset="0.5458" stop-color="#FFEA00"/>
<stop offset="0.6172" stop-color="#FFBB05"/>
<stop offset="0.716" stop-color="#FF810B"/>
<stop offset="0.8073" stop-color="#FF5310"/>
<stop offset="0.8879" stop-color="#FF3214"/>
<stop offset="0.9549" stop-color="#FF1E16"/>
<stop offset="1" stop-color="#FF1717"/>
</linearGradient>
</defs>
</svg>
