<svg width="160" height="80" viewBox="0 0 160 80" fill="none" xmlns="http://www.w3.org/2000/svg">
<g clip-path="url(#clip0_7026_74)">
<path d="M74.9091 35.983L72.2644 30.1648H70.4132V35.983H67.7686V21.4375H72.9917C75.7024 21.4375 77.3553 23.4871 77.3553 25.8673C77.3553 27.9168 76.2314 29.173 74.9091 29.702L77.8843 35.983H74.9091ZM72.9256 23.9499H70.4793V27.7846H72.9256C74.0495 27.7846 74.8429 26.9912 74.8429 25.8673C74.7768 24.7433 74.0495 23.9499 72.9256 23.9499Z" fill="white"/>
<path d="M82.6445 32.9424H79.8677V35.9837H82.6445V32.9424Z" fill="white"/>
<path d="M92.4958 23.9499V27.5201H97.7851V30.0987H92.4958V35.983H89.9173V21.4375H98.7107V23.9499H92.4958Z" fill="white"/>
<path d="M108.099 35.983L105.454 30.1648H103.603V35.983H100.959V21.4375H106.182C108.893 21.4375 110.545 23.4871 110.545 25.8673C110.545 27.9168 109.421 29.173 108.099 29.702L111.074 35.983H108.099ZM106.05 23.9499H103.603V27.7846H106.05C107.173 27.7846 107.967 26.9912 107.967 25.8673C107.967 24.7433 107.24 23.9499 106.05 23.9499Z" fill="white"/>
<path d="M120.926 35.983L120.132 33.4044H115.372L114.578 35.983H111.868L116.76 21.4375H118.81L123.702 35.983H120.926ZM117.818 25.735L116.099 31.0243H119.405L117.818 25.735Z" fill="white"/>
<path d="M133.223 35.983L127.934 27.0573V35.983H125.289V21.4375H127.603L132.959 30.3631V21.4375H135.537V35.983H133.223Z" fill="white"/>
<path d="M143.14 36.1156C141.686 36.1156 140.496 35.5867 139.504 34.5288C138.909 33.8676 138.578 33.1404 138.38 32.347C138.248 31.5536 138.182 30.2974 138.182 28.7106C138.182 27.1238 138.248 25.9338 138.38 25.0743C138.512 24.2148 138.909 23.5536 139.504 22.8924C140.496 21.8346 141.686 21.3057 143.14 21.3057C145.719 21.3057 147.636 22.9586 148.099 25.9338H145.454C145.19 24.6776 144.463 23.8842 143.207 23.8842C142.479 23.8842 141.95 24.1486 141.554 24.6114C141.025 25.2726 140.893 25.8676 140.893 28.7106C140.893 31.5536 141.025 32.2148 141.554 32.8098C141.95 33.3387 142.545 33.5371 143.207 33.5371C144.463 33.5371 145.19 32.7437 145.454 31.4875H148.099C147.636 34.4627 145.719 36.1156 143.14 36.1156Z" fill="white"/>
<path d="M157.818 34.5288C156.893 35.5205 155.702 36.1156 154.182 36.1156C152.661 36.1156 151.471 35.5205 150.545 34.5288C149.157 33.0743 149.223 31.223 149.223 28.7106C149.223 26.1982 149.157 24.347 150.545 22.8924C151.471 21.9007 152.661 21.3057 154.182 21.3057C155.702 21.3057 156.826 21.9007 157.818 22.8924C159.14 24.347 159.14 26.1982 159.14 28.7106C159.207 31.223 159.207 33.0081 157.818 34.5288ZM155.901 24.6114C155.504 24.1486 154.975 23.8181 154.248 23.8181C153.521 23.8181 152.926 24.1486 152.529 24.6114C152 25.2065 151.868 25.8676 151.868 28.7106C151.868 31.4875 152 32.2148 152.529 32.8098C152.926 33.2726 153.521 33.6032 154.248 33.6032C154.975 33.6032 155.57 33.2726 155.901 32.8098C156.43 32.2148 156.562 31.5536 156.562 28.7106C156.562 25.9338 156.43 25.2065 155.901 24.6114Z" fill="white"/>
<path d="M85.4214 42.1318H87.471V69.5699H85.4214V42.1318Z" fill="white"/>
<path d="M92.8925 47.6854C92.8925 43.7845 95.2727 41.8672 100.033 41.8672C101.686 41.8672 103.273 42.0655 104.793 42.5283V44.5779C103.207 44.049 101.488 43.7845 99.8347 43.7845C96.595 43.7845 94.9421 45.1069 94.9421 47.6854V64.2143C94.9421 66.6606 96.3305 67.9168 99.1735 67.9168C101.091 67.9168 102.545 67.5862 103.471 66.925V56.4126H105.521V68.1812C103.735 69.2391 101.752 69.768 99.5702 69.768C97.3884 69.768 95.7355 69.3052 94.6115 68.4457C93.4214 67.5862 92.8925 66.1316 92.8925 64.2143V47.6854Z" fill="white"/>
<path d="M111.14 42.1318H113.19V69.5699H111.14V42.1318Z" fill="white"/>
<path d="M129.19 42.1318V43.9831H123.769V69.5699H121.719V43.9831H116.297V42.1318H129.19Z" fill="white"/>
<path d="M149.355 42.1318H151.405V67.7186H160V69.5699H149.355V42.1318Z" fill="white"/>
<path d="M78.4793 43.7844C77.3553 42.6605 75.7685 42.0654 73.5867 42.0654H67.0413V43.9167H73.5867C76.5619 43.9167 78.0826 45.3712 78.0826 48.2142V63.2886C78.0826 66.1977 76.5619 67.5861 73.5867 67.5861H67.0413V69.4373H73.5867C75.7685 69.4373 77.4214 68.8423 78.4793 67.7183C79.6032 66.5944 80.1322 65.0737 80.1322 63.2225V48.2803C80.066 46.4291 79.5371 44.9084 78.4793 43.7844Z" fill="white"/>
<path d="M139.438 42.1318H136.463L129.983 69.5699H132.165L134.016 61.5037L134.413 59.6525L137.917 44.4459L141.421 59.6525L141.818 61.5037L143.669 69.5699H145.851L139.438 42.1318Z" fill="white"/>
<path d="M22.9421 12.2471C22.9421 12.2471 20.9586 23.0239 12.2975 30.8256C7.93385 34.7925 -1.58681 41.338 0.198316 51.8504C1.71898 60.5777 17.5867 71.09 27.1074 52.9082C27.1074 52.9082 33.5206 65.9991 43.5041 62.0322L22.9421 12.2471Z" fill="white"/>
<path d="M44.0991 31.3549C42.3801 29.7681 40.7934 28.2475 39.6033 26.859C34.1818 20.6442 32.3967 12.578 32.3306 12.5119L32.2644 12.1152L27.9669 21.7681L44.6281 61.9004L44.7603 61.8342C53.0248 58.7268 54.7438 52.1152 54.7438 52.0491C57.5868 44.1152 50.1157 37.0409 44.0991 31.3549ZM54.4132 52.0491C54.4132 52.1152 52.7603 58.5285 44.6942 61.6359L28.2314 21.7681L32.1983 12.9086C32.595 14.5615 34.6446 21.5037 39.4049 26.9913C40.595 28.3797 42.2479 29.9004 43.9008 31.4871C49.8512 37.1731 57.2562 44.1813 54.4132 52.0491Z" fill="white"/>
<mask id="mask0_7026_74" style="mask-type:luminance" maskUnits="userSpaceOnUse" x="28" y="12" width="28" height="50">
<path d="M28.2314 21.7677L44.6942 61.5694C52.7603 58.528 54.3471 52.0487 54.4132 51.9826C57.3223 44.1148 49.9173 37.1066 43.9008 31.4867C42.1818 29.8999 40.595 28.3793 39.4049 26.9908C34.5785 21.5032 32.595 14.5611 32.1983 12.9082L28.2314 21.7677Z" fill="white"/>
</mask>
<g mask="url(#mask0_7026_74)">
<path d="M25.1901 63.7511H25.3223L25.4545 63.3544L28.3636 62.6271L28.562 62.7594L27.2397 63.7511H27.5041L28.7603 62.8255L29.2231 63.0899V63.7511H29.3554V63.156L30.4132 63.7511H30.9421L33.3223 62.2965L33.8512 62.561L32.0661 63.8172H32.3306L33.9835 62.6932L35.7686 63.5527V63.8833H35.9008V63.6189L36.4297 63.8833H36.7603L35.9008 63.4866L36.0992 61.3048L36.562 61.2387L36.8264 63.8833H37.157L40.0661 61.966L41.2562 62.4949L40.7934 63.9494H41.5206L42.7107 63.6189L42.1157 63.9494H42.314L43.2397 63.4205H43.3058H43.3719V63.7511L43.1735 63.9494H43.8347L44.0992 63.8172L44.1653 63.9494H44.2975V63.8172L44.4959 63.9494H44.8264L44.2975 63.4866L49.5207 59.9164L50.0496 61.5693L47.4049 63.8172H47.6694L50.1157 61.7676L50.843 63.8172H50.9752L50.314 61.5693L51.3058 60.7098L51.7025 60.9081L51.8347 63.7511H51.9669L51.8347 61.0403L55.7355 63.0238L56.9256 63.8172H57.1901L56.9917 63.5527L57.3223 63.7511H57.5868L58.1818 62.8255L58.3802 63.8172H58.5124L58.2479 62.6932L60.2314 59.6519L60.7603 61.1065L59.1735 63.8172H59.3719L60.8264 61.2387L61.8182 63.8172H61.9504L60.8925 61.1065L61.0909 60.7759L61.6859 61.6354L62.2149 63.8172H62.3471L61.8843 61.966L63.2727 63.8172H63.6694L60.2975 54.9577H60.2314L60.2975 54.8916L56.8595 48.6106V48.5445V44.842L55.6033 41.0734H55.5372L55.6033 41.0073L52.9587 36.9742L49.6529 33.404L44.9587 29.1726L43.5702 28.0486L43.3719 27.8503L39.5372 22.9577L34.0496 16.1478L29.8843 11.2552L28.8926 9.99902H28.6942H28.4297L28.562 10.1313L28.0992 9.99902H27.5041L28.6942 10.3296L29.6198 11.718L29.2892 12.5114L28.0992 11.3875L27.3058 9.99902H27.1074L27.7025 10.9908L26.7107 9.99902H26.5124L28.033 11.4536L28.8264 12.842L27.2397 11.5197L26.4463 9.99902H26.2479L26.9091 11.3213L25.3223 9.99902H25.124L27.1074 11.6519L28.0992 13.6354L27.9669 13.7015L24.3306 10.4618V10.6602L27.8347 13.7676L27.438 13.966L25.0578 13.5693L24.3967 11.9164V12.6437L24.7273 13.3048L24.3967 12.9742V13.1726L24.7934 13.5032H24.3967V13.6354H24.9256L25.1901 14.2965L24.3967 13.7015V13.8998L25.2562 14.561L25.3223 14.7594L24.3306 14.0982V14.2965L25.3223 14.9577L24.5289 15.2883L24.3306 14.9577V15.2883L24.4628 15.4866V15.685L24.7934 16.0817L25.2562 16.9412L24.4628 16.0817V16.28L25.5868 17.404L25.4545 17.9329L24.3967 16.28V16.6106L24.595 16.9412L24.3967 16.6767V16.9412L25.4545 18.2635L27.438 21.2387L27.9008 22.6271L24.3967 20.5114V20.7098L27.8347 22.8255L24.3967 24.4784V24.6767L27.9669 23.0238L30.1487 31.156L24.4628 28.0486V28.247L30.1487 31.3544L24.4628 34.4618V34.6602L30.2149 31.4866L32 40.8751L24.4628 37.1065V37.3048L31.9339 41.0073L24.4628 44.6437V44.842L32 41.0734L32.1322 42.3296L31.9339 43.9825L29.9504 49.0734L24.3967 46.4949V46.6932L29.8843 49.2718V49.3379L28.033 52.842L27.1074 54.2304L24.3967 55.9494V56.1478L26.9752 54.561L25.0578 57.8668L24.7273 58.2635L24.4628 58.1313V58.2635L24.6611 58.3296L24.4628 58.5279V58.9246L24.5289 58.8585L24.4628 58.9908V59.3213L24.8595 58.5279L24.9917 58.8585L24.4628 60.0486L24.3967 60.1147V60.7098L24.595 60.247L25.3884 60.0486L25.8512 61.3048L24.3967 62.4288V62.6271L25.7851 61.5693L25.6529 61.966L24.3306 63.0238V63.2222L25.5206 62.2304L25.1901 63.4866L24.3306 63.685V63.8172L25.124 63.6189L25.1901 63.7511ZM60.3636 57.2717L61.3554 59.718L60.4297 58.8585L60.3636 57.2717ZM60.9587 60.842L60.562 59.8503L61.0909 60.5775L60.9587 60.842ZM61.157 60.4453L60.3636 59.3875V59.0569L61.4215 60.0486L61.157 60.4453ZM61.2892 60.5775L61.4876 60.247L61.7521 61.2387L61.2892 60.5775ZM61.9504 61.5032L61.6859 60.5114L63.2727 63.2883L61.9504 61.5032ZM63.4711 63.3544L61.5537 59.9825L60.562 56.1478L63.4711 63.3544ZM61.157 58.8585L60.3636 56.8089V55.6189L61.157 58.8585ZM28.6942 62.6271L28.562 62.561L28.8926 62.4949L28.6942 62.6271ZM29.157 62.8916L28.8264 62.6932L29.157 62.4288V62.8916ZM29.157 62.2304L28.3636 62.4288L26.4463 61.3709L28.1653 59.9825L29.2892 60.5114L29.157 62.2304ZM26.1157 61.1726L27.9008 59.8503L28.0992 59.9164L26.3802 61.3048L26.1157 61.1726ZM26.1818 61.3709L25.9173 61.5693L25.9835 61.3048L26.1818 61.3709ZM25.3223 58.5279L25.9173 57.2717L26.5124 56.6106L27.5041 56.1478L26.9752 57.7346L25.8512 58.7924L25.3223 58.5279ZM25.719 58.8585L25.3223 59.2552L25.1901 58.8585L25.2562 58.6602L25.719 58.8585ZM28.3636 22.2304L28.4959 22.1643L28.6281 22.3627L28.3636 22.2304ZM28.4959 23.0238L28.1653 22.8255L28.3636 22.7594L28.4959 23.0238ZM28.2314 22.0982L27.8347 21.3709L28.3636 22.0982H28.2314ZM25.7851 17.404H26.1157L26.2479 17.5362L26.3802 17.999L25.7851 17.404ZM26.3802 18.1974H26.1157L25.8512 17.7346L26.3802 18.1974ZM28.2975 16.8751L28.6281 17.2056L25.7851 15.156L25.719 15.0899H25.7851L28.2975 16.8751ZM25.9173 14.9577L26.1157 14.8255L27.3719 16.0156L25.9173 14.9577ZM28.4297 17.2718H26.7107L25.8512 15.4866L28.4297 17.2718ZM26.5785 17.2718H26.314L25.7851 15.4866L26.5785 17.2718ZM26.3802 17.4701V17.404H26.6446L26.9091 17.999L26.3802 17.4701ZM26.9752 18.2635L26.6446 18.1974L26.5124 17.7346L26.9752 18.2635ZM27.1074 18.4618L27.3058 18.8585L26.843 18.3957L27.1074 18.4618ZM27.2397 18.3296L26.843 17.404H28.6942L29.0909 17.6684L29.2892 18.5941L27.2397 18.3296ZM32.3967 16.2139L33.8512 18.9908L33.719 19.123L30.8099 16.28L30.0165 14.6932L31.0744 14.9577L32.3967 16.2139ZM31.3388 15.0899L31.8678 15.2883L32.1983 15.8833L31.3388 15.0899ZM33.9173 17.404L32.5289 16.1478L32.2645 15.6189L33.9173 17.404ZM32.2645 15.4205L32.8595 15.685L33.7851 17.0073L32.2645 15.4205ZM44.2314 29.966L43.9669 30.2965L43.2397 29.437H43.6364L44.2314 29.966ZM53.2892 42.3296L53.0909 42.4618L52.2975 41.2056L53.2892 42.3296ZM54.0165 55.6189L54.7438 54.1643L56.4628 55.3544L55.4049 56.4122L54.0165 55.6189ZM55.2727 56.5445L54.6777 57.1395L54.0826 55.8172L55.2727 56.5445ZM43.9669 63.0238L43.7686 63.2222L43.5702 63.156L43.9669 63.0238ZM43.7686 61.8337L46.6777 59.7841L44.9587 62.0982L44.7603 62.2304L43.9669 62.6271L43.7686 61.8337ZM45.0248 62.2304L46.0826 61.437L44.8926 62.3627L45.0248 62.2304ZM45.3554 61.7676L47.1405 59.5197L48.3967 59.2552L48.7273 59.3875L45.3554 61.7676ZM36.0992 59.9164L36.1653 58.2635L36.3636 60.0486L36.0992 59.9164ZM36.2314 60.1808L36.0992 60.247V60.1147L36.2314 60.1808ZM36.1653 57.2056L36.0992 54.0321H36.4297L39.5372 55.2883L36.2314 57.4701L36.1653 57.2056ZM26.7107 59.123L27.1074 57.8007L29.2231 55.8833L29.8843 56.3461L29.6198 58.3296L28.8926 58.8585L27.1074 59.3213L26.7107 59.123ZM26.9091 59.3875L26.6446 59.4536L26.7107 59.2552L26.9091 59.3875ZM31.4711 50.8585L31.0083 51.3875H30.9421L31.4711 50.8585ZM31.4711 50.5941L31.0083 50.1313L31.0744 49.6684L31.5372 49.8668L31.4711 50.4618V50.5941ZM31.4711 51.0569V51.1891L31.2727 51.2552L31.4711 51.0569ZM31.6033 51.6519L32.1322 51.3213L33.0578 51.9825V52.3792L31.4049 53.7676L31.6033 51.6519ZM31.1405 26.5279L31.4711 26.3957L32.3967 27.718L31.6033 27.3213L31.1405 26.5279ZM31.3388 27.123L31.2066 27.0569L31.1405 26.7924L31.3388 27.123ZM29.157 22.8916L30.2149 23.156L30.4132 24.2139L29.8843 23.8833L29.157 22.8916ZM34.0496 19.718L33.4545 19.5858L33.6529 19.3875L34.0496 19.718ZM33.8512 19.2552L33.9173 19.1891L34.0496 19.5197L33.8512 19.2552ZM38.0165 23.8172L35.0413 21.6354L34.5124 20.1808L38.0165 23.8172ZM34.6446 20.0486L36.1653 20.6437L37.9504 23.4866L34.6446 20.0486ZM39.2066 25.6684L39.6694 26.5279L39.0744 27.7841L37.8182 26.3957L38.6777 25.6023L39.2066 25.6684ZM39.1405 25.2056V25.0734L39.5372 25.5362H39.4049L39.1405 25.2056ZM43.9008 30.4288L43.3058 31.2222L42.1157 30.6271L41.5868 29.5693L43.1735 29.437L43.9008 30.4288ZM41.7851 27.7841L43.5041 29.3048H43.1735L41.7851 27.7841ZM44.1653 30.7594L45.4876 32.28L43.9008 31.4866L44.1653 30.7594ZM44.2314 30.561L44.4297 30.1643L44.6281 30.561L45.3554 31.8833L44.2314 30.561ZM56.0661 48.6106H56.5289L56.1322 48.8089L56.0661 48.7428V48.6106ZM56.0661 51.2552L55.5372 52.3131V52.247L55.6033 52.1808L55.5372 52.1147H55.6033L55.9339 51.1891L56.0661 51.2552ZM51.1735 56.7428L50.9752 55.8833L52.6942 55.685L51.1735 56.7428ZM52.3636 56.1478L51.2397 57.2056L51.1735 56.9412L52.3636 56.1478ZM47.8678 58.8585L47.6033 58.7263L47.8678 58.1974L48.4628 58.5279L47.8678 58.8585ZM47.8678 59.0569L48.1322 59.1891L47.4711 59.3213L47.8678 59.0569ZM39.2727 47.3544L39.4711 47.156L41.1901 46.2304L41.5868 47.685L40.0661 49.404L39.2727 47.3544ZM31.0083 57.404V57.6023L29.6859 58.5941V58.3957L31.0083 57.404ZM29.7521 58.1974L30.0165 56.4784L31.0083 57.2717L29.7521 58.1974ZM30.9421 57.8007L30.876 58.3957L29.8182 58.5941L30.9421 57.8007ZM31.0744 58.5941L32.7273 58.2635L33.124 58.4618V59.4536L30.876 61.0403L31.0744 58.5941ZM32.7934 58.1313L31.5372 57.4701L33.124 56.28V58.0651L32.7934 58.1313ZM33.1901 58.1974V58.3296L32.9917 58.2635L33.1901 58.1974ZM31.3388 57.3379L31.2066 57.2717L33.124 55.7511V56.0817L31.3388 57.3379ZM31.2066 57.4701L31.1405 57.5362V57.404L31.2066 57.4701ZM31.4049 57.5362L32.5289 58.1974L31.0744 58.3957L31.1405 57.6684L31.4049 57.5362ZM33.1901 50.4618L33.0578 49.2056L33.3223 48.9412L34.7107 47.4866L34.9752 49.5362L33.1901 50.4618ZM33.0578 50.9246V51.718L32.2645 51.1891L32.4628 51.0569L33.0578 50.9246ZM32.8595 50.8585L32.9917 50.7924V50.8585H32.8595ZM34.7107 42.7924L35.2397 46.2304L34.9091 46.6271L34.6446 46.6932L34.1157 43.5197L34.7107 42.7924ZM34.1818 43.3213L34.1157 42.9908L34.5124 42.7924L34.1818 43.3213ZM33.6529 40.1478L33.719 39.9494L34.1157 39.685L34.1818 40.1478L33.7851 41.1395L33.6529 40.1478ZM33.1901 32.6767V32.8751L33.0578 32.8089V32.28L33.1901 32.6767ZM33.0578 32.0156L33.1901 32.0817V32.28L33.0578 32.0156ZM33.2562 33.1395L33.3884 33.2056L34.0496 34.6602L33.124 34.7924L33.2562 33.1395ZM32.3306 25.6023L32.7273 25.8668L32.3967 25.9329L32.3306 25.6023ZM32.5289 27.6519L31.6033 26.3957L32.2645 26.1974L32.5289 27.6519ZM32.2645 25.404L32 23.8172L33.5206 25.6023L32.9256 25.8007L32.2645 25.404ZM30.4132 23.2222L31.8678 23.6189L32.1322 25.2718L30.6116 24.3461L30.4132 23.2222ZM30.6116 24.9412L30.0826 24.2139L30.4793 24.4784L30.6116 24.9412ZM35.1074 22.1643L35.7686 24.1478L34.3802 22.7594L34.5124 21.7676L35.1074 22.1643ZM34.5124 21.5693V21.437L34.843 21.7015L34.9091 21.8998L34.5124 21.5693ZM51.3058 42.4618L51.438 43.5197L49.7851 41.2056H50.7107L51.3058 42.4618ZM50.843 41.2056H51.1074L51.2397 41.999L50.843 41.2056ZM55.2727 52.0486L52.2314 52.247H52.1653L51.7686 51.5197L53.8843 50.2635L54.7438 50.6602L55.2727 52.0486ZM54.9421 50.7263L55.7355 51.123L55.4049 52.0486L54.9421 50.7263ZM48.7273 56.28L48.4628 56.8089L48.3306 56.5445L48.7273 56.28ZM48.2645 56.3461L48.1983 56.2139L48.595 56.1478L48.2645 56.3461ZM48.1322 56.0817L47.3388 54.0982L48.5289 53.3709L49.5207 53.7676L48.9256 55.8833L48.1322 56.0817ZM42.9752 56.5445L42.5785 56.3461V55.9494L43.0413 55.6189V56.4122L42.9752 56.5445ZM43.1074 56.8089H42.9091L43.0413 56.7428L43.1074 56.8089ZM37.2892 48.2139L35.5702 47.4205L35.5041 46.6932L38.7438 46.2304L39.1405 47.2883L37.2892 48.2139ZM38.7438 47.6189L37.6859 48.4122L37.4215 48.3461L38.7438 47.6189ZM34.1818 39.4866L34.1157 39.0899L34.6446 38.9577L34.5124 39.2883L34.1818 39.4866ZM34.4463 39.4866L34.314 39.8833L34.2479 39.6189L34.4463 39.4866ZM34.1818 38.8916L34.9091 37.2387L35.2397 37.3709L34.7107 38.7594L34.1818 38.8916ZM35.8347 34.5941L35.0413 36.5114L34.314 34.7924L35.8347 34.5941ZM34.1818 34.6602L33.5868 33.3379L35.7025 34.4618L34.1818 34.6602ZM33.9173 25.6684V25.8668L33.7851 25.7346L33.9173 25.6684ZM33.6529 25.5362L32.5289 24.2139L33.7851 25.4701L33.6529 25.5362ZM32.2645 23.7511L34.1157 24.1478L33.9835 25.404L32.2645 23.7511ZM32.9256 20.5114L33.9173 21.2387L33.3223 21.3048L32.9256 20.5114ZM33.3884 21.966L34.1157 23.6189L34.0496 23.9494L32 23.4866L31.8678 23.3544L31.3388 21.5032L32.8595 21.3709L33.3884 21.966ZM34.314 23.6189L34.3802 22.9577L35.7025 24.3461L34.4463 24.0817L34.314 23.6189ZM34.3802 24.2139L34.9752 25.4701H34.1157L34.2479 24.1478L34.3802 24.2139ZM35.0413 25.6023L35.7025 27.123L34.1818 25.6023H35.0413ZM34.1818 23.3544L33.719 22.2965L34.2479 22.8255L34.1818 23.3544ZM33.9835 26.1974L34.5785 26.8585L33.9835 26.4618V26.1974ZM34.0496 25.999V25.7346L35.8347 27.5197L35.9008 27.718L35.0413 27.123L34.0496 25.999ZM35.9669 27.9164L35.7686 28.0486L35.3719 27.5197L35.9669 27.9164ZM36.4297 28.6437L36.2314 28.1808L36.3636 28.247L36.4297 28.6437ZM36.1653 25.6023H36.8925L37.6198 26.3957L36.4297 27.4536L36.1653 25.6023ZM36.2975 28.6437L35.9008 28.1808L36.0992 28.0486L36.2975 28.6437ZM36.3636 28.9742L35.1074 28.5775L35.7686 28.247L36.3636 28.9742ZM36.4297 29.1726V29.2387L36.3636 29.8998L34.1157 30.1643L33.719 29.3709L34.9752 28.6437L36.4297 29.1726ZM38.6777 29.8337L41.124 31.4866V32.8089L38.3471 29.8337H38.6777ZM41.0578 33.0073V33.404L40.1983 33.6023L37.8843 30.6271L38.2149 29.8998L41.0578 33.0073ZM46.5454 37.0403L46.4793 37.437L45.2231 37.5032L45.157 37.437L45.8182 36.842L46.5454 37.0403ZM46.0165 36.7098L46.1488 36.5775L46.3471 36.842L46.0165 36.7098ZM46.9421 37.5032L48 38.9577L47.0083 40.6106L46.281 39.4866L46.6777 37.5032H46.9421ZM46.6777 37.3709L46.7438 37.1726L46.876 37.3709H46.6777ZM46.9421 37.2387L47.2066 37.3709H47.0744L46.9421 37.2387ZM51.9008 45.1065L52.562 45.6354L52.8264 46.0982L51.7686 47.685L50.4463 48.4784L50.1157 48.28L51.2397 45.1065H51.9008ZM51.2397 44.9742L51.3719 44.7098L51.7025 44.9742H51.2397ZM52.1653 45.1065H52.2975L52.4297 45.3048L52.1653 45.1065ZM46.0826 52.842L42.9752 53.2387L45.0909 51.9164L46.4793 52.5114L46.0826 52.842ZM46.5454 52.6437L46.6116 52.7759L46.3471 52.842L46.5454 52.6437ZM41.4545 44.9742L41.8512 45.1726L41.5868 45.3709L41.4545 44.9742ZM36.033 34.7263L37.4215 37.3709L36.6942 37.8337L35.3719 37.3048L36.033 34.7263ZM35.3058 37.1065L35.1074 36.7098L35.7025 35.3875L35.3058 37.1065ZM36.1653 33.2056L34.2479 30.3627L36.3636 30.0982L36.1653 33.2056ZM36.3636 33.8007L36.6942 34.2635L36.0992 34.3957L36.3636 33.8007ZM36.6942 29.437L37.0248 29.8337H36.8264L36.6942 29.437ZM36.6942 29.8998H36.562V29.5693L36.6942 29.8998ZM40.7273 34.8585L40.2645 35.2552L40.595 34.7924L40.7273 34.8585ZM40.6611 34.7263L40.7273 34.5941L40.8595 34.7263H40.6611ZM47.4049 41.7346L47.6033 42.1974L47.1405 41.999L46.9421 41.4701L47.4049 41.7346ZM47.1405 41.3379L47.2066 41.2717L47.2727 41.4701L47.1405 41.3379ZM50.2479 48.8751L50.5785 49.5362L50.0496 50.3296V48.8751H50.2479ZM50.1818 48.4784L50.314 48.5445L50.2479 48.6106L50.1818 48.4784ZM49.9835 51.0569V50.9246L51.1074 51.718L50.2479 52.1808L49.9835 51.0569ZM50.1157 52.247L49.9835 52.3131V51.718L50.1157 52.247ZM49.9835 50.7263V50.6602L50.6446 49.7346L51.5702 51.4536L51.2397 51.6519L49.9835 50.7263ZM50.3802 48.8751H50.9752H51.0413L50.7107 49.404L50.3802 48.8751ZM50.314 48.7428L50.4463 48.6106L50.6446 48.6767L50.314 48.7428ZM49.9835 48.7428L49.9173 48.5445L50.0496 48.7428H49.9835ZM49.9835 48.1478L49.8512 47.8833L49.1901 45.1726L51.0413 45.1065L49.9835 48.1478ZM45.0909 47.8833L46.3471 47.0238L48.8595 48.0156L49.124 48.8751L47.0744 49.0734L45.0909 47.8833ZM46.876 49.0734L45.0909 49.2718L44.562 48.1478L44.8926 47.8833L46.876 49.0734ZM46.0826 42.1313L47.9339 45.1726L43.5702 45.5032L45.0909 42.8585L46.0826 42.1313ZM45.3554 42.3957L45.7521 41.7346L45.8843 41.9329L45.3554 42.3957ZM45.9504 41.7346L46.0826 41.8007L46.0165 41.8668L45.9504 41.7346ZM46.1488 42.0651L46.3471 41.8668L46.9421 42.1313L47.8016 44.7759L46.1488 42.0651ZM46.5454 41.8007L46.8099 41.6023L46.9421 41.999L46.5454 41.8007ZM46.3471 41.7346L46.7438 41.3379V41.404L46.3471 41.7346ZM46.5454 41.3379L46.2149 41.6023L45.8843 41.4701V41.404L46.5454 41.3379ZM45.8843 41.2717L45.9504 40.8089L46.5454 41.2056L45.8843 41.2717ZM45.7521 41.2717L44.8264 40.0156L45.8843 40.6767L45.7521 41.2717ZM45.0248 42.7263L44.9587 42.7924L42.7768 44.4453L41.4545 42.0651L45.4876 41.4701L45.6859 41.5362L45.0248 42.7263ZM43.7686 43.9164L42.843 44.7759L42.7768 44.6437L43.7686 43.9164ZM42.7107 44.842L42.314 45.2387L42.1157 45.1726L42.6446 44.7759L42.7107 44.842ZM42.3802 45.3709L42.7768 45.5693L42.1157 45.6354L42.3802 45.3709ZM42.4463 45.3048L42.7768 44.9742L43.1074 45.5693H43.0413L42.4463 45.3048ZM42.9091 44.842L44.7603 43.123L43.3719 45.437H43.2397L42.9091 44.842ZM43.5041 45.6354L48.0661 45.2387V45.3048L48.1983 45.6354L46.4132 46.8255L43.5041 45.7015V45.6354ZM48.3967 45.6354L48.9917 45.2387L49.5207 47.4866L48.3967 45.6354ZM49.6529 47.9494L49.719 48.1478L48.9917 47.8833L48.3306 45.8998L49.6529 47.9494ZM48.3306 45.5032L48.1983 45.2387L48.7934 45.1726L48.3306 45.5032ZM48.1983 45.8337L48.8595 47.8172L46.5454 46.9577L48.1983 45.8337ZM49.0578 48.0817L49.719 48.3461L49.7851 48.4784L49.5207 48.8089H49.3223L49.0578 48.0817ZM49.8512 48.6106V48.7428H49.719L49.8512 48.6106ZM49.9173 48.9412V50.4618L49.5207 49.2056L49.9173 48.9412ZM49.124 45.0403L47.9339 42.4618L48.9256 42.8585L50.5785 44.1147L49.124 45.0403ZM47.8016 42.2635L47.6694 41.9329L48.4628 42.5279L47.8016 42.2635ZM47.7355 42.3957L48.9917 45.0403L48.1983 45.1065L47.2727 42.1313L47.7355 42.3957ZM46.9421 41.1395L47.0083 41.0073L47.0744 41.1395H46.9421ZM46.8099 41.0073L46.3471 39.8833L46.9421 40.8089L46.8099 41.0073ZM46.6116 41.0073L46.0165 40.6106L46.1488 39.9494L46.6116 41.0073ZM46.1488 39.3544L45.9504 39.0899L45.2892 37.6354L46.4132 37.5693L46.1488 39.3544ZM45.4876 38.2965L45.0248 37.6354H45.157L45.4876 38.2965ZM45.8182 39.156L46.0826 39.685L45.9504 40.5445L44.6281 39.685L43.9008 38.6271L44.9587 37.7015L45.8182 39.156ZM43.7686 38.561L43.2397 37.8337L44.6942 37.7015L43.7686 38.561ZM44.2314 39.4866L43.438 39.0238L43.7025 38.7594L44.2314 39.4866ZM44.4959 39.8172L45.5537 41.3379H45.4876L42.314 40.0817L43.3719 39.0899L44.4959 39.8172ZM45.157 41.404L41.3223 41.999L40.9917 41.3379L42.1818 40.2139L45.157 41.404ZM40.1983 40.2139L40.7934 41.2717L40.5289 41.4701L40.1983 40.2139ZM40.5289 42.0651L40.0661 42.1313L40.4628 41.8007L40.5289 42.0651ZM40.8595 41.404L41.1901 41.999L40.7273 42.0651L40.595 41.6684L40.8595 41.404ZM40.9256 41.2056L40.0661 39.6189L40 39.4205L42.0496 40.2139L40.9256 41.2056ZM40.3967 41.6023L39.8678 42.1313L39.0744 40.4784L39.6694 39.3544L39.8678 39.685L40.3967 41.6023ZM37.8182 43.9164L37.2892 43.6519L37.5537 43.2552L37.8182 43.9164ZM37.4876 42.4618H37.8843L37.6859 42.8585L37.4876 42.4618ZM37.7521 43.1891L38.4132 43.5197L38.0165 43.9164L37.7521 43.1891ZM37.7521 42.9908L38.0826 42.3957L39.6694 42.3296L38.6116 43.3875L37.7521 42.9908ZM37.9504 38.0321L37.6198 37.437L38.281 36.9742L38.4793 37.3048L37.9504 38.0321ZM39.0744 37.966L38.6777 37.3048L39.1405 36.7098L39.4711 37.966H39.0744ZM39.4711 38.0982L39.6694 38.9577V39.0238L39.1405 38.1643L39.4711 38.0982ZM38.9421 37.966L38.1487 38.0321L38.6116 37.437L38.9421 37.966ZM38.6116 37.1726L38.4793 36.9081L39.1405 36.5114V36.5775L38.6116 37.1726ZM38.3471 36.7759L37.6859 35.5858L39.0083 36.3131L38.3471 36.7759ZM37.4876 35.3213L36.9587 34.3957L38.281 34.1313L39.0083 36.1808L37.4876 35.3213ZM37.2231 35.1891L36.1653 34.5941L36.8264 34.4618L37.2231 35.1891ZM37.3554 35.4536L38.2149 36.842L37.5537 37.3048L36.2314 34.7924L37.3554 35.4536ZM39.0083 38.1643L39.5372 39.0899L38.1487 38.4288L38.0165 38.1643H39.0083ZM39.6033 39.2222L39.0083 40.3461L38.2149 38.6932L39.6033 39.2222ZM39.7355 42.1974L38.1487 42.2635L39.0083 40.6106L39.7355 42.1974ZM39.8016 42.3957L40.5289 44.3792L38.6777 43.5197L39.8016 42.3957ZM39.6694 38.0982H40.0661L39.8678 38.7594L39.6694 38.0982ZM39.6033 37.966L39.2727 36.5775L40.3306 37.2387L40.1322 37.966H39.6033ZM39.1405 36.247L38.4132 34.1974L40.3967 34.7924L39.6033 35.7841L39.1405 36.247ZM40.5289 34.6602L38.6777 34.0651L40.1322 33.8007L40.6611 34.4618L40.5289 34.6602ZM38.3471 33.999L37.4876 31.5527L37.8182 30.8255L40.0661 33.6684L38.3471 33.999ZM37.7521 30.4949L37.3554 29.966L38.0826 29.8998L37.7521 30.4949ZM37.2231 29.8337L36.7603 29.2387L37.8182 29.5032L38.0165 29.7015L37.2231 29.8337ZM37.157 29.966L37.6859 30.6271L37.3554 31.2883L36.8925 29.966H37.157ZM38.1487 33.9329L36.562 33.4701L37.3554 31.7511L38.1487 33.9329ZM38.0165 34.0651L36.8264 34.2635L36.4297 33.6684V33.6023L38.0165 34.0651ZM36.6942 38.0321L37.2231 38.2304L35.9669 38.4949L36.6942 38.0321ZM36.8925 37.8998L37.5537 37.5032L37.8843 38.0982L37.5537 38.1643L36.8925 37.8998ZM37.8182 38.4288L38.0826 38.561L38.9421 40.4784L37.9504 42.2635H37.4215L36.562 40.1478L37.8182 38.4288ZM37.4876 42.9246L36.562 42.5279L37.2892 42.4618L37.4876 42.9246ZM37.4876 43.0569L37.157 43.5197L35.3719 42.5941L36.2314 42.5279L37.4876 43.0569ZM37.2231 43.718L37.8843 44.0486L35.438 46.4288V46.2304L37.2231 43.718ZM37.9504 44.1808L38.6116 46.0321L35.5702 46.4949L37.9504 44.1808ZM38.1487 44.1808L40.9917 45.7015L38.7438 46.0321L38.1487 44.1808ZM38.1487 44.0486L38.6116 43.5858L40.6611 44.5775L40.9917 45.5032L38.1487 44.0486ZM39.9339 42.3296L40.5289 42.2635L41.1901 44.7098L40.7273 44.5114L39.9339 42.3296ZM40.7273 42.1974L41.2562 42.1313L42.5785 44.5775L41.9835 45.0403L41.3884 44.7759L40.7273 42.1974ZM41.9835 45.2387L42.1818 45.3048L41.8512 45.6354H41.6529L41.5868 45.5032L41.9835 45.2387ZM41.7851 45.966L41.9173 45.8337L42.9752 45.7015L43.1735 45.8337L42.5785 46.4949L41.7851 45.966ZM42.5124 46.561L41.9173 47.2883L41.719 46.0982L42.5124 46.561ZM43.3058 45.8998L43.9008 47.156L42.7768 46.4949L43.3058 45.8998ZM43.5041 45.8998L46.2149 46.9577L44.9587 47.7511L44.1653 47.2883L43.5041 45.8998ZM44.7603 47.8833L44.4959 48.0817L44.2975 47.5527L44.7603 47.8833ZM44.9587 49.3379L42.4463 49.6023L44.4297 48.28L44.9587 49.3379ZM45.0248 49.4701L45.8843 51.2552L45.0909 51.7841L42.4463 50.5941L42.314 49.7346L45.0248 49.4701ZM45.2231 51.8503L45.9504 51.3875L46.4132 52.3792L45.2231 51.8503ZM45.157 49.4701L47.0744 49.2718L48.1322 49.8668L45.9504 51.1891L45.157 49.4701ZM47.4049 49.2056L49.2562 49.0073L49.3223 49.1395L49.1901 49.2718L48.3306 49.8007L47.4049 49.2056ZM48.8595 49.6023L48.595 49.9329L48.4628 49.8668L48.8595 49.6023ZM49.2562 49.3379L49.3223 49.2718L49.719 50.5279L48.7273 49.9329L49.2562 49.3379ZM49.7851 50.8585L49.8512 51.0569V52.3792L47.2727 52.7098L49.7851 50.8585ZM49.5868 52.5775L48.5289 53.2387L47.6033 52.842L49.5868 52.5775ZM49.7851 52.6437L49.5207 53.7015L48.6611 53.3048L49.7851 52.6437ZM49.9835 52.5114H50.1818L50.5124 54.0982L49.719 53.7676L49.9835 52.5114ZM50.2479 52.3792L51.2397 51.7841L51.9669 52.247L50.2479 52.3792ZM51.438 51.718L51.7025 51.5858L51.9669 52.0486L51.438 51.718ZM50.7107 49.5362L51.1074 48.9412L53.6859 50.1974L51.6364 51.3875L50.7107 49.5362ZM51.1074 48.6767H50.9752L50.6446 48.4784L51.6364 47.8833L51.1074 48.6767ZM51.1074 44.9742L49.3884 45.0403L50.7107 44.1808L51.2397 44.5775L51.1074 44.9742ZM49.4545 43.0569L51.1735 43.718L50.7107 43.9825L49.4545 43.0569ZM48.9917 42.7263L47.5372 41.6684L47.3388 41.2717H49.5868L51.3058 43.718L48.9917 42.7263ZM47.4711 41.0734L48.7934 40.0817L49.4545 41.0073L47.4711 41.0734ZM47.2727 41.0734L47.1405 40.8751L48.1322 39.156L48.7273 40.0156L47.2727 41.0734ZM45.157 37.2387L44.7603 36.3792L45.7521 36.7759L45.157 37.2387ZM45.0248 37.3709L44.8926 37.5032L43.6364 35.9825L44.562 36.3131L45.0248 37.3709ZM44.7603 37.5032L43.1735 37.6354L41.3223 35.0569L43.3719 35.8503L44.7603 37.5032ZM43.6364 38.6271L43.3058 38.8916L41.719 37.8998L43.0413 37.7676L43.6364 38.6271ZM43.2397 39.0238L42.1157 40.0156L39.9339 39.156L39.8678 38.9577L40.1983 38.0321L41.5206 37.8998L43.2397 39.0238ZM40.1983 37.8998L40.3967 37.3048L41.2562 37.8337L40.1983 37.8998ZM40.3306 37.0403L39.3388 36.4453L39.7355 35.9164L40.8595 34.9246L40.9917 34.9908L40.3306 37.0403ZM40.9917 34.5941L40.8595 34.4618L41.0578 34.1974L40.9917 34.5941ZM40.7273 34.3296L40.3306 33.7346L41.124 33.6023V33.9329L40.7273 34.3296ZM37.8843 29.3709L37.5537 29.0403L38.1487 29.437L37.8843 29.3709ZM37.6198 29.3048L36.6942 29.0403L36.6281 28.3131L36.9587 28.5114L37.6198 29.3048ZM36.562 30.0321H36.7603L37.2892 31.4866L36.4297 33.404H36.3636L36.562 30.0321ZM36.033 33.2718L35.0413 32.8089L33.6529 30.4288L34.1818 30.3627L36.033 33.2718ZM36.1653 33.4701L35.9669 34.3296L35.1735 33.0073L36.1653 33.4701ZM35.0413 36.9081L35.1735 37.1726L34.9752 37.0403L35.0413 36.9081ZM34.843 38.8916L35.2397 38.8255L34.7107 39.0899L34.843 38.8916ZM34.843 38.6932L35.3058 37.5032L35.7025 38.4288L35.5702 38.4949L34.843 38.6932ZM35.438 37.437L36.562 37.8998L35.8347 38.4288L35.438 37.437ZM37.4876 38.2965L37.6859 38.4288L36.4959 40.0817L35.9669 38.6932L37.4876 38.2965ZM37.2231 42.3296L36.2314 42.3957L35.2397 41.999L36.4297 40.3461L37.2231 42.3296ZM35.9008 42.3957L35.1074 42.4618L34.9752 42.3957L35.1735 42.1313L35.9008 42.3957ZM35.1074 42.5941L37.0909 43.6519L35.3719 46.0321L34.843 42.5941H35.1074ZM35.3058 46.561H35.1735L35.3058 46.4288V46.561ZM35.3058 46.8255L35.3719 47.4205L34.9752 47.2222L35.3058 46.8255ZM34.843 47.0899L35.0413 46.7594H35.1735L34.843 47.0899ZM34.7107 46.9577V46.8916H34.7768L34.7107 46.9577ZM34.843 47.2883L35.3719 47.5527L35.5702 49.1395L35.1074 49.404L34.843 47.2883ZM35.6364 49.3379L35.7025 50.0651L35.2397 50.1974L35.1735 49.6023L35.6364 49.3379ZM35.5702 47.6189L37.0909 48.3461L35.7025 49.0734L35.5702 47.6189ZM38.876 46.1643L40.9256 45.8337L39.4711 47.0238L39.2727 47.156L38.876 46.1643ZM41.124 45.8998L41.1901 46.0982L40.1983 46.6271L41.124 45.8998ZM40.7934 44.6437L41.2562 44.842L41.3884 45.437L41.1901 45.6354L40.7934 44.6437ZM41.2562 45.8337L41.4545 45.966L41.2562 46.0321V45.8337ZM41.5868 46.0982L41.7851 47.4866L41.6529 47.5527L41.3223 46.1643L41.5868 46.0982ZM41.7851 47.6189L41.9835 48.8089L41.719 47.7511L41.7851 47.6189ZM41.9173 47.4866L42.6446 46.6271L44.033 47.4205L44.3636 48.1478L42.2479 49.5362L41.9173 47.4866ZM42.1818 50.4618L41.5868 50.1974L42.1157 49.8668L42.1818 50.4618ZM41.3884 50.1313L40.7934 49.8668L41.8512 49.8007L41.3884 50.1313ZM41.4545 50.3296L42.2479 50.6602L42.5785 53.3048L41.3884 53.437L40.595 50.9908L41.4545 50.3296ZM42.314 53.437L41.5206 53.966L41.3884 53.5693L42.314 53.437ZM41.3884 54.0321L40.9256 54.3627L39.6033 53.7015L41.2562 53.5693L41.3884 54.0321ZM41.4545 54.2304L41.5868 54.7594L41.0578 54.4949L41.4545 54.2304ZM41.5868 54.0982L42.5785 53.5032L42.5124 55.156L41.7851 54.8255L41.5868 54.0982ZM42.4463 50.7263L44.8926 51.7841L42.843 53.0403L42.4463 50.7263ZM42.6446 55.2222L42.7107 53.437H42.7768L43.1074 55.4205L42.6446 55.2222ZM42.9091 55.5527L42.6446 55.8172V55.4205L42.9091 55.5527ZM42.5785 56.5445L42.7768 56.6767L42.5785 56.8089V56.5445ZM42.9091 53.3709L45.8843 53.0403L43.2397 55.2883L42.9091 53.3709ZM46.0826 52.9742L46.6116 52.9081L43.6364 55.0899L46.0826 52.9742ZM46.6116 52.3792L46.0826 51.3213L48.3306 49.9329L48.5289 50.0651L46.6116 52.3792ZM48.6611 50.1313L49.719 50.7263L47.0744 52.6437L46.6777 52.5114L48.6611 50.1313ZM46.9421 52.7098H46.8099L46.7438 52.5775L46.9421 52.7098ZM46.9421 52.9081H47.2066L48.3306 53.3709L47.2727 54.0321L46.876 52.9742L46.9421 52.9081ZM49.5868 53.8999L50.5124 54.2965L50.6446 54.9577L49.0578 55.8833L49.5868 53.8999ZM50.6446 55.0899L50.7768 55.7511L49.2562 55.8833L50.6446 55.0899ZM50.7768 54.8255L50.6446 54.2965L51.1735 54.561L50.7768 54.8255ZM50.6446 54.1643L50.314 52.5114L52.0992 52.3792L52.7603 53.6354L51.3719 54.4949L50.6446 54.1643ZM52.3636 52.5114L53.4876 53.2387L52.8925 53.5693L52.3636 52.5114ZM52.4297 52.3792L55.2066 52.1808L53.5537 53.1726L52.4297 52.3792ZM54.0826 50.1974L54.4793 49.9329L54.6777 50.4618L54.0826 50.1974ZM53.8843 50.0651L51.2397 48.8089L54.0165 48.6767L54.4132 49.7346L53.8843 50.0651ZM53.7521 47.4866L54.4132 48.5445H54.1487L53.7521 47.4866ZM54.0165 48.5445L51.3058 48.6767L51.9008 47.7511L53.3554 46.8916L54.0165 48.5445ZM53.2892 46.1643L53.6859 46.561L53.4876 46.6932L53.2892 46.1643ZM53.2892 46.8255L52.0992 47.5527L52.9587 46.2304L53.2892 46.8255ZM53.0248 45.6354L52.7603 45.0403H53.0909L53.0248 45.6354ZM52.6942 44.9081L52.562 44.5775L53.0248 44.9081H52.6942ZM52.6281 45.1065L52.8925 45.6354L52.6942 45.5032L52.4297 45.1065H52.6281ZM52.3636 44.9081L51.8347 44.0486L52.2975 44.3792L52.562 44.9081H52.3636ZM51.6364 43.7841V43.6519L51.8347 43.5197L52.1653 44.1147L51.6364 43.7841ZM51.5702 43.4536L51.5041 42.8585L51.7686 43.3213L51.5702 43.4536ZM51.5702 43.9825L52.1653 44.9081H51.9669L51.438 44.5114L51.5702 43.9825ZM51.3058 44.4453L50.843 44.1147L51.3058 43.7841L51.438 43.8503L51.3058 44.4453ZM49.6529 41.0734L48.9256 40.0156L49.7851 39.4205L50.5785 41.0734H49.6529ZM49.5868 38.6932L50.1157 38.9577L49.8512 39.156L49.5868 38.6932ZM49.5207 38.4288L49.3223 37.966L49.9835 38.6271L49.5207 38.4288ZM49.3884 38.561L49.719 39.2222L48.8595 39.8833L48.1983 38.9577L48.6611 38.1643L49.3884 38.561ZM48.0661 38.8916L47.0744 37.5693H47.3388L48.4628 38.1643L48.0661 38.8916ZM46.7438 36.9742L46.6116 36.247L46.876 35.9825L48.5289 37.3048L47.4711 37.3709L46.7438 36.9742ZM46.5454 36.0486L46.4793 35.5858L46.8099 35.8503L46.5454 36.0486ZM46.5454 36.7098L46.281 36.4453L46.4132 36.3131L46.5454 36.7098ZM46.2149 36.3131L44.033 33.6023L46.281 35.4536L46.4132 36.1808L46.2149 36.3131ZM46.0826 36.4453L45.8843 36.6437L44.6942 36.1808L43.5041 33.5362H43.7025L46.0826 36.4453ZM43.438 33.3379L43.3058 33.0734L43.3719 33.1395L43.5702 33.3379H43.438ZM43.3719 33.5362L44.4959 36.1147L43.5041 35.718L42.0496 33.9329L42.5124 33.5362H43.3719ZM43.0413 32.8089L42.4463 33.3379H41.719L42.4463 32.4122L43.0413 32.8089ZM42.5124 32.28L42.6446 32.1478L42.843 32.4122L42.9091 32.5445L42.5124 32.28ZM42.2479 33.5362L41.9173 33.8007L41.719 33.5362H42.2479ZM42.6446 33.3379L43.1074 32.9412L43.3058 33.3379H42.6446ZM42.9752 32.3461L42.7768 32.0156L43.3058 31.4205L43.6364 31.5527L43.1735 32.6106L42.9752 32.3461ZM42.7107 31.8833L42.1818 30.8916L43.1735 31.3544L42.7107 31.8833ZM42.4463 31.7511L41.5206 30.4949L41.9835 30.6932L42.4463 31.7511ZM42.5124 32.0817L42.3802 32.2139L41.2562 31.4205V30.4949L42.5124 32.0817ZM42.314 32.3461L41.5206 33.3379L41.1901 33.0073L41.2562 31.6189L42.314 32.3461ZM41.3884 33.404L41.1901 33.4701V33.2718L41.3884 33.404ZM41.3884 33.5362L41.2562 33.7346V33.5362H41.3884ZM41.5206 33.5362L41.7851 33.8668L41.1901 34.4618V33.999L41.5206 33.5362ZM41.9173 33.999L43.2397 35.5858L41.1901 34.8585V34.6602L41.9173 33.999ZM42.9752 37.7015L41.5206 37.7676L40.4628 37.1065L41.124 35.0569L42.9752 37.7015ZM41.124 31.2883L38.9421 29.7676L41.124 30.3627V31.2883ZM40.9917 30.1643L39.4049 29.7676L40.5289 29.7015L40.9917 30.1643ZM40.7273 29.6354H40.9256L41.0578 30.0321L40.7273 29.6354ZM38.9421 29.6354L38.5454 29.5032L38.4132 29.437L39.0744 28.0486L40.3967 29.5032L38.9421 29.6354ZM38.281 29.3709L36.9587 28.4453L36.4959 27.9825L36.4297 27.718L37.6859 26.5279L38.9421 27.9164L38.281 29.3709ZM37.0909 25.6684H38.4793L37.7521 26.3296L37.0909 25.6684ZM36.9587 25.4701L36.1653 24.6106L38.6777 25.404L38.6116 25.4701H36.9587ZM36.7603 25.4701H36.1653L36.033 24.6767L36.7603 25.4701ZM36.2975 27.6519L35.9669 27.4536L35.1735 25.6684H36.033L36.2975 27.6519ZM35.1074 25.4701L34.5785 24.2139L35.9008 24.4784L36.033 25.404L35.1074 25.4701ZM34.3802 21.437L34.314 21.3709H34.4463L34.3802 21.437ZM34.3802 21.6354L34.2479 22.6271L33.5206 21.8998L33.3223 21.5032L34.0496 21.437L34.3802 21.6354ZM34.1157 21.2387L32.8595 20.247L34.2479 21.2387H34.1157ZM32.8595 20.0486L32.595 19.8503L32.3967 19.4536L33.2562 19.6519L32.8595 20.0486ZM32.7273 20.3792L33.124 21.3048H32.9917L32.2645 20.5775L32.7273 20.3792ZM32.7934 21.3709L31.3388 21.5032L31.2727 21.2387L32.1322 20.7759L32.7934 21.3709ZM31.2066 21.0403L30.6777 19.1891L32.0661 20.5775L31.2066 21.0403ZM31.2066 21.437L30.6777 21.5032L31.1405 21.2387L31.2066 21.437ZM31.2066 21.6354L31.7355 23.2222L31.2727 22.7594L30.281 21.7015L31.2066 21.6354ZM31.1405 22.8916L31.6694 23.4866L30.3471 23.156L30.0826 21.8998L31.1405 22.8916ZM33.6529 25.7346L33.9173 25.999L33.8512 26.3957L33.0578 25.9329L33.6529 25.7346ZM33.9835 26.6602L34.9752 27.2552L35.7025 28.1147L34.9091 28.5114L33.7851 28.1808L33.9835 26.6602ZM34.7107 28.6437L33.6529 29.2387L33.719 28.3792L34.7107 28.6437ZM34.0496 30.2304L33.5868 30.2965L33.6529 29.6354L34.0496 30.2304ZM33.5206 29.1726L32.7934 28.1147L33.5868 28.3792L33.5206 29.1726ZM33.5206 30.561L34.7768 32.6767L33.3884 32.0156L33.5206 30.561ZM33.4545 30.0982L33.1901 29.7015L33.5206 29.5032L33.4545 30.0982ZM34.9091 32.8751L35.7686 34.3296L33.4545 33.0073L33.2562 32.5445L33.3223 32.0817L34.9091 32.8751ZM33.124 34.9246L34.1157 34.7924L34.9752 36.7098L34.843 36.9742L33.4545 36.247L33.124 34.9246ZM33.2562 36.1808L32.9917 36.0486L33.0578 35.3213L33.2562 36.1808ZM34.7768 37.1065L34.0496 38.6932L33.5206 36.4453L34.7768 37.1065ZM34.0496 39.5527L33.7851 39.685L33.9835 39.2222L34.0496 39.5527ZM33.5868 39.8833L33.5206 39.4205L33.9173 39.2222L33.5868 39.8833ZM33.5206 40.4122L33.6529 41.2056L33.3884 40.8089L33.5206 40.4122ZM34.2479 40.4122L34.5124 41.6684L33.9173 41.404L34.2479 40.4122ZM34.314 40.1478L34.5785 39.3544L35.5702 38.6932L35.7025 38.6271L36.2975 40.1478L35.0413 41.8668L34.6446 41.7346L34.314 40.1478ZM35.0413 42.0651L34.843 42.3296H34.7768L34.7107 41.9329L35.0413 42.0651ZM34.5785 46.9577L34.5124 46.8916H34.5785V46.9577ZM34.9752 49.6684L35.0413 50.1974L33.3884 50.6602L33.2562 50.5941L34.9752 49.6684ZM35.1074 50.3957V50.5941L34.3802 51.1891L33.5868 50.7924L35.1074 50.3957ZM35.1074 50.7263L35.2397 51.5858L34.5124 51.2552L35.1074 50.7263ZM35.2397 50.4618V50.3296L35.438 50.2635L35.2397 50.4618ZM35.7025 50.2635L35.8347 51.8503L35.438 51.6519L35.3058 50.5941L35.7025 50.2635ZM35.7686 49.2718L37.2892 48.4122L37.5537 48.5445L35.8347 49.9329L35.7686 49.2718ZM37.7521 48.6106L39.8678 49.6023L39.6694 49.8007L35.9669 49.999L37.7521 48.6106ZM37.8843 48.4784L39.2066 47.4205L39.9339 49.404L37.8843 48.4784ZM40.1322 49.5362L41.5868 47.8833L42.0496 49.6684L40.5289 49.7346L40.1322 49.5362ZM40.4628 49.8668L41.2562 50.1974L40.4628 50.7263L40.1983 49.8668H40.4628ZM41.1901 53.437L39.3388 53.6354L37.8182 52.9081L40.3967 51.123L41.1901 53.437ZM40.7273 54.4288L39.6694 55.156L36.7603 53.966L39.2727 53.7015L40.7273 54.4288ZM40.9256 54.561L41.6529 54.8916L42.0496 56.1478L39.8678 55.2222L40.9256 54.561ZM42.1818 56.0817L41.8512 54.9577L42.5124 55.2883V55.8833L42.4463 55.9494L42.1818 56.0817ZM42.2479 56.8751L41.2562 57.0073L42.1157 56.4122L42.2479 56.8751ZM42.4463 56.0817V56.28L42.314 56.2139L42.4463 56.0817ZM42.4463 56.4784V56.8751H42.3802L42.314 56.4122L42.4463 56.4784ZM42.4463 57.6684L42.9752 59.6519L41.9835 60.3131L42.4463 57.6684ZM43.0413 59.7841L43.1074 60.1147L42.314 60.3131L43.0413 59.7841ZM43.1735 59.5858L42.5124 57.3379L42.5785 57.0073L43.1074 56.9412L43.1735 59.5858ZM43.2397 55.685L43.9008 56.0156L43.3058 56.4122L43.2397 55.685ZM43.3058 55.5527L46.7438 53.1065L47.1405 54.0982L44.033 56.0156L43.3058 55.5527ZM47.2066 54.1643L48 56.0817L45.0248 56.4784L44.1653 56.0156L47.2066 54.1643ZM48.0661 56.2139L48.1322 56.4122L46.6777 57.3379L45.2892 56.6106L48.0661 56.2139ZM48.1983 56.6106L48.3306 57.0073L47.8016 58.0651L46.8099 57.5362L48.1983 56.6106ZM47.9339 58.0651L48.3967 57.1395L48.8595 58.1974L48.5289 58.3957L47.9339 58.0651ZM48.9256 58.3957L49.0578 58.7263L48.7273 58.5279L48.9256 58.3957ZM48.5289 57.0073L48.9917 56.1478L50.843 55.9494L51.0413 56.8751L49.0578 58.1974L48.5289 57.0073ZM50.9752 55.7511L50.843 55.0238L51.438 54.6932L53.157 55.4205L53.0248 55.5527L50.9752 55.7511ZM51.5702 54.561L52.8264 53.7676L53.4215 54.8916L53.157 55.2222L51.5702 54.561ZM53.4876 55.0238L53.7521 55.4866L53.2892 55.2883L53.4876 55.0238ZM52.9587 53.7015L53.5537 53.3709L54.2149 53.8337L53.5537 54.7594L52.9587 53.7015ZM53.6859 53.3048L55.2066 52.3792L54.281 53.7015L53.6859 53.3048ZM55.4049 52.3792L55.4711 52.5114L54.7438 53.966L54.4793 53.7676L55.4049 52.3792ZM55.5372 52.7098L56.4628 55.156L54.876 54.0321L55.5372 52.7098ZM55.8016 50.9908L54.876 50.5279L54.6116 49.8007L55.0744 49.5362L55.8678 50.8585L55.8016 50.9908ZM54.5454 49.7346L54.2149 48.6767H54.4793L54.9421 49.4701L54.5454 49.7346ZM53.5537 46.8255L53.8182 46.6932L55.6033 48.4784L54.6116 48.5445L53.5537 46.8255ZM53.157 45.8337L53.2231 45.0403L54.6116 46.0321L53.8182 46.4949L53.157 45.8337ZM53.2892 42.7924L53.2231 42.6602L53.2892 42.5941V42.7924ZM53.4215 43.1891L54.4793 44.842L53.2892 44.9081L53.4215 43.1891ZM53.2892 42.9908L53.157 44.7759L52.4297 44.247L51.9669 43.3875L53.0909 42.6602L53.2892 42.9908ZM51.9008 43.3213L51.438 42.3957L51.2397 41.1395H52.033L52.9587 42.5279L51.9008 43.3213ZM51.2397 41.0734L51.1074 40.0156L51.7025 40.6106L51.9669 41.0734H51.2397ZM51.1074 41.0734H50.7768L49.9173 39.3544L50.2479 39.0899L50.9091 39.8172L51.1074 41.0734ZM50.6446 39.2883L50.9091 39.4205V39.5527L50.6446 39.2883ZM50.3802 38.9577L50.5124 38.8916L50.7107 39.0899L50.3802 38.9577ZM50.4463 38.7594L50.2479 38.8916L48.9917 37.5693V37.437H49.3223L50.4463 38.7594ZM49.5207 37.3709H49.7851L50.4463 38.561L49.5207 37.3709ZM48.9917 37.2387L48.9256 36.7759L49.2562 37.2387H48.9917ZM48.9256 37.7015L49.2562 38.2965L48.7273 38.0321L48.9256 37.7015ZM48.595 37.966L47.6694 37.437L48.6611 37.3709L48.8595 37.5032L48.595 37.966ZM47.0083 35.8503L47.5372 35.3875L48.6611 37.2387L47.0083 35.8503ZM46.6116 33.5362H46.876L48.1983 34.5941L47.8016 34.9908L46.6116 33.5362ZM46.5454 33.404L46.3471 33.0734L46.6777 33.404H46.5454ZM46.4132 33.5362L47.4711 35.2552L46.876 35.7841L46.4132 35.3875L46.0165 33.5362H46.4132ZM46.0165 33.404L45.8843 32.8089L46.3471 33.404H46.0165ZM46.2149 35.2552L44.0992 33.5362H45.8182L46.2149 35.2552ZM43.9669 33.3379L43.5702 33.0073L43.3058 32.6767L43.7686 31.5527L45.6859 32.4784L45.8843 33.3379H43.9669ZM43.7025 31.4205L43.3719 31.2883L43.9669 30.561L44.033 30.6271L43.7025 31.4205ZM41.8512 30.4949L41.3223 30.2304L41.124 29.6354H41.3884L41.8512 30.4949ZM41.0578 29.5032L40.8595 28.7098L41.2562 29.5032H41.0578ZM40.9256 29.5032H40.595L39.1405 27.9164L39.7355 26.6602L40.4628 28.0486L40.9256 29.5032ZM39.0083 25.0073L38.8099 24.6767L39.0083 24.9412V25.0073ZM38.9421 25.2056L38.876 25.2718L36.033 24.3461L35.3058 22.2965L38.9421 25.2056ZM35.1735 22.0982L35.1074 21.8998L38.4132 24.3461L38.7438 24.9412L35.1735 22.0982ZM34.843 21.437L34.5124 21.2387L32.9917 20.1147L33.3884 19.6519L34.2479 19.8503L34.843 21.437ZM33.3223 19.5197L32.3306 19.2552L31.0083 16.6767L33.5868 19.1891L33.3223 19.5197ZM32.3306 19.6519L31.8678 19.3213L32.1983 19.3875L32.3306 19.6519ZM32.4628 19.9164L32.5289 19.9825L31.3388 19.123H31.4711L32.4628 19.9164ZM32.595 20.247L32.1983 20.4453L30.7438 18.9908L30.9421 19.0569L32.595 20.247ZM31.0083 18.9246L30.4132 18.5279V18.4618L31.2066 18.9908L31.0083 18.9246ZM30.6116 18.8585H30.5454V18.7924L30.6116 18.8585ZM30.4793 18.9908L31.0744 21.1065L30.281 21.5693H30.1487L30.0165 21.437L29.4215 18.8585L30.4793 18.9908ZM29.9504 21.8337L30.2149 23.0238L29.0909 22.6932L28.9587 22.3627L29.9504 21.8337ZM28.8926 22.2965L28.8264 22.0982L29.8843 21.7676L28.8926 22.2965ZM29.4876 23.685L29.3554 23.6189L29.2892 23.3544L29.4876 23.685ZM29.7521 23.9494L30.6777 25.2718L30.876 26.0651L29.6859 24.2139L29.4876 23.7511L29.7521 23.9494ZM30.8099 25.2056L30.6777 24.5445L32.1322 25.4701L32.1983 25.9329L31.4711 26.1313L30.8099 25.2056ZM31.3388 26.2635L31.0744 26.3296L30.9421 25.6023L31.3388 26.2635ZM32.595 27.9825L32.6611 28.842L31.8016 27.5197L32.595 27.9825ZM32.3967 26.1313L32.8595 25.999L33.7851 26.5941L33.5868 28.1808L32.6611 27.9164L32.3967 26.1313ZM32.7273 30.561L32.3967 30.6932L32.1983 30.2304L32.6611 29.966L32.7273 30.561ZM32.2645 30.7594L31.9339 30.8916L31.8678 30.4288L32.0661 30.2965L32.2645 30.7594ZM32.3306 30.8916L32.6611 31.6189L32 31.0238L32.3306 30.8916ZM32.4628 30.8255L32.7273 30.6932L32.7934 31.4866L32.4628 30.8255ZM32.7934 29.1726L32.7273 28.247L33.4545 29.3709L33.0578 29.5693L32.7934 29.1726ZM32.9256 29.6354L32.7934 29.7015V29.437L32.9256 29.6354ZM33.0578 29.7676L33.3884 30.2965L32.9256 30.4949L32.8595 29.8998L33.0578 29.7676ZM33.3884 30.4949L33.2562 32.0156L32.9917 31.8172L32.9256 30.6271L33.3884 30.4949ZM32.9917 32.9412L33.124 33.0073L32.9917 34.4618V34.3957V32.9412ZM32.9917 36.1808L33.3223 36.3792L33.9173 38.9577L33.4545 39.2222L32.9917 36.1808ZM33.4545 39.9494L32.9256 40.28L32.595 39.8833L33.3223 39.4205L33.4545 39.9494ZM33.4545 40.0817L33.2562 40.6106L33.0578 40.4122L33.4545 40.0817ZM33.3223 40.9412L33.719 41.4701L33.6529 41.6684L33.1901 41.404L33.3223 40.9412ZM33.5206 41.8007L32.7273 43.4536L32.3967 43.6519V43.1891L33.0578 41.5362L33.5206 41.8007ZM33.6529 41.8668L33.7851 41.9329L33.9173 42.8585L32.9917 43.3213L33.6529 41.8668ZM33.9173 41.8668L33.8512 41.6023L34.5124 41.8668L34.5785 42.1974L33.9173 41.8668ZM34.6446 42.3957V42.5279L34.0496 42.8585L33.9173 42.0651L34.6446 42.3957ZM34.5785 46.7594L34.3802 46.8255L32.7934 45.7015L34.1157 43.7841L34.5785 46.7594ZM34.5785 47.156L33.124 48.8751L32.9917 49.0073L32.7934 47.2883L34.314 46.9577L34.5785 47.156ZM32.9917 50.4618L32.2645 50.1313L32.8595 49.404L32.9917 50.4618ZM32.9256 50.5941L32.3967 50.9908L32.0661 51.0569L31.7355 50.7924L32.1983 50.1974L32.9256 50.5941ZM31.6694 50.3957V50.0651L31.8678 50.1313L31.6694 50.3957ZM31.8678 51.123L31.6694 51.1891V50.9908L31.8678 51.123ZM31.9339 51.2552L31.6033 51.4536V51.3213L31.9339 51.2552ZM33.0578 52.5114L33.124 54.3627L31.4049 54.6271L31.4711 53.8999L33.0578 52.5114ZM33.124 54.561V55.5527L31.2066 57.1395L31.4049 54.8916L33.124 54.561ZM31.2066 54.6932L30.3471 54.8255L31.2066 54.0982V54.6932ZM31.2066 54.8255L31.0083 57.0734L30.0165 56.28L30.2149 54.9577L31.2066 54.8255ZM29.8843 56.2139L29.3554 55.8172L30.0165 55.156L29.8843 56.2139ZM29.2231 55.685L29.0248 55.4866L29.7521 55.156L29.2231 55.685ZM29.5537 58.5279V58.6602L29.2892 58.7263L29.5537 58.5279ZM28.562 59.123L27.8347 59.6519L27.3058 59.4536L28.562 59.123ZM28.9587 58.9908L29.2892 58.9246L28.1653 59.7841L28.033 59.718L28.9587 58.9908ZM29.4876 58.9246L29.3554 60.3131L28.2975 59.8503L29.4876 58.9246ZM29.4876 60.5775L30.7438 61.1726V61.2387L29.3554 62.2304L29.4876 60.5775ZM29.4876 60.4453L29.6198 58.8585L30.876 58.5941L30.7438 60.9742L29.4876 60.4453ZM30.876 61.3048L32.0661 61.7676L30.8099 61.966L30.876 61.3048ZM31.0744 61.1065L33.1901 59.6519L33.2562 61.5032L32.3967 61.6354L31.0744 61.1065ZM33.1901 52.0486L33.3223 52.1147L33.1901 52.1808V52.0486ZM33.1901 51.8503V50.9246L33.3884 50.8585L34.2479 51.3213L33.3884 52.0486L33.1901 51.8503ZM34.4463 51.3213L35.3058 51.718L35.5702 53.3709L33.5868 52.0486L34.4463 51.3213ZM35.438 51.8503L35.8347 52.0486L35.9008 53.2387L35.7025 53.437L35.438 51.8503ZM35.5702 53.966L35.1735 54.0321L35.5041 53.7676L35.5702 53.966ZM35.9008 53.437V53.6354L35.7686 53.5693L35.9008 53.437ZM35.9669 53.8337V53.966H35.7686V53.7676L35.9669 53.8337ZM35.9669 54.0982V55.7511L35.7686 54.2304L35.9669 54.0982ZM35.8347 50.1974L39.4711 49.999L36.8264 52.4453L35.9669 51.9825L35.8347 50.1974ZM39.7355 49.9329H40L40.3306 50.9246L37.6198 52.842L36.9587 52.5114L39.7355 49.9329ZM37.6198 52.9081L39.0083 53.5693L36.4297 53.8337H36.3636L37.6198 52.9081ZM39.6694 55.3544L41.9835 56.28L40.8595 57.0734L36.3636 57.4701L39.6694 55.3544ZM40.9917 57.1395L42.1818 57.0073L36.9587 60.3131L36.562 60.1147L40.9917 57.1395ZM42.314 57.1395L42.3802 57.3379L41.8512 60.4453L38.0826 60.842L37.2231 60.4453L42.314 57.1395ZM41.9835 60.5114L43.2397 60.247L43.3058 60.4453L43.3719 61.966L42.4463 62.6271L41.3884 62.2304L41.9835 60.5114ZM43.2397 56.6767V56.5445L43.9669 56.0817L44.7603 56.4784L43.3058 56.6767H43.2397ZM45.0248 56.6767L46.5454 57.4701L45.8843 57.9329L43.6364 56.8751L45.0248 56.6767ZM46.6777 57.5362L47.7355 58.1313L47.4711 58.6602L46.0165 57.999L46.6777 57.5362ZM47.5372 58.8585L47.7355 58.9908L47.2727 59.2552L47.5372 58.8585ZM48.595 59.2552L49.124 59.123L48.7934 59.3213L48.595 59.2552ZM48.3967 59.123L48.0661 58.9246L48.595 58.5941L49.1901 58.9246L48.3967 59.123ZM49.0578 58.2635L51.0413 57.0073L51.1074 57.3379L49.4545 58.9246L49.3223 58.8585L49.0578 58.2635ZM51.1074 57.5362L51.2397 58.1313L50.0496 59.2552L49.5868 58.9908L51.1074 57.5362ZM51.3058 58.2635L51.6364 60.1147L50.1818 59.3213L51.3058 58.2635ZM51.2397 57.404L53.0248 55.685V55.6189L53.0909 55.685L53.2231 55.4866L53.8182 55.7511L51.438 58.0651L51.2397 57.404ZM53.6198 54.8916L54.3471 53.8999L54.6777 54.0982L53.9504 55.4866L53.6198 54.8916ZM56.5289 55.4866L56.9256 57.3379L55.5372 56.5445L56.5289 55.4866ZM56.7273 55.5527L59.7686 58.3957L60.1653 59.123L57.1901 57.404L56.7273 55.5527ZM56.6611 55.3544L57.1901 53.3709L59.5702 58.0651L56.6611 55.3544ZM57.124 52.9081L56.4628 51.5858L57.3223 52.3792L57.124 52.9081ZM57.0578 53.1726L56.595 55.0899L55.6694 52.5114L56.1983 51.3875L57.0578 53.1726ZM56.1322 50.1313L56.0661 49.0073L56.3967 49.3379L56.1322 50.1313ZM56.1983 48.9412L56.6611 48.6767L56.4628 49.2056L56.1983 48.9412ZM56 48.4784L55.9339 47.2883L56.5289 48.4122L56 48.4784ZM56 50.4618L55.9339 50.7263L55.2066 49.5362L55.9339 49.1395L56 50.4618ZM55.1405 49.404L54.6777 48.6767L55.7355 48.6106L55.9339 48.8089V48.9412L55.1405 49.404ZM55.8016 48.4784L53.9504 46.6271L54.7438 46.1643L55.6694 46.8255L55.7355 47.0238L55.8678 48.5445L55.8016 48.4784ZM54.876 46.0321L55.1405 45.8998L55.4049 46.2965L55.4711 46.4949L54.876 46.0321ZM54.9421 44.9742L56.5289 44.9081L55.2727 45.6354L54.9421 44.9742ZM55.0744 45.7676L54.7438 45.966L53.4215 45.0403L54.5454 44.9742L55.0744 45.7676ZM53.4215 42.9908V42.5941L54.6116 44.842L53.4215 42.9908ZM53.4876 42.2635L52.7603 41.1395H55.3388L53.4876 42.2635ZM52.4297 41.0734L51.0413 39.3544L50.7107 38.7594L50.9091 38.6271L52.4297 41.0734ZM50.2479 37.3048L52.6281 37.1726L50.9091 38.3627L50.2479 37.3048ZM50.7768 38.4949L50.5785 38.6271L49.9173 37.3709H49.9835L50.7768 38.4949ZM49.9173 37.1726L49.4545 36.4453L49.9835 37.2387L49.9173 37.1726ZM49.719 37.1726H49.4545L48.8595 36.4453L48.6611 35.2552L49.719 37.1726ZM48.7273 36.5114L48.8595 37.1726L47.6694 35.2552L47.7355 35.1891L48.7273 36.5114ZM47.8016 35.123L48.2645 34.7263L48.4628 34.8585L48.6611 36.1808L47.8016 35.123ZM47.6694 33.5362H49.3884L48.3306 34.4618L47.6694 33.5362ZM47.8678 34.1313L47.1405 33.4701H47.3388L47.8678 34.1313ZM46.9421 33.404L46.0826 32.6767L44.9587 30.7594L47.2066 33.404H46.9421ZM44.562 30.0982L44.4959 29.966L44.6281 29.7676L47.0744 33.0073L44.562 30.0982ZM44.3636 29.7676L44.1653 29.3709H44.2975L44.4959 29.6354L44.3636 29.7676ZM43.7025 29.3048L40.9917 26.8585L40.3306 26.0651L42.5124 27.4536L43.7686 29.2387L43.7025 29.3048ZM40.1983 25.8007L40.2645 25.6684L41.3884 26.5279L40.1983 25.8007ZM40.8595 26.9246L42.9091 29.3048L41.3884 29.437L40.595 27.9825L40.1322 26.2635L40.8595 26.9246ZM40.3306 27.3875L39.8678 26.5279L40 26.2635L40.3306 27.3875ZM40.0661 25.7346L40 25.6684V25.6023H40.1322L40.0661 25.7346ZM39.8678 25.4701L39.8016 25.3379L40 25.4701H39.8678ZM39.9339 26.0651L39.8016 26.3296L39.4049 25.6023H39.4711L39.9339 26.0651ZM39.3388 25.0073L39.5372 25.1395L39.6033 25.2718L39.3388 25.0073ZM39.2066 24.7428V24.6106L39.3388 24.8751L39.2066 24.7428ZM39.2066 24.1478L37.9504 21.7015L39.4049 23.3544L39.2066 24.1478ZM39.1405 24.4122L39.0744 24.6767L38.7438 24.4122L38.4132 24.0817L36.3636 20.7759L37.4876 21.2387L39.1405 24.4122ZM36.2314 20.5114L35.1074 18.7263L36.3636 19.9825L37.2231 20.9081L36.2314 20.5114ZM35.9669 20.4453L34.3802 19.7841L33.9835 19.0569L34.6446 18.3296L35.9669 20.4453ZM33.9173 18.9246L32.6611 16.5445L34.5124 18.1974L33.9173 18.9246ZM30.4132 15.9494L28.8264 14.3627L29.7521 14.6932L30.4132 15.9494ZM29.8843 14.561L29.3554 13.5693L30.7438 14.8255L29.8843 14.561ZM29.6859 14.4949L28.6281 14.1643L28.3636 13.7015L29.0909 13.3048L29.6859 14.4949ZM30.6777 16.4122L32.1322 19.2552L31.5372 19.123L30.281 18.1974L28.7603 14.6271L30.6777 16.4122ZM30.2149 18.3296L29.5537 17.8668L29.2892 17.6023L30.2149 18.2635V18.3296ZM29.4215 17.999L30.281 18.7924L29.3554 18.6602L29.157 17.8007L29.4215 17.999ZM29.2892 18.7924L29.8182 21.1726L27.3719 18.5279L29.2892 18.7924ZM29.4215 20.9742L27.5702 19.1891L27.438 18.7924L29.4215 20.9742ZM29.8182 21.5693L28.6942 21.8998L27.7025 19.4536L29.8182 21.5693ZM28.562 22.561L28.8926 22.8255L29.0909 23.4205L28.9587 23.3544L28.562 22.561ZM28.8926 23.4866L29.4876 24.3461L29.9504 25.5362L28.8926 23.4866ZM29.8843 24.8751L30.876 26.3957L30.5454 26.5941L29.8843 24.8751ZM30.9421 26.5941L31.0083 26.9908L30.6116 26.7924L30.9421 26.5941ZM31.0744 27.1891L31.2727 28.247L30.6777 26.9908L31.0744 27.1891ZM31.4049 28.842L31.6033 29.7676L31.0083 27.9164L31.4049 28.842ZM31.5372 28.7759L31.2066 27.2552L31.4711 27.3875L32.595 29.1726L32.6611 29.7676L32.1322 30.0982L31.5372 28.7759ZM32 30.1643L31.8016 30.2965L31.6033 29.437L32 30.1643ZM31.6694 30.561L31.8016 31.0238L32.0661 32.28L30.4132 31.2883L31.6694 30.561ZM32.0661 31.2222L32.8595 31.9494V32.6767L32.3967 32.4122L32.0661 31.2222ZM32.7934 32.8751V33.8668L32.4628 32.6767L32.7934 32.8751ZM32.2645 32.5445L32.7934 34.3957V35.3213L32.2645 32.5445ZM32.9256 36.7759L33.3884 39.2883L32.595 39.7511L32.9256 36.7759ZM32.7934 40.3461L32.5289 40.5445L32.595 40.0817L32.7934 40.3461ZM32.9256 40.4784L33.1901 40.8089L32.9917 41.3379L32.4628 41.0734L32.5289 40.6767L32.9256 40.4784ZM32.9256 41.4701L32.3306 42.8585V42.7924L32.4628 41.2056L32.9256 41.4701ZM32.3306 44.3792L32.1322 44.7759L32.1983 43.9164H32.2645L32.3306 44.3792ZM32.3306 41.0073L32.1983 40.9412L32.3306 40.8751V41.0073ZM32.2645 41.1395L32.1983 41.6684L32.1322 41.0734L32.2645 41.1395ZM32.3967 44.7098L32.4628 45.437L32.1322 45.2387L32.3967 44.7098ZM32.4628 43.8503L32.6611 43.718L32.4628 44.1147V43.8503ZM32.8595 43.5858L33.9173 43.0569L33.9835 43.5197L32.595 45.5693L32.4628 44.4453L32.8595 43.5858ZM32.6611 45.7676L34.1157 46.8255L32.7934 47.0899L32.6611 45.7676ZM32.6611 47.2883L32.8595 49.1395L32 49.999L31.7355 49.8668L31.9339 47.4205L32.6611 47.2883ZM31.8016 47.3544L31.6033 47.4205L31.8678 47.0238L31.8016 47.3544ZM31.8678 46.6932L31.5372 47.156L31.7355 45.966L31.9339 45.5693L31.8678 46.6932ZM31.8016 47.4866L31.6033 49.8007L31.0744 49.6023L31.4049 47.5527L31.8016 47.4866ZM30.9421 49.5362L30.4132 49.2718L31.2727 47.8833L30.9421 49.5362ZM30.9421 49.6684L30.876 50.0651L30.281 49.4701L30.3471 49.404L30.9421 49.6684ZM30.9421 50.3957L31.3388 50.7263L30.8099 51.2552L30.9421 50.3957ZM30.8099 51.5858L30.7438 51.6519V51.5858H30.8099ZM31.0744 51.4536L31.4049 51.3875V51.5858L30.6777 52.0486V51.9825L31.0744 51.4536ZM31.4049 51.718L31.2727 53.8337L30.2149 54.7594L30.6116 52.247L31.4049 51.718ZM30.5454 51.8503L30.0826 52.3792L29.9504 52.4453L30.6116 51.718L30.5454 51.8503ZM29.4215 52.7759L28.562 53.3048L28.8926 52.4453L30.3471 51.718L29.4215 52.7759ZM29.0909 53.1726L28.3636 54.0321L28.562 53.5693L29.0909 53.1726ZM29.5537 52.9081L29.6859 52.842L28.1653 54.4949L28.2314 54.4288L29.5537 52.9081ZM30.1487 52.5114L30.4793 52.3131L30.0165 54.8916L28.8264 55.4205L28.0992 54.8255L30.1487 52.5114ZM29.0909 55.8172L27.2397 57.5362L27.7025 56.0817L28.8926 55.5527L29.0909 55.8172ZM27.5702 56.0156L26.7768 56.3461L27.8347 55.156L27.5702 56.0156ZM26.3802 56.4784L27.9008 54.7594V54.8255L26.3802 56.4784ZM26.9091 57.999L26.5785 59.0569L26.0496 58.7924L26.9091 57.999ZM27.1074 59.5197L27.7025 59.7841L26.1157 60.9742L26.5124 59.6519L27.1074 59.5197ZM30.5454 63.685L29.2892 62.9577V62.3627L30.6777 62.0982L30.5454 63.685ZM29.5537 62.1643L30.7438 61.3709L30.6777 61.966L29.5537 62.1643ZM30.7438 63.685L30.876 62.0982L32.3306 61.8337L33.124 62.1643L30.7438 63.685ZM32.595 61.8337L33.2562 61.7015V62.0982L32.595 61.8337ZM33.1901 52.3792L33.3884 52.1808L35.438 53.5693L34.843 54.0321L33.1901 54.2965V52.3792ZM33.2562 54.4949L34.7107 54.2304L33.3223 55.3544L33.2562 54.4949ZM33.2562 55.6189L34.9752 54.2304L35.6364 54.0982V54.1643L33.2562 55.8833V55.6189ZM33.3223 58.1974L35.7686 57.7346L34.1157 58.8585L33.3223 58.3957V58.1974ZM33.3223 58.5941L33.9835 58.9908L33.3223 59.4536V58.5941ZM33.3884 61.6354L34.2479 61.5032L33.9173 61.7015L33.3884 62.0321V61.6354ZM33.9173 62.4288L33.4545 62.2304L33.9835 61.8998L34.6446 61.5032L35.6364 61.3048L33.9173 62.4288ZM35.7025 63.2883L34.0496 62.4949L35.8347 61.2387L35.7025 63.2883ZM35.9008 61.0403L34.9752 61.1726L35.9008 60.5775V61.0403ZM35.9669 60.3131L34.5124 61.3048L33.3884 61.5032L33.3223 59.5858L34.1157 59.0569L35.9008 60.0486L35.9669 60.3131ZM35.9669 59.8503L34.2479 58.9246L35.9669 57.7346V59.8503ZM33.3223 57.999L33.2562 56.0817L35.6364 54.2965L35.9669 57.1395V57.4701L33.3223 57.999ZM35.9669 52.1147L36.6942 52.5114L36.033 53.1726L35.9669 52.1147ZM36.033 53.3048L36.8925 52.5775L37.4876 52.9081L36.1653 53.8337L36.033 53.7676V53.3048ZM36.0992 60.5114L36.4297 60.3131L36.4959 60.7098L36.0992 60.9742V60.5114ZM36.2975 60.9742L36.4297 60.842V60.9081L36.2975 60.9742ZM36.2314 57.6684L40.595 57.2056L36.562 59.9825L36.2314 57.6684ZM36.562 60.3131L36.8925 60.4453L36.6281 60.6436L36.562 60.3131ZM36.6281 60.842L37.0248 60.5775L37.7521 60.9081L36.6281 61.0403V60.842ZM36.8925 63.685L36.6281 61.1065L38.0165 60.9742L39.8016 61.7676L36.8925 63.685ZM40 61.6354L38.3471 60.9081L41.5868 60.5114L40 61.6354ZM40.1983 61.7015L41.7851 60.6436L41.2562 62.1643L40.1983 61.7015ZM41.3223 62.3627L42.2479 62.7594L40.9256 63.685L41.3223 62.3627ZM41.1901 63.685L42.3802 62.8255L43.0413 63.0899L41.1901 63.685ZM43.3058 63.0238L42.5785 62.6932L43.3719 62.1643V62.9577L43.3058 63.0238ZM43.3058 56.8751L45.6859 57.999L43.3719 59.4536L43.3058 56.8751ZM43.3719 59.5858L45.8182 58.0651L47.3388 58.7924L47.0083 59.3875L43.3719 60.0486V59.5858ZM43.438 60.247L46.8099 59.6519L43.8347 61.7015L43.5041 60.5114L43.438 60.247ZM43.438 61.1726L43.6364 61.8337L43.5041 61.966L43.438 61.1726ZM43.5041 62.0982L43.7025 61.966L43.9008 62.7594L43.5041 62.8916V62.0982ZM43.5041 63.2883L43.6364 63.3544L43.5702 63.4205L43.5041 63.2883ZM43.5702 63.7511L43.8347 63.4866L43.9669 63.5527L43.5702 63.7511ZM44.0992 62.8255L44.4297 62.6271L44.2314 62.8255H44.0992ZM44.2314 63.3544L44.1653 63.156L44.4959 62.8255L48.8595 59.5197L49.4545 59.7841L44.2314 63.3544ZM48.9917 59.4536L49.2562 59.2552L49.4545 59.6519L48.9917 59.4536ZM49.3884 59.123L49.9173 59.3875L49.5868 59.718L49.3884 59.123ZM50.2479 61.437L49.719 59.9164L51.1735 60.6436L50.2479 61.437ZM51.3058 60.5775L49.719 59.7841L50.0496 59.4536L51.5702 60.3131L51.3058 60.5775ZM51.438 60.6436L51.7025 60.4453V60.7759L51.438 60.6436ZM51.438 58.1974L53.9504 55.8172L54.6116 57.3379L51.8347 60.1808L51.438 58.1974ZM51.9008 60.842V60.3792L54.6777 62.2304L51.9008 60.842ZM55.8678 62.8255L51.9008 60.247L54.6777 57.4701L57.3884 63.6189L55.8678 62.8255ZM57.5206 63.6189L54.7438 57.3379L55.4049 56.6106L56.9917 57.5362L58.1157 62.561L57.5206 63.6189ZM58.2479 62.4288L57.124 57.6684L60.1653 59.4536L58.2479 62.4288ZM60.2314 59.0569L60.0992 58.7263L60.2314 58.8585V59.0569ZM60.2314 58.6602L59.9008 58.3296L57.2562 53.1065L57.4545 52.4453L59.1074 53.966L60.2314 56.8089V58.6602ZM60.1653 56.4122L59.3058 54.2304L60.1653 55.0238V56.4122ZM59.9008 54.6271L59.1735 53.8999L58.2479 51.6519L59.9008 54.6271ZM58.9091 53.7015L57.3884 52.3131L57.7851 50.8585L58.9091 53.7015ZM57.3223 52.1808L56.1983 51.1891V50.4618L56.595 49.4701L57.719 50.5941L57.3223 52.1808ZM57.4545 50.1974L56.595 49.3379L56.7273 48.8751L57.4545 50.1974ZM56.7273 48.3461L55.8678 46.7594L55.3388 45.7676L56.7273 44.9742V48.3461ZM56.7273 44.7759L54.8099 44.842L53.4876 42.4618L55.4711 41.2056L56.7273 44.7759ZM55.4049 41.0073H52.6281L50.9752 38.4949L52.8264 37.1726L55.4049 41.0073ZM52.7603 36.9742L50.1818 37.1726L48.6611 34.7924L48.5289 34.5941L49.6529 33.6023L52.7603 36.9742ZM44.8926 29.3709L49.3884 33.404H47.5372L44.6942 29.6354L44.8926 29.3709ZM44.6281 29.5032L44.4959 29.3709H44.6942L44.6281 29.5032ZM44.6942 29.1726H44.3636L43.9008 28.5114L44.6942 29.1726ZM44.2314 29.2387H44.0992L43.8347 28.7098L44.2314 29.2387ZM43.3058 28.1147L43.8347 29.1065L42.9091 27.7841L43.3058 28.1147ZM42.9091 27.5858L42.6446 27.4536L42.5785 27.3875L41.9173 26.4618L42.9091 27.5858ZM39.5372 23.2222L39.9339 23.8172L39.4711 23.2883L39.5372 23.2222ZM40.8595 25.2056L42.1818 27.0569L40.2645 25.5362L39.6694 25.0734L39.3388 24.4122L39.4711 23.5527L40.8595 25.2056ZM39.4049 23.0899V23.2222L38.7438 22.4949L39.4049 23.0899ZM38.4793 21.966L37.4215 20.9081L35.7025 18.5279L38.4793 21.966ZM36.7603 20.1808L36.4297 19.8503L34.7107 17.999L34.2479 16.6106L36.7603 20.1808ZM34.4463 17.7346L33.124 15.8833L33.9173 16.28L34.4463 17.7346ZM33.719 15.9494L32.9917 15.5527L31.2727 13.1065L33.719 15.9494ZM29.8182 11.5858L30.3471 12.1808L32.7273 15.4866L32.0661 15.156L29.7521 11.718L29.8182 11.5858ZM29.3554 11.0569L29.6859 11.4536L29.6198 11.5197L29.3554 11.0569ZM29.6859 11.8503L31.4711 14.6271L29.4215 12.6437L29.6859 11.8503ZM29.3554 12.7759L31.6694 15.0238L31.0744 14.8916L29.157 13.1726L29.3554 12.7759ZM28.4297 11.8503L29.2231 12.6437L29.0909 13.0403L28.4297 11.8503ZM27.438 11.9164L28.9587 13.1726L28.2975 13.5032L27.438 11.9164ZM28.2975 13.8998L28.1653 13.7676H28.2314L28.2975 13.8998ZM28.033 13.8998L28.2975 14.1643L27.7025 14.0982L28.033 13.8998ZM27.5041 14.1643L28.4959 14.2965L30.0165 17.999L29.0909 17.2718L28.4297 16.7428L26.314 14.7594L27.5041 14.1643ZM27.2397 14.0982L26.1818 14.6932L25.2562 13.7676L27.2397 14.0982ZM25.2562 13.966L26.0496 14.6932L25.7851 14.8916L25.5206 14.6932L25.2562 13.966ZM24.6611 15.5527L25.4545 15.2222L26.1157 17.2718L24.8595 15.9494L24.6611 15.5527ZM25.1901 16.4784L25.9835 17.2718H25.6529L25.1901 16.4784ZM25.6529 17.6023L25.9835 18.1974L25.6529 18.1313V17.6023ZM25.719 18.2635L26.0496 18.3296L26.7768 19.718L25.719 18.2635ZM26.2479 18.3296L26.5785 18.3957L27.0413 19.7841L26.2479 18.3296ZM26.9752 20.247L27.2397 20.5775V20.6437L26.9752 20.247ZM27.3719 20.5114L26.7768 18.5941L27.438 19.2552L28.562 22.0321H28.4959L27.3719 20.5114ZM27.7686 21.7015L28.1653 22.2965L28.2975 22.6271L28.0992 22.7594L27.7686 21.7015ZM28.1653 22.9577L28.6281 23.2883L30.4132 26.7924L31.6033 30.4288L30.281 31.2222L28.1653 22.9577ZM32.1322 40.8089L30.3471 31.4205L32.0661 32.4122L32.7273 36.0486L32.3967 39.8833L32.2645 40.6767L32.1322 40.8089ZM32.1322 45.3709L32.5289 45.6354V45.7676L32.0661 46.4949L32.1322 45.3709ZM32.5289 45.966L32.6611 47.156L31.9339 47.2883L32 46.7594L32.5289 45.966ZM31.9339 44.7098V45.2387L31.7355 45.5693L31.9339 44.7098ZM31.8016 44.7098L31.6033 45.966L30.5454 48.0156L31.8016 44.7098ZM31.4711 46.4288L31.2727 47.4205L30.281 48.6106L31.4711 46.4288ZM30.6777 48.4784L30.2149 49.2056L30.1487 49.1395L30.6777 48.4784ZM29.9504 49.404L30.0165 49.4701L29.7521 49.8668L29.9504 49.404ZM30.1487 49.6023L30.8099 50.2635L30.6116 51.5197L28.9587 52.3131L29.5537 50.5941L30.1487 49.6023ZM29.5537 50.1974L29.4876 50.4618L29.157 50.9246L29.5537 50.1974ZM29.2231 51.0569L28.7603 52.3131L28.2314 52.5775L29.2231 51.0569ZM28.1653 52.7759L28.6942 52.5114L28.3636 53.437L28.0992 53.6354L28.1653 52.7759ZM28.0992 53.8337L28.2975 53.7015L28.0992 54.3627V53.8337ZM28.033 54.9577L28.6942 55.4866L27.7025 55.8833L28.033 54.9577ZM27.9669 53.1065V53.7015L27.5702 53.966L27.9669 53.1065ZM27.438 54.2304L27.9669 53.8999V54.4949L26.4463 56.2139L27.438 54.2304ZM26.7107 55.2883L25.9835 56.6767L25.6529 57.0734L26.7107 55.2883ZM24.9917 58.3957V58.2635L25.5868 57.6023L25.1901 58.4618L24.9917 58.3957ZM25.0578 59.0569L25.1901 59.3875L24.7273 59.7841L25.0578 59.0569ZM24.7934 59.9164L25.2562 59.5197L25.3884 59.7841L24.7934 59.9164ZM25.3884 59.3875L25.9173 58.9246L26.5124 59.1891L26.4463 59.4536L25.5206 59.718L25.3884 59.3875ZM25.5868 59.9164L26.3802 59.718L25.9835 60.9742L25.5868 59.9164ZM25.8512 61.8337L26.314 61.437L28.1653 62.4949L25.4545 63.156L25.8512 61.8337Z" fill="white"/>
</g>
<path d="M41.9835 68.3138C28.2975 67.851 27.2397 52.8428 27.2397 52.8428H27.1074C27.1074 52.8428 26.1157 67.851 12.4297 68.2477L11.6364 69.57H27.3719H27.438H42.7768L41.9835 68.3138Z" fill="white"/>
</g>
<defs>
<clipPath id="clip0_7026_74">
<rect width="160" height="80" fill="white"/>
</clipPath>
</defs>
</svg>
