<svg width="160" height="80" viewBox="0 0 160 80" fill="none" xmlns="http://www.w3.org/2000/svg">
<path d="M160 44.3096C159.961 44.4126 159.91 44.5027 159.884 44.6057C159.382 46.7425 157.953 47.9396 155.881 48.2614C152.895 48.7119 150.397 47.5663 148.119 45.5582C148.982 44.7859 149.78 44.0651 150.591 43.3442C151.414 42.5977 151.389 42.662 152.367 43.0997C153.191 43.473 154.092 43.6789 154.967 43.9235C155.109 43.9621 155.302 43.8076 155.469 43.7433C155.366 43.5759 155.289 43.3442 155.134 43.267C154.555 42.9838 153.95 42.765 153.371 42.4947C152.753 42.2115 152.122 41.9412 151.53 41.5936C150.114 40.757 149.278 39.5598 149.355 37.8607C149.445 35.9299 150.462 34.6041 152.251 33.909C154.529 33.0208 156.718 33.4456 158.816 34.5011C159.215 34.7071 159.601 34.9388 159.987 35.1705C159.987 35.2091 159.987 35.2606 159.987 35.2992C159.163 36.4834 158.34 37.6805 157.516 38.8648C155.559 37.7835 154.761 37.5647 154.066 37.8736C156.679 38.8648 159.176 39.9718 160 43.0224C160 43.4472 160 43.872 160 44.3096Z" fill="white"/>
<path d="M0 40.5382C0 40.1906 0.0257442 39.8559 0.102977 39.5213C0.37329 38.2469 0.86243 37.0756 1.69912 36.0329C4.85278 32.1069 11.4047 32.6218 13.8246 37.0756C12.5632 37.8093 11.2888 38.5301 10.0402 39.2638C8.53419 37.5776 6.61625 37.3459 5.32904 38.6846C4.17056 39.8946 4.24779 41.8382 5.47064 42.9452C6.53902 43.9106 8.7144 44.1938 10.0402 42.1343C10.6967 42.469 11.3532 42.8165 12.0097 43.1512C12.6533 43.4859 13.2969 43.8205 13.9791 44.181C13.3355 45.4553 12.3958 46.4078 11.2245 47.0901C6.68061 49.7546 1.06838 47.1415 0.128721 41.9541C0.128721 41.9283 0.115849 41.9155 0.115849 41.8897C0.0514883 41.5551 0.0128721 41.2075 0.0128721 40.86L0 40.5382Z" fill="white"/>
<path d="M88.6887 33.7681C88.6887 34.077 88.6887 34.3087 88.6887 34.5404C88.6887 38.9169 88.7144 43.2935 88.6758 47.67C88.65 50.8751 87.1569 53.2436 84.2349 54.5179C81.3258 55.7922 78.6356 55.2001 76.177 53.102C77.2068 52.0207 78.2236 50.9652 79.2534 49.884C80.3733 50.7593 81.5446 50.9781 82.7546 50.283C83.7329 49.7295 84.2478 48.8542 84.2478 47.7601C83.1923 47.8888 82.1754 48.1462 81.1456 48.1205C78.0306 48.0433 75.7393 46.5243 74.5165 43.6667C73.2808 40.8091 73.757 38.0803 75.8552 35.789C77.9919 33.4592 80.6693 32.8413 83.72 33.7681C83.9903 33.8453 84.2993 33.7552 84.5953 33.7552C85.934 33.7681 87.2599 33.7681 88.6887 33.7681Z" fill="white"/>
<path d="M119.916 35.5825C121.139 34.4626 122.555 33.7933 124.203 33.5616C128.412 32.9823 132.441 36.4449 132.454 40.6927C132.467 43.0225 132.454 45.3653 132.454 47.7466C130.986 47.7466 129.57 47.7466 128.051 47.7466C128.051 47.5149 128.051 47.2961 128.051 47.0644C128.051 45.0949 128.077 43.1126 128.039 41.1432C128 38.9292 126.108 37.4747 124.138 38.1569C122.967 38.5559 122.195 39.3926 122.143 40.6669C122.066 42.7394 122.092 44.8246 122.079 46.9099C122.079 47.1802 122.079 47.4634 122.079 47.7723C120.586 47.7723 119.157 47.7723 117.664 47.7723C117.664 47.5149 117.664 47.2832 117.664 47.0644C117.664 44.9791 117.689 42.9067 117.638 40.8214C117.612 39.5986 116.943 38.7233 115.823 38.247C114.69 37.7707 113.622 37.9896 112.721 38.8134C111.987 39.4698 111.755 40.3451 111.755 41.3106C111.755 43.2156 111.755 45.1336 111.755 47.0386C111.755 47.2703 111.755 47.502 111.755 47.7723C110.288 47.7723 108.859 47.7723 107.392 47.7723C107.392 43.1899 107.392 38.6074 107.392 34.0507C108.846 34.0507 110.314 34.0507 111.768 34.0507C111.884 34.0507 112.013 34.0507 112.129 34.0121C114.922 33.0338 117.445 33.5487 119.685 35.4538C119.749 35.4795 119.826 35.5181 119.916 35.5825Z" fill="white"/>
<path d="M19.72 47.7601C18.214 47.7601 16.8109 47.7601 15.3564 47.7601C15.3564 41.4657 15.3564 35.197 15.3564 28.8896C16.7852 28.8896 18.214 28.8896 19.6943 28.8896C19.6943 30.6016 19.6943 32.3136 19.6943 34.0771C20.3765 33.9098 20.9815 33.7167 21.5993 33.6266C26.1432 32.9572 30.1078 36.3683 30.1078 40.9637C30.1078 43.2163 30.1078 45.456 30.1078 47.7473C28.6404 47.7473 27.2116 47.7473 25.6927 47.7473C25.6927 47.5027 25.6927 47.2452 25.6927 47.0007C25.6798 44.9025 25.7184 42.8044 25.6283 40.7062C25.5639 39.1744 24.2896 38.0417 22.7964 38.0031C21.2647 37.9645 19.9646 39.0328 19.7844 40.5904C19.6814 41.4528 19.72 42.341 19.72 43.2163C19.7071 44.7094 19.72 46.2026 19.72 47.7601Z" fill="white"/>
<path d="M105.023 34.0124C105.023 38.6077 105.023 43.1516 105.023 47.7855C104.161 47.7855 103.286 47.8628 102.423 47.7726C101.084 47.6311 99.8616 48.1331 98.5744 48.3261C94.7643 48.9054 91.0442 46.2023 90.3749 42.3921C89.6669 38.3889 92.2285 34.5273 96.0772 33.7678C97.3387 33.5232 98.5873 33.5747 99.823 33.9352C100.145 34.0253 100.492 34.0124 100.827 34.0124C102.217 34.0124 103.607 34.0124 105.023 34.0124ZM97.6219 43.9239C99.2438 43.9239 100.57 42.6238 100.582 41.0148C100.595 39.4315 99.2309 38.0928 97.6219 38.0928C96.0515 38.0928 94.7257 39.4058 94.6999 40.9891C94.6613 42.5723 96 43.911 97.6219 43.9239Z" fill="white"/>
<path d="M146.986 45.4557C144.811 48.3005 140.28 48.8926 137.204 46.7558C134.668 45.0052 133.483 41.8644 134.204 38.9038C134.964 35.8145 137.435 33.6263 140.55 33.253C144.451 32.7896 148.119 35.6086 148.75 39.5217C148.827 39.998 148.544 40.0623 148.248 40.1653C145.648 41.0277 143.047 41.8773 140.447 42.7397C140.228 42.8169 140.023 42.8942 139.778 42.9843C140.795 43.9368 142.211 43.8081 143.678 42.5981C144.772 43.5378 145.879 44.5032 146.986 45.4557ZM143.112 38.286C141.335 37.1532 139.121 37.9256 138.684 39.7534C140.151 39.2643 141.567 38.788 143.112 38.286Z" fill="white"/>
<path d="M52.4537 47.7468C50.9606 47.7468 49.5318 47.7468 48.0644 47.7468C48.0644 41.4395 48.0644 35.1708 48.0644 28.8506C49.5318 28.8506 50.9735 28.8506 52.4537 28.8506C52.4537 35.1579 52.4537 41.4266 52.4537 47.7468Z" fill="white"/>
<path d="M44.8077 47.7468C43.3146 47.7468 41.8858 47.7468 40.4183 47.7468C40.4183 41.4395 40.4183 35.1708 40.4183 28.8506C41.8858 28.8506 43.3274 28.8506 44.8077 28.8506C44.8077 35.1579 44.8077 41.4266 44.8077 47.7468Z" fill="white"/>
<path d="M55.6203 47.7338C55.6203 43.1256 55.6203 38.556 55.6203 33.9092C57.0491 33.9092 58.465 33.9092 59.9453 33.9092C59.9453 38.4788 59.9453 43.0741 59.9453 47.7338C58.5422 47.7338 57.1134 47.7338 55.6203 47.7338Z" fill="white"/>
<path d="M57.8471 25.3887C59.9582 25.3887 61.6573 27.0749 61.6573 29.1731C61.6573 31.2841 59.971 32.9832 57.8729 32.9832C55.7747 32.9832 54.0627 31.297 54.0627 29.1988C54.0627 27.0878 55.749 25.3887 57.8471 25.3887Z" fill="#FF011B"/>
<path d="M32.708 26.1738C35.2953 27.564 36.5567 29.9711 37.3548 32.5841C38.2301 35.4546 38.5519 38.4281 37.6766 41.3886C36.634 44.9156 35.2566 48.2623 32.4763 50.8367C31.9743 51.3001 31.5881 51.9051 31.1376 52.4458C30.9059 52.4972 30.8801 52.317 30.8286 52.1626C30.8158 52.0467 30.8415 51.9309 30.8801 51.815C31.7426 50.9011 32.3089 49.7684 33.107 48.8158C33.4417 48.9832 33.6862 48.9317 33.7892 48.5455C34.5358 47.4385 35.1151 46.2414 35.7329 45.0572C37.5994 41.247 37.7023 37.2953 36.7756 33.2406C36.6211 32.0178 35.8616 31.0652 35.3467 29.984C35.2052 29.5978 34.9348 29.276 34.7675 28.9027C34.8447 29.1215 34.7546 29.2245 34.5616 29.2631C33.9179 28.877 33.506 28.1947 32.8238 27.8601C32.3733 27.6412 31.8713 27.268 31.5366 28.0274C31.5366 28.2462 31.6396 28.5809 31.3564 28.6324C30.391 28.7997 30.7385 29.4305 30.8158 29.984C30.893 30.3573 30.9831 30.7305 31.1633 31.0781C31.5109 31.8375 31.9614 32.5326 32.3218 33.2792C33.9566 36.5745 34.2784 39.9856 33.3644 43.5511C32.7852 45.8166 31.8198 47.9405 31.0089 50.1288C30.7772 50.7338 30.6484 51.3774 30.5068 52.0081C30.3781 52.2913 30.4811 52.6775 30.1078 52.9091C29.9019 52.6388 29.992 52.3556 30.0306 52.0725C30.0692 50.5021 30.7643 49.1248 31.3564 47.7217C32.2188 45.6622 32.9268 43.564 33.21 41.3371C33.5833 38.2736 32.8882 35.4289 31.395 32.7515C31.1376 32.3009 30.9059 31.8375 30.6999 31.3613C30.0692 29.9196 30.0821 28.5037 30.9702 27.1521C31.1762 27.0491 30.9702 26.7273 31.2277 26.6501C31.292 26.6501 31.3693 26.663 31.4336 26.6758C31.897 26.663 32.3089 26.4313 32.708 26.1738Z" fill="#381B0E"/>
<path d="M32.708 26.1735C32.4505 26.8171 31.897 26.8814 31.3049 26.8299C31.4336 26.5081 31.6653 26.2893 32.0257 26.2121C30.7771 24.5516 29.078 23.9981 27.7007 24.7704C26.4521 25.4784 26.0788 26.418 26.5551 27.6538C26.1303 26.4566 26.5294 25.4655 27.6621 24.8863C29.1166 24.1525 30.6227 24.6031 31.2405 25.9289C31.3564 26.1863 31.5237 26.4438 31.2663 26.7141C31.1633 26.8686 31.0475 27.023 30.9445 27.1646C30.9574 26.0061 30.5197 25.2982 29.6315 25.0665C28.6404 24.7962 27.4562 25.311 26.967 26.1863C26.7096 26.6497 26.7611 27.0745 27.0571 27.4864C27.2116 27.6924 27.5977 27.8726 27.2116 28.1686C26.8769 28.4261 26.5165 28.336 26.259 28.0142C25.7313 27.3577 25.7055 26.6369 26.0145 25.8903C26.8512 23.8179 29.8246 23.3416 31.5752 25.0021C31.9743 25.3754 32.3347 25.7744 32.708 26.1735Z" fill="#3C3819"/>
<path d="M30.0048 52.0848C30.0306 52.3036 30.0563 52.5224 30.0821 52.7799C30.288 52.4967 30.0821 52.162 30.3138 51.9561C30.6227 52.1234 30.4296 52.4323 30.494 52.7155C30.5197 52.368 30.5969 52.1234 30.9702 52.1105C30.9831 52.2392 31.0089 52.3808 31.1504 52.4452C31.0346 52.7284 30.9316 53.0116 30.79 53.2819C30.687 53.475 30.5969 53.7581 30.3138 53.7195C30.0177 53.6809 29.9276 53.3977 29.9147 53.1403C29.889 52.7799 29.8246 52.4194 30.0048 52.0848Z" fill="#602F25"/>
<path d="M30.9574 52.1105C30.7771 52.3422 30.5969 52.561 30.3524 52.87C30.3395 52.4967 30.3266 52.2264 30.3138 51.9561C30.5712 50.051 31.5495 48.4034 32.1673 46.627C32.9911 44.2843 33.7635 41.9416 33.6347 39.3929C33.506 36.87 32.8753 34.5144 31.5495 32.3519C31.3049 31.9528 31.0475 31.5667 30.9702 31.0904C30.893 30.5884 30.5841 30.0864 31.0603 29.623C31.1891 29.5844 31.395 29.6616 31.4208 29.6359C31.8455 29.1081 31.9614 29.5071 32.103 29.8418C32.1545 29.9834 32.2059 30.1379 32.2703 30.2795C32.2961 30.331 32.3089 30.3696 32.3218 30.4211C32.3733 30.3438 32.3218 30.2666 32.3218 30.1894C32.3218 29.919 32.2446 29.6873 32.1416 29.4428C31.8713 28.7477 32.1931 28.3487 32.9397 28.413C33.4031 28.4516 33.6991 28.7348 33.9051 29.1081C34.0853 29.4557 34.2526 29.8032 34.3942 30.1636C34.5487 30.5369 34.6259 30.9488 35.1408 31.0647C35.3596 31.1161 35.4368 31.3993 35.5141 31.631C36.6211 34.8362 37.0072 38.1186 36.3508 41.4782C36.2993 41.7614 36.2607 42.0445 36.3636 42.3149C36.4666 43.5377 35.8745 44.5675 35.4111 45.6359C35.2952 45.8933 35.1537 46.1507 35.0378 46.4082C34.7932 46.9359 34.51 46.9488 34.0981 46.524C33.3129 48.442 32.1673 50.154 30.996 51.8659C30.9831 51.9432 30.9702 52.0204 30.9574 52.1105Z" fill="#EC3F34"/>
<path d="M36.2735 42.4566C36.1062 42.2764 35.9389 42.1348 36.0418 41.8001C36.5696 40.0495 36.531 38.2088 36.4409 36.4325C36.3765 35.0551 35.9517 33.665 35.5012 32.3263C35.0893 31.0777 33.9051 30.2667 33.5961 28.9666C33.5704 28.8765 33.4674 28.8122 33.3773 28.7478C33.0169 28.5032 32.605 28.5032 32.2961 28.7478C32.0129 28.9795 32.2703 29.2627 32.4119 29.4815C32.5921 29.739 32.5277 30.035 32.5277 30.3053C31.9871 29.9192 31.8841 29.2627 31.6267 28.7092C31.5109 28.4646 31.4465 28.1814 31.3049 27.9369C31.5237 27.3576 31.9228 27.2418 32.4634 27.4606C33.3387 27.821 33.9952 28.4518 34.5615 29.1983C34.8447 29.4429 35.1665 29.636 35.5012 29.8291C36.0032 30.8975 36.8528 31.8242 36.9171 33.0857C37.2389 34.5016 37.3805 35.9304 37.4449 37.385C37.1874 38.0543 37.0716 38.7237 37.0458 39.4703C37.0201 40.3198 36.7884 41.1823 36.7498 42.0576C36.724 42.2893 36.5825 42.5081 36.2735 42.4566Z" fill="#C92F2C"/>
<path d="M36.2735 42.4563C36.3636 42.3662 36.5438 42.2632 36.531 42.186C36.4023 41.1305 36.8785 40.1393 36.8142 39.0709C36.7755 38.5174 36.7884 37.8609 37.3548 37.4619C37.5093 38.6719 37.3677 39.869 37.1231 41.0532C36.8399 42.4949 36.3765 43.898 35.8101 45.2495C35.3081 46.4466 34.6903 47.5922 33.9179 48.6478C33.5447 48.6735 33.6991 48.3388 33.609 48.1844C33.5575 48.4675 33.4288 48.6992 33.1714 48.8537C32.5664 49.935 31.9614 51.0162 31.0089 51.84C31.5752 50.8103 32.1159 49.7676 32.7723 48.7893C33.2615 48.0685 33.5575 47.2318 33.9308 46.4338C34.0209 46.2535 34.0724 46.0605 34.214 45.9189C34.2912 45.9704 34.3427 45.9961 34.3556 46.0219C34.4843 46.2278 34.0467 46.5882 34.4586 46.6655C34.716 46.7169 34.8061 46.3565 34.9348 46.112C35.5656 44.9663 36.0676 43.7692 36.2735 42.4563Z" fill="#C0322E"/>
<path d="M31.2792 26.7139C31.1762 25.5425 30.3781 24.8603 29.5028 24.7444C28.4859 24.6157 27.5463 24.886 26.8769 25.7356C26.3878 26.3535 26.4264 27.1 26.9928 27.9753C26.5551 28.0397 26.4006 27.8337 26.2719 27.4862C25.9759 26.701 26.1175 25.9802 26.6452 25.388C27.3789 24.5642 28.3057 24.0622 29.4642 24.2939C30.6098 24.5127 31.2019 24.9247 32.4505 26.3535C31.9743 26.3663 31.6267 26.5723 31.3049 26.8426C31.3049 26.7911 31.292 26.7525 31.2792 26.7139Z" fill="#7C8048"/>
<path d="M35.7973 45.2628C36.1062 43.8597 36.7112 42.5467 36.93 41.1308C37.1231 39.9208 37.2904 38.698 37.329 37.4751C37.2132 36.3038 37.2261 35.1067 36.9686 33.9482C36.9043 33.665 36.8785 33.3947 36.8914 33.0986C37.3419 34.0769 37.3805 35.1582 37.4706 36.1879C37.7538 39.303 37.329 42.3279 35.9131 45.1469C35.8874 45.1984 35.8359 45.2241 35.7973 45.2628Z" fill="#9C2F28"/>
<path d="M31.292 27.9502C31.9356 28.6195 32.0901 29.5335 32.5149 30.3058C32.5149 30.486 32.5149 30.6533 32.5149 30.9494C32.0515 30.486 31.9228 29.9969 31.7425 29.3146C31.5881 29.6622 31.8326 29.9068 31.6396 30.0612C31.3306 30.1127 31.4722 29.7394 31.292 29.6622C31.1504 29.5592 31.0474 29.4305 30.9445 29.2631C30.7514 29.4948 30.9059 29.8295 30.6484 29.984C30.3781 29.6493 30.5197 29.2503 30.5068 28.877C30.494 28.6582 30.5841 28.4651 30.8801 28.5294C31.5752 28.7225 31.3178 28.2591 31.292 27.9502Z" fill="#642016"/>
<path d="M30.6484 29.9961C30.6484 29.9189 30.6484 29.8416 30.6613 29.7644C30.7128 29.4426 30.4811 28.9148 30.79 28.8633C31.2148 28.799 31.1247 29.3782 31.292 29.6743C30.6227 30.0218 31.1247 30.6268 30.9702 31.0902C30.7257 30.7555 30.6742 30.3823 30.6484 29.9961Z" fill="#BA322E"/>
<path d="M33.1585 48.867C33.3258 48.4551 33.506 48.0432 33.7248 47.5283C34.0209 47.966 33.5318 48.3779 33.9051 48.6611C33.7506 48.9056 33.609 49.1631 33.4545 49.4076C33.21 49.2532 33.3773 48.9571 33.1585 48.867Z" fill="#7B261D"/>
<path d="M35.4883 29.8288C35.0249 29.8545 34.6259 29.7644 34.5487 29.198C34.6259 29.0693 34.716 28.9535 34.819 28.7861C35.0893 29.1208 35.3339 29.4555 35.4883 29.8288Z" fill="#822920"/>
<path d="M33.8278 43.2676C34.5873 40.2169 34.2397 37.2563 33.4159 34.3086C33.7377 34.5017 33.8536 34.772 33.9179 35.068C34.008 35.4285 33.9952 35.4285 34.4328 35.5572C34.4972 35.5829 34.5487 35.6988 34.5744 35.7889C35.115 38.3118 34.9477 40.7833 34.0724 43.2032C34.0724 43.2161 34.0209 43.2161 33.8278 43.2676Z" fill="#F25042"/>
<path d="M81.2872 44.4388C83.356 44.4388 85.033 42.7618 85.033 40.693C85.033 38.6243 83.356 36.9473 81.2872 36.9473C79.2185 36.9473 77.5414 38.6243 77.5414 40.693C77.5414 42.7618 79.2185 44.4388 81.2872 44.4388Z" fill="#FF011B"/>
</svg>
