<svg width="160" height="80" viewBox="0 0 160 80" fill="none" xmlns="http://www.w3.org/2000/svg">
<path d="M1.9441 32.5305L1 46.7141L17.775 40.6608L18.0974 25.2998L1.9441 32.5305Z" fill="url(#paint0_linear_5594_126)"/>
<path d="M1 46.7135L13.7684 54.766L29.5532 50.4343L17.775 40.6602L1 46.7135Z" fill="url(#paint1_linear_5594_126)"/>
<path d="M16.5316 52.0561C16.5776 51.6007 15.8293 51.1676 14.8621 51.0898C13.895 51.001 13.0891 51.3009 13.043 51.7562C12.997 52.2116 13.7453 52.6448 14.7125 52.7226C15.6681 52.8225 16.4855 52.5226 16.5316 52.0561Z" fill="white" fill-opacity="0.902"/>
<path d="M17.6599 48.5025C17.7059 48.0027 16.9 47.5251 15.8523 47.4362C14.8161 47.3474 13.9295 47.6806 13.8835 48.1693C13.8374 48.6691 14.6434 49.1467 15.6911 49.2356C16.7388 49.3244 17.6253 49.0023 17.6599 48.5025Z" fill="white" fill-opacity="0.902"/>
<path d="M9.78464 47.5472C9.8307 47.0474 9.02476 46.5587 7.98856 46.4698C6.94084 46.3699 6.05431 46.6809 6.00825 47.1807C5.9622 47.6805 6.75662 48.1692 7.80434 48.2581C8.84055 48.3691 9.72708 48.047 9.78464 47.5472Z" fill="white" fill-opacity="0.902"/>
<path d="M25.6846 49.4247C25.6961 48.9249 24.8672 48.4806 23.8079 48.4362C22.7602 48.3917 21.8852 48.7694 21.8622 49.2803C21.8507 49.7801 22.6796 50.2244 23.7389 50.2688C24.7866 50.3021 25.6616 49.9245 25.6846 49.4247Z" fill="white" fill-opacity="0.902"/>
<path d="M18.9608 44.4483C19.0069 43.8818 18.1549 43.3487 17.0496 43.2598C15.9443 43.1599 15.0117 43.5486 14.9656 44.104C14.9196 44.6704 15.7716 45.2036 16.8769 45.2924C17.9706 45.3924 18.8917 45.0036 18.9608 44.4483Z" fill="white" fill-opacity="0.902"/>
<path d="M5.7895 40.7716C5.30594 40.3273 4.33881 40.5605 3.62498 41.2825C2.91115 42.0044 2.72694 42.9485 3.2105 43.3817C3.69406 43.826 4.66119 43.5927 5.3635 42.8819C6.07733 42.1488 6.27306 41.2047 5.7895 40.7716Z" fill="white"/>
<path d="M6.11181 36.6065C5.62825 36.1733 4.67264 36.3954 3.97032 37.1174C3.25649 37.8504 3.07228 38.7834 3.54433 39.2166C4.02789 39.6609 4.9835 39.4276 5.68582 38.7057C6.38814 37.9837 6.58386 37.0507 6.11181 36.6065Z" fill="white"/>
<path d="M6.39971 32.63C5.93918 32.219 5.0181 32.4412 4.35033 33.1298C3.67103 33.8184 3.48682 34.7181 3.94736 35.1291C4.40789 35.54 5.32896 35.329 5.99674 34.6404C6.66452 33.9406 6.84873 33.041 6.39971 32.63Z" fill="white"/>
<path d="M15.7255 37.0285C15.2304 36.5175 14.1481 36.7064 13.3307 37.4505C12.5132 38.2058 12.2484 39.2165 12.7435 39.7275C13.2386 40.2384 14.3093 40.0496 15.1383 39.3054C15.9557 38.5612 16.2205 37.5394 15.7255 37.0285Z" fill="white"/>
<path d="M15.8751 32.6971C15.3916 32.1972 14.3438 32.375 13.5379 33.108C12.732 33.8411 12.4787 34.8407 12.9622 35.3294C13.4458 35.8292 14.4935 35.6404 15.2994 34.9185C16.1054 34.1854 16.3587 33.1858 15.8751 32.6971Z" fill="white"/>
<path d="M16.025 28.4651C15.576 27.9986 14.5628 28.2208 13.7569 28.9538C12.9624 29.6869 12.6746 30.6421 13.1236 31.0975C13.5726 31.564 14.5858 31.3418 15.3918 30.6199C16.1862 29.8979 16.474 28.9316 16.025 28.4651Z" fill="white"/>
<path d="M18.0973 25.2998L27.0662 35.3405L29.5531 50.4349L17.7749 40.6608L18.0973 25.2998Z" fill="url(#paint2_linear_5594_126)"/>
<path d="M27.2505 46.2033C27.5614 46.1034 27.5268 45.2592 27.1814 44.3373C26.836 43.4044 26.3064 42.7379 25.9956 42.849C25.6847 42.949 25.7192 43.7931 26.0646 44.715C26.4216 45.6369 26.9512 46.3144 27.2505 46.2033Z" fill="white" fill-opacity="0.949"/>
<path d="M24.2572 39.4839C24.5681 39.3617 24.5105 38.4953 24.119 37.5624C23.7161 36.6183 23.1519 35.9518 22.8411 36.074C22.5302 36.1962 22.5878 37.0625 22.9907 37.9955C23.3822 38.9396 23.9579 39.606 24.2572 39.4839Z" fill="white" fill-opacity="0.949"/>
<path d="M21.2291 32.5194C21.5399 32.3861 21.4478 31.5642 21.0218 30.6867C20.5958 29.8092 20.0202 29.2095 19.7093 29.3428C19.3985 29.476 19.5021 30.298 19.9166 31.1754C20.3425 32.0529 20.9297 32.6526 21.2291 32.5194Z" fill="white" fill-opacity="0.949"/>
<path d="M27.0663 35.3405L23.3129 31.0977L20.5151 35.0184L22.4724 44.5482L29.5532 50.4349L27.0663 35.3405Z" fill="#070707" fill-opacity="0.2"/>
<path d="M26.0415 35.8733L45.5452 40.2494L52.7526 28.0762L33.5828 25.1328L26.0415 35.8733Z" fill="url(#paint3_linear_5594_126)"/>
<path d="M26.0415 35.873L29.1156 50.5454L46.8577 54.8882L45.5452 40.2492L26.0415 35.873Z" fill="url(#paint4_linear_5594_126)"/>
<path d="M52.7528 28.0762L52.4074 43.9481L46.8579 54.8885L45.5454 40.2494L52.7528 28.0762Z" fill="url(#paint5_linear_5594_126)"/>
<path d="M32.3625 40.8605C32.7194 40.294 32.2013 39.3499 31.1881 38.7613C30.1979 38.1726 29.0926 38.1726 28.7242 38.7502C28.3673 39.3166 28.8854 40.2607 29.8986 40.8494C30.8887 41.438 31.994 41.438 32.3625 40.8605Z" fill="white"/>
<path d="M44.1061 43.6929C44.486 43.082 43.9564 42.0934 42.9202 41.4937C41.884 40.8828 40.7327 40.8939 40.3527 41.5048C39.9728 42.1157 40.5024 43.1042 41.5386 43.704C42.5748 44.3148 43.7262 44.3148 44.1061 43.6929Z" fill="white"/>
<path d="M33.8477 49.0574C34.1931 48.5243 33.698 47.6246 32.7539 47.0693C31.7983 46.5139 30.7506 46.5139 30.4167 47.0582C30.0828 47.6024 30.5779 48.491 31.522 49.0463C32.4776 49.6017 33.5138 49.6017 33.8477 49.0574Z" fill="white"/>
<path d="M45.0157 51.9563C45.3611 51.3898 44.8545 50.468 43.8758 49.8904C42.8972 49.3239 41.8149 49.3128 41.458 49.8793C41.1126 50.4346 41.6192 51.3565 42.5979 51.9341C43.588 52.5117 44.6588 52.5228 45.0157 51.9563Z" fill="white"/>
<path d="M33.7557 33.8742C33.7211 33.2078 32.8231 32.7191 31.7293 32.7635C30.6355 32.808 29.7951 33.3855 29.8181 34.0409C29.8526 34.6962 30.7507 35.196 31.8444 35.1515C32.9267 35.1071 33.7902 34.5296 33.7557 33.8742Z" fill="white"/>
<path d="M35.7474 30.7085C35.7128 30.0754 34.8493 29.6089 33.8131 29.6533C32.7654 29.6977 31.948 30.242 31.9825 30.8751C32.0055 31.5082 32.8805 31.9747 33.9167 31.9414C34.9414 31.8969 35.7704 31.3416 35.7474 30.7085Z" fill="white"/>
<path d="M37.6703 27.6433C37.6357 27.0324 36.8068 26.577 35.8051 26.6325C34.8034 26.6769 34.009 27.199 34.0436 27.8099C34.0666 28.4207 34.9071 28.8761 35.8972 28.8206C36.9104 28.7873 37.6933 28.2541 37.6703 27.6433Z" fill="white"/>
<path d="M45.6721 36.2183C45.6606 35.5186 44.682 34.9521 43.4615 34.9521C42.2526 34.9633 41.274 35.5408 41.2855 36.2517C41.2855 36.9514 42.2757 37.5179 43.4846 37.5068C44.6935 37.5068 45.6721 36.9292 45.6721 36.2183Z" fill="white"/>
<path d="M47.6868 32.8079C47.6522 32.1304 46.6621 31.6195 45.4762 31.675C44.2788 31.7306 43.3463 32.3192 43.3808 32.9968C43.4154 33.6632 44.4055 34.1852 45.5914 34.1297C46.7772 34.063 47.7098 33.4744 47.6868 32.8079Z" fill="white"/>
<path d="M49.5404 29.4872C49.5174 28.843 48.5733 28.3765 47.4335 28.4209C46.2936 28.4653 45.4071 29.0207 45.4301 29.6649C45.4647 30.3091 46.4088 30.7756 47.5486 30.7311C48.6769 30.6756 49.5634 30.1314 49.5404 29.4872Z" fill="white"/>
<path d="M48.2394 41.6046C48.4236 40.505 48.32 39.5832 48.0091 39.5387C47.6983 39.4832 47.2838 40.3273 47.0996 41.4269C46.9153 42.5265 47.019 43.4484 47.3298 43.4928C47.6407 43.5483 48.0552 42.7042 48.2394 41.6046Z" fill="white"/>
<path d="M50.2083 42.4267C50.3925 41.4493 50.3349 40.6385 50.0817 40.5829C49.8284 40.5385 49.4715 41.2938 49.2988 42.2601C49.1261 43.2264 49.1836 44.0483 49.4369 44.0927C49.6787 44.1483 50.0241 43.393 50.2083 42.4267Z" fill="white"/>
<path d="M51.8776 34.3966C52.0618 33.297 52.0158 32.3641 51.7625 32.3307C51.5092 32.2863 51.1523 33.1527 50.9681 34.2634C50.7723 35.3629 50.8299 36.2959 51.0832 36.3293C51.325 36.3626 51.6819 35.4962 51.8776 34.3966Z" fill="white"/>
<path d="M48.6538 49.5797C48.8611 48.68 48.8381 47.9137 48.6078 47.8692C48.366 47.8248 48.0091 48.5134 47.8018 49.402C47.5946 50.3017 47.6176 51.0569 47.8594 51.1125C48.0897 51.168 48.4466 50.4794 48.6538 49.5797Z" fill="white"/>
<path d="M51.774 43.0385C51.9582 42.1721 51.9467 41.4279 51.7624 41.3946C51.5667 41.3502 51.2789 42.0388 51.0947 42.8941C50.922 43.7604 50.922 44.5046 51.1062 44.5379C51.3019 44.5823 51.6013 43.9048 51.774 43.0385Z" fill="white"/>
<path d="M70.1494 54.9671C63.4716 54.9671 59.6492 51.3685 59.6492 45.1041C59.6492 41.5166 61.0078 37.9179 63.391 35.2411C66.0046 32.2867 69.6658 30.665 73.6955 30.665C78.7614 30.665 82.1579 33.4973 82.1579 37.7069C82.1579 43.0604 77.5064 45.6595 67.9273 45.6595C67.5589 45.6595 67.1674 45.6484 66.7875 45.6484C66.8335 46.2704 67.0638 47.1145 67.4553 47.6476C68.3303 48.7472 69.8385 49.347 71.8419 49.347C74.2021 49.347 76.3551 48.8805 78.4045 47.9142L78.6808 47.7809L79.2104 53.1012L79.0723 53.1678C75.7679 54.7894 71.7267 54.9671 70.1494 54.9671ZM67.7086 40.3059C70.3221 40.3059 72.1873 40.106 73.3962 39.695C74.6051 39.273 75.1692 38.6621 75.1692 37.7624C75.1692 36.685 74.2712 36.0075 72.8205 36.0075C69.9306 36.0075 68.1115 38.1289 67.5243 40.3059C67.5704 40.3059 67.7086 40.3059 67.7086 40.3059Z" fill="url(#paint6_linear_5594_126)"/>
<path d="M81.9275 54.4891L87.7533 25.3887L95.2715 25L89.3651 54.4891H81.9275Z" fill="url(#paint7_linear_5594_126)"/>
<path d="M131.32 54.9671C124.642 54.9671 120.808 51.3685 120.808 45.1041C120.808 41.5166 122.178 37.9179 124.55 35.2411C127.175 32.2867 130.825 30.665 134.855 30.665C139.921 30.665 143.329 33.4973 143.329 37.7069C143.329 43.0604 138.666 45.6595 129.098 45.6595C128.73 45.6595 128.338 45.6484 127.947 45.6484C127.993 46.2704 128.223 47.1145 128.626 47.6476C129.501 48.7472 131.009 49.347 133.001 49.347C135.361 49.347 137.514 48.8805 139.564 47.9142L139.84 47.7809L140.37 53.1012L140.231 53.1678C136.939 54.7894 132.897 54.9671 131.32 54.9671ZM128.879 40.3059C131.504 40.3059 133.358 40.106 134.567 39.695C135.776 39.273 136.34 38.6621 136.34 37.7624C136.34 36.685 135.442 36.0075 133.991 36.0075C131.101 36.0075 129.271 38.1289 128.684 40.3059C128.753 40.3059 128.879 40.3059 128.879 40.3059Z" fill="url(#paint8_linear_5594_126)"/>
<path d="M103.17 55C97.5858 55 94.5002 52.6453 94.5002 48.3802C94.5002 46.8808 94.7766 45.4147 95.0414 44.1707L98.7717 25.3887L106.267 25L104.644 33.508C106.44 31.6975 108.984 30.6646 111.713 30.6646C116.825 30.6646 119.116 34.7631 119.116 38.8393C119.116 42.8378 117.688 46.8252 115.201 49.7464C113.163 52.1455 109.422 55 103.17 55ZM108.454 36.518C105.922 36.518 103.619 39.1059 102.847 42.8156L102.41 44.6816C102.398 44.8482 102.364 45.037 102.341 45.2369C102.237 45.8256 102.145 46.4476 102.18 47.1585C102.226 48.6357 103.112 49.4909 104.621 49.4909C108.339 49.4909 111.344 44.4372 111.344 40.2499C111.344 37.9063 110.262 36.518 108.454 36.518Z" fill="url(#paint9_linear_5594_126)"/>
<path d="M150.663 55C146.667 55 144.284 53.0896 144.284 49.8686C144.284 48.6024 144.422 47.314 144.768 45.5702L146.564 36.6846L147.669 31.1533L148.843 25.3332L156.166 25L154.957 31.1755H160L158.895 36.7068H153.852L152.286 44.3151C152.136 45.0037 151.895 46.3032 151.895 47.1807C151.895 48.358 152.447 48.88 153.668 48.88C154.301 48.88 154.957 48.88 155.579 48.7912L155.878 48.7468L154.98 54.4446L154.865 54.4891C153.886 54.8445 152.056 55 150.663 55Z" fill="url(#paint10_linear_5594_126)"/>
<defs>
<linearGradient id="paint0_linear_5594_126" x1="-4.39292" y1="16.3338" x2="15.6833" y2="46.7653" gradientUnits="userSpaceOnUse">
<stop stop-color="#AD1A1F"/>
<stop offset="0.702" stop-color="#CC1A20"/>
<stop offset="1" stop-color="#EC1A22"/>
</linearGradient>
<linearGradient id="paint1_linear_5594_126" x1="15.0809" y1="65.4366" x2="15.4749" y2="28.6059" gradientUnits="userSpaceOnUse">
<stop stop-color="#AD1A1F"/>
<stop offset="0.702" stop-color="#CC1A20"/>
<stop offset="1" stop-color="#EC1A22"/>
</linearGradient>
<linearGradient id="paint2_linear_5594_126" x1="37.4993" y1="48.1944" x2="-6.71814" y2="12.2964" gradientUnits="userSpaceOnUse">
<stop stop-color="#AD1A1F"/>
<stop offset="0.702" stop-color="#CC1A20"/>
<stop offset="1" stop-color="#EC1A22"/>
</linearGradient>
<linearGradient id="paint3_linear_5594_126" x1="29.8827" y1="14.5657" x2="46.3635" y2="46.9713" gradientUnits="userSpaceOnUse">
<stop stop-color="#AD1A1F"/>
<stop offset="0.702" stop-color="#CC1A20"/>
<stop offset="1" stop-color="#EC1A22"/>
</linearGradient>
<linearGradient id="paint4_linear_5594_126" x1="41.1925" y1="57.2316" x2="33.7386" y2="32.7018" gradientUnits="userSpaceOnUse">
<stop stop-color="#AD1A1F"/>
<stop offset="0.702" stop-color="#CC1A20"/>
<stop offset="1" stop-color="#EC1A22"/>
</linearGradient>
<linearGradient id="paint5_linear_5594_126" x1="72.8701" y1="63.7859" x2="49.4273" y2="39.4265" gradientUnits="userSpaceOnUse">
<stop stop-color="#AD1A1F"/>
<stop offset="0.702" stop-color="#CC1A20"/>
<stop offset="1" stop-color="#EC1A22"/>
</linearGradient>
<linearGradient id="paint6_linear_5594_126" x1="70.8982" y1="55.1135" x2="70.8982" y2="24.5219" gradientUnits="userSpaceOnUse">
<stop stop-color="#AD1A1F"/>
<stop offset="0.702" stop-color="#CC1A20"/>
<stop offset="1" stop-color="#EC1A22"/>
</linearGradient>
<linearGradient id="paint7_linear_5594_126" x1="88.6007" y1="55.113" x2="88.6007" y2="24.5214" gradientUnits="userSpaceOnUse">
<stop stop-color="#AD1A1F"/>
<stop offset="0.702" stop-color="#CC1A20"/>
<stop offset="1" stop-color="#EC1A22"/>
</linearGradient>
<linearGradient id="paint8_linear_5594_126" x1="132.072" y1="55.1135" x2="132.072" y2="24.5219" gradientUnits="userSpaceOnUse">
<stop stop-color="#077837"/>
<stop offset="0.702" stop-color="#12903F"/>
<stop offset="1" stop-color="#1DA848"/>
</linearGradient>
<linearGradient id="paint9_linear_5594_126" x1="106.805" y1="55.113" x2="106.805" y2="24.5214" gradientUnits="userSpaceOnUse">
<stop stop-color="#077837"/>
<stop offset="0.702" stop-color="#12903F"/>
<stop offset="1" stop-color="#1DA848"/>
</linearGradient>
<linearGradient id="paint10_linear_5594_126" x1="152.141" y1="55.113" x2="152.141" y2="24.5214" gradientUnits="userSpaceOnUse">
<stop stop-color="#077837"/>
<stop offset="0.702" stop-color="#12903F"/>
<stop offset="1" stop-color="#1DA848"/>
</linearGradient>
</defs>
</svg>
