<svg width="121" height="26" viewBox="0 0 121 26" fill="none" xmlns="http://www.w3.org/2000/svg">
<g clip-path="url(#clip0_102_35)">
<path d="M24.984 16.024C23.3084 22.9362 16.5011 27.1428 9.77929 25.4191C3.06019 23.6958 -1.03016 16.6946 0.646279 9.78284C2.32115 2.86988 9.12843 -1.33717 15.8483 0.38609C22.5698 2.10941 26.6597 9.11148 24.984 16.024Z" fill="#F7931A"/>
<path d="M18.3467 11.0646C18.5965 9.34774 17.3254 8.42483 15.5874 7.80913L16.1512 5.48341L14.7747 5.13066L14.2258 7.39506C13.8639 7.30226 13.4922 7.21479 13.1229 7.12814L13.6757 4.84879L12.3 4.49597L11.7358 6.82087C11.4363 6.75067 11.1422 6.68137 10.8568 6.60837L10.8584 6.60113L8.96003 6.11366L8.59389 7.62565C8.59389 7.62565 9.61517 7.86635 9.59362 7.8813C10.1511 8.02442 10.2519 8.40387 10.235 8.70466L9.59286 11.3541C9.63124 11.3642 9.68104 11.3787 9.73594 11.4013C9.69005 11.3896 9.64108 11.3767 9.59046 11.3642L8.69033 15.0757C8.62213 15.2498 8.44924 15.5112 8.05952 15.4119C8.07319 15.4325 7.05897 15.1551 7.05897 15.1551L6.37561 16.7756L8.16692 17.2348C8.50016 17.3207 8.82672 17.4107 9.14824 17.4953L8.57857 19.8476L9.95352 20.2004L10.5177 17.8731C10.8933 17.978 11.2579 18.0747 11.6147 18.1659L11.0525 20.4823L12.429 20.8351L12.9987 18.4872C15.3459 18.944 17.111 18.7598 17.8539 16.5764C18.4526 14.8184 17.8241 13.8044 16.5891 13.1431C17.4885 12.9299 18.166 12.3214 18.3467 11.0646ZM15.2016 15.6003C14.7762 17.3582 11.8981 16.4079 10.965 16.1696L11.7209 13.0532C12.654 13.2927 15.6462 13.7669 15.2016 15.6003ZM15.6274 11.0392C15.2393 12.6383 12.8438 11.8259 12.0667 11.6267L12.752 8.80018C13.5291 8.99937 16.0316 9.37117 15.6274 11.0392Z" fill="white"/>
<path d="M37.036 7.80667C38.0535 7.80667 38.9324 7.99418 39.6711 8.36229C40.4133 8.73409 41.0256 9.23487 41.5169 9.86465C42.0014 10.4977 42.3622 11.2375 42.595 12.0855C42.8263 12.9359 42.9424 13.8499 42.9424 14.8285C42.9424 16.3317 42.6746 17.7517 42.134 19.0904C41.5933 20.4311 40.8598 21.5939 39.9267 22.5858C38.9944 23.5765 37.8935 24.3575 36.624 24.9345C35.3564 25.5119 33.9784 25.8006 32.4988 25.8006C32.3075 25.8006 31.9711 25.7949 31.4959 25.7848C31.0207 25.7748 30.4746 25.7243 29.863 25.6392C29.2475 25.5509 28.5966 25.4203 27.9093 25.2453C27.2225 25.0736 26.57 24.8329 25.9557 24.5272L31.4492 0.788075L36.3695 0.00384521L34.4026 8.42804C34.8236 8.23289 35.2478 8.08171 35.6713 7.97157C36.0951 7.86314 36.5499 7.80667 37.036 7.80667ZM32.9088 21.7862C33.6498 21.7862 34.3481 21.5987 35.004 21.2306C35.6619 20.8621 36.2296 20.3645 36.7052 19.7448C37.1807 19.1222 37.5571 18.4211 37.8315 17.6376C38.106 16.8542 38.2448 16.0369 38.2448 15.1865C38.2448 14.1419 38.075 13.327 37.7367 12.7379C37.3983 12.1512 36.7722 11.8561 35.863 11.8561C35.565 11.8561 35.1812 11.9146 34.7053 12.019C34.2278 12.1299 33.8004 12.3601 33.4174 12.7064L31.323 21.6527C31.4493 21.6757 31.5609 21.6975 31.6562 21.7181C31.7495 21.7403 31.8526 21.756 31.9554 21.7669C32.064 21.7794 32.1883 21.7858 32.3384 21.7858C32.4886 21.7858 32.6764 21.7862 32.9088 21.7862Z" fill="white"/>
<path d="M48.045 25.3462H43.3453L47.3142 8.17082H52.0459L48.045 25.3462ZM50.3318 6.07815C49.6759 6.07815 49.0812 5.8774 48.5535 5.47494C48.0215 5.07501 47.758 4.4593 47.758 3.62953C47.758 3.17306 47.8482 2.74486 48.0269 2.34083C48.2085 1.93762 48.4456 1.59047 48.7428 1.29535C49.0396 1.00262 49.3835 0.768748 49.774 0.592578C50.1668 0.41914 50.5847 0.332489 51.0301 0.332489C51.6856 0.332489 52.2772 0.533309 52.8069 0.9357C53.3346 1.34007 53.6 1.95578 53.6 2.78118C53.6 3.23922 53.5103 3.669 53.3299 4.07221C53.1508 4.47542 52.9136 4.82257 52.6164 5.11775C52.3219 5.41082 51.975 5.64387 51.5853 5.81847C51.192 5.99471 50.7756 6.07815 50.3318 6.07815Z" fill="white"/>
<path d="M56.1646 3.89159L61.0869 3.10736L59.8782 8.16999H65.1498L64.1979 12.1529H58.958L57.5623 18.1606C57.4337 18.6614 57.3608 19.1291 57.3404 19.5637C57.3172 20.0004 57.3709 20.3754 57.498 20.6912C57.6243 21.0077 57.8512 21.2516 58.1806 21.4242C58.5083 21.5995 58.9776 21.6879 59.5932 21.6879C60.1001 21.6879 60.5941 21.6382 61.0716 21.5399C61.5464 21.4431 62.0275 21.3084 62.5144 21.1323L62.8649 24.8562C62.2297 25.0958 61.5421 25.3018 60.8011 25.4752C60.0589 25.651 59.1803 25.7356 58.1649 25.7356C56.7048 25.7356 55.573 25.5127 54.7665 25.0687C53.9613 24.6216 53.392 24.0107 53.0513 23.2374C52.7153 22.4669 52.5651 21.5786 52.6071 20.5778C52.6506 19.5747 52.7977 18.5203 53.0513 17.4098L56.1646 3.89159Z" fill="white"/>
<path d="M64.9427 18.4876C64.9427 17.0083 65.1756 15.6132 65.641 14.3072C66.1055 13 66.7748 11.8569 67.6432 10.8759C68.5085 9.89975 69.5627 9.12637 70.8036 8.55867C72.0385 7.99417 73.4214 7.7095 74.9452 7.7095C75.8994 7.7095 76.7511 7.8023 77.5006 7.98817C78.2532 8.17567 78.9344 8.41794 79.5502 8.722L77.9295 12.5121C77.5059 12.3355 77.0665 12.1798 76.6121 12.0388C76.1577 11.8948 75.6023 11.8255 74.9457 11.8255C73.3771 11.8255 72.137 12.3815 71.2141 13.4899C70.2947 14.5991 69.8316 16.0922 69.8316 17.965C69.8316 19.0751 70.0645 19.9726 70.5319 20.6593C70.9969 21.3459 71.8559 21.6874 73.103 21.6874C73.7186 21.6874 74.3125 21.6213 74.8814 21.4923C75.4545 21.3616 75.961 21.1972 76.4063 21.0028L76.7571 24.8881C76.163 25.1252 75.5075 25.3393 74.7884 25.5268C74.0679 25.7078 73.21 25.8017 72.2154 25.8017C70.9023 25.8017 69.7909 25.6042 68.8817 25.2151C67.9721 24.82 67.2205 24.2954 66.6286 23.6309C66.0334 22.9648 65.6061 22.1871 65.3419 21.2943C65.0776 20.4024 64.9427 19.4654 64.9427 18.4876Z" fill="white"/>
<path d="M85.82 25.8017C84.6979 25.8017 83.7238 25.626 82.8969 25.278C82.073 24.93 81.3903 24.4418 80.8511 23.8087C80.3103 23.1789 79.9055 22.4326 79.6284 21.5725C79.3512 20.7129 79.2175 19.761 79.2175 18.7179C79.2175 17.4094 79.4218 16.1015 79.8349 14.7971C80.2457 13.4899 80.8556 12.3153 81.6622 11.2715C82.4628 10.2259 83.4505 9.37117 84.6131 8.70466C85.775 8.04259 87.1111 7.7095 88.6117 7.7095C89.7135 7.7095 90.6823 7.88574 91.5205 8.23371C92.3542 8.58086 93.0406 9.07318 93.5836 9.70295C94.1214 10.336 94.5292 11.0791 94.8033 11.9404C95.0797 12.7984 95.2164 13.7527 95.2164 14.7967C95.2164 16.1011 95.0151 17.409 94.6148 18.7175C94.2145 20.0194 93.6212 21.1967 92.8371 22.243C92.0545 23.2869 91.0759 24.1414 89.9005 24.805C88.7266 25.4687 87.3649 25.8017 85.82 25.8017ZM88.1686 11.8259C87.4716 11.8259 86.8557 12.0339 86.3285 12.4448C85.799 12.8605 85.3544 13.3831 84.9961 14.0132C84.6341 14.6463 84.3652 15.3366 84.1842 16.0869C84.004 16.8389 83.9161 17.5498 83.9161 18.2251C83.9161 19.315 84.0866 20.1638 84.4231 20.7746C84.7633 21.3822 85.3754 21.6878 86.2654 21.6878C86.9639 21.6878 87.5767 21.4814 88.107 21.0661C88.6335 20.6536 89.0788 20.1306 89.4393 19.4992C89.7991 18.8695 90.0702 18.1771 90.252 17.4255C90.4292 16.676 90.5201 15.9612 90.5201 15.287C90.5201 14.1999 90.3496 13.3492 90.0109 12.7391C89.6722 12.1315 89.057 11.8259 88.1686 11.8259Z" fill="white"/>
<path d="M100.338 25.3462H95.634L99.6033 8.17082H104.337L100.338 25.3462ZM102.621 6.07815C101.965 6.07815 101.371 5.8774 100.844 5.47494C100.315 5.07501 100.049 4.4593 100.049 3.62953C100.049 3.17306 100.14 2.74486 100.32 2.34083C100.499 1.93762 100.737 1.59047 101.035 1.29535C101.33 1.00262 101.677 0.768748 102.067 0.592578C102.457 0.41914 102.875 0.332489 103.319 0.332489C103.976 0.332489 104.569 0.533309 105.098 0.9357C105.627 1.34007 105.894 1.95578 105.894 2.78118C105.894 3.23922 105.8 3.669 105.622 4.07221C105.444 4.47542 105.205 4.82257 104.91 5.11775C104.611 5.41082 104.269 5.64387 103.878 5.81847C103.485 5.99471 103.067 6.07815 102.621 6.07815Z" fill="white"/>
<path d="M107.724 8.95177C108.08 8.84456 108.479 8.71551 108.913 8.57519C109.347 8.43486 109.833 8.30424 110.376 8.18652C110.912 8.06518 111.518 7.96679 112.184 7.89058C112.85 7.81274 113.609 7.77484 114.452 7.77484C116.931 7.77484 118.639 8.51714 119.583 9.99731C120.525 11.4775 120.688 13.5032 120.077 16.0708L117.915 25.3445H113.185L115.28 16.266C115.408 15.6991 115.508 15.1511 115.582 14.6156C115.657 14.085 115.652 13.6173 115.565 13.2125C115.481 12.8125 115.284 12.4851 114.98 12.2315C114.669 11.9819 114.201 11.8565 113.565 11.8565C112.952 11.8565 112.329 11.9243 111.693 12.0549L108.612 25.3441H103.88L107.724 8.95177Z" fill="white"/>
</g>
<defs>
<clipPath id="clip0_102_35">
<rect width="120.168" height="25.8054" fill="white" transform="translate(0.270508)"/>
</clipPath>
</defs>
</svg>
