<svg width="160" height="80" viewBox="0 0 160 80" fill="none" xmlns="http://www.w3.org/2000/svg">
<path d="M0.000198364 40.0849C0.000198364 45.695 2.47103 50.7457 6.37325 54.2033H6.39029C20.2781 54.2033 31.5246 43.0171 31.5246 29.2038C31.5246 28.0004 31.4394 26.831 31.269 25.6784C27.9632 22.8819 23.6691 21.187 18.983 21.187C8.52032 21.187 0.000198364 29.6614 0.000198364 40.0849Z" fill="url(#paint0_linear_1551:1460)"/>
<path d="M22.6467 48.2711C18.3526 51.966 12.7123 54.1862 6.37332 54.2201C10.2074 57.5421 14.6719 58.9997 19.0001 58.9997C21.5221 58.9997 23.9248 58.5082 26.14 57.6099C33.0413 55.0167 36.1085 48.3389 36.1085 48.3389C36.8242 46.8813 37.3525 45.339 37.6592 43.6949C37.8126 42.8983 37.8296 42.5933 37.8296 42.5933C37.9318 41.7797 38 40.9662 38 40.1357C38 34.8646 35.6484 29.2885 31.2691 25.6953C31.3543 26.5089 31.5247 28.3393 31.5247 29.2207C31.5247 33.8816 30.383 37.8137 28.2189 41.5763C28.2189 41.5763 26.1741 45.4576 22.6467 48.2711Z" fill="url(#paint1_linear_1551:1460)"/>
<g opacity="0.59">
<path opacity="0.59" d="M37.8126 42.5424L29.7866 44.2542L35.2906 35.9663C35.3247 35.9324 35.3076 35.8646 35.2736 35.8476C35.2395 35.8137 35.1884 35.8137 35.1543 35.8476L29.0368 42.0001C31.2009 38.2205 32.4449 33.8477 32.4449 29.2037C32.4449 28.3393 32.4108 27.5258 32.3256 26.6783C31.9848 26.3394 31.627 26.0004 31.2691 25.6953C31.4395 26.8478 31.5247 28.0004 31.5247 29.1868C31.5247 33.8816 30.2126 38.2883 27.9463 42.034L27.1624 26.9834C27.1624 26.9326 27.1283 26.8987 27.0602 26.8987C27.009 26.8987 26.975 26.9326 26.9579 26.9834L25.7481 43L18.7275 35.6443C18.6934 35.6104 18.6423 35.5934 18.5912 35.6273C18.5571 35.6612 18.54 35.7121 18.5741 35.746L23.9248 44.1526L9.69617 40.7628C9.64505 40.7628 9.59393 40.7797 9.57689 40.8306C9.55985 40.8814 9.59393 40.9323 9.62801 40.9492L23.2091 46.1186L9.54281 50.949C9.49168 50.966 9.47464 51.0168 9.47464 51.0677C9.49168 51.1185 9.54281 51.1524 9.59393 51.1355L22.5445 48.3728C18.1822 52.0168 12.5419 54.2201 6.39036 54.2201H6.37332C6.73117 54.5252 7.08901 54.8303 7.4639 55.1184C13.5302 54.8642 19.0683 52.5592 23.3795 48.8474L18.4208 56.3048C18.4037 56.3387 18.4037 56.4065 18.4378 56.4235C18.4719 56.4574 18.54 56.4574 18.5741 56.4235L25.6799 49.2711L26.123 57.593C26.5319 57.4235 26.9409 57.254 27.3499 57.0506L27.9292 49.288L32.1382 53.7117C32.3767 53.4913 32.6153 53.2541 32.8368 53.0168L29.7525 48.1355L35.461 49.4914C35.6825 49.1186 35.887 48.7287 36.0915 48.322L30.4853 46.2034L37.6422 43.678C37.7103 43.3051 37.7614 42.9322 37.8126 42.5424Z" fill="white"/>
</g>
<g style="mix-blend-mode:screen">
<mask id="mask0_1551:1460" style="mask-type:alpha" maskUnits="userSpaceOnUse" x="0" y="21" width="38" height="38">
<ellipse cx="18.9999" cy="39.9544" rx="18.9999" ry="18.9544" fill="#C4C4C4"/>
</mask>
<g mask="url(#mask0_1551:1460)">
<mask id="mask1_1551:1460" style="mask-type:alpha" maskUnits="userSpaceOnUse" x="13" y="23" width="15" height="14">
<path d="M20.3804 29.6109C24.2656 33.0854 27.2476 36.0514 27.0772 36.2548C26.8898 36.4582 23.601 33.7972 19.7329 30.3397C15.8477 26.8652 12.8486 23.8991 13.0361 23.6957C13.2065 23.4924 16.4952 26.1533 20.3804 29.6109Z" fill="url(#paint2_radial_1551:1460)"/>
</mask>
<g mask="url(#mask1_1551:1460)">
<mask id="mask2_1551:1460" style="mask-type:alpha" maskUnits="userSpaceOnUse" x="13" y="23" width="15" height="14">
<path d="M20.3804 29.6109C24.2656 33.0854 27.2476 36.0514 27.0772 36.2548C26.8898 36.4582 23.601 33.7972 19.7329 30.3397C15.8477 26.8652 12.8486 23.8991 13.0361 23.6957C13.2065 23.4924 16.4952 26.1533 20.3804 29.6109Z" fill="url(#paint3_radial_1551:1460)"/>
</mask>
<g mask="url(#mask2_1551:1460)">
<mask id="mask3_1551:1460" style="mask-type:alpha" maskUnits="userSpaceOnUse" x="13" y="23" width="15" height="14">
<path d="M20.3804 29.6109C24.2656 33.0854 27.2476 36.0514 27.0772 36.2548C26.8898 36.4582 23.601 33.7972 19.7329 30.3397C15.8477 26.8652 12.8486 23.8991 13.0361 23.6957C13.2065 23.4924 16.4952 26.1533 20.3804 29.6109Z" fill="url(#paint4_radial_1551:1460)"/>
</mask>
<g mask="url(#mask3_1551:1460)">
<path d="M20.3804 29.6109C24.2656 33.0854 27.2476 36.0514 27.0772 36.2548C26.8898 36.4582 23.601 33.7972 19.7329 30.3397C15.8477 26.8652 12.8486 23.8991 13.0361 23.6957C13.2065 23.4924 16.4952 26.1533 20.3804 29.6109Z" fill="url(#paint5_radial_1551:1460)"/>
</g>
</g>
</g>
<mask id="mask4_1551:1460" style="mask-type:alpha" maskUnits="userSpaceOnUse" x="13" y="22" width="14" height="16">
<path d="M20.619 30.4922C17.0405 34.4582 13.9733 37.526 13.7858 37.3565C13.5984 37.187 16.3419 33.8311 19.9203 29.8651C23.4988 25.8991 26.566 22.8314 26.7705 23.0008C26.9579 23.1703 24.2145 26.5262 20.619 30.4922Z" fill="url(#paint6_radial_1551:1460)"/>
</mask>
<g mask="url(#mask4_1551:1460)">
<mask id="mask5_1551:1460" style="mask-type:alpha" maskUnits="userSpaceOnUse" x="13" y="22" width="14" height="16">
<path d="M20.619 30.4922C17.0405 34.4582 13.9733 37.526 13.7858 37.3565C13.5984 37.187 16.3419 33.8311 19.9203 29.8651C23.4988 25.8991 26.566 22.8314 26.7705 23.0008C26.9579 23.1703 24.2145 26.5262 20.619 30.4922Z" fill="url(#paint7_radial_1551:1460)"/>
</mask>
<g mask="url(#mask5_1551:1460)">
<mask id="mask6_1551:1460" style="mask-type:alpha" maskUnits="userSpaceOnUse" x="13" y="22" width="14" height="16">
<path d="M20.619 30.4922C17.0405 34.4582 13.9733 37.526 13.7858 37.3565C13.5984 37.187 16.3419 33.8311 19.9203 29.8651C23.4988 25.8991 26.566 22.8314 26.7705 23.0008C26.9579 23.1703 24.2145 26.5262 20.619 30.4922Z" fill="url(#paint8_radial_1551:1460)"/>
</mask>
<g mask="url(#mask6_1551:1460)">
<path d="M20.619 30.4922C17.0405 34.4582 13.9733 37.526 13.7858 37.3565C13.5984 37.187 16.3419 33.8311 19.9203 29.8651C23.4988 25.8991 26.566 22.8314 26.7705 23.0008C26.9579 23.1703 24.2145 26.5262 20.619 30.4922Z" fill="url(#paint9_radial_1551:1460)"/>
</g>
</g>
</g>
<mask id="mask7_1551:1460" style="mask-type:alpha" maskUnits="userSpaceOnUse" x="19" y="20" width="3" height="20">
<path d="M21.1814 30.1871C21.3859 35.4413 21.1473 39.7293 20.6361 39.7632C20.1249 39.7971 19.5455 35.5599 19.341 30.3058C19.1366 25.0516 19.3751 20.7636 19.8863 20.7297C20.3975 20.6958 20.9769 24.933 21.1814 30.1871Z" fill="url(#paint10_radial_1551:1460)"/>
</mask>
<g mask="url(#mask7_1551:1460)">
<mask id="mask8_1551:1460" style="mask-type:alpha" maskUnits="userSpaceOnUse" x="19" y="20" width="3" height="20">
<path d="M21.1814 30.1871C21.3859 35.4413 21.1473 39.7293 20.6361 39.7632C20.1249 39.7971 19.5455 35.5599 19.341 30.3058C19.1366 25.0516 19.3751 20.7636 19.8863 20.7297C20.3975 20.6958 20.9769 24.933 21.1814 30.1871Z" fill="url(#paint11_radial_1551:1460)"/>
</mask>
<g mask="url(#mask8_1551:1460)">
<mask id="mask9_1551:1460" style="mask-type:alpha" maskUnits="userSpaceOnUse" x="19" y="20" width="3" height="20">
<path d="M21.1814 30.1871C21.3859 35.4413 21.1473 39.7293 20.6361 39.7632C20.1249 39.7971 19.5455 35.5599 19.341 30.3058C19.1366 25.0516 19.3751 20.7636 19.8863 20.7297C20.3975 20.6958 20.9769 24.933 21.1814 30.1871Z" fill="url(#paint12_radial_1551:1460)"/>
</mask>
<g mask="url(#mask9_1551:1460)">
<path d="M21.1814 30.1871C21.3859 35.4413 21.1473 39.7293 20.6361 39.7632C20.1249 39.7971 19.5455 35.5599 19.341 30.3058C19.1366 25.0516 19.3751 20.7636 19.8863 20.7297C20.3975 20.6958 20.9769 24.933 21.1814 30.1871Z" fill="url(#paint13_radial_1551:1460)"/>
</g>
</g>
</g>
<mask id="mask10_1551:1460" style="mask-type:alpha" maskUnits="userSpaceOnUse" x="10" y="29" width="20" height="3">
<path d="M20.2782 30.9161C14.9957 31.272 10.7186 31.2381 10.7016 30.8483C10.6845 30.4585 14.9446 29.8483 20.2271 29.4924C25.5096 29.1365 29.7867 29.1704 29.8037 29.5602C29.8207 29.967 25.5607 30.5602 20.2782 30.9161Z" fill="url(#paint14_radial_1551:1460)"/>
</mask>
<g mask="url(#mask10_1551:1460)">
<mask id="mask11_1551:1460" style="mask-type:alpha" maskUnits="userSpaceOnUse" x="10" y="29" width="20" height="3">
<path d="M20.2782 30.9161C14.9957 31.272 10.7186 31.2381 10.7016 30.8483C10.6845 30.4585 14.9446 29.8483 20.2271 29.4924C25.5096 29.1365 29.7867 29.1704 29.8037 29.5602C29.8207 29.967 25.5607 30.5602 20.2782 30.9161Z" fill="url(#paint15_radial_1551:1460)"/>
</mask>
<g mask="url(#mask11_1551:1460)">
<mask id="mask12_1551:1460" style="mask-type:alpha" maskUnits="userSpaceOnUse" x="10" y="29" width="20" height="3">
<path d="M20.2782 30.9161C14.9957 31.272 10.7186 31.2381 10.7016 30.8483C10.6845 30.4585 14.9446 29.8483 20.2271 29.4924C25.5096 29.1365 29.7867 29.1704 29.8037 29.5602C29.8207 29.967 25.5607 30.5602 20.2782 30.9161Z" fill="url(#paint16_radial_1551:1460)"/>
</mask>
<g mask="url(#mask12_1551:1460)">
<path d="M20.2782 30.9161C14.9957 31.272 10.7186 31.2381 10.7016 30.8483C10.6845 30.4585 14.9446 29.8483 20.2271 29.4924C25.5096 29.1365 29.7867 29.1704 29.8037 29.5602C29.8207 29.967 25.5607 30.5602 20.2782 30.9161Z" fill="url(#paint17_radial_1551:1460)"/>
</g>
</g>
</g>
<mask id="mask13_1551:1460" style="mask-type:alpha" maskUnits="userSpaceOnUse" x="15" y="22" width="10" height="17">
<path d="M20.1761 29.9327C22.7662 34.4411 24.6747 38.1867 24.4361 38.3223C24.1976 38.4579 21.9142 34.9156 19.3241 30.4072C16.7339 25.9158 14.8254 22.1701 15.064 22.0345C15.3026 21.8989 17.5859 25.4412 20.1761 29.9327Z" fill="url(#paint18_radial_1551:1460)"/>
</mask>
<g mask="url(#mask13_1551:1460)">
<mask id="mask14_1551:1460" style="mask-type:alpha" maskUnits="userSpaceOnUse" x="15" y="22" width="10" height="17">
<path d="M20.1761 29.9327C22.7662 34.4411 24.6747 38.1867 24.4361 38.3223C24.1976 38.4579 21.9142 34.9156 19.3241 30.4072C16.7339 25.9158 14.8254 22.1701 15.064 22.0345C15.3026 21.8989 17.5859 25.4412 20.1761 29.9327Z" fill="url(#paint19_radial_1551:1460)"/>
</mask>
<g mask="url(#mask14_1551:1460)">
<mask id="mask15_1551:1460" style="mask-type:alpha" maskUnits="userSpaceOnUse" x="15" y="22" width="10" height="17">
<path d="M20.1761 29.9327C22.7662 34.4411 24.6747 38.1867 24.4361 38.3223C24.1976 38.4579 21.9142 34.9156 19.3241 30.4072C16.7339 25.9158 14.8254 22.1701 15.064 22.0345C15.3026 21.8989 17.5859 25.4412 20.1761 29.9327Z" fill="url(#paint20_radial_1551:1460)"/>
</mask>
<g mask="url(#mask15_1551:1460)">
<path d="M20.1761 29.9327C22.7662 34.4411 24.6747 38.1867 24.4361 38.3223C24.1976 38.4579 21.9142 34.9156 19.3241 30.4072C16.7339 25.9158 14.8254 22.1701 15.064 22.0345C15.3026 21.8989 17.5859 25.4412 20.1761 29.9327Z" fill="url(#paint21_radial_1551:1460)"/>
</g>
</g>
</g>
<mask id="mask16_1551:1460" style="mask-type:alpha" maskUnits="userSpaceOnUse" x="11" y="25" width="18" height="11">
<path d="M20.1419 30.8473C15.4899 33.4913 11.6047 35.4574 11.4854 35.2371C11.3491 35.0167 15.0298 32.6778 19.6818 30.0338C24.3338 27.3898 28.2189 25.4237 28.3382 25.644C28.4575 25.8644 24.7938 28.2033 20.1419 30.8473Z" fill="url(#paint22_radial_1551:1460)"/>
</mask>
<g mask="url(#mask16_1551:1460)">
<mask id="mask17_1551:1460" style="mask-type:alpha" maskUnits="userSpaceOnUse" x="11" y="25" width="18" height="11">
<path d="M20.1419 30.8473C15.4899 33.4913 11.6047 35.4574 11.4854 35.2371C11.3491 35.0167 15.0298 32.6778 19.6818 30.0338C24.3338 27.3898 28.2189 25.4237 28.3382 25.644C28.4575 25.8644 24.7938 28.2033 20.1419 30.8473Z" fill="url(#paint23_radial_1551:1460)"/>
</mask>
<g mask="url(#mask17_1551:1460)">
<mask id="mask18_1551:1460" style="mask-type:alpha" maskUnits="userSpaceOnUse" x="11" y="25" width="18" height="11">
<path d="M20.1419 30.8473C15.4899 33.4913 11.6047 35.4574 11.4854 35.2371C11.3491 35.0167 15.0298 32.6778 19.6818 30.0338C24.3338 27.3898 28.2189 25.4237 28.3382 25.644C28.4575 25.8644 24.7938 28.2033 20.1419 30.8473Z" fill="url(#paint24_radial_1551:1460)"/>
</mask>
<g mask="url(#mask18_1551:1460)">
<path d="M20.1419 30.8473C15.4899 33.4913 11.6047 35.4574 11.4854 35.2371C11.3491 35.0167 15.0298 32.6778 19.6818 30.0338C24.3338 27.3898 28.2189 25.4237 28.3382 25.644C28.4575 25.8644 24.7938 28.2033 20.1419 30.8473Z" fill="url(#paint25_radial_1551:1460)"/>
</g>
</g>
</g>
<mask id="mask19_1551:1460" style="mask-type:alpha" maskUnits="userSpaceOnUse" x="17" y="21" width="6" height="19">
<path d="M20.7723 30.7291C19.3069 35.7799 17.7221 39.7798 17.228 39.6611C16.7338 39.5425 17.5177 35.3392 18.9831 30.2715C20.4486 25.2208 22.0333 21.2208 22.5275 21.3395C23.0046 21.4751 22.2208 25.6784 20.7723 30.7291Z" fill="url(#paint26_radial_1551:1460)"/>
</mask>
<g mask="url(#mask19_1551:1460)">
<mask id="mask20_1551:1460" style="mask-type:alpha" maskUnits="userSpaceOnUse" x="17" y="21" width="6" height="19">
<path d="M20.7723 30.7291C19.3069 35.7799 17.7221 39.7798 17.228 39.6611C16.7338 39.5425 17.5177 35.3392 18.9831 30.2715C20.4486 25.2208 22.0333 21.2208 22.5275 21.3395C23.0046 21.4751 22.2208 25.6784 20.7723 30.7291Z" fill="url(#paint27_radial_1551:1460)"/>
</mask>
<g mask="url(#mask20_1551:1460)">
<mask id="mask21_1551:1460" style="mask-type:alpha" maskUnits="userSpaceOnUse" x="17" y="21" width="6" height="19">
<path d="M20.7723 30.7291C19.3069 35.7799 17.7221 39.7798 17.228 39.6611C16.7338 39.5425 17.5177 35.3392 18.9831 30.2715C20.4486 25.2208 22.0333 21.2208 22.5275 21.3395C23.0046 21.4751 22.2208 25.6784 20.7723 30.7291Z" fill="url(#paint28_radial_1551:1460)"/>
</mask>
<g mask="url(#mask21_1551:1460)">
<path d="M20.7723 30.7291C19.3069 35.7799 17.7221 39.7798 17.228 39.6611C16.7338 39.5425 17.5177 35.3392 18.9831 30.2715C20.4486 25.2208 22.0333 21.2208 22.5275 21.3395C23.0046 21.4751 22.2208 25.6784 20.7723 30.7291Z" fill="url(#paint29_radial_1551:1460)"/>
</g>
</g>
</g>
<mask id="mask22_1551:1460" style="mask-type:alpha" maskUnits="userSpaceOnUse" x="10" y="28" width="20" height="5">
<path d="M19.6818 31.1526C14.5527 29.8476 10.4971 28.4747 10.5993 28.1018C10.7016 27.729 14.9446 28.4747 20.0737 29.7798C25.2028 31.0848 29.2584 32.4577 29.1562 32.8306C29.0539 33.2204 24.8109 32.4577 19.6818 31.1526Z" fill="url(#paint30_radial_1551:1460)"/>
</mask>
<g mask="url(#mask22_1551:1460)">
<mask id="mask23_1551:1460" style="mask-type:alpha" maskUnits="userSpaceOnUse" x="10" y="28" width="20" height="5">
<path d="M19.6818 31.1526C14.5527 29.8476 10.4971 28.4747 10.5993 28.1018C10.7016 27.729 14.9446 28.4747 20.0737 29.7798C25.2028 31.0848 29.2584 32.4577 29.1562 32.8306C29.0539 33.2204 24.8109 32.4577 19.6818 31.1526Z" fill="url(#paint31_radial_1551:1460)"/>
</mask>
<g mask="url(#mask23_1551:1460)">
<mask id="mask24_1551:1460" style="mask-type:alpha" maskUnits="userSpaceOnUse" x="10" y="28" width="20" height="5">
<path d="M19.6818 31.1526C14.5527 29.8476 10.4971 28.4747 10.5993 28.1018C10.7016 27.729 14.9446 28.4747 20.0737 29.7798C25.2028 31.0848 29.2584 32.4577 29.1562 32.8306C29.0539 33.2204 24.8109 32.4577 19.6818 31.1526Z" fill="url(#paint32_radial_1551:1460)"/>
</mask>
<g mask="url(#mask24_1551:1460)">
<path d="M19.6818 31.1526C14.5527 29.8476 10.4971 28.4747 10.5993 28.1018C10.7016 27.729 14.9446 28.4747 20.0737 29.7798C25.2028 31.0848 29.2584 32.4577 29.1562 32.8306C29.0539 33.2204 24.8109 32.4577 19.6818 31.1526Z" fill="url(#paint33_radial_1551:1460)"/>
</g>
</g>
</g>
<mask id="mask25_1551:1460" style="mask-type:alpha" maskUnits="userSpaceOnUse" x="14" y="24" width="12" height="12">
<path d="M20.3293 35.3224C23.322 35.3224 25.7481 32.9093 25.7481 29.9327C25.7481 26.956 23.322 24.543 20.3293 24.543C17.3365 24.543 14.9105 26.956 14.9105 29.9327C14.9105 32.9093 17.3365 35.3224 20.3293 35.3224Z" fill="url(#paint34_radial_1551:1460)"/>
</mask>
<g mask="url(#mask25_1551:1460)">
<path opacity="0.76" d="M20.3293 35.3224C23.322 35.3224 25.7481 32.9093 25.7481 29.9327C25.7481 26.956 23.322 24.543 20.3293 24.543C17.3365 24.543 14.9105 26.956 14.9105 29.9327C14.9105 32.9093 17.3365 35.3224 20.3293 35.3224Z" fill="url(#paint35_radial_1551:1460)"/>
</g>
<mask id="mask26_1551:1460" style="mask-type:alpha" maskUnits="userSpaceOnUse" x="10" y="20" width="20" height="20">
<path d="M20.1418 39.7969C25.5344 39.7969 29.9059 35.4488 29.9059 30.0852C29.9059 24.7216 25.5344 20.3735 20.1418 20.3735C14.7493 20.3735 10.3778 24.7216 10.3778 30.0852C10.3778 35.4488 14.7493 39.7969 20.1418 39.7969Z" fill="url(#paint36_radial_1551:1460)"/>
</mask>
<g mask="url(#mask26_1551:1460)">
<path opacity="0.3" d="M20.1418 39.7969C25.5344 39.7969 29.9059 35.4488 29.9059 30.0852C29.9059 24.7216 25.5344 20.3735 20.1418 20.3735C14.7493 20.3735 10.3778 24.7216 10.3778 30.0852C10.3778 35.4488 14.7493 39.7969 20.1418 39.7969Z" fill="url(#paint37_radial_1551:1460)"/>
</g>
<mask id="mask27_1551:1460" style="mask-type:alpha" maskUnits="userSpaceOnUse" x="7" y="33" width="11" height="11">
<path d="M12.508 43.9999C15.5007 43.9999 17.9267 41.5868 17.9267 38.6102C17.9267 35.6335 15.5007 33.2205 12.508 33.2205C9.51523 33.2205 7.08916 35.6335 7.08916 38.6102C7.08916 41.5868 9.51523 43.9999 12.508 43.9999Z" fill="url(#paint38_radial_1551:1460)"/>
</mask>
<g mask="url(#mask27_1551:1460)">
<path opacity="0.32" d="M12.508 43.9999C15.5007 43.9999 17.9267 41.5868 17.9267 38.6102C17.9267 35.6335 15.5007 33.2205 12.508 33.2205C9.51523 33.2205 7.08916 35.6335 7.08916 38.6102C7.08916 41.5868 9.51523 43.9999 12.508 43.9999Z" fill="url(#paint39_radial_1551:1460)"/>
</g>
<mask id="mask28_1551:1460" style="mask-type:alpha" maskUnits="userSpaceOnUse" x="0" y="33" width="19" height="19">
<path d="M9.44062 51.6608C14.4379 51.6608 18.489 47.6314 18.489 42.6609C18.489 37.6905 14.4379 33.6611 9.44062 33.6611C4.44335 33.6611 0.392258 37.6905 0.392258 42.6609C0.392258 47.6314 4.44335 51.6608 9.44062 51.6608Z" fill="url(#paint40_radial_1551:1460)"/>
</mask>
<g mask="url(#mask28_1551:1460)">
<path opacity="0.31" d="M9.44062 51.6608C14.4379 51.6608 18.489 47.6314 18.489 42.6609C18.489 37.6905 14.4379 33.6611 9.44062 33.6611C4.44335 33.6611 0.392258 37.6905 0.392258 42.6609C0.392258 47.6314 4.44335 51.6608 9.44062 51.6608Z" fill="url(#paint41_radial_1551:1460)"/>
</g>
<mask id="mask29_1551:1460" style="mask-type:alpha" maskUnits="userSpaceOnUse" x="21" y="21" width="7" height="6">
<path d="M22.1525 25.1698C22.783 26.5426 24.4189 27.1358 25.7991 26.5087C27.1794 25.8816 27.7758 24.2545 27.1453 22.8817C26.5148 21.5088 24.879 20.9156 23.4987 21.5427C22.1185 22.1698 21.522 23.7969 22.1525 25.1698Z" fill="url(#paint42_radial_1551:1460)"/>
</mask>
<g mask="url(#mask29_1551:1460)">
<path opacity="0.31" d="M22.1525 25.1698C22.783 26.5426 24.4189 27.1358 25.7991 26.5087C27.1794 25.8816 27.7758 24.2545 27.1453 22.8817C26.5148 21.5088 24.879 20.9156 23.4987 21.5427C22.1185 22.1698 21.522 23.7969 22.1525 25.1698Z" fill="url(#paint43_radial_1551:1460)"/>
</g>
<mask id="mask30_1551:1460" style="mask-type:alpha" maskUnits="userSpaceOnUse" x="26" y="19" width="4" height="4">
<path d="M26.5491 21.374C26.8729 22.0689 27.7078 22.374 28.4065 22.0519C29.1051 21.7299 29.4118 20.8994 29.0881 20.2045C28.7643 19.5096 27.9293 19.2045 27.2307 19.5266C26.532 19.8316 26.2253 20.6621 26.5491 21.374Z" fill="url(#paint44_radial_1551:1460)"/>
</mask>
<g mask="url(#mask30_1551:1460)">
<path opacity="0.31" d="M26.5491 21.374C26.8729 22.0689 27.7078 22.374 28.4065 22.0519C29.1051 21.7299 29.4118 20.8994 29.0881 20.2045C28.7643 19.5096 27.9293 19.2045 27.2307 19.5266C26.532 19.8316 26.2253 20.6621 26.5491 21.374Z" fill="url(#paint45_radial_1551:1460)"/>
</g>
<mask id="mask31_1551:1460" style="mask-type:alpha" maskUnits="userSpaceOnUse" x="11" y="32" width="8" height="9">
<path d="M11.5024 40.0341C12.1159 40.6103 14.1777 39.407 16.1203 37.3392C18.0629 35.2884 19.1535 33.1529 18.54 32.5936C17.9266 32.0173 15.8647 33.2207 13.9221 35.2884C11.9795 37.3562 10.906 39.4578 11.5024 40.0341Z" fill="url(#paint46_radial_1551:1460)"/>
</mask>
<g mask="url(#mask31_1551:1460)">
<path d="M11.5024 40.0341C12.1159 40.6103 14.1777 39.407 16.1203 37.3392C18.0629 35.2884 19.1535 33.1529 18.54 32.5936C17.9266 32.0173 15.8647 33.2207 13.9221 35.2884C11.9795 37.3562 10.906 39.4578 11.5024 40.0341Z" fill="url(#paint47_radial_1551:1460)"/>
</g>
<mask id="mask32_1551:1460" style="mask-type:alpha" maskUnits="userSpaceOnUse" x="11" y="37" width="3" height="4">
<path d="M11.5024 40.0852C11.8091 40.3733 12.5418 40.1021 13.1382 39.475C13.7346 38.8479 13.9562 38.1022 13.6494 37.814C13.3427 37.5259 12.61 37.7971 12.0136 38.4242C11.4172 39.0513 11.1786 39.7971 11.5024 40.0852Z" fill="url(#paint48_radial_1551:1460)"/>
</mask>
<g mask="url(#mask32_1551:1460)">
<path d="M11.5024 40.0852C11.8091 40.3733 12.5418 40.1021 13.1382 39.475C13.7346 38.8479 13.9562 38.1022 13.6494 37.814C13.3427 37.5259 12.61 37.7971 12.0136 38.4242C11.4172 39.0513 11.1786 39.7971 11.5024 40.0852Z" fill="url(#paint49_radial_1551:1460)"/>
</g>
<mask id="mask33_1551:1460" style="mask-type:alpha" maskUnits="userSpaceOnUse" x="6" y="39" width="7" height="7">
<path d="M6.95275 45.7122C7.19131 45.9156 8.58861 44.6953 10.0541 42.9665C11.5195 41.2377 12.5249 39.6784 12.2863 39.475C12.0478 39.2716 10.6505 40.4919 9.18502 42.2207C7.71956 43.9495 6.71418 45.5088 6.95275 45.7122Z" fill="url(#paint50_radial_1551:1460)"/>
</mask>
<g mask="url(#mask33_1551:1460)">
<path d="M6.95275 45.7122C7.19131 45.9156 8.58861 44.6953 10.0541 42.9665C11.5195 41.2377 12.5249 39.6784 12.2863 39.475C12.0478 39.2716 10.6505 40.4919 9.18502 42.2207C7.71956 43.9495 6.71418 45.5088 6.95275 45.7122Z" fill="url(#paint51_radial_1551:1460)"/>
</g>
<mask id="mask34_1551:1460" style="mask-type:alpha" maskUnits="userSpaceOnUse" x="5" y="44" width="4" height="3">
<path d="M6.16892 46.4406C6.49269 46.7456 7.15726 46.5762 7.65142 46.0507C8.14559 45.5253 8.28191 44.8643 7.94111 44.5592C7.61734 44.2542 6.95277 44.4237 6.45861 44.9491C5.96444 45.4745 5.82812 46.1355 6.16892 46.4406Z" fill="url(#paint52_radial_1551:1460)"/>
</mask>
<g mask="url(#mask34_1551:1460)">
<path d="M6.16892 46.4406C6.49269 46.7456 7.15726 46.5762 7.65142 46.0507C8.14559 45.5253 8.28191 44.8643 7.94111 44.5592C7.61734 44.2542 6.95277 44.4237 6.45861 44.9491C5.96444 45.4745 5.82812 46.1355 6.16892 46.4406Z" fill="url(#paint53_radial_1551:1460)"/>
</g>
<mask id="mask35_1551:1460" style="mask-type:alpha" maskUnits="userSpaceOnUse" x="4" y="45" width="4" height="4">
<path d="M4.20936 48.8812C4.53313 49.1693 5.47034 48.6439 6.28827 47.7117C7.1062 46.7796 7.51517 45.7965 7.1914 45.5084C6.86764 45.2203 5.93042 45.7457 5.11249 46.6779C4.27752 47.6101 3.86856 48.5931 4.20936 48.8812Z" fill="url(#paint54_radial_1551:1460)"/>
</mask>
<g mask="url(#mask35_1551:1460)">
<path d="M4.20936 48.8812C4.53313 49.1693 5.47034 48.6439 6.28827 47.7117C7.1062 46.7796 7.51517 45.7965 7.1914 45.5084C6.86764 45.2203 5.93042 45.7457 5.11249 46.6779C4.27752 47.6101 3.86856 48.5931 4.20936 48.8812Z" fill="url(#paint55_radial_1551:1460)"/>
</g>
<mask id="mask36_1551:1460" style="mask-type:alpha" maskUnits="userSpaceOnUse" x="2" y="48" width="4" height="3">
<path d="M2.91433 50.6104C3.13585 50.7969 3.76634 50.4409 4.32867 49.8138C4.891 49.1867 5.16364 48.5088 4.94212 48.3054C4.72059 48.119 4.09011 48.4749 3.52778 49.102C2.96545 49.746 2.69281 50.424 2.91433 50.6104Z" fill="url(#paint56_radial_1551:1460)"/>
</mask>
<g mask="url(#mask36_1551:1460)">
<path d="M2.91433 50.6104C3.13585 50.7969 3.76634 50.4409 4.32867 49.8138C4.891 49.1867 5.16364 48.5088 4.94212 48.3054C4.72059 48.119 4.09011 48.4749 3.52778 49.102C2.96545 49.746 2.69281 50.424 2.91433 50.6104Z" fill="url(#paint57_radial_1551:1460)"/>
</g>
</g>
</g>
<path d="M55.7 45.6V30.9C55.7 29 55.1 27.6 54 26.7C52.9 25.9 50.8 25.3 48.4 25.3C45.9 25.3 43.8 25.8 42.8 26.7C41.6 27.6 41 29 41 30.9V45.6H45.5V37.1H51.3V45.6H55.7ZM50.7 29.3C50.9 29.5 51 29.7 51.1 30C51.2 30.3 51.2 30.7 51.2 31.1V33.2H45.5V31.1C45.5 30.6 45.5 30.2 45.6 29.9C45.7 29.6 45.8 29.4 45.9 29.2C46.1 29 46.3 28.9 46.7 28.8C47.1 28.7 47.7 28.6 48.3 28.6C48.9 28.6 49.5 28.7 49.9 28.8C50.3 28.9 50.5 29.1 50.7 29.3Z" fill="white"/>
<path d="M56.8 25.3V28.6H62.6V45.6H67V28.6H72.8V25.3H56.8Z" fill="white"/>
<path d="M90.8 39.8999C90.4 38.2999 89.7 37.0999 88.5 36.2999C90.5 35.2999 91.6 33.4999 91.6 31.2999C91.6 27.6999 88.8 25.3999 84.4 25.3999H75.6V45.5999H80.1V37.5999H82.4C84.8 37.5999 85.9 38.3999 86.5 40.5999L87.7 45.5999H92.2L90.8 39.8999ZM80.1 28.6999H84.4C86.7 28.6999 87.1 29.5999 87.1 31.0999C87.1 32.9999 86.3 33.7999 84.3 33.7999H80.1V28.6999Z" fill="white"/>
<path d="M103.2 25C97 25 92.5 29.4 92.5 35.4C92.5 41.4 97 45.8 103.2 45.8C109.4 45.8 113.9 41.4 113.9 35.4C113.9 29.4 109.4 25 103.2 25ZM103.2 42.5C99.3 42.5 96.9 39.8 96.9 35.5C96.9 31.1 99.3 28.4 103.2 28.4C107.1 28.4 109.5 31.1 109.5 35.5C109.5 39.8 107.1 42.5 103.2 42.5Z" fill="white"/>
<path d="M128.5 25.3V39L119.8 25.3H115.4V45.6H119.7V32.1L128.1 45.6H132.9V25.3H128.5Z" fill="white"/>
<path d="M139.8 25.3H135.3V45.5H139.8V25.3Z" fill="white"/>
<path d="M157.8 40.6001L157.3 41.0001C155.9 42.1001 154.2 42.6001 152.4 42.6001C150.1 42.6001 148.9 41.9001 147.5 40.7001C146.1 39.4001 145.5 37.7001 145.5 35.6001C145.5 33.5001 146.1 31.8001 147.5 30.5001C148.8 29.2001 149.9 28.5001 152 28.5001C153.9 28.5001 155.5 28.9001 156.8 29.8001L157.3 30.1001L159 27.4001L158.6 27.1001C156.9 25.8001 154.7 25.1001 152 25.1001C148.7 25.1001 146.1 26.1001 144.1 28.1001C142.2 30.0001 141.2 32.5001 141.2 35.5001C141.2 38.6001 142.2 41.1001 144.3 43.1001C146.4 45.0001 149 45.9001 152.2 45.9001C153.5 45.9001 154.8 45.7001 156.1 45.3001C157.3 44.9001 158.4 44.3001 159.1 43.6001L159.4 43.3001L157.8 40.6001Z" fill="white"/>
<path d="M158.6 47.5H41.6V48.4H158.6V47.5Z" fill="white"/>
<path d="M96.1 51.7001V53.3C95.9 53.5 95.7 53.6001 95.4 53.6001C95.2 53.7001 94.9 53.7001 94.6 53.7001C94.3 53.7001 94 53.6001 93.7 53.5001C93.4 53.4001 93.2 53.2001 93 53.1001C92.8 52.9001 92.7 52.7001 92.6 52.4001C92.5 52.1001 92.4 51.8001 92.4 51.5001C92.4 51.2001 92.4 50.9001 92.6 50.6001C92.7 50.3001 92.8 50.1001 93 49.9001C93.2 49.7001 93.4 49.6001 93.7 49.5001C94 49.4001 94.3 49.3 94.6 49.3C94.8 49.3 94.9 49.3 95.1 49.3C95.2 49.3 95.4 49.4001 95.5 49.4001C95.6 49.4001 95.7 49.5001 95.8 49.6001C95.9 49.7001 96 49.7 96.1 49.8L95.9 50.1001L95.8 50.2001H95.7C95.7 50.2001 95.6 50.1001 95.5 50.1001C95.4 50.1001 95.4 50.0001 95.3 50.0001C95.2 50.0001 95.1 49.9001 95 49.9001C94.9 49.9001 94.7 49.9001 94.6 49.9001C94.4 49.9001 94.1 49.9001 94 50.0001C93.8 50.1001 93.6 50.2 93.5 50.3C93.4 50.4 93.3 50.6 93.2 50.8C93.1 51.1 93 51.4001 93 51.6001C93 51.9001 93 52.1 93.1 52.3C93.2 52.5 93.3 52.7 93.4 52.8C93.5 52.9 93.7 53.1001 93.9 53.1001C94.1 53.1001 94.3 53.2001 94.6 53.2001C94.8 53.2001 95 53.2001 95.1 53.1001C95.3 53.1001 95.4 53.0001 95.5 52.9001V52.0001H95H94.9C94.9 52.0001 94.9 52.0001 94.9 51.9001V51.6001H96.1V51.7001Z" fill="#8C8C8E"/>
<path d="M97.3 51.3001C97.4 51.1001 97.5 50.9001 97.6 50.8001C97.7 50.7001 97.9 50.6001 98.1 50.6001C98.2 50.6001 98.2 50.6001 98.3 50.6001C98.4 50.6001 98.4 50.6001 98.5 50.7001V51.1001C98.5 51.1001 98.5 51.2001 98.4 51.2001H98.3C98.3 51.2001 98.2 51.2001 98.1 51.2001C98 51.2001 97.9 51.2001 97.8 51.2001C97.7 51.2001 97.7 51.3001 97.6 51.3001C97.5 51.3001 97.5 51.4001 97.4 51.5001C97.3 51.6001 97.3 51.7001 97.3 51.8001V53.7001H96.8V50.7001H97.1C97.2 50.7001 97.2 50.7001 97.2 50.7001V50.8001L97.3 51.3001Z" fill="#8C8C8E"/>
<path d="M101.3 53.3001C101.2 53.4001 101.2 53.4001 101.1 53.5001C101 53.6001 100.8 53.6001 100.7 53.6001C100.6 53.6001 100.5 53.7001 100.4 53.7001C100.3 53.7001 100.2 53.7001 100.1 53.7001C99.9 53.7001 99.7 53.7001 99.5 53.6001C99.3 53.5001 99.2 53.4001 99.1 53.3001C99 53.2001 98.9 53.0001 98.8 52.8001C98.7 52.6001 98.7 52.4001 98.7 52.1001C98.7 51.9001 98.7 51.7001 98.8 51.5001C98.9 51.3001 99 51.2001 99.1 51.0001C99.2 50.9001 99.4 50.8001 99.5 50.7001C99.7 50.6001 99.9 50.6001 100.1 50.6001C100.3 50.6001 100.4 50.6001 100.6 50.7001C100.8 50.8001 100.9 50.8001 101 51.0001C101.1 51.1001 101.2 51.3001 101.3 51.4001C101.4 51.6001 101.4 51.8001 101.4 52.0001C101.4 52.1001 101.4 52.1001 101.4 52.2001C101.4 52.3001 101.3 52.2001 101.3 52.2001H99.3C99.3 52.4001 99.3 52.6001 99.4 52.7001C99.4 52.8001 99.5 53.0001 99.6 53.0001C99.7 53.0001 99.8 53.2001 99.9 53.2001C100 53.2001 100.1 53.3001 100.3 53.3001C100.4 53.3001 100.5 53.3001 100.6 53.3001C100.7 53.3001 100.8 53.2001 100.8 53.2001C100.8 53.2001 100.9 53.1001 101 53.1001C101.1 53.1001 101.1 53.1001 101.1 53.1001H101.2L101.3 53.3001ZM100.8 51.9001C100.8 51.8001 100.8 51.7001 100.7 51.6001C100.6 51.5001 100.6 51.4001 100.5 51.3001C100.4 51.2001 100.4 51.2001 100.3 51.1001C100.2 51.1001 100.1 51.0001 100 51.0001C99.7 51.0001 99.6 51.1001 99.4 51.2001C99.3 51.3001 99.2 51.5001 99.1 51.8001H100.8V51.9001Z" fill="#8C8C8E"/>
<path d="M101.9 51.2C102.1 51 102.2 50.8999 102.4 50.7999C102.6 50.6999 102.8 50.7 103 50.7C103.2 50.7 103.3 50.6999 103.4 50.7999C103.5 50.8999 103.6 50.9 103.7 51C103.8 51.1 103.9 51.2 103.9 51.4C103.9 51.5 104 51.7 104 51.9V53.7999H103.8C103.7 53.7999 103.7 53.7999 103.7 53.7999C103.7 53.7999 103.7 53.8 103.6 53.7L103.5 53.4C103.4 53.5 103.3 53.5 103.3 53.6C103.3 53.7 103.2 53.6 103.1 53.6C103 53.6 102.9 53.7 102.8 53.7C102.7 53.7 102.6 53.7 102.5 53.7C102.4 53.7 102.3 53.7 102.2 53.7C102.1 53.7 102 53.6 102 53.6C101.9 53.5 101.9 53.5 101.8 53.4C101.8 53.3 101.7 53.2 101.7 53C101.7 52.9 101.7 52.8 101.8 52.7C101.9 52.6 102 52.5 102.1 52.4C102.2 52.3 102.4 52.2 102.7 52.2C102.9 52.1 103.2 52.1 103.6 52.1V51.9C103.6 51.7 103.5 51.5 103.4 51.4C103.3 51.3 103.2 51.2 103 51.2C102.9 51.2 102.8 51.2 102.7 51.2C102.6 51.2 102.5 51.2999 102.5 51.2999C102.4 51.2999 102.4 51.4 102.3 51.4C102.2 51.4 102.2 51.4 102.2 51.4H102.1C102.1 51.4 102.1 51.3999 102 51.2999L101.9 51.2ZM103.6 52.4C103.4 52.4 103.2 52.4 103 52.5C102.8 52.5 102.7 52.6 102.6 52.6C102.5 52.6 102.4 52.6999 102.4 52.7999C102.4 52.8999 102.3 52.9 102.3 53C102.3 53.1 102.3 53.1 102.3 53.2C102.3 53.3 102.4 53.2999 102.4 53.2999C102.4 53.2999 102.5 53.4 102.6 53.4C102.7 53.4 102.7 53.4 102.8 53.4C102.9 53.4 103 53.4 103.1 53.4C103.2 53.4 103.2 53.3999 103.3 53.2999C103.4 53.1999 103.4 53.2 103.5 53.2C103.6 53.2 103.6 53.1 103.7 53V52.4H103.6Z" fill="#8C8C8E"/>
<path d="M105.7 53.8C105.5 53.8 105.3 53.7001 105.2 53.6001C105.1 53.5001 105 53.3001 105 53.0001V51.2001H104.6H104.5C104.5 51.2001 104.5 51.2001 104.5 51.1001V50.9001L105 50.8L105.1 49.9001V49.8C105.1 49.8 105.1 49.8 105.2 49.8H105.5V50.8H106.4V51.2001H105.5V53.0001C105.5 53.1001 105.5 53.2 105.6 53.3C105.7 53.4 105.7 53.4001 105.8 53.4001C105.9 53.4001 105.9 53.4001 105.9 53.4001H106H106.1C106.1 53.4001 106.1 53.4001 106.2 53.4001H106.3L106.5 53.7001C106.4 53.8001 106.3 53.8001 106.2 53.9001C106 53.7001 105.9 53.8 105.7 53.8Z" fill="#8C8C8E"/>
<path d="M112 51.7001V53.3C111.8 53.5 111.6 53.6001 111.3 53.6001C111.1 53.7001 110.8 53.7001 110.5 53.7001C110.2 53.7001 109.9 53.6001 109.6 53.5001C109.3 53.4001 109.1 53.2001 108.9 53.1001C108.7 52.9001 108.6 52.7001 108.5 52.4001C108.4 52.1001 108.3 51.8001 108.3 51.5001C108.3 51.2001 108.3 50.9001 108.5 50.6001C108.6 50.3001 108.7 50.1001 108.9 49.9001C109.1 49.7001 109.3 49.6001 109.6 49.5001C109.9 49.4001 110.2 49.3 110.5 49.3C110.7 49.3 110.8 49.3 111 49.3C111.1 49.3 111.3 49.4001 111.4 49.4001C111.5 49.4001 111.6 49.5001 111.7 49.6001C111.8 49.7001 111.9 49.7 112 49.8L111.8 50.1001L111.7 50.2001H111.6C111.6 50.2001 111.5 50.1001 111.4 50.1001C111.3 50.1001 111.3 50.0001 111.2 50.0001C111.1 50.0001 111 49.9001 110.9 49.9001C110.8 49.9001 110.6 49.9001 110.5 49.9001C110.3 49.9001 110 49.9001 109.9 50.0001C109.7 50.1001 109.5 50.2 109.4 50.3C109.3 50.4 109.2 50.6 109.1 50.8C109 51 109 51.2001 109 51.5001C109 51.8001 109 52.0001 109.1 52.2001C109.2 52.4001 109.3 52.6001 109.4 52.7001C109.5 52.8001 109.7 53.0001 109.9 53.0001C110.1 53.0001 110.3 53.1001 110.6 53.1001C110.8 53.1001 111 53.1001 111.1 53.0001C111.3 53.0001 111.4 52.9 111.5 52.8V51.9001H110.8H110.7C110.7 51.9001 110.7 51.9 110.7 51.8V51.5001H112V51.7001Z" fill="#8C8C8E"/>
<path d="M112.6 51.2C112.8 51 112.9 50.8999 113.1 50.7999C113.3 50.6999 113.5 50.7 113.7 50.7C113.9 50.7 114 50.6999 114.1 50.7999C114.2 50.8999 114.3 50.9 114.4 51C114.5 51.1 114.6 51.2 114.6 51.4C114.6 51.5 114.7 51.7 114.7 51.9V53.7999H114.5C114.4 53.7999 114.4 53.7999 114.4 53.7999C114.4 53.7999 114.4 53.8 114.3 53.7L114.2 53.4C114.1 53.5 114 53.5 114 53.6C114 53.7 114 53.6 113.9 53.6C113.8 53.6 113.7 53.7 113.6 53.7C113.5 53.7 113.4 53.7 113.3 53.7C113.2 53.7 113.1 53.7 113 53.7C112.9 53.7 112.8 53.6 112.7 53.6C112.6 53.5 112.6 53.5 112.5 53.4C112.5 53.3 112.4 53.2 112.4 53C112.4 52.9 112.4 52.8 112.5 52.7C112.6 52.6 112.7 52.5 112.8 52.4C112.9 52.3 113.1 52.2 113.4 52.2C113.6 52.1 113.9 52.1 114.3 52.1V51.9C114.3 51.7 114.2 51.5 114.1 51.4C114 51.3 113.9 51.2 113.7 51.2C113.6 51.2 113.5 51.2 113.4 51.2C113.3 51.2 113.2 51.2999 113.2 51.2999C113.1 51.2999 113.1 51.4 113 51.4C112.9 51.4 112.9 51.4 112.9 51.4H112.8C112.8 51.4 112.8 51.3999 112.7 51.2999L112.6 51.2ZM114.3 52.4C114.1 52.4 113.9 52.4 113.7 52.5C113.5 52.5 113.4 52.6 113.3 52.6C113.2 52.6 113.1 52.6999 113.1 52.7999C113.1 52.8999 113 52.9 113 52.9C113 53 113 53 113 53.1C113 53.2 113.1 53.2 113.1 53.2C113.1 53.2 113.2 53.2999 113.3 53.2999C113.4 53.2999 113.4 53.2999 113.5 53.2999C113.6 53.2999 113.7 53.2999 113.8 53.2999C113.9 53.2999 113.9 53.3 114 53.2C114.1 53.1 114.1 53.1 114.2 53.1C114.3 53.1 114.3 53 114.4 52.9V52.4H114.3Z" fill="#8C8C8E"/>
<path d="M115.6 53.7V50.7H115.9C116 50.7 116 50.6999 116 50.7999V51.1C116.1 51 116.2 50.8999 116.4 50.7999C116.5 50.6999 116.7 50.7 116.9 50.7C117.1 50.7 117.3 50.8 117.4 50.9C117.5 51 117.6 51.2 117.7 51.4C117.7 51.3 117.8 51.2 117.9 51.1C118 51 118 51 118.1 50.9C118.2 50.8 118.3 50.7999 118.4 50.7999C118.5 50.7999 118.6 50.7999 118.7 50.7999C118.9 50.7999 119 50.8 119.1 50.9C119.2 51 119.3 51 119.4 51.1C119.5 51.2 119.6 51.3 119.6 51.5C119.6 51.6 119.7 51.8 119.7 52V53.9H119.2V52C119.2 51.8 119.1 51.6 119 51.5C118.9 51.4 118.8 51.2999 118.6 51.2999C118.5 51.2999 118.4 51.2999 118.4 51.2999C118.3 51.2999 118.3 51.4 118.2 51.4C118.1 51.5 118.1 51.5 118.1 51.6C118.1 51.7 118 51.8 118 51.9V53.7999H117.5V51.9C117.5 51.7 117.5 51.5 117.4 51.4C117.3 51.3 117.2 51.2 117 51.2C116.9 51.2 116.8 51.1999 116.6 51.2999C116.5 51.3999 116.4 51.5 116.3 51.6V53.7999H115.6V53.7Z" fill="#8C8C8E"/>
<path d="M122.9 53.3001C122.8 53.4001 122.8 53.4001 122.7 53.5001C122.6 53.6001 122.4 53.6001 122.3 53.6001C122.2 53.6001 122.1 53.7001 122 53.7001C121.9 53.7001 121.8 53.7001 121.7 53.7001C121.5 53.7001 121.3 53.7001 121.1 53.6001C120.9 53.5001 120.8 53.4001 120.7 53.3001C120.6 53.2001 120.5 53.0001 120.4 52.8001C120.3 52.6001 120.3 52.4001 120.3 52.1001C120.3 51.9001 120.3 51.7001 120.4 51.5001C120.5 51.3001 120.6 51.2001 120.7 51.0001C120.8 50.9001 121 50.8001 121.1 50.7001C121.3 50.6001 121.5 50.6001 121.7 50.6001C121.9 50.6001 122 50.6001 122.2 50.7001C122.4 50.8001 122.5 50.8001 122.6 51.0001C122.7 51.1001 122.8 51.3001 122.9 51.4001C123 51.6001 123 51.8001 123 52.0001C123 52.1001 123 52.1001 123 52.2001C123 52.3001 122.9 52.2001 122.9 52.2001H120.9C120.9 52.4001 120.9 52.6001 121 52.7001C121 52.8001 121.1 53.0001 121.2 53.0001C121.3 53.0001 121.4 53.2001 121.5 53.2001C121.6 53.2001 121.7 53.3001 121.9 53.3001C122 53.3001 122.1 53.3001 122.2 53.3001C122.3 53.3001 122.4 53.2001 122.4 53.2001C122.4 53.2001 122.5 53.1001 122.6 53.1001C122.7 53.1001 122.7 53.1001 122.7 53.1001H122.8L122.9 53.3001ZM122.4 51.9001C122.4 51.8001 122.4 51.7001 122.3 51.6001C122.2 51.5001 122.2 51.4001 122.1 51.3001C122 51.2001 122 51.2001 121.9 51.1001C121.8 51.1001 121.7 51.0001 121.6 51.0001C121.3 51.0001 121.2 51.1001 121 51.2001C120.9 51.3001 120.8 51.5001 120.7 51.8001H122.4V51.9001Z" fill="#8C8C8E"/>
<path d="M125.3 51.2L125.2 51.3H125.1C125.1 51.3 125 51.3 125 51.2C124.9 51.2 124.9 51.1 124.8 51.1C124.7 51.1 124.6 51.1 124.5 51.1C124.4 51.1 124.3 51.1 124.3 51.1C124.2 51.1 124.2 51.2 124.1 51.2C124 51.2 124 51.3 124 51.3C124 51.3 124 51.4 124 51.5C124 51.6 124 51.6 124.1 51.7C124.1 51.8 124.2 51.8 124.3 51.8C124.4 51.8 124.5 51.9 124.5 51.9C124.5 51.9 124.7 52 124.8 52C124.9 52 125 52.1 125.1 52.1C125.2 52.1 125.3 52.2 125.3 52.2C125.4 52.3 125.4 52.3 125.5 52.4C125.5 52.5 125.6 52.6 125.6 52.7C125.6 52.8 125.6 53 125.5 53.1C125.5 53.2 125.4 53.3 125.3 53.4C125.2 53.5 125.1 53.6 124.9 53.6C124.8 53.6 124.6 53.7 124.4 53.7C124.2 53.7 124 53.7 123.8 53.6C123.6 53.5 123.5 53.4 123.4 53.3L123.5 53.1C123.5 53.1 123.5 53.1 123.6 53C123.7 52.9 123.6 53 123.7 53H123.8L123.9 53.1C123.9 53.1 124 53.2 124.1 53.2C124.2 53.2 124.3 53.2 124.4 53.2C124.5 53.2 124.6 53.2 124.7 53.2C124.8 53.2 124.8 53.1 124.9 53.1C125 53.1 125 53 125 52.9C125 52.8 125 52.8 125 52.7C125 52.6 125 52.5 124.9 52.5C124.9 52.4 124.8 52.4 124.7 52.4C124.6 52.4 124.5 52.3 124.5 52.3C124.4 52.3 124.3 52.2 124.2 52.2C124.1 52.2 124 52.1 123.9 52.1C123.8 52.1 123.7 52 123.7 51.9C123.6 51.8 123.6 51.8 123.5 51.7C123.5 51.6 123.4 51.5 123.4 51.4C123.4 51.3 123.4 51.2 123.5 51.1C123.6 51 123.6 50.9 123.7 50.8C123.8 50.7 123.9 50.7 124 50.6C124.1 50.6 124.3 50.5 124.4 50.5C124.6 50.5 124.8 50.5 124.9 50.6C125.1 50.7 125.2 50.7 125.3 50.9V51.2Z" fill="#8C8C8E"/>
<path d="M130.5 51.7001V53.3C130.2 53.5 130 53.6001 129.8 53.6001C129.6 53.7001 129.3 53.7001 129 53.7001C128.7 53.7001 128.4 53.6001 128.1 53.5001C127.8 53.4001 127.6 53.2001 127.4 53.1001C127.2 52.9001 127.1 52.7001 127 52.4001C126.9 52.1001 126.8 51.8001 126.8 51.5001C126.8 51.2001 126.8 50.9001 127 50.6001C127.1 50.3001 127.2 50.1001 127.4 49.9001C127.6 49.7001 127.8 49.6001 128.1 49.5001C128.4 49.4001 128.7 49.3 129 49.3C129.2 49.3 129.3 49.3 129.5 49.3C129.6 49.3 129.8 49.4001 129.9 49.4001C130 49.4001 130.1 49.5001 130.2 49.6001C130.3 49.7001 130.4 49.7 130.5 49.8L130.3 50.1001L130.2 50.2001H130.1C130.1 50.2001 130 50.1001 129.9 50.1001C129.8 50.1001 129.8 50.0001 129.7 50.0001C129.6 50.0001 129.5 49.9001 129.4 49.9001C129.3 49.9001 129.1 49.9001 129 49.9001C128.8 49.9001 128.5 49.9001 128.4 50.0001C128.2 50.1001 128 50.2 127.9 50.3C127.8 50.4 127.7 50.6 127.6 50.8C127.5 51 127.5 51.2001 127.5 51.5001C127.5 51.8001 127.5 52.0001 127.6 52.2001C127.7 52.4001 127.8 52.6001 127.9 52.7001C128 52.8001 128.2 53.0001 128.4 53.0001C128.6 53.0001 128.8 53.1001 129.1 53.1001C129.3 53.1001 129.5 53.1001 129.6 53.0001C129.8 53.0001 129.9 52.9 130 52.8V51.9001H129.3H129.2C129.2 51.9001 129.2 51.9 129.2 51.8V51.5001H130.5V51.7001Z" fill="#565556"/>
<path d="M131.7 51.3001C131.8 51.1001 131.9 50.9001 132 50.8001C132.1 50.7001 132.3 50.6001 132.5 50.6001C132.6 50.6001 132.6 50.6001 132.7 50.6001C132.8 50.6001 132.8 50.6001 132.9 50.7001V51.1001C132.9 51.1001 132.9 51.2001 132.8 51.2001H132.7C132.7 51.2001 132.6 51.2001 132.5 51.2001C132.4 51.2001 132.3 51.2001 132.2 51.2001C132.1 51.2001 132.1 51.3001 132 51.3001C131.9 51.3001 131.9 51.4001 131.8 51.5001C131.7 51.6001 131.7 51.7001 131.7 51.8001V53.7001H131.2V50.7001H131.5C131.6 50.7001 131.6 50.7001 131.6 50.7001V50.8001L131.7 51.3001Z" fill="#565556"/>
<path d="M135.6 53.2999C135.5 53.3999 135.5 53.4 135.4 53.5C135.3 53.6 135.2 53.6 135.1 53.6C135 53.6 134.9 53.7 134.8 53.7C134.7 53.7 134.6 53.7 134.5 53.7C134.3 53.7 134.1 53.7 133.9 53.6C133.7 53.5 133.6 53.3999 133.5 53.2999C133.4 53.1999 133.3 52.9999 133.2 52.7999C133 52.5999 133 52.4 133 52.2C133 52 133 51.8 133.1 51.6C133.2 51.4 133.3 51.3 133.4 51.1C133.5 51 133.7 50.8999 133.8 50.7999C134 50.6999 134.2 50.7 134.4 50.7C134.6 50.7 134.7 50.6999 134.9 50.7999C135.1 50.8999 135.2 50.9 135.3 51.1C135.4 51.2 135.5 51.4 135.6 51.5C135.7 51.7 135.7 51.9 135.7 52.1C135.7 52.2 135.7 52.1999 135.7 52.2999C135.7 52.3999 135.6 52.2999 135.6 52.2999H133.6C133.6 52.4999 133.6 52.6999 133.7 52.7999C133.7 52.8999 133.8 53.1 133.9 53.1C134 53.1 134.1 53.2999 134.2 53.2999C134.3 53.2999 134.4 53.4 134.6 53.4C134.7 53.4 134.8 53.4 134.9 53.4C135 53.4 135.1 53.2999 135.1 53.2999C135.1 53.2999 135.2 53.2 135.3 53.2C135.4 53.2 135.4 53.2 135.4 53.2H135.5L135.6 53.2999ZM135.2 51.9C135.2 51.8 135.2 51.7 135.1 51.6C135 51.5 135 51.3999 135 51.2999C134.9 51.1999 134.9 51.2 134.8 51.1C134.7 51.1 134.6 51 134.5 51C134.2 51 134.1 51.1 133.9 51.2C133.8 51.3 133.7 51.4999 133.6 51.7999H135.2V51.9Z" fill="#565556"/>
<path d="M136.2 51.2C136.4 51 136.5 50.8999 136.7 50.7999C136.9 50.6999 137.1 50.7 137.3 50.7C137.5 50.7 137.6 50.6999 137.7 50.7999C137.8 50.8999 137.9 50.9 138 51C138.1 51.1 138.2 51.2 138.2 51.4C138.2 51.5 138.3 51.7 138.3 51.9V53.7999H138.1C138 53.7999 138 53.7999 138 53.7999C138 53.7999 138 53.8 137.9 53.7L137.8 53.4C137.7 53.5 137.6 53.5 137.6 53.6C137.6 53.7 137.4 53.7 137.4 53.7C137.3 53.7 137.2 53.7999 137.1 53.7999C137 53.7999 136.9 53.7999 136.8 53.7999C136.7 53.7999 136.6 53.7999 136.5 53.7999C136.4 53.7999 136.3 53.7 136.2 53.7C136.1 53.6 136.1 53.6 136 53.5C136 53.4 135.9 53.3 135.9 53.1C135.9 53 135.9 52.8999 136 52.7999C136.1 52.6999 136.2 52.6 136.3 52.5C136.4 52.4 136.6 52.2999 136.9 52.2999C137.1 52.1999 137.4 52.2 137.8 52.2V52C137.8 51.8 137.7 51.6 137.6 51.5C137.5 51.4 137.4 51.2999 137.2 51.2999C137.1 51.2999 137 51.2999 136.9 51.2999C136.8 51.2999 136.7 51.4 136.7 51.4C136.6 51.4 136.6 51.5 136.5 51.5C136.4 51.5 136.4 51.5 136.4 51.5H136.3C136.3 51.5 136.3 51.5 136.2 51.4V51.2ZM137.9 52.4C137.7 52.4 137.5 52.4 137.3 52.5C137.1 52.5 137 52.6 136.9 52.6C136.8 52.6 136.7 52.6999 136.7 52.7999C136.7 52.8999 136.6 52.9 136.6 53C136.6 53.1 136.6 53.1 136.6 53.2C136.6 53.3 136.7 53.2999 136.7 53.2999C136.7 53.2999 136.8 53.4 136.9 53.4C137 53.4 137 53.4 137.1 53.4C137.2 53.4 137.3 53.4 137.4 53.4C137.5 53.4 137.5 53.3999 137.6 53.2999C137.7 53.1999 137.7 53.2 137.8 53.2C137.9 53.2 137.9 53.1 138 53V52.4H137.9Z" fill="#565556"/>
<path d="M140.1 53.8C139.9 53.8 139.7 53.7001 139.6 53.6001C139.5 53.5001 139.4 53.3001 139.4 53.0001V51.2001H139H138.9C138.9 51.2001 138.9 51.2001 138.9 51.1001V50.9001L139.4 50.8L139.5 49.9001V49.8C139.5 49.8 139.5 49.8 139.6 49.8H139.9V50.8H140.8V51.2001H139.9V53.0001C139.9 53.1001 139.9 53.2 140 53.3C140.1 53.4 140.1 53.4001 140.2 53.4001C140.3 53.4001 140.3 53.4001 140.3 53.4001H140.4H140.5C140.5 53.4001 140.5 53.4001 140.6 53.4001H140.7L140.9 53.7001C140.8 53.8001 140.7 53.8001 140.6 53.9001C140.3 53.7001 140.2 53.8 140.1 53.8Z" fill="#565556"/>
<path d="M144.1 49.5C144.4 49.5 144.6 49.5 144.8 49.6C145 49.7 145.2 49.7 145.3 49.9C145.4 50 145.5 50.2 145.6 50.3C145.7 50.5 145.7 50.6 145.7 50.8C145.7 51 145.7 51.2 145.6 51.3C145.5 51.5 145.4 51.6 145.3 51.7C145.2 51.8 145 51.9 144.8 52C144.6 52.1 144.4 52.1 144.1 52.1H143.4V53.7H142.8V49.5H144.1V49.5ZM144.1 51.7C144.3 51.7 144.4 51.7 144.5 51.6C144.6 51.6 144.7 51.5 144.8 51.4C144.9 51.3 144.9 51.2 145 51.1C145 51 145.1 50.9 145.1 50.7C145.1 50.4 145 50.2 144.9 50.1C144.8 50 144.5 49.9 144.1 49.9H143.4V51.6H144.1V51.7Z" fill="#565556"/>
<path d="M148.5 53.3001C148.4 53.4001 148.4 53.4001 148.3 53.5001C148.2 53.6001 148.1 53.6001 148 53.6001C147.9 53.6001 147.8 53.7001 147.7 53.7001C147.6 53.7001 147.5 53.7001 147.4 53.7001C147.2 53.7001 147 53.7001 146.8 53.6001C146.6 53.5001 146.5 53.4001 146.4 53.3001C146.3 53.2001 146.2 53.0001 146.1 52.8001C146 52.6001 146 52.4001 146 52.1001C146 51.9001 146 51.7001 146.1 51.5001C146.2 51.3001 146.3 51.2001 146.4 51.0001C146.5 50.9001 146.7 50.8001 146.8 50.7001C147 50.6001 147.2 50.6001 147.4 50.6001C147.6 50.6001 147.7 50.6001 147.9 50.7001C148.1 50.8001 148.2 50.8001 148.3 51.0001C148.4 51.1001 148.5 51.3001 148.6 51.4001C148.7 51.6001 148.7 51.8001 148.7 52.0001C148.7 52.1001 148.7 52.1001 148.7 52.2001C148.7 52.3001 148.6 52.2001 148.6 52.2001H146.6C146.6 52.4001 146.6 52.6001 146.7 52.7001C146.7 52.8001 146.8 53.0001 146.9 53.0001C147 53.0001 147.1 53.2001 147.2 53.2001C147.3 53.2001 147.4 53.3001 147.6 53.3001C147.7 53.3001 147.8 53.3001 147.9 53.3001C148 53.3001 148.1 53.2001 148.1 53.2001C148.1 53.2001 148.2 53.1001 148.3 53.1001C148.4 53.1001 148.4 53.1001 148.4 53.1001H148.5V53.3001ZM148.1 51.9001C148.1 51.8001 148.1 51.7001 148 51.6001C147.9 51.5001 147.9 51.4001 147.8 51.3001C147.7 51.2001 147.7 51.2001 147.6 51.1001C147.5 51.1001 147.4 51.0001 147.3 51.0001C147 51.0001 146.9 51.1001 146.7 51.2001C146.6 51.3001 146.5 51.5001 146.4 51.8001H148.1V51.9001Z" fill="#565556"/>
<path d="M150.5 50.7C150.7 50.7 150.9 50.6999 151.1 50.7999C151.3 50.8999 151.4 51 151.5 51.1C151.6 51.2 151.7 51.4 151.8 51.6C151.9 51.8 151.9 52 151.9 52.2C151.9 52.4 151.9 52.5999 151.8 52.7999C151.7 52.9999 151.6 53.0999 151.5 53.2999C151.4 53.4999 151.2 53.5 151.1 53.6C151 53.7 150.7 53.7 150.5 53.7C150.3 53.7 150.1 53.7 149.9 53.6C149.7 53.5 149.6 53.3999 149.5 53.2999C149.4 53.1999 149.3 52.9999 149.2 52.7999C149.1 52.5999 149.1 52.4 149.1 52.2C149.1 52 149.1 51.8 149.2 51.6C149.3 51.4 149.4 51.3 149.5 51.1C149.6 51 149.8 50.8999 149.9 50.7999C150.1 50.6999 150.3 50.7 150.5 50.7ZM150.5 53.2999C150.8 53.2999 151 53.2 151.2 53C151.4 52.8 151.4 52.5 151.4 52.2C151.4 51.8 151.3 51.6 151.2 51.4C151.1 51.2 150.8 51.1 150.5 51.1C150.4 51.1 150.2 51.1 150.1 51.2C150 51.3 149.9 51.3 149.8 51.4C149.7 51.5 149.7 51.5999 149.6 51.7999C149.5 51.9999 149.5 52.0999 149.5 52.2999C149.5 52.6999 149.6 52.9 149.7 53.1C150 53.2 150.2 53.2999 150.5 53.2999Z" fill="#565556"/>
<path d="M153.1 51.2C153.2 51 153.4 50.8999 153.5 50.7999C153.7 50.6999 153.9 50.7 154.1 50.7C154.3 50.7 154.4 50.6999 154.6 50.7999C154.7 50.8999 154.9 51 155 51.1C155.1 51.2 155.2 51.4 155.2 51.6C155.3 51.8 155.3 51.9999 155.3 52.2999C155.3 52.4999 155.3 52.7 155.2 52.9C155.1 53.1 155.1 53.3 154.9 53.4C154.8 53.5 154.7 53.6 154.5 53.7C154.3 53.8 154.2 53.7999 154 53.7999C153.8 53.7999 153.7 53.8 153.5 53.7C153.4 53.6 153.3 53.6 153.2 53.4V54.7H152.7V50.7H153C153.1 50.7 153.1 50.6999 153.1 50.7999V51.2ZM153.1 53C153.2 53.1 153.3 53.1999 153.4 53.2999C153.5 53.3999 153.6 53.4 153.8 53.4C154.1 53.4 154.3 53.3 154.4 53.1C154.5 52.9 154.6 52.5999 154.6 52.2999C154.6 52.0999 154.6 51.8999 154.5 51.7999C154.5 51.6999 154.4 51.5 154.4 51.5C154.4 51.5 154.3 51.2999 154.2 51.2999C154.1 51.2999 154 51.2 153.9 51.2C153.7 51.2 153.6 51.1999 153.5 51.2999C153.4 51.3999 153.3 51.5 153.1 51.6V53Z" fill="#565556"/>
<path d="M156.4 49.4001V53.7001H155.9V49.4001H156.4Z" fill="#565556"/>
<path d="M159.7 53.3001C159.6 53.4001 159.6 53.4001 159.5 53.5001C159.4 53.6001 159.3 53.6001 159.2 53.6001C159.1 53.6001 159 53.7001 158.9 53.7001C158.8 53.7001 158.7 53.7001 158.6 53.7001C158.4 53.7001 158.2 53.7001 158 53.6001C157.8 53.5001 157.7 53.4001 157.6 53.3001C157.5 53.2001 157.4 53.0001 157.3 52.8001C157.2 52.6001 157.2 52.4001 157.2 52.1001C157.2 51.9001 157.2 51.7001 157.3 51.5001C157.4 51.3001 157.5 51.2001 157.6 51.0001C157.7 50.9001 157.9 50.8001 158 50.7001C158.2 50.6001 158.4 50.6001 158.6 50.6001C158.8 50.6001 158.9 50.6001 159.1 50.7001C159.3 50.8001 159.4 50.8001 159.5 51.0001C159.6 51.1001 159.7 51.3001 159.8 51.4001C159.9 51.6001 159.9 51.8001 159.9 52.0001C159.9 52.1001 159.9 52.1001 159.9 52.2001C159.9 52.3001 159.8 52.2001 159.8 52.2001H157.8C157.8 52.4001 157.8 52.6001 157.9 52.7001C157.9 52.8001 158 53.0001 158.1 53.0001C158.2 53.0001 158.3 53.2001 158.4 53.2001C158.5 53.2001 158.6 53.3001 158.8 53.3001C158.9 53.3001 159 53.3001 159.1 53.3001C159.2 53.3001 159.3 53.2001 159.3 53.2001C159.3 53.2001 159.4 53.1001 159.5 53.1001C159.6 53.1001 159.6 53.1001 159.6 53.1001H159.7V53.3001ZM159.2 51.9001C159.2 51.8001 159.2 51.7001 159.1 51.6001C159 51.5001 159 51.4001 158.9 51.3001C158.8 51.2001 158.8 51.2001 158.7 51.1001C158.6 51.1001 158.5 51.0001 158.4 51.0001C158.1 51.0001 158 51.1001 157.8 51.2001C157.7 51.3001 157.6 51.5001 157.5 51.8001H159.2V51.9001Z" fill="#565556"/>
<defs>
<linearGradient id="paint0_linear_1551:1460" x1="25.9356" y1="47.0464" x2="6.43041" y2="27.4361" gradientUnits="userSpaceOnUse">
<stop stop-color="#E84E0F"/>
<stop offset="0.314" stop-color="#E84E0F"/>
<stop offset="0.4687" stop-color="#F28908"/>
<stop offset="0.6289" stop-color="#FBC002"/>
<stop offset="0.7066" stop-color="#FFD500"/>
<stop offset="0.9959" stop-color="#FFED00"/>
<stop offset="1" stop-color="#FFED00"/>
</linearGradient>
<linearGradient id="paint1_linear_1551:1460" x1="15.3253" y1="36.4143" x2="33.7885" y2="54.9771" gradientUnits="userSpaceOnUse">
<stop stop-color="#0096D6"/>
<stop offset="0.3926" stop-color="#0096D6"/>
<stop offset="0.6216" stop-color="#0067B2"/>
<stop offset="0.9575" stop-color="#005A9B"/>
<stop offset="1" stop-color="#005A9B"/>
</linearGradient>
<radialGradient id="paint2_radial_1551:1460" cx="0" cy="0" r="1" gradientUnits="userSpaceOnUse" gradientTransform="translate(20.0451 29.9756) rotate(-47.8937) scale(0.48721 9.42306)">
<stop stop-color="white"/>
<stop offset="0.03561" stop-color="#F2F2F2"/>
<stop offset="0.2463" stop-color="#AAAAAA"/>
<stop offset="0.4446" stop-color="#6D6D6D"/>
<stop offset="0.6246" stop-color="#3E3E3E"/>
<stop offset="0.7829" stop-color="#1C1C1C"/>
<stop offset="0.9134" stop-color="#070707"/>
<stop offset="1"/>
</radialGradient>
<radialGradient id="paint3_radial_1551:1460" cx="0" cy="0" r="1" gradientUnits="userSpaceOnUse" gradientTransform="translate(20.0451 29.9756) rotate(-47.8937) scale(0.48721 9.42306)">
<stop stop-color="white"/>
<stop offset="0.03561" stop-color="#F2F2F2"/>
<stop offset="0.2463" stop-color="#AAAAAA"/>
<stop offset="0.4446" stop-color="#6D6D6D"/>
<stop offset="0.6246" stop-color="#3E3E3E"/>
<stop offset="0.7829" stop-color="#1C1C1C"/>
<stop offset="0.9134" stop-color="#070707"/>
<stop offset="1"/>
</radialGradient>
<radialGradient id="paint4_radial_1551:1460" cx="0" cy="0" r="1" gradientUnits="userSpaceOnUse" gradientTransform="translate(20.0451 29.9756) rotate(-47.8937) scale(0.48721 9.42306)">
<stop stop-color="white"/>
<stop offset="0.03561" stop-color="#F2F2F2"/>
<stop offset="0.2463" stop-color="#AAAAAA"/>
<stop offset="0.4446" stop-color="#6D6D6D"/>
<stop offset="0.6246" stop-color="#3E3E3E"/>
<stop offset="0.7829" stop-color="#1C1C1C"/>
<stop offset="0.9134" stop-color="#070707"/>
<stop offset="1"/>
</radialGradient>
<radialGradient id="paint5_radial_1551:1460" cx="0" cy="0" r="1" gradientUnits="userSpaceOnUse" gradientTransform="translate(20.0451 29.9756) rotate(-47.8937) scale(0.48721 9.42306)">
<stop stop-color="white"/>
<stop offset="0.208" stop-color="#BBBDBD"/>
<stop offset="0.4158" stop-color="#7F8282"/>
<stop offset="0.6051" stop-color="#505454"/>
<stop offset="0.7716" stop-color="#2E3333"/>
<stop offset="0.9089" stop-color="#191E1F"/>
<stop offset="1" stop-color="#121718"/>
</radialGradient>
<radialGradient id="paint6_radial_1551:1460" cx="0" cy="0" r="1" gradientUnits="userSpaceOnUse" gradientTransform="translate(20.2686 30.1842) rotate(41.8091) scale(0.474282 9.67953)">
<stop stop-color="white"/>
<stop offset="0.03561" stop-color="#F2F2F2"/>
<stop offset="0.2463" stop-color="#AAAAAA"/>
<stop offset="0.4446" stop-color="#6D6D6D"/>
<stop offset="0.6246" stop-color="#3E3E3E"/>
<stop offset="0.7829" stop-color="#1C1C1C"/>
<stop offset="0.9134" stop-color="#070707"/>
<stop offset="1"/>
</radialGradient>
<radialGradient id="paint7_radial_1551:1460" cx="0" cy="0" r="1" gradientUnits="userSpaceOnUse" gradientTransform="translate(20.2686 30.1842) rotate(41.8091) scale(0.474282 9.67953)">
<stop stop-color="white"/>
<stop offset="0.03561" stop-color="#F2F2F2"/>
<stop offset="0.2463" stop-color="#AAAAAA"/>
<stop offset="0.4446" stop-color="#6D6D6D"/>
<stop offset="0.6246" stop-color="#3E3E3E"/>
<stop offset="0.7829" stop-color="#1C1C1C"/>
<stop offset="0.9134" stop-color="#070707"/>
<stop offset="1"/>
</radialGradient>
<radialGradient id="paint8_radial_1551:1460" cx="0" cy="0" r="1" gradientUnits="userSpaceOnUse" gradientTransform="translate(20.2686 30.1842) rotate(41.8091) scale(0.474282 9.67953)">
<stop stop-color="white"/>
<stop offset="0.03561" stop-color="#F2F2F2"/>
<stop offset="0.2463" stop-color="#AAAAAA"/>
<stop offset="0.4446" stop-color="#6D6D6D"/>
<stop offset="0.6246" stop-color="#3E3E3E"/>
<stop offset="0.7829" stop-color="#1C1C1C"/>
<stop offset="0.9134" stop-color="#070707"/>
<stop offset="1"/>
</radialGradient>
<radialGradient id="paint9_radial_1551:1460" cx="0" cy="0" r="1" gradientUnits="userSpaceOnUse" gradientTransform="translate(20.2686 30.1842) rotate(41.8091) scale(0.474282 9.67953)">
<stop stop-color="white"/>
<stop offset="0.208" stop-color="#BBBDBD"/>
<stop offset="0.4158" stop-color="#7F8282"/>
<stop offset="0.6051" stop-color="#505454"/>
<stop offset="0.7716" stop-color="#2E3333"/>
<stop offset="0.9089" stop-color="#191E1F"/>
<stop offset="1" stop-color="#121718"/>
</radialGradient>
<radialGradient id="paint10_radial_1551:1460" cx="0" cy="0" r="1" gradientUnits="userSpaceOnUse" gradientTransform="translate(20.3366 30.2432) rotate(-3.80877) scale(0.923391 9.52561)">
<stop stop-color="white"/>
<stop offset="0.03561" stop-color="#F2F2F2"/>
<stop offset="0.2463" stop-color="#AAAAAA"/>
<stop offset="0.4446" stop-color="#6D6D6D"/>
<stop offset="0.6246" stop-color="#3E3E3E"/>
<stop offset="0.7829" stop-color="#1C1C1C"/>
<stop offset="0.9134" stop-color="#070707"/>
<stop offset="1"/>
</radialGradient>
<radialGradient id="paint11_radial_1551:1460" cx="0" cy="0" r="1" gradientUnits="userSpaceOnUse" gradientTransform="translate(20.3366 30.2432) rotate(-3.80877) scale(0.923391 9.52561)">
<stop stop-color="white"/>
<stop offset="0.03561" stop-color="#F2F2F2"/>
<stop offset="0.2463" stop-color="#AAAAAA"/>
<stop offset="0.4446" stop-color="#6D6D6D"/>
<stop offset="0.6246" stop-color="#3E3E3E"/>
<stop offset="0.7829" stop-color="#1C1C1C"/>
<stop offset="0.9134" stop-color="#070707"/>
<stop offset="1"/>
</radialGradient>
<radialGradient id="paint12_radial_1551:1460" cx="0" cy="0" r="1" gradientUnits="userSpaceOnUse" gradientTransform="translate(20.3366 30.2432) rotate(-3.80877) scale(0.923391 9.52561)">
<stop stop-color="white"/>
<stop offset="0.03561" stop-color="#F2F2F2"/>
<stop offset="0.2463" stop-color="#AAAAAA"/>
<stop offset="0.4446" stop-color="#6D6D6D"/>
<stop offset="0.6246" stop-color="#3E3E3E"/>
<stop offset="0.7829" stop-color="#1C1C1C"/>
<stop offset="0.9134" stop-color="#070707"/>
<stop offset="1"/>
</radialGradient>
<radialGradient id="paint13_radial_1551:1460" cx="0" cy="0" r="1" gradientUnits="userSpaceOnUse" gradientTransform="translate(20.3366 30.2432) rotate(-3.80877) scale(0.923391 9.52561)">
<stop stop-color="white"/>
<stop offset="0.208" stop-color="#BBBDBD"/>
<stop offset="0.4158" stop-color="#7F8282"/>
<stop offset="0.6051" stop-color="#505454"/>
<stop offset="0.7716" stop-color="#2E3333"/>
<stop offset="0.9089" stop-color="#191E1F"/>
<stop offset="1" stop-color="#121718"/>
</radialGradient>
<radialGradient id="paint14_radial_1551:1460" cx="0" cy="0" r="1" gradientUnits="userSpaceOnUse" gradientTransform="translate(20.2374 30.2055) rotate(87.7141) scale(0.714992 9.57377)">
<stop stop-color="white"/>
<stop offset="0.03561" stop-color="#F2F2F2"/>
<stop offset="0.2463" stop-color="#AAAAAA"/>
<stop offset="0.4446" stop-color="#6D6D6D"/>
<stop offset="0.6246" stop-color="#3E3E3E"/>
<stop offset="0.7829" stop-color="#1C1C1C"/>
<stop offset="0.9134" stop-color="#070707"/>
<stop offset="1"/>
</radialGradient>
<radialGradient id="paint15_radial_1551:1460" cx="0" cy="0" r="1" gradientUnits="userSpaceOnUse" gradientTransform="translate(20.2374 30.2055) rotate(87.7141) scale(0.714992 9.57377)">
<stop stop-color="white"/>
<stop offset="0.03561" stop-color="#F2F2F2"/>
<stop offset="0.2463" stop-color="#AAAAAA"/>
<stop offset="0.4446" stop-color="#6D6D6D"/>
<stop offset="0.6246" stop-color="#3E3E3E"/>
<stop offset="0.7829" stop-color="#1C1C1C"/>
<stop offset="0.9134" stop-color="#070707"/>
<stop offset="1"/>
</radialGradient>
<radialGradient id="paint16_radial_1551:1460" cx="0" cy="0" r="1" gradientUnits="userSpaceOnUse" gradientTransform="translate(20.2374 30.2055) rotate(87.7141) scale(0.714992 9.57377)">
<stop stop-color="white"/>
<stop offset="0.03561" stop-color="#F2F2F2"/>
<stop offset="0.2463" stop-color="#AAAAAA"/>
<stop offset="0.4446" stop-color="#6D6D6D"/>
<stop offset="0.6246" stop-color="#3E3E3E"/>
<stop offset="0.7829" stop-color="#1C1C1C"/>
<stop offset="0.9134" stop-color="#070707"/>
<stop offset="1"/>
</radialGradient>
<radialGradient id="paint17_radial_1551:1460" cx="0" cy="0" r="1" gradientUnits="userSpaceOnUse" gradientTransform="translate(20.2374 30.2055) rotate(87.7141) scale(0.714992 9.57377)">
<stop stop-color="white"/>
<stop offset="0.208" stop-color="#BBBDBD"/>
<stop offset="0.4158" stop-color="#7F8282"/>
<stop offset="0.6051" stop-color="#505454"/>
<stop offset="0.7716" stop-color="#2E3333"/>
<stop offset="0.9089" stop-color="#191E1F"/>
<stop offset="1" stop-color="#121718"/>
</radialGradient>
<radialGradient id="paint18_radial_1551:1460" cx="0" cy="0" r="1" gradientUnits="userSpaceOnUse" gradientTransform="translate(19.7567 30.1793) rotate(-29.6844) scale(0.488009 9.40778)">
<stop stop-color="white"/>
<stop offset="0.03561" stop-color="#F2F2F2"/>
<stop offset="0.2463" stop-color="#AAAAAA"/>
<stop offset="0.4446" stop-color="#6D6D6D"/>
<stop offset="0.6246" stop-color="#3E3E3E"/>
<stop offset="0.7829" stop-color="#1C1C1C"/>
<stop offset="0.9134" stop-color="#070707"/>
<stop offset="1"/>
</radialGradient>
<radialGradient id="paint19_radial_1551:1460" cx="0" cy="0" r="1" gradientUnits="userSpaceOnUse" gradientTransform="translate(19.7567 30.1793) rotate(-29.6844) scale(0.488009 9.40778)">
<stop stop-color="white"/>
<stop offset="0.03561" stop-color="#F2F2F2"/>
<stop offset="0.2463" stop-color="#AAAAAA"/>
<stop offset="0.4446" stop-color="#6D6D6D"/>
<stop offset="0.6246" stop-color="#3E3E3E"/>
<stop offset="0.7829" stop-color="#1C1C1C"/>
<stop offset="0.9134" stop-color="#070707"/>
<stop offset="1"/>
</radialGradient>
<radialGradient id="paint20_radial_1551:1460" cx="0" cy="0" r="1" gradientUnits="userSpaceOnUse" gradientTransform="translate(19.7567 30.1793) rotate(-29.6844) scale(0.488009 9.40778)">
<stop stop-color="white"/>
<stop offset="0.03561" stop-color="#F2F2F2"/>
<stop offset="0.2463" stop-color="#AAAAAA"/>
<stop offset="0.4446" stop-color="#6D6D6D"/>
<stop offset="0.6246" stop-color="#3E3E3E"/>
<stop offset="0.7829" stop-color="#1C1C1C"/>
<stop offset="0.9134" stop-color="#070707"/>
<stop offset="1"/>
</radialGradient>
<radialGradient id="paint21_radial_1551:1460" cx="0" cy="0" r="1" gradientUnits="userSpaceOnUse" gradientTransform="translate(19.7567 30.1793) rotate(-29.6844) scale(0.488009 9.40778)">
<stop stop-color="white"/>
<stop offset="0.208" stop-color="#BBBDBD"/>
<stop offset="0.4158" stop-color="#7F8282"/>
<stop offset="0.6051" stop-color="#505454"/>
<stop offset="0.7716" stop-color="#2E3333"/>
<stop offset="0.9089" stop-color="#191E1F"/>
<stop offset="1" stop-color="#121718"/>
</radialGradient>
<radialGradient id="paint22_radial_1551:1460" cx="0" cy="0" r="1" gradientUnits="userSpaceOnUse" gradientTransform="translate(19.8852 30.4269) rotate(60.0939) scale(0.473635 9.69329)">
<stop stop-color="white"/>
<stop offset="0.03561" stop-color="#F2F2F2"/>
<stop offset="0.2463" stop-color="#AAAAAA"/>
<stop offset="0.4446" stop-color="#6D6D6D"/>
<stop offset="0.6246" stop-color="#3E3E3E"/>
<stop offset="0.7829" stop-color="#1C1C1C"/>
<stop offset="0.9134" stop-color="#070707"/>
<stop offset="1"/>
</radialGradient>
<radialGradient id="paint23_radial_1551:1460" cx="0" cy="0" r="1" gradientUnits="userSpaceOnUse" gradientTransform="translate(19.8852 30.4269) rotate(60.0939) scale(0.473635 9.69329)">
<stop stop-color="white"/>
<stop offset="0.03561" stop-color="#F2F2F2"/>
<stop offset="0.2463" stop-color="#AAAAAA"/>
<stop offset="0.4446" stop-color="#6D6D6D"/>
<stop offset="0.6246" stop-color="#3E3E3E"/>
<stop offset="0.7829" stop-color="#1C1C1C"/>
<stop offset="0.9134" stop-color="#070707"/>
<stop offset="1"/>
</radialGradient>
<radialGradient id="paint24_radial_1551:1460" cx="0" cy="0" r="1" gradientUnits="userSpaceOnUse" gradientTransform="translate(19.8852 30.4269) rotate(60.0939) scale(0.473635 9.69329)">
<stop stop-color="white"/>
<stop offset="0.03561" stop-color="#F2F2F2"/>
<stop offset="0.2463" stop-color="#AAAAAA"/>
<stop offset="0.4446" stop-color="#6D6D6D"/>
<stop offset="0.6246" stop-color="#3E3E3E"/>
<stop offset="0.7829" stop-color="#1C1C1C"/>
<stop offset="0.9134" stop-color="#070707"/>
<stop offset="1"/>
</radialGradient>
<radialGradient id="paint25_radial_1551:1460" cx="0" cy="0" r="1" gradientUnits="userSpaceOnUse" gradientTransform="translate(19.8852 30.4269) rotate(60.0939) scale(0.473635 9.69329)">
<stop stop-color="white"/>
<stop offset="0.208" stop-color="#BBBDBD"/>
<stop offset="0.4158" stop-color="#7F8282"/>
<stop offset="0.6051" stop-color="#505454"/>
<stop offset="0.7716" stop-color="#2E3333"/>
<stop offset="0.9089" stop-color="#191E1F"/>
<stop offset="1" stop-color="#121718"/>
</radialGradient>
<radialGradient id="paint26_radial_1551:1460" cx="0" cy="0" r="1" gradientUnits="userSpaceOnUse" gradientTransform="translate(19.9087 30.5107) rotate(14.3271) scale(0.923274 9.52833)">
<stop stop-color="white"/>
<stop offset="0.03561" stop-color="#F2F2F2"/>
<stop offset="0.2463" stop-color="#AAAAAA"/>
<stop offset="0.4446" stop-color="#6D6D6D"/>
<stop offset="0.6246" stop-color="#3E3E3E"/>
<stop offset="0.7829" stop-color="#1C1C1C"/>
<stop offset="0.9134" stop-color="#070707"/>
<stop offset="1"/>
</radialGradient>
<radialGradient id="paint27_radial_1551:1460" cx="0" cy="0" r="1" gradientUnits="userSpaceOnUse" gradientTransform="translate(19.9087 30.5107) rotate(14.3271) scale(0.923274 9.52833)">
<stop stop-color="white"/>
<stop offset="0.03561" stop-color="#F2F2F2"/>
<stop offset="0.2463" stop-color="#AAAAAA"/>
<stop offset="0.4446" stop-color="#6D6D6D"/>
<stop offset="0.6246" stop-color="#3E3E3E"/>
<stop offset="0.7829" stop-color="#1C1C1C"/>
<stop offset="0.9134" stop-color="#070707"/>
<stop offset="1"/>
</radialGradient>
<radialGradient id="paint28_radial_1551:1460" cx="0" cy="0" r="1" gradientUnits="userSpaceOnUse" gradientTransform="translate(19.9087 30.5107) rotate(14.3271) scale(0.923274 9.52833)">
<stop stop-color="white"/>
<stop offset="0.03561" stop-color="#F2F2F2"/>
<stop offset="0.2463" stop-color="#AAAAAA"/>
<stop offset="0.4446" stop-color="#6D6D6D"/>
<stop offset="0.6246" stop-color="#3E3E3E"/>
<stop offset="0.7829" stop-color="#1C1C1C"/>
<stop offset="0.9134" stop-color="#070707"/>
<stop offset="1"/>
</radialGradient>
<radialGradient id="paint29_radial_1551:1460" cx="0" cy="0" r="1" gradientUnits="userSpaceOnUse" gradientTransform="translate(19.9087 30.5107) rotate(14.3271) scale(0.923274 9.52833)">
<stop stop-color="white"/>
<stop offset="0.208" stop-color="#BBBDBD"/>
<stop offset="0.4158" stop-color="#7F8282"/>
<stop offset="0.6051" stop-color="#505454"/>
<stop offset="0.7716" stop-color="#2E3333"/>
<stop offset="0.9089" stop-color="#191E1F"/>
<stop offset="1" stop-color="#121718"/>
</radialGradient>
<radialGradient id="paint30_radial_1551:1460" cx="0" cy="0" r="1" gradientUnits="userSpaceOnUse" gradientTransform="translate(19.8847 30.4463) rotate(106.048) scale(0.715147 9.57165)">
<stop stop-color="white"/>
<stop offset="0.03561" stop-color="#F2F2F2"/>
<stop offset="0.2463" stop-color="#AAAAAA"/>
<stop offset="0.4446" stop-color="#6D6D6D"/>
<stop offset="0.6246" stop-color="#3E3E3E"/>
<stop offset="0.7829" stop-color="#1C1C1C"/>
<stop offset="0.9134" stop-color="#070707"/>
<stop offset="1"/>
</radialGradient>
<radialGradient id="paint31_radial_1551:1460" cx="0" cy="0" r="1" gradientUnits="userSpaceOnUse" gradientTransform="translate(19.8847 30.4463) rotate(106.048) scale(0.715147 9.57165)">
<stop stop-color="white"/>
<stop offset="0.03561" stop-color="#F2F2F2"/>
<stop offset="0.2463" stop-color="#AAAAAA"/>
<stop offset="0.4446" stop-color="#6D6D6D"/>
<stop offset="0.6246" stop-color="#3E3E3E"/>
<stop offset="0.7829" stop-color="#1C1C1C"/>
<stop offset="0.9134" stop-color="#070707"/>
<stop offset="1"/>
</radialGradient>
<radialGradient id="paint32_radial_1551:1460" cx="0" cy="0" r="1" gradientUnits="userSpaceOnUse" gradientTransform="translate(19.8847 30.4463) rotate(106.048) scale(0.715147 9.57165)">
<stop stop-color="white"/>
<stop offset="0.03561" stop-color="#F2F2F2"/>
<stop offset="0.2463" stop-color="#AAAAAA"/>
<stop offset="0.4446" stop-color="#6D6D6D"/>
<stop offset="0.6246" stop-color="#3E3E3E"/>
<stop offset="0.7829" stop-color="#1C1C1C"/>
<stop offset="0.9134" stop-color="#070707"/>
<stop offset="1"/>
</radialGradient>
<radialGradient id="paint33_radial_1551:1460" cx="0" cy="0" r="1" gradientUnits="userSpaceOnUse" gradientTransform="translate(19.8847 30.4463) rotate(106.048) scale(0.715147 9.57165)">
<stop stop-color="white"/>
<stop offset="0.208" stop-color="#BBBDBD"/>
<stop offset="0.4158" stop-color="#7F8282"/>
<stop offset="0.6051" stop-color="#505454"/>
<stop offset="0.7716" stop-color="#2E3333"/>
<stop offset="0.9089" stop-color="#191E1F"/>
<stop offset="1" stop-color="#121718"/>
</radialGradient>
<radialGradient id="paint34_radial_1551:1460" cx="0" cy="0" r="1" gradientUnits="userSpaceOnUse" gradientTransform="translate(20.3514 29.8848) rotate(155.359) scale(5.52931 5.50998)">
<stop stop-color="white"/>
<stop offset="0.2817" stop-color="#BBBBBB"/>
<stop offset="0.9334" stop-color="#121212"/>
<stop offset="1"/>
</radialGradient>
<radialGradient id="paint35_radial_1551:1460" cx="0" cy="0" r="1" gradientUnits="userSpaceOnUse" gradientTransform="translate(20.3514 29.8848) rotate(155.359) scale(5.52931 5.50998)">
<stop stop-color="#BBBDBF"/>
<stop offset="0.4171" stop-color="#777A7C"/>
<stop offset="1" stop-color="#121718"/>
</radialGradient>
<radialGradient id="paint36_radial_1551:1460" cx="0" cy="0" r="1" gradientUnits="userSpaceOnUse" gradientTransform="translate(20.1773 29.9693) rotate(155.359) scale(9.96613 9.9313)">
<stop/>
<stop offset="0.211" stop-color="#020202"/>
<stop offset="0.287" stop-color="#090909"/>
<stop offset="0.3411" stop-color="#141414"/>
<stop offset="0.385" stop-color="#252525"/>
<stop offset="0.4225" stop-color="#3B3B3B"/>
<stop offset="0.4557" stop-color="#575757"/>
<stop offset="0.4858" stop-color="#777777"/>
<stop offset="0.5134" stop-color="#9D9D9D"/>
<stop offset="0.5391" stop-color="#C8C8C8"/>
<stop offset="0.562" stop-color="#F6F6F6"/>
<stop offset="0.5661" stop-color="white"/>
<stop offset="0.5693" stop-color="#F6F6F6"/>
<stop offset="0.5868" stop-color="#C8C8C8"/>
<stop offset="0.6065" stop-color="#9D9D9D"/>
<stop offset="0.6277" stop-color="#777777"/>
<stop offset="0.6508" stop-color="#575757"/>
<stop offset="0.6762" stop-color="#3B3B3B"/>
<stop offset="0.705" stop-color="#252525"/>
<stop offset="0.7386" stop-color="#141414"/>
<stop offset="0.7801" stop-color="#090909"/>
<stop offset="0.8383" stop-color="#020202"/>
<stop offset="1"/>
</radialGradient>
<radialGradient id="paint37_radial_1551:1460" cx="0" cy="0" r="1" gradientUnits="userSpaceOnUse" gradientTransform="translate(20.1773 29.9693) rotate(155.359) scale(9.96613 9.9313)">
<stop stop-color="#706E6F"/>
<stop offset="0.2363" stop-color="#727071"/>
<stop offset="0.3214" stop-color="#797778"/>
<stop offset="0.3821" stop-color="#848283"/>
<stop offset="0.4312" stop-color="#959394"/>
<stop offset="0.4732" stop-color="#ABA9AA"/>
<stop offset="0.5104" stop-color="#C5C5C5"/>
<stop offset="0.5432" stop-color="#E4E4E4"/>
<stop offset="0.5661" stop-color="white"/>
<stop offset="0.5816" stop-color="#D8D9D9"/>
<stop offset="0.6007" stop-color="#AFB0B1"/>
<stop offset="0.6222" stop-color="#898C8C"/>
<stop offset="0.6456" stop-color="#696C6C"/>
<stop offset="0.6714" stop-color="#4D5152"/>
<stop offset="0.7006" stop-color="#373C3C"/>
<stop offset="0.7347" stop-color="#262B2C"/>
<stop offset="0.7768" stop-color="#1B1F20"/>
<stop offset="0.8359" stop-color="#14191A"/>
<stop offset="1" stop-color="#121718"/>
</radialGradient>
<radialGradient id="paint38_radial_1551:1460" cx="0" cy="0" r="1" gradientUnits="userSpaceOnUse" gradientTransform="translate(12.5331 38.5629) rotate(155.359) scale(5.53283 5.51349)">
<stop/>
<stop offset="0.211" stop-color="#020202"/>
<stop offset="0.287" stop-color="#090909"/>
<stop offset="0.3411" stop-color="#141414"/>
<stop offset="0.385" stop-color="#252525"/>
<stop offset="0.4225" stop-color="#3B3B3B"/>
<stop offset="0.4557" stop-color="#575757"/>
<stop offset="0.4858" stop-color="#777777"/>
<stop offset="0.5134" stop-color="#9D9D9D"/>
<stop offset="0.5391" stop-color="#C8C8C8"/>
<stop offset="0.562" stop-color="#F6F6F6"/>
<stop offset="0.5661" stop-color="white"/>
<stop offset="0.5693" stop-color="#F6F6F6"/>
<stop offset="0.5868" stop-color="#C8C8C8"/>
<stop offset="0.6065" stop-color="#9D9D9D"/>
<stop offset="0.6277" stop-color="#777777"/>
<stop offset="0.6508" stop-color="#575757"/>
<stop offset="0.6762" stop-color="#3B3B3B"/>
<stop offset="0.705" stop-color="#252525"/>
<stop offset="0.7386" stop-color="#141414"/>
<stop offset="0.7801" stop-color="#090909"/>
<stop offset="0.8383" stop-color="#020202"/>
<stop offset="1"/>
</radialGradient>
<radialGradient id="paint39_radial_1551:1460" cx="0" cy="0" r="1" gradientUnits="userSpaceOnUse" gradientTransform="translate(12.5331 38.5629) rotate(155.359) scale(5.53283 5.51349)">
<stop stop-color="#706E6F"/>
<stop offset="0.2363" stop-color="#727071"/>
<stop offset="0.3214" stop-color="#797778"/>
<stop offset="0.3821" stop-color="#848283"/>
<stop offset="0.4312" stop-color="#959394"/>
<stop offset="0.4732" stop-color="#ABA9AA"/>
<stop offset="0.5104" stop-color="#C5C5C5"/>
<stop offset="0.5432" stop-color="#E4E4E4"/>
<stop offset="0.5661" stop-color="white"/>
<stop offset="0.5816" stop-color="#D8D9D9"/>
<stop offset="0.6007" stop-color="#AFB0B1"/>
<stop offset="0.6222" stop-color="#898C8C"/>
<stop offset="0.6456" stop-color="#696C6C"/>
<stop offset="0.6714" stop-color="#4D5152"/>
<stop offset="0.7006" stop-color="#373C3C"/>
<stop offset="0.7347" stop-color="#262B2C"/>
<stop offset="0.7768" stop-color="#1B1F20"/>
<stop offset="0.8359" stop-color="#14191A"/>
<stop offset="1" stop-color="#121718"/>
</radialGradient>
<radialGradient id="paint40_radial_1551:1460" cx="0" cy="0" r="1" gradientUnits="userSpaceOnUse" gradientTransform="translate(9.47564 42.57) rotate(155.359) scale(9.24148 9.20918)">
<stop/>
<stop offset="0.211" stop-color="#020202"/>
<stop offset="0.287" stop-color="#090909"/>
<stop offset="0.3411" stop-color="#141414"/>
<stop offset="0.385" stop-color="#252525"/>
<stop offset="0.4225" stop-color="#3B3B3B"/>
<stop offset="0.4557" stop-color="#575757"/>
<stop offset="0.4858" stop-color="#777777"/>
<stop offset="0.5134" stop-color="#9D9D9D"/>
<stop offset="0.5391" stop-color="#C8C8C8"/>
<stop offset="0.562" stop-color="#F6F6F6"/>
<stop offset="0.5661" stop-color="white"/>
<stop offset="0.5693" stop-color="#F6F6F6"/>
<stop offset="0.5868" stop-color="#C8C8C8"/>
<stop offset="0.6065" stop-color="#9D9D9D"/>
<stop offset="0.6277" stop-color="#777777"/>
<stop offset="0.6508" stop-color="#575757"/>
<stop offset="0.6762" stop-color="#3B3B3B"/>
<stop offset="0.705" stop-color="#252525"/>
<stop offset="0.7386" stop-color="#141414"/>
<stop offset="0.7801" stop-color="#090909"/>
<stop offset="0.8383" stop-color="#020202"/>
<stop offset="1"/>
</radialGradient>
<radialGradient id="paint41_radial_1551:1460" cx="0" cy="0" r="1" gradientUnits="userSpaceOnUse" gradientTransform="translate(9.47564 42.57) rotate(155.359) scale(9.24148 9.20918)">
<stop stop-color="#706E6F"/>
<stop offset="0.2363" stop-color="#727071"/>
<stop offset="0.3214" stop-color="#797778"/>
<stop offset="0.3821" stop-color="#848283"/>
<stop offset="0.4312" stop-color="#959394"/>
<stop offset="0.4732" stop-color="#ABA9AA"/>
<stop offset="0.5104" stop-color="#C5C5C5"/>
<stop offset="0.5432" stop-color="#E4E4E4"/>
<stop offset="0.5661" stop-color="white"/>
<stop offset="0.5816" stop-color="#D8D9D9"/>
<stop offset="0.6007" stop-color="#AFB0B1"/>
<stop offset="0.6222" stop-color="#898C8C"/>
<stop offset="0.6456" stop-color="#696C6C"/>
<stop offset="0.6714" stop-color="#4D5152"/>
<stop offset="0.7006" stop-color="#373C3C"/>
<stop offset="0.7347" stop-color="#262B2C"/>
<stop offset="0.7768" stop-color="#1B1F20"/>
<stop offset="0.8359" stop-color="#14191A"/>
<stop offset="1" stop-color="#121718"/>
</radialGradient>
<radialGradient id="paint42_radial_1551:1460" cx="0" cy="0" r="1" gradientUnits="userSpaceOnUse" gradientTransform="translate(24.6582 24.0144) rotate(155.359) scale(2.80716 2.79735)">
<stop/>
<stop offset="0.211" stop-color="#020202"/>
<stop offset="0.287" stop-color="#090909"/>
<stop offset="0.3411" stop-color="#141414"/>
<stop offset="0.385" stop-color="#252525"/>
<stop offset="0.4225" stop-color="#3B3B3B"/>
<stop offset="0.4557" stop-color="#575757"/>
<stop offset="0.4858" stop-color="#777777"/>
<stop offset="0.5134" stop-color="#9D9D9D"/>
<stop offset="0.5391" stop-color="#C8C8C8"/>
<stop offset="0.562" stop-color="#F6F6F6"/>
<stop offset="0.5661" stop-color="white"/>
<stop offset="0.5693" stop-color="#F6F6F6"/>
<stop offset="0.5868" stop-color="#C8C8C8"/>
<stop offset="0.6065" stop-color="#9D9D9D"/>
<stop offset="0.6277" stop-color="#777777"/>
<stop offset="0.6508" stop-color="#575757"/>
<stop offset="0.6762" stop-color="#3B3B3B"/>
<stop offset="0.705" stop-color="#252525"/>
<stop offset="0.7386" stop-color="#141414"/>
<stop offset="0.7801" stop-color="#090909"/>
<stop offset="0.8383" stop-color="#020202"/>
<stop offset="1"/>
</radialGradient>
<radialGradient id="paint43_radial_1551:1460" cx="0" cy="0" r="1" gradientUnits="userSpaceOnUse" gradientTransform="translate(24.6582 24.0144) rotate(155.359) scale(2.80716 2.79735)">
<stop stop-color="#706E6F"/>
<stop offset="0.2363" stop-color="#727071"/>
<stop offset="0.3214" stop-color="#797778"/>
<stop offset="0.3821" stop-color="#848283"/>
<stop offset="0.4312" stop-color="#959394"/>
<stop offset="0.4732" stop-color="#ABA9AA"/>
<stop offset="0.5104" stop-color="#C5C5C5"/>
<stop offset="0.5432" stop-color="#E4E4E4"/>
<stop offset="0.5661" stop-color="white"/>
<stop offset="0.5816" stop-color="#D8D9D9"/>
<stop offset="0.6007" stop-color="#AFB0B1"/>
<stop offset="0.6222" stop-color="#898C8C"/>
<stop offset="0.6456" stop-color="#696C6C"/>
<stop offset="0.6714" stop-color="#4D5152"/>
<stop offset="0.7006" stop-color="#373C3C"/>
<stop offset="0.7347" stop-color="#262B2C"/>
<stop offset="0.7768" stop-color="#1B1F20"/>
<stop offset="0.8359" stop-color="#14191A"/>
<stop offset="1" stop-color="#121718"/>
</radialGradient>
<radialGradient id="paint44_radial_1551:1460" cx="0" cy="0" r="1" gradientUnits="userSpaceOnUse" gradientTransform="translate(27.8214 20.7923) rotate(155.359) scale(1.43284 1.42783)">
<stop/>
<stop offset="0.211" stop-color="#020202"/>
<stop offset="0.287" stop-color="#090909"/>
<stop offset="0.3411" stop-color="#141414"/>
<stop offset="0.385" stop-color="#252525"/>
<stop offset="0.4225" stop-color="#3B3B3B"/>
<stop offset="0.4557" stop-color="#575757"/>
<stop offset="0.4858" stop-color="#777777"/>
<stop offset="0.5134" stop-color="#9D9D9D"/>
<stop offset="0.5391" stop-color="#C8C8C8"/>
<stop offset="0.562" stop-color="#F6F6F6"/>
<stop offset="0.5661" stop-color="white"/>
<stop offset="0.5693" stop-color="#F6F6F6"/>
<stop offset="0.5868" stop-color="#C8C8C8"/>
<stop offset="0.6065" stop-color="#9D9D9D"/>
<stop offset="0.6277" stop-color="#777777"/>
<stop offset="0.6508" stop-color="#575757"/>
<stop offset="0.6762" stop-color="#3B3B3B"/>
<stop offset="0.705" stop-color="#252525"/>
<stop offset="0.7386" stop-color="#141414"/>
<stop offset="0.7801" stop-color="#090909"/>
<stop offset="0.8383" stop-color="#020202"/>
<stop offset="1"/>
</radialGradient>
<radialGradient id="paint45_radial_1551:1460" cx="0" cy="0" r="1" gradientUnits="userSpaceOnUse" gradientTransform="translate(27.8214 20.7923) rotate(155.359) scale(1.43284 1.42783)">
<stop stop-color="#706E6F"/>
<stop offset="0.2363" stop-color="#727071"/>
<stop offset="0.3214" stop-color="#797778"/>
<stop offset="0.3821" stop-color="#848283"/>
<stop offset="0.4312" stop-color="#959394"/>
<stop offset="0.4732" stop-color="#ABA9AA"/>
<stop offset="0.5104" stop-color="#C5C5C5"/>
<stop offset="0.5432" stop-color="#E4E4E4"/>
<stop offset="0.5661" stop-color="white"/>
<stop offset="0.5816" stop-color="#D8D9D9"/>
<stop offset="0.6007" stop-color="#AFB0B1"/>
<stop offset="0.6222" stop-color="#898C8C"/>
<stop offset="0.6456" stop-color="#696C6C"/>
<stop offset="0.6714" stop-color="#4D5152"/>
<stop offset="0.7006" stop-color="#373C3C"/>
<stop offset="0.7347" stop-color="#262B2C"/>
<stop offset="0.7768" stop-color="#1B1F20"/>
<stop offset="0.8359" stop-color="#14191A"/>
<stop offset="1" stop-color="#121718"/>
</radialGradient>
<radialGradient id="paint46_radial_1551:1460" cx="0" cy="0" r="1" gradientUnits="userSpaceOnUse" gradientTransform="translate(15.043 36.3148) rotate(133.428) scale(5.23381 1.54219)">
<stop stop-color="white"/>
<stop offset="0.0718001" stop-color="#D3D3D3"/>
<stop offset="0.1645" stop-color="#A2A2A2"/>
<stop offset="0.2621" stop-color="#777777"/>
<stop offset="0.363" stop-color="#525252"/>
<stop offset="0.4679" stop-color="#343434"/>
<stop offset="0.5783" stop-color="#1D1D1D"/>
<stop offset="0.6966" stop-color="#0D0D0D"/>
<stop offset="0.8281" stop-color="#030303"/>
<stop offset="1"/>
</radialGradient>
<radialGradient id="paint47_radial_1551:1460" cx="0" cy="0" r="1" gradientUnits="userSpaceOnUse" gradientTransform="translate(15.043 36.3148) rotate(133.428) scale(5.23381 1.54219)">
<stop stop-color="white"/>
<stop offset="0.0444853" stop-color="#E5E6E6"/>
<stop offset="0.1399" stop-color="#B4B6B6"/>
<stop offset="0.2404" stop-color="#898B8C"/>
<stop offset="0.3442" stop-color="#646768"/>
<stop offset="0.4523" stop-color="#464A4B"/>
<stop offset="0.5659" stop-color="#2F3434"/>
<stop offset="0.6876" stop-color="#1F2324"/>
<stop offset="0.823" stop-color="#151A1B"/>
<stop offset="1" stop-color="#121718"/>
</radialGradient>
<radialGradient id="paint48_radial_1551:1460" cx="0" cy="0" r="1" gradientUnits="userSpaceOnUse" gradientTransform="translate(12.6035 38.9585) rotate(133.428) scale(1.59619 0.788688)">
<stop stop-color="white"/>
<stop offset="0.0718001" stop-color="#D3D3D3"/>
<stop offset="0.1645" stop-color="#A2A2A2"/>
<stop offset="0.2621" stop-color="#777777"/>
<stop offset="0.363" stop-color="#525252"/>
<stop offset="0.4679" stop-color="#343434"/>
<stop offset="0.5783" stop-color="#1D1D1D"/>
<stop offset="0.6966" stop-color="#0D0D0D"/>
<stop offset="0.8281" stop-color="#030303"/>
<stop offset="1"/>
</radialGradient>
<radialGradient id="paint49_radial_1551:1460" cx="0" cy="0" r="1" gradientUnits="userSpaceOnUse" gradientTransform="translate(12.6035 38.9585) rotate(133.428) scale(1.59619 0.788688)">
<stop stop-color="white"/>
<stop offset="0.0444853" stop-color="#E5E6E6"/>
<stop offset="0.1399" stop-color="#B4B6B6"/>
<stop offset="0.2404" stop-color="#898B8C"/>
<stop offset="0.3442" stop-color="#646768"/>
<stop offset="0.4523" stop-color="#464A4B"/>
<stop offset="0.5659" stop-color="#2F3434"/>
<stop offset="0.6876" stop-color="#1F2324"/>
<stop offset="0.823" stop-color="#151A1B"/>
<stop offset="1" stop-color="#121718"/>
</radialGradient>
<radialGradient id="paint50_radial_1551:1460" cx="0" cy="0" r="1" gradientUnits="userSpaceOnUse" gradientTransform="translate(9.68962 42.5645) rotate(130.516) scale(4.19074 0.587833)">
<stop stop-color="white"/>
<stop offset="0.0718001" stop-color="#D3D3D3"/>
<stop offset="0.1645" stop-color="#A2A2A2"/>
<stop offset="0.2621" stop-color="#777777"/>
<stop offset="0.363" stop-color="#525252"/>
<stop offset="0.4679" stop-color="#343434"/>
<stop offset="0.5783" stop-color="#1D1D1D"/>
<stop offset="0.6966" stop-color="#0D0D0D"/>
<stop offset="0.8281" stop-color="#030303"/>
<stop offset="1"/>
</radialGradient>
<radialGradient id="paint51_radial_1551:1460" cx="0" cy="0" r="1" gradientUnits="userSpaceOnUse" gradientTransform="translate(9.68962 42.5645) rotate(130.516) scale(4.19074 0.587833)">
<stop stop-color="white"/>
<stop offset="0.0444853" stop-color="#E5E6E6"/>
<stop offset="0.1399" stop-color="#B4B6B6"/>
<stop offset="0.2404" stop-color="#898B8C"/>
<stop offset="0.3442" stop-color="#646768"/>
<stop offset="0.4523" stop-color="#464A4B"/>
<stop offset="0.5659" stop-color="#2F3434"/>
<stop offset="0.6876" stop-color="#1F2324"/>
<stop offset="0.823" stop-color="#151A1B"/>
<stop offset="1" stop-color="#121718"/>
</radialGradient>
<radialGradient id="paint52_radial_1551:1460" cx="0" cy="0" r="1" gradientUnits="userSpaceOnUse" gradientTransform="translate(6.9722 45.4324) rotate(133.441) scale(1.32046 0.829271)">
<stop stop-color="white"/>
<stop offset="0.0718001" stop-color="#D3D3D3"/>
<stop offset="0.1645" stop-color="#A2A2A2"/>
<stop offset="0.2621" stop-color="#777777"/>
<stop offset="0.363" stop-color="#525252"/>
<stop offset="0.4679" stop-color="#343434"/>
<stop offset="0.5783" stop-color="#1D1D1D"/>
<stop offset="0.6966" stop-color="#0D0D0D"/>
<stop offset="0.8281" stop-color="#030303"/>
<stop offset="1"/>
</radialGradient>
<radialGradient id="paint53_radial_1551:1460" cx="0" cy="0" r="1" gradientUnits="userSpaceOnUse" gradientTransform="translate(6.9722 45.4324) rotate(133.441) scale(1.32046 0.829271)">
<stop stop-color="white"/>
<stop offset="0.0444853" stop-color="#E5E6E6"/>
<stop offset="0.1399" stop-color="#B4B6B6"/>
<stop offset="0.2404" stop-color="#898B8C"/>
<stop offset="0.3442" stop-color="#646768"/>
<stop offset="0.4523" stop-color="#464A4B"/>
<stop offset="0.5659" stop-color="#2F3434"/>
<stop offset="0.6876" stop-color="#1F2324"/>
<stop offset="0.823" stop-color="#151A1B"/>
<stop offset="1" stop-color="#121718"/>
</radialGradient>
<radialGradient id="paint54_radial_1551:1460" cx="0" cy="0" r="1" gradientUnits="userSpaceOnUse" gradientTransform="translate(5.63294 47.1689) rotate(131.448) scale(2.29096 0.799548)">
<stop stop-color="white"/>
<stop offset="0.0718001" stop-color="#D3D3D3"/>
<stop offset="0.1645" stop-color="#A2A2A2"/>
<stop offset="0.2621" stop-color="#777777"/>
<stop offset="0.363" stop-color="#525252"/>
<stop offset="0.4679" stop-color="#343434"/>
<stop offset="0.5783" stop-color="#1D1D1D"/>
<stop offset="0.6966" stop-color="#0D0D0D"/>
<stop offset="0.8281" stop-color="#030303"/>
<stop offset="1"/>
</radialGradient>
<radialGradient id="paint55_radial_1551:1460" cx="0" cy="0" r="1" gradientUnits="userSpaceOnUse" gradientTransform="translate(5.63294 47.1689) rotate(131.448) scale(2.29096 0.799548)">
<stop stop-color="white"/>
<stop offset="0.0444853" stop-color="#E5E6E6"/>
<stop offset="0.1399" stop-color="#B4B6B6"/>
<stop offset="0.2404" stop-color="#898B8C"/>
<stop offset="0.3442" stop-color="#646768"/>
<stop offset="0.4523" stop-color="#464A4B"/>
<stop offset="0.5659" stop-color="#2F3434"/>
<stop offset="0.6876" stop-color="#1F2324"/>
<stop offset="0.823" stop-color="#151A1B"/>
<stop offset="1" stop-color="#121718"/>
</radialGradient>
<radialGradient id="paint56_radial_1551:1460" cx="0" cy="0" r="1" gradientUnits="userSpaceOnUse" gradientTransform="translate(3.86952 49.4369) rotate(131.448) scale(1.56514 0.546235)">
<stop stop-color="white"/>
<stop offset="0.0718001" stop-color="#D3D3D3"/>
<stop offset="0.1645" stop-color="#A2A2A2"/>
<stop offset="0.2621" stop-color="#777777"/>
<stop offset="0.363" stop-color="#525252"/>
<stop offset="0.4679" stop-color="#343434"/>
<stop offset="0.5783" stop-color="#1D1D1D"/>
<stop offset="0.6966" stop-color="#0D0D0D"/>
<stop offset="0.8281" stop-color="#030303"/>
<stop offset="1"/>
</radialGradient>
<radialGradient id="paint57_radial_1551:1460" cx="0" cy="0" r="1" gradientUnits="userSpaceOnUse" gradientTransform="translate(3.86952 49.4369) rotate(131.448) scale(1.56514 0.546235)">
<stop stop-color="white"/>
<stop offset="0.0444853" stop-color="#E5E6E6"/>
<stop offset="0.1399" stop-color="#B4B6B6"/>
<stop offset="0.2404" stop-color="#898B8C"/>
<stop offset="0.3442" stop-color="#646768"/>
<stop offset="0.4523" stop-color="#464A4B"/>
<stop offset="0.5659" stop-color="#2F3434"/>
<stop offset="0.6876" stop-color="#1F2324"/>
<stop offset="0.823" stop-color="#151A1B"/>
<stop offset="1" stop-color="#121718"/>
</radialGradient>
</defs>
</svg>
