<svg width="160" height="80" viewBox="0 0 160 80" fill="none" xmlns="http://www.w3.org/2000/svg">
<path d="M104.202 14C92.8403 14 82.6953 19.8933 82.6953 30.7705C82.6953 43.2422 100.694 44.1043 100.694 50.3755C100.694 53.0092 97.6707 55.3713 92.5096 55.3713C85.1754 55.3713 79.6955 52.0762 79.6955 52.0762L77.3453 63.0597C77.3453 63.0597 83.6519 65.847 92.0372 65.847C104.462 65.847 114.229 59.6702 114.229 48.604C114.229 35.4238 96.1472 34.5852 96.1472 28.7628C96.1472 26.696 98.6273 24.4284 103.777 24.4284C109.587 24.4284 114.335 26.8259 114.335 26.8259L116.626 16.2203C116.626 16.2203 111.465 14 104.19 14H104.202ZM0.271636 14.8031L0 16.4093C0 16.4093 4.78315 17.2832 9.08207 19.0312C14.6211 21.0271 15.0226 22.1963 15.9556 25.8102L26.1242 65.0202H39.7533L60.7637 14.8031H47.1583L33.6592 48.9465L28.1556 20.0114C27.6478 16.7045 25.0968 14.8149 21.9552 14.8149H0.271636V14.8031ZM66.2318 14.8031L55.5554 65.0202H68.523L79.1522 14.8031H66.22H66.2318ZM138.581 14.8031C135.452 14.8031 133.798 16.4802 132.582 19.4091L113.579 65.0202H127.184L129.818 57.4144H146.388L147.994 65.0202H159.993L149.518 14.8031H138.581ZM140.353 28.3731L144.38 47.2104H133.574L140.341 28.3731H140.353Z" fill="#1334CA"/>
</svg>
