<svg width="160" height="80" viewBox="0 0 160 80" fill="none" xmlns="http://www.w3.org/2000/svg">
<path d="M70.721 42.9143H88.2759V36.7283H77.0742V32.883H87.4399V27.1985H77.0742V23.186H88.2759V17H70.721V42.9143ZM118.036 23.186H124.723V42.7471H131.243V23.186H137.931V17H118.036V23.186ZM46.4786 23.186H53.1661V42.7471H59.6865V23.186H66.3741V17H46.4786V23.186ZM36.7816 17H30.4284V42.9143H47.1473V36.5611H36.7816V17ZM160 23.186V17H142.278V42.9143H160V36.7283H148.798V32.883H159.164V27.1985H148.798V23.186H160ZM107.335 28.7032L108.004 33.2173H107.837L105.664 28.0345L99.6447 17H93.4587V42.9143H99.8119V32.5486L98.976 27.5329H99.1432L101.317 32.7158L107.001 42.9143H113.521V17H107.168L107.335 28.7032Z" fill="white"/>
<path d="M9.36259 17L0 42.9143H7.18913L8.86103 37.7315H16.0502L17.7221 42.9143H25.0784L15.5486 17H9.36259ZM10.5329 32.047L12.5392 24.5235H12.7064L14.5455 32.047H10.5329Z" fill="#D9000D"/>
<path d="M38.6207 57.2922H40.2926V62.1407C39.6238 62.6423 38.955 62.9767 38.1191 63.3111C37.2831 63.6454 36.4472 63.6454 35.6113 63.6454C34.4409 63.6454 33.2706 63.3111 32.2675 62.8095C31.2643 62.3079 30.4284 61.472 29.9268 60.636C29.4253 59.6329 29.0909 58.6298 29.0909 57.4594C29.0909 56.2891 29.4253 55.1188 29.9268 54.2828C30.4284 53.2797 31.2643 52.611 32.2675 52.1094C33.2706 51.6078 34.4409 51.2734 35.6113 51.2734C36.6144 51.2734 37.4503 51.4406 38.2863 51.775C39.1222 52.1094 39.791 52.611 40.2926 53.1125L39.2894 54.1157C38.2863 53.1125 37.116 52.7781 35.7784 52.7781C34.7753 52.7781 33.9394 52.9453 33.2706 53.4469C32.6019 53.9485 31.9331 54.45 31.5987 55.1188C31.0972 55.7875 30.93 56.6235 30.93 57.6266C30.93 58.4626 31.0972 59.2985 31.5987 59.9673C32.1003 60.636 32.6019 61.3048 33.2706 61.6392C33.9394 61.9735 34.7753 62.3079 35.7784 62.3079C36.9488 62.3079 37.7847 61.9735 38.6207 61.472V57.2922Z" fill="#D9000D"/>
<path d="M57.513 60.3018H50.9927L49.6551 63.3113H47.8161L53.3333 51.1064H55.0052L60.5224 63.3113H58.6834L57.513 60.3018ZM57.0115 58.9643L54.3364 52.9455L51.6614 58.9643H57.0115Z" fill="#D9000D"/>
<path d="M80.0836 63.478V54.617L75.7366 62.1405H74.9007L70.5538 54.7842V63.6452H68.8819V51.4404H70.3866L75.5695 60.1343L80.5851 51.4404H82.0898V63.6452H80.0836V63.478Z" fill="#D9000D"/>
<path d="M91.4524 51.2734H93.1243V63.4782H91.4524V51.2734Z" fill="#D9000D"/>
<path d="M113.689 51.2734V63.4782H112.184L104.828 54.2828V63.4782H103.156V51.2734H104.66L112.017 60.4688V51.2734H113.689Z" fill="#D9000D"/>
<path d="M131.912 57.2922H133.584V62.1407C132.915 62.6423 132.247 62.9767 131.411 63.3111C130.575 63.6454 129.739 63.6454 128.903 63.6454C127.732 63.6454 126.562 63.3111 125.559 62.8095C124.556 62.3079 123.72 61.472 123.218 60.636C122.717 59.6329 122.382 58.6298 122.382 57.4594C122.382 56.2891 122.717 55.1188 123.218 54.2828C123.72 53.2797 124.556 52.611 125.559 52.1094C126.562 51.6078 127.732 51.2734 128.903 51.2734C129.906 51.2734 130.742 51.4406 131.578 51.775C132.414 52.1094 133.083 52.611 133.584 53.1125L132.581 54.1157C131.578 53.1125 130.407 52.7781 129.07 52.7781C128.067 52.7781 127.231 52.9453 126.562 53.4469C125.893 53.9485 125.225 54.45 124.89 55.1188C124.389 55.7875 124.222 56.6235 124.222 57.6266C124.222 58.4626 124.389 59.2985 124.89 59.9673C125.392 60.636 125.893 61.3048 126.562 61.6392C127.231 61.9735 128.067 62.3079 129.07 62.3079C130.24 62.3079 131.076 61.9735 131.912 61.472V57.2922Z" fill="#D9000D"/>
</svg>
