<svg width="100" height="84" viewBox="0 0 100 84" fill="none" xmlns="http://www.w3.org/2000/svg">
<path d="M49.5635 83.3514H66.0482L49.5635 66.8667V83.3514Z" fill="white"/>
<path d="M33.0239 83.3514H49.5632V66.8667L33.0239 83.3514Z" fill="white"/>
<path d="M35.5348 60.9718H44.1047L22.0522 38.9194V47.4893L35.5348 60.9718Z" fill="white"/>
<path d="M22.0522 56.1137C22.0522 56.1137 22.6527 59.5525 26.692 60.9717H31.6592L22.0522 51.3647V56.1137Z" fill="white"/>
<path d="M22.0522 56.1136V51.3101L12.3906 60.9716H17.4125C21.3972 59.607 22.0522 56.1136 22.0522 56.1136Z" fill="white"/>
<path d="M22.0524 47.4893V38.9194L0 60.9718H8.56987L22.0524 47.4893Z" fill="white"/>
<path d="M8.56987 60.9717H0L22.0524 83.0241V74.4542L8.56987 60.9717Z" fill="white"/>
<path d="M17.4125 60.9717H12.3906L22.0522 70.6332V65.8298C22.0522 65.8298 21.3972 62.3909 17.4125 60.9717Z" fill="white"/>
<path d="M35.5348 60.9717L22.0522 74.4542V83.0241L44.1047 60.9717H35.5348Z" fill="white"/>
<path d="M22.0522 65.8298V70.6332L31.6592 60.9717H26.6374C22.6527 62.3909 22.0522 65.8298 22.0522 65.8298Z" fill="white"/>
<path d="M78.0024 56.1136C78.0024 56.1136 78.6029 59.5524 82.6422 60.9716H87.664L78.0024 51.3101V56.1136Z" fill="white"/>
<path d="M91.485 60.9718H100L78.0024 38.9194V47.4893L91.485 60.9718Z" fill="white"/>
<path d="M78.0019 56.1136V51.3101L68.3403 60.9716H73.3622C77.3469 59.607 78.0019 56.1136 78.0019 56.1136Z" fill="white"/>
<path d="M78.0021 47.4893V38.9194L55.9497 60.9718H64.5196L78.0021 47.4893Z" fill="white"/>
<path d="M73.3622 60.9717H68.3403L78.0019 70.6332V65.8298C78.0019 65.8298 77.3469 62.3909 73.3622 60.9717Z" fill="white"/>
<path d="M64.5196 60.9717H55.9497L78.0021 83.0241V74.4542L64.5196 60.9717Z" fill="white"/>
<path d="M91.485 60.9717L78.0024 74.4542V83.0241L100 60.9717H91.485Z" fill="white"/>
<path d="M78.0024 65.8298V70.6332L87.664 60.9717H82.6422C78.6029 62.3909 78.0024 65.8298 78.0024 65.8298Z" fill="white"/>
<path d="M49.5635 21.8884C49.5635 21.8884 50.3277 26.3098 55.4587 28.0566H61.8451L49.5635 15.7749V21.8884Z" fill="white"/>
<path d="M66.7032 28.0568H77.6202L49.5635 0V10.8624L66.7032 28.0568Z" fill="white"/>
<path d="M49.5635 10.8624V0L21.4521 28.0568H32.3692L49.5635 10.8624Z" fill="white"/>
<path d="M49.5634 21.8884V15.7749L37.2817 28.0566H43.6682C48.7446 26.3098 49.5634 21.8884 49.5634 21.8884Z" fill="white"/>
<path d="M43.6682 28.0566H37.2817L49.5634 40.3383V34.2248C49.5634 34.2248 48.7446 29.858 43.6682 28.0566Z" fill="white"/>
<path d="M49.5635 45.251L32.3692 28.0566H21.4521L49.5635 56.1134V45.251Z" fill="white"/>
<path d="M49.5635 34.2248V40.3383L61.8451 28.0566H55.4587C50.3277 29.858 49.5635 34.2248 49.5635 34.2248Z" fill="white"/>
<path d="M49.5635 45.251V56.1134L77.6202 28.0566H66.7032L49.5635 45.251Z" fill="white"/>
</svg>
